<svg width="11" height="12" viewBox="0 0 11 12" fill="none" xmlns="http://www.w3.org/2000/svg">
<path d="M1.33373 1.33398H10.0004C10.0964 1.36766 10.1834 1.42286 10.2548 1.49536C10.3262 1.56786 10.38 1.65574 10.4122 1.75227C10.4444 1.84879 10.4541 1.9514 10.4404 2.05223C10.4268 2.15306 10.3903 2.24944 10.3337 2.33398L7.0004 6.00065V10.6673L4.33373 8.66732V6.00065L1.0004 2.33398C0.943791 2.24944 0.907287 2.15306 0.893682 2.05223C0.880077 1.9514 0.889732 1.84879 0.921906 1.75227C0.954081 1.65574 1.00792 1.56786 1.0793 1.49536C1.15069 1.42286 1.23772 1.36766 1.33373 1.33398Z" stroke="#4A4D4B" stroke-linecap="round" stroke-linejoin="round"/>
</svg>
