<svg width="16" height="17" viewBox="0 0 16 17" fill="none" xmlns="http://www.w3.org/2000/svg">
    <path d="M8.875 4.01938V10.656C8.875 11.14 8.48398 11.5311 8 11.5311C7.51602 11.5311 7.125 11.14 7.125 10.656V4.01938L5.11797 6.02651C4.77617 6.36833 4.22109 6.36833 3.8793 6.02651C3.5375 5.6847 3.5375 5.12959 3.8793 4.78778L7.3793 1.28761C7.72109 0.945797 8.27617 0.945797 8.61797 1.28761L12.118 4.78778C12.4598 5.12959 12.4598 5.6847 12.118 6.02651C11.7762 6.36833 11.2211 6.36833 10.8793 6.02651L8.875 4.01938ZM2.75 10.656H6.25C6.25 11.6213 7.03477 12.4061 8 12.4061C8.96523 12.4061 9.75 11.6213 9.75 10.656H13.25C14.2152 10.656 15 11.4408 15 12.4061V13.2812C15 14.2464 14.2152 15.0312 13.25 15.0312H2.75C1.78477 15.0312 1 14.2464 1 13.2812V12.4061C1 11.4408 1.78477 10.656 2.75 10.656ZM12.8125 13.4999C12.9865 13.4999 13.1535 13.4308 13.2765 13.3077C13.3996 13.1846 13.4688 13.0177 13.4688 12.8436C13.4688 12.6696 13.3996 12.5027 13.2765 12.3796C13.1535 12.2565 12.9865 12.1874 12.8125 12.1874C12.6385 12.1874 12.4715 12.2565 12.3485 12.3796C12.2254 12.5027 12.1562 12.6696 12.1562 12.8436C12.1562 13.0177 12.2254 13.1846 12.3485 13.3077C12.4715 13.4308 12.6385 13.4999 12.8125 13.4999Z" fill="white"/>
</svg>
