<svg width="16" height="17" viewBox="0 0 16 17" fill="none" xmlns="http://www.w3.org/2000/svg">
<path d="M15.025 7.69857C13.686 5.28753 11.0351 3.65625 7.99978 3.65625C4.96447 3.65625 2.31286 5.28867 0.974584 7.6988C0.918101 7.80191 0.888672 7.91583 0.888672 8.03136C0.888672 8.1469 0.918101 8.26082 0.974584 8.36393C2.3136 10.775 4.96447 12.4062 7.99978 12.4062C11.0351 12.4062 13.6867 10.7738 15.025 8.3637C15.0815 8.26059 15.1109 8.14667 15.1109 8.03114C15.1109 7.9156 15.0815 7.80168 15.025 7.69857ZM7.99978 11.3125C7.29656 11.3125 6.60913 11.1201 6.02442 10.7595C5.43971 10.399 4.98398 9.8865 4.71487 9.28693C4.44576 8.68736 4.37535 8.02761 4.51254 7.39111C4.64973 6.75461 4.98837 6.16995 5.48562 5.71106C5.98287 5.25216 6.61642 4.93966 7.30613 4.81305C7.99584 4.68644 8.71074 4.75142 9.36044 4.99977C10.0101 5.24812 10.5654 5.66869 10.9561 6.20829C11.3468 6.74788 11.5553 7.38228 11.5553 8.03125C11.5556 8.46221 11.4638 8.88898 11.2852 9.28718C11.1066 9.68537 10.8447 10.0472 10.5145 10.3519C10.1842 10.6566 9.79219 10.8983 9.36071 11.0632C8.92922 11.228 8.46677 11.3127 7.99978 11.3125ZM7.99978 5.84375C7.78821 5.84648 7.578 5.87553 7.37484 5.93011C7.54231 6.14013 7.62267 6.39857 7.60135 6.65858C7.58004 6.91859 7.45846 7.16294 7.25867 7.34731C7.05888 7.53169 6.7941 7.64389 6.51236 7.66356C6.23062 7.68323 5.95056 7.60907 5.72299 7.45452C5.5934 7.89512 5.61679 8.36213 5.78987 8.78981C5.96295 9.2175 6.27701 9.58432 6.68783 9.83866C7.09866 10.093 7.58556 10.222 8.08002 10.2076C8.57448 10.1932 9.05159 10.0361 9.4442 9.75831C9.83681 9.48055 10.1251 9.09616 10.2686 8.65924C10.4121 8.22233 10.4035 7.75489 10.2441 7.32272C10.0846 6.89055 9.78229 6.51541 9.37969 6.2501C8.9771 5.98479 8.49449 5.84268 7.99978 5.84375Z" fill="#E9EDEF"/>
</svg>
