<svg width="80" height="60" viewBox="0 0 80 60" fill="none" xmlns="http://www.w3.org/2000/svg">
<g clip-path="url(#clip0_65_5242)">
<path fill-rule="evenodd" clip-rule="evenodd" d="M-0.0369562 27.3774H99.415V51.5824H-0.0487061L-0.0369562 27.3774Z" fill="white"/>
<path fill-rule="evenodd" clip-rule="evenodd" d="M0.0335693 0H99.4386V30.1505H0.0335693V0ZM0.0688197 45.3433H100.191V60.16H0.0688197V45.3433Z" fill="#081873"/>
<path fill-rule="evenodd" clip-rule="evenodd" d="M0.0688477 35.5557H99.4738V40.2087H0.0688477V35.5557Z" fill="#DE3929"/>
<path fill-rule="evenodd" clip-rule="evenodd" d="M29.8551 46.9062L30.6306 49.3032H33.1451L31.1006 50.7955L31.8761 53.2042L29.8551 51.7002L27.8106 53.1925L28.5978 50.7837L26.5533 49.2915H29.0796M51.7101 29.4222L52.4973 31.831H55.0001L52.9556 33.3115L53.7311 35.7202L51.6866 34.228L49.6421 35.7202L50.4176 33.3115L48.3731 31.831H50.9111M24.8261 39.398L25.6016 41.8067H28.1278L26.0951 43.3107L26.8823 45.7077L24.8378 44.2272L22.7933 45.7077L23.5688 43.3107L21.5243 41.8185H24.0506M51.7101 38.7165L52.4973 41.1135H55.0001L52.9556 42.6057L53.7311 45.0027L51.6866 43.5222L49.6421 45.0145L50.4176 42.6057L48.3731 41.1135H50.9111M46.1523 22.1137L46.9396 24.5107H49.4776L47.4331 26.003L48.2086 28.4117L46.1641 26.9195L44.1196 28.4117L44.9068 26.003L42.8506 24.5107H45.3886M37.8098 19.1997L38.5971 21.6085H41.1233L39.0788 23.089L39.8543 25.4977L37.8098 24.0172L35.7653 25.4977L36.5526 23.089L34.5081 21.6085H37.0226M29.4438 21.9492L30.2311 24.358H32.7573L30.7128 25.8385L31.5001 28.2472L29.4438 26.755L27.3993 28.2472L28.1866 25.8385L26.1421 24.358H28.6801M24.5911 29.434L25.3666 31.8427H27.9046L25.8483 33.3232L26.6356 35.732L24.5911 34.2397L22.5466 35.732L23.3221 33.3232L21.2776 31.8427H23.8038M37.8098 49.3972L38.5971 51.806H41.1233L39.0788 53.2865L39.8661 55.6952L37.8098 54.203L35.7653 55.6952L36.5526 53.2865L34.5081 51.806H37.0226M46.6811 46.9062L47.4566 49.3032H49.9828L47.9501 50.7955L48.7373 53.2042L46.6928 51.712L44.6366 53.2042L45.4238 50.7955L43.3793 49.3032H45.9056" fill="#FFCE08"/>
</g>
<defs>
<clipPath id="clip0_65_5242">
<rect width="80" height="60" fill="white"/>
</clipPath>
</defs>
</svg>
