<?xml version="1.0" encoding="utf-8"?>
<!-- Generator: Adobe Illustrator 27.3.1, SVG Export Plug-In . SVG Version: 6.00 Build 0)  -->
<svg version="1.1" id="Layer_1" xmlns="http://www.w3.org/2000/svg" xmlns:xlink="http://www.w3.org/1999/xlink" x="0px" y="0px"
	 viewBox="0 0 376 210.4" style="enable-background:new 0 0 376 210.4;" xml:space="preserve">
<style type="text/css">
	.st0{fill:#163161;}
	.st1{fill:#49B97A;}
	.st2{fill:#49E37A;}
	.st3{fill:#499A7A;}
	.st4{fill:#0077B0;}
	.st5{fill:#FFFFFF;}
	.st6{fill:#FE9F2B;}
	.st7{fill:#FEA12B;}
	.st8{fill:#ECECEC;}
	.st9{opacity:0.5;fill:#FEA12B;enable-background:new    ;}
	.st10{opacity:0.5;}
	.st11{fill:#CCCECF;}
	.st12{fill:#EB372B;}
	.st13{opacity:0.5;fill:#EB687C;enable-background:new    ;}
	.st14{fill:#AE202A;}
	.st15{fill:none;stroke:#163161;stroke-width:2;stroke-linecap:round;stroke-linejoin:round;}
</style>
<g>
	<g id="Layer_2_00000100370650970532429310000011300456466398127756_">
		<g id="OBJECTS">
			<g>
				<g>
					<path class="st0" d="M165.8,3.6c0-1.9,1.6-3.5,3.5-3.5l14.9,0c1.9,0,3.4,1.6,3.4,3.5l0,0c0,1.9-1.6,3.5-3.5,3.5l-14.9,0
						C167.4,7.1,165.8,5.5,165.8,3.6C165.8,3.6,165.8,3.6,165.8,3.6z"/>
					<g>
						<g>
							<path class="st1" d="M127.1,46.6c0,0,2.8,11.1,2.8,21.2S126.7,87,126.7,87l30.8,0.1h2.7l30.8,0.1c0,0-3.1-9.2-3.1-19.3
								s2.9-21.1,2.9-21.1s-1.9-10.4-1.9-20.5c0-8.8,3.4-18,3.4-18l-31.9-2.4V5.6L159,5.7l-1.3-0.1v0.2l-31.9,2.3
								c0,0,3.3,9.2,3.3,18C129,36.2,127.1,46.6,127.1,46.6L127.1,46.6z"/>
							<path class="st2" d="M184.3,46.7c0,0-2.9,11-2.9,21.1c0,10.1,3.1,19.3,3.1,19.3h6.4c0,0-3.1-9.2-3.1-19.3s2.9-21.1,2.9-21.1
								s-1.9-10.4-1.9-20.5c0-8.8,3.4-18,3.4-18l-31.9-2.4V5.6L159,5.7l-1.3-0.1v0.2l-1.9,0.1l30,2.3c0,0-3.3,9.1-3.4,18
								C182.4,36.3,184.3,46.7,184.3,46.7L184.3,46.7z"/>
							<path class="st3" d="M127.1,46.6c0,0,2.8,11.1,2.8,21.2S126.7,87,126.7,87l13.5,0c0,0,3.2-9.1,3.2-19.2
								c0-10.1-2.8-21.2-2.8-21.2s1.9-10.4,1.9-20.5c0-8.8-3.3-18-3.3-18l26.5-1.9l-5.4-0.4V5.6L159,5.7l-1.3-0.1v0.2l-31.9,2.3
								c0,0,3.3,9.2,3.3,18C129,36.2,127.1,46.6,127.1,46.6L127.1,46.6z"/>
							<path class="st4" d="M124.2,6L124.2,6c0-1.1,0.9-2.1,2.1-2.1l66,0.2c1.1,0,2.1,0.9,2.1,2.1l0,0c0,1.1-0.9,2.1-2.1,2.1
								l-66-0.1C125.1,8.1,124.2,7.2,124.2,6L124.2,6z"/>
							<path class="st4" d="M124.1,46.7L124.1,46.7c0-1.1,0.9-2,2.1-2l66,0.2c1.1,0,2.1,0.9,2.1,2.1l0,0c0,1.1-0.9,2-2.1,2l-66-0.2
								C125,48.8,124.1,47.9,124.1,46.7L124.1,46.7z"/>
							<path class="st4" d="M124,87.4L124,87.4c0-1.1,0.9-2.1,2.1-2.1l66,0.2c1.1,0,2.1,0.9,2.1,2.1l0,0c0,1.1-0.9,2-2.1,2l-66-0.2
								C124.9,89.5,124,88.6,124,87.4L124,87.4z"/>
						</g>
						<path class="st5" d="M160.3,31c8.6,0,15.6,7,15.6,15.6c0,8.6-7,15.6-15.6,15.6s-15.6-7-15.6-15.7C144.7,38,151.7,31,160.3,31z
							"/>
					</g>
					<g>
						<g>
							<path class="st6" d="M153.1,47.8c0-4.7,7.2-11,7.2-11s7.2,6.3,7.2,11c0,4.7-3.2,7.7-7.2,7.7
								C156.3,55.5,153.1,52.6,153.1,47.8L153.1,47.8z"/>
							<path class="st7" d="M164.6,54.1c-13.9-2.7-4.3-17.3-4.3-17.3s-7.2,6.2-7.2,11c0,4.7,3.2,7.7,7.2,7.7
								C161.9,55.5,163.4,55,164.6,54.1L164.6,54.1z"/>
						</g>
						<path class="st5" d="M155.2,45.7c0,0,0.1,5.8,5.1,7c-2.3-3.2-3.5-5.3-3.5-5.3c2.4,1,3.5,5.3,3.5,5.3s0-0.1,0-0.2
							c0,0.1,0,0.2,0,0.2s1.1-4.2,3.5-5.3c0,0-1.2,2.1-3.5,5.3c5-1.2,5.1-7,5.1-7c-4.1,0-4.9,3.3-5.1,5.4
							C160.1,49,159.3,45.7,155.2,45.7z"/>
					</g>
				</g>
				<g>
					<path class="st0" d="M88.2,3.5L88.2,3.5c0-1.9,1.6-3.5,3.5-3.5l14.9,0c1.9,0,3.5,1.6,3.5,3.5l0,0c0,1.9-1.6,3.5-3.5,3.5
						l-14.9,0C89.8,6.9,88.2,5.4,88.2,3.5L88.2,3.5z"/>
					<g>
						<g>
							<path class="st1" d="M49.5,46.4c0,0,2.8,11.1,2.8,21.2c0,10.1-3.2,19.2-3.2,19.2l30.8,0.1h2.7l30.8,0.1c0,0-3.1-9.2-3.1-19.3
								c0-10.1,2.9-21.1,2.9-21.1s-1.9-10.4-1.9-20.5c0-8.8,3.4-18,3.4-18L82.7,5.6V5.4l-1.3,0.1l-1.3-0.1v0.2L48.2,7.9
								c0,0,3.3,9.2,3.3,18C51.4,36,49.5,46.4,49.5,46.4L49.5,46.4z"/>
							<path class="st2" d="M106.7,46.5c0,0-2.9,11-2.9,21.1c0,10.1,3.1,19.3,3.1,19.3h6.4c0,0-3.1-9.2-3.1-19.3
								c0-10.1,2.9-21.1,2.9-21.1s-1.9-10.4-1.9-20.5c0-8.8,3.4-18,3.4-18L82.7,5.6V5.4l-1.3,0.1L80,5.4v0.2l-1.9,0.1l30,2.3
								c0,0-3.3,9.1-3.4,18C104.8,36.1,106.7,46.5,106.7,46.5L106.7,46.5z"/>
							<path class="st3" d="M49.5,46.4c0,0,2.8,11.1,2.8,21.2c0,10.1-3.2,19.2-3.2,19.2l13.5,0c0,0,3.2-9.1,3.2-19.2
								c0-10.1-2.8-21.2-2.8-21.2s1.9-10.4,1.9-20.5c0-8.8-3.3-18-3.3-18L88.1,6l-5.4-0.4V5.4l-1.3,0.1l-1.3-0.1v0.2L48.2,7.9
								c0,0,3.3,9.2,3.3,18C51.4,36,49.5,46.4,49.5,46.4L49.5,46.4z"/>
							<path class="st4" d="M46.6,5.8L46.6,5.8c0-1.1,0.9-2.1,2-2.1l66,0.2c1.1,0,2,0.9,2,2.1l0,0c0,1.1-0.9,2.1-2.1,2.1l-66-0.1
								C47.5,7.9,46.6,7,46.6,5.8L46.6,5.8z"/>
							<path class="st4" d="M46.5,46.6c0-1.1,0.9-2,2.1-2l66,0.2c1.1,0,2,0.9,2,2.1l0,0c0,1.1-0.9,2-2.1,2l-66-0.2
								C47.4,48.6,46.5,47.7,46.5,46.6L46.5,46.6z"/>
							<path class="st4" d="M46.4,87.3c0-1.1,0.9-2.1,2.1-2.1l66,0.2c1.1,0,2,0.9,2,2.1l0,0c0,1.1-0.9,2-2.1,2l-66-0.2
								C47.3,89.3,46.4,88.4,46.4,87.3C46.4,87.3,46.4,87.3,46.4,87.3z"/>
						</g>
						<path class="st5" d="M82.7,30.9c8.6,0,15.6,7,15.6,15.6s-7,15.6-15.6,15.6c-8.6,0-15.6-7-15.6-15.7S74.1,30.8,82.7,30.9z"/>
					</g>
					<g>
						<g>
							<path class="st6" d="M75.7,47.8c0-4.7,7.2-11,7.2-11s7.2,6.3,7.2,11c0,4.7-3.2,7.7-7.2,7.7C78.9,55.5,75.7,52.5,75.7,47.8
								L75.7,47.8z"/>
							<path class="st7" d="M87.2,54.1c-13.9-2.7-4.3-17.3-4.3-17.3s-7.2,6.2-7.2,11c0,4.7,3.2,7.7,7.2,7.7
								C84.5,55.5,86,55,87.2,54.1L87.2,54.1z"/>
						</g>
						<path class="st5" d="M82.9,51c-0.1-2.1-1-5.4-5.1-5.4c0,0,0.1,5.8,5,7c-2.3-3.2-3.5-5.3-3.5-5.3c2.4,1,3.5,5.3,3.5,5.3
							s0-0.1,0-0.2c0,0.1,0,0.2,0,0.2s1.1-4.2,3.5-5.3c0,0-1.2,2.1-3.5,5.3c5-1.2,5-7,5-7C83.9,45.6,83.1,48.9,82.9,51L82.9,51z"/>
					</g>
				</g>
				<g>
					<path class="st5" d="M196.5,84.5l0.1-32.5c0-5.3,4.3-9.6,9.6-9.6l0,0c5.3,0,9.6,4.3,9.6,9.7l-0.1,32.5c0,5.3-4.3,9.6-9.6,9.6
						l0,0C200.8,94.1,196.5,89.8,196.5,84.5L196.5,84.5z"/>
					<g>
						<path class="st5" d="M234.7,97.9l0.1-51.9l56.4,0.1c7.1,0,10.2,2.4,12.9,9.8L318.2,98L234.7,97.9L234.7,97.9z"/>
						<g>
							<path class="st6" d="M46.3,93.7c-8.5,0-10,6.1-10,14.7l-0.1,56.8c1.2-0.5,2.6-0.8,4-0.8l45.1,0.1c4.4-18.6,21.1-32.4,41-32.4
								c19.9,0.1,36.6,14,40.9,32.6l84.7,0.2c4.4-18.6,21.1-32.4,41-32.4c19.9,0.1,36.6,14,40.9,32.6l32,0.1c1.5,0,2.9,0.3,4.1,0.9
								l0.1-47.3c0-8.5-5.7-12.4-15.4-15.5l-40.9-7.7l-17.5-51.8c-2.4-7.6-5.1-10.1-13.6-10.2l-81.9-0.2l-0.1,60.6L46.3,93.7l0.1,0
								L46.3,93.7L46.3,93.7z"/>
							<path class="st5" d="M216.8,94.4l0.1-51.6l56.4,0.1c7.1,0,10.9,6.6,12.9,12.9l13.1,38.7L216.8,94.4L216.8,94.4z"/>
							<path class="st4" d="M218.9,61.1c-0.7,0-1.4,0.1-2.1,0.3l-0.1,25l0,8l22.9,0.1c-1-6-5.3-8-12.6-8h-1.3l0-18.4
								C225.8,64.2,222.7,61.1,218.9,61.1z"/>
							<path class="st8" d="M256.2,42.9l-39.3-0.1l0,9.8l51,0.1c0.4,1,0.8,2.1,1.1,3.1l13.1,38.7l13.9,0h3.3l-13.1-38.7
								c-2-6.3-5.7-12.9-12.9-12.9C273.4,43,256.2,42.9,256.2,42.9z"/>
							<path class="st4" d="M289.3,78.8c-1.1,0-2.1,0.9-2.1,2.1l0,13.7h3.2h1l8,0l-3.2-9.6h-4.7v-1.4v-2.7
								C291.3,79.7,290.4,78.8,289.3,78.8L289.3,78.8z"/>
							<path class="st0" d="M283,139.7c-19.2,0-34.8,15.5-34.9,34.7s15.5,34.8,34.7,34.9c19.2,0,34.8-15.5,34.9-34.7
								S302.2,139.8,283,139.7z"/>
							<g>
								<path class="st0" d="M333.6,165.1l11.9,0l-0.1,20.6l-266.9-0.6l-0.7-20.6l7.3,0c4.4-18.6,21.1-32.4,41-32.4
									c19.9,0.1,36.6,14,40.8,32.6l84.7,0.2c4.4-18.6,21.1-32.4,41-32.4C312.7,132.6,329.3,146.5,333.6,165.1L333.6,165.1z"/>
								<path class="st0" d="M153.4,174.3c0-19.2-15.5-34.8-34.7-34.9c-19.2,0-34.8,15.5-34.9,34.7c0,19.2,15.5,34.8,34.7,34.9
									C137.7,209,153.3,193.5,153.4,174.3L153.4,174.3z"/>
								<path class="st9" d="M207.9,153l-45.6-0.1c2.1,3.6,3.8,7.6,4.7,11.9l40.8,0.1h3.1l40.8,0.1c1-4.2,2.6-8.2,4.8-11.9L211,153
									l0.3-119.5h-3.1L207.9,153L207.9,153z"/>
								<g>
									<g>
										<g class="st10">
											<path class="st7" d="M333.6,165.1l32,0.1c1.5,0,2.9,0.3,4.1,0.9l0-12.7l-40.9-0.1C331,156.9,332.7,160.9,333.6,165.1
												L333.6,165.1z"/>
										</g>
										<g class="st10">
											<path class="st7" d="M36.2,152.6l0,12.6c1.2-0.5,2.6-0.8,4-0.8l45.1,0.1c1-4.2,2.6-8.2,4.8-11.9L36.2,152.6z"/>
										</g>
									</g>
								</g>
								<g>
									<path class="st11" d="M369.8,166.1c3.6,1.6,6.2,5.2,6.2,9.5c0,5.7-4.6,10.3-10.3,10.3l-23.7-0.1c-8,0-7.2-8.1-7.2-11.1
										c0-3.3-0.4-6.5-1.1-9.5l32,0.1C367.1,165.2,368.5,165.5,369.8,166.1L369.8,166.1z"/>
									<path class="st11" d="M250.6,174.5c0,3,0.8,11.1-8.5,11.1l-66.5-0.1c-9.8,0-7.4-8.1-7.4-11.1c0-3.3-0.4-6.5-1.1-9.5
										l84.7,0.2C251.1,168,250.7,171.2,250.6,174.5L250.6,174.5z"/>
									<path class="st11" d="M84.1,174.1c0,10.6-3.1,11.1-5.4,11.1l-38.6-0.1c-5.7,0-10.3-4.6-10.3-10.3c0-4.3,2.6-8,6.4-9.5
										c1.2-0.5,2.6-0.8,4-0.8l45.1,0.1C84.5,167.6,84.1,170.8,84.1,174.1L84.1,174.1z"/>
								</g>
							</g>
							<path class="st4" d="M292.8,139.8c-19.2,0-34.8,15.5-34.9,34.7s15.5,34.8,34.7,34.9c19.2,0,34.8-15.5,34.9-34.7
								C327.5,155.4,312,139.8,292.8,139.8z"/>
							<path class="st0" d="M292.7,158.8c-8.7,0-15.7,7-15.8,15.7c0,8.7,7,15.7,15.7,15.8c8.7,0,15.7-7,15.8-15.7
								C308.4,165.9,301.4,158.9,292.7,158.8z"/>
							<path class="st4" d="M126.2,139.4c-19.2,0-34.8,15.5-34.9,34.7s15.5,34.8,34.7,34.9c19.2,0,34.8-15.5,34.9-34.7
								C161,155.1,145.4,139.4,126.2,139.4z"/>
							<path class="st11" d="M173.4,164.7h-6.3c-4.3-18.6-20.9-32.5-40.9-32.6s-36.6,13.8-41,32.4h-6.3c4.5-22,24-38.6,47.4-38.6
								S169,142.7,173.4,164.7L173.4,164.7z"/>
							<path class="st11" d="M292.8,126.4c23.4,0,42.8,16.7,47.2,38.8h-6.3c-4.3-18.6-20.9-32.5-40.9-32.6
								c-19.9,0-36.6,13.8-41,32.4h-6.3C249.9,142.9,269.4,126.3,292.8,126.4L292.8,126.4z"/>
							<path class="st0" d="M141.9,174.2c0-8.7-7-15.7-15.7-15.8c-8.7,0-15.7,7-15.8,15.7c0,8.7,7,15.7,15.7,15.8
								C134.8,189.9,141.8,182.9,141.9,174.2L141.9,174.2z"/>
							<path class="st5" d="M126.1,166.7c-4.1,0-7.5,3.3-7.5,7.5s3.3,7.5,7.5,7.5c4.1,0,7.5-3.3,7.5-7.5
								C133.6,170.1,130.3,166.7,126.1,166.7z"/>
							<path class="st5" d="M292.9,167.1c-4.1,0-7.5,3.3-7.5,7.5c0,4.1,3.3,7.5,7.5,7.5c4.1,0,7.5-3.3,7.5-7.5
								C300.3,170.4,297,167.1,292.9,167.1z"/>
							<path class="st5" d="M201.3,109.9c0-1.8-1.5-3.4-3.3-3.4l-16,0c-1.9,0-3.4,1.5-3.4,3.3l0,0c0,1.8,1.5,3.4,3.3,3.4l16,0
								C199.8,113.3,201.3,111.8,201.3,109.9L201.3,109.9z"/>
							<path class="st0" d="M336.5,184.1l32.2,0.1c1.1,0,1.6,0.5,1.6,0.9c0,0.7-0.8,1.1-1.7,1.1l-32.2-0.1
								C334.9,186.2,335,184.1,336.5,184.1z"/>
							<path class="st0" d="M216.1,183.9l32.2,0.1c1.1,0,1.6,0.5,1.6,0.9c0,0.7-0.8,1.1-1.7,1.1l-32.2-0.1
								C214.5,185.9,214.6,183.9,216.1,183.9z"/>
							<path class="st0" d="M217.3,93.2l83.3,0.2c1,0,1.6,0.5,1.6,0.9c0,0.7-0.8,1.1-1.7,1.1l-83.3-0.2
								C215.7,95.3,215.8,93.2,217.3,93.2z"/>
							<path class="st0" d="M169.3,185.8c-1.5,0-1.4-2.1,0.1-2.1l17.4,0c1.1,0,1.6,0.5,1.6,0.9c0,0.7-0.8,1.1-1.7,1.1L169.3,185.8
								L169.3,185.8z"/>
							<path class="st0" d="M49.9,183.5l32,0.1c1,0,1.6,0.5,1.6,0.9c0,0.7-0.8,1.1-1.7,1.1l-32-0.1
								C48.3,185.5,48.4,183.5,49.9,183.5z"/>
							<path class="st12" d="M195.9,38.3c0-3.1,2.8-5.5,5.8-5.5l91.4,0.2c2.9,0,5.3,2.5,5.3,5.6l0,0c0,3.1-2.4,5.5-5.3,5.5
								l-91.4-0.2C198.7,43.9,195.9,41.4,195.9,38.3L195.9,38.3z"/>
							<path class="st13" d="M280.6,44.1l12.5,0c2.9,0,5.3-2.5,5.3-5.5c0-3.1-2.4-5.6-5.3-5.6l-12.5,0c2.9,0,5.3,2.5,5.3,5.6
								C285.9,41.6,283.5,44.1,280.6,44.1z"/>
							<path class="st12" d="M35.4,90.6c0-3.1,3.4-5.5,6.4-5.5L198,85.4c2.9,0,5.3,2.5,5.3,5.6l0,0c0,3.1-2.4,5.5-5.3,5.5L41.7,96.1
								C38.8,96.1,35.4,93.6,35.4,90.6L35.4,90.6z"/>
							<path class="st14" d="M35.4,90.6c0,3.1,3.4,5.6,6.3,5.6l17.6,0c-2.9,0-6.3-2.5-6.3-5.6c0-3.1,3.4-5.5,6.4-5.5l-17.6,0
								C38.8,85,35.4,87.5,35.4,90.6z"/>
							<path class="st13" d="M179.6,96.4l18.3,0c2.9,0,5.3-2.5,5.3-5.5c0-3.1-2.4-5.6-5.3-5.6l-18.3,0c2.9,0,5.3,2.5,5.3,5.6
								C184.9,93.9,182.5,96.4,179.6,96.4z"/>
						</g>
						<path class="st7" d="M78.6,109.9c6.3,0,11.3,5.1,11.3,11.4c0,6.3-5.1,11.3-11.4,11.3c-6.3,0-11.3-5.1-11.3-11.4
							C67.2,114.9,72.3,109.9,78.6,109.9z"/>
						<path class="st0" d="M65.7,123.1c0,6.3,5.1,11.4,11.3,11.4c4.1,0,7.6-2.1,9.6-5.4c-2.1,2.1-5,3.5-8.2,3.5
							c-6.3,0-11.3-5.1-11.3-11.4c0-2.2,0.6-4.2,1.7-6C67,117.3,65.7,120.1,65.7,123.1z"/>
						<path class="st12" d="M354.5,103.3l-3.1-0.6l0,18.4c0,7.6,6.1,13.7,13.6,13.7c1.7,0,3.4-0.3,4.9-0.9l0-15.1
							C369.9,110.2,364.2,106.4,354.5,103.3L354.5,103.3z"/>
						<path class="st0" d="M370.6,165.3c0,1.5-2.1,1.4-2.1-0.1l0.1-32.2c0-1.1,0.5-1.6,0.9-1.6c0.7,0,1.1,0.8,1.1,1.7L370.6,165.3
							L370.6,165.3z"/>
						<path class="st12" d="M46.2,105c-2,0-6-0.1-9.8-0.1c-0.1,1.1-0.1,2.3-0.1,3.5l-0.1,25.5c5.7-1.6,10-6.9,10-13.1L46.2,105
							L46.2,105z"/>
						<path class="st0" d="M37.2,164.6c0,1.5-2.1,1.4-2.1-0.1l0.1-32.2c0-1.1,0.5-1.6,1-1.6c0.7,0,1.1,0.8,1.1,1.7L37.2,164.6
							L37.2,164.6z"/>
					</g>
				</g>
				<path class="st0" d="M42.1,86.4c-1.5,0-1.4-2.1,0.1-2.1l156,0.3c1.1,0,1.6,0.5,1.6,0.9c0,0.7-0.8,1.1-1.7,1.1L42.1,86.4
					L42.1,86.4z"/>
				<path class="st0" d="M199,210c-1.5,0-1.4-2.1,0.1-2.1l156,0.4c1,0,1.6,0.5,1.6,0.9c0,0.7-0.8,1.1-1.7,1.1L199,210L199,210z"/>
				<path class="st0" d="M91.4,207.7l71.7,0.2c1.1,0,1.6,0.5,1.6,0.9c0,0.7-0.8,1.1-1.7,1.1l-71.6-0.2
					C89.7,209.8,89.8,207.7,91.4,207.7z"/>
				<path class="st5" d="M11.1,106.1c-1.5,0-1.4-2.1,0.1-2.1l36.5,0.1c1,0,1.6,0.5,1.6,0.9c0,0.7-0.8,1.1-1.7,1.1L11.1,106.1
					L11.1,106.1z"/>
				<path class="st5" d="M1.1,113.1c-1.5,0-1.4-2.1,0.1-2.1l36.5,0.1c1,0,1.6,0.5,1.6,0.9c0,0.7-0.8,1.1-1.7,1.1L1.1,113.1
					L1.1,113.1z"/>
				<path class="st5" d="M118.3,23.3c-1.5,0-1.4-2.1,0.1-2.1l36.5,0.1c1.1,0,1.6,0.5,1.6,1c0,0.7-0.8,1.1-1.7,1.1L118.3,23.3
					L118.3,23.3z"/>
				<path class="st5" d="M333.6,133.8c-1.5,0-1.4-2.1,0.1-2.1l36.5,0.1c1.1,0,1.6,0.5,1.6,0.9c0,0.7-0.8,1.1-1.7,1.1L333.6,133.8
					L333.6,133.8z"/>
				<path class="st5" d="M318.6,124.8c-1.5,0-1.5-2.1,0.1-2.1l36.6,0.1c1,0,1.6,0.5,1.6,0.9c0,0.7-0.8,1.1-1.7,1.1L318.6,124.8
					L318.6,124.8z"/>
				<path class="st5" d="M248.9,53.5c-2.2,0.2-6.1,0.6-9.5,1.2c0.2,1,0.4,2.2,1.3,2.3c1,0.1,6.8-0.2,7.6-1.2
					C248.9,55.3,249,54.2,248.9,53.5L248.9,53.5z"/>
				<g>
					<path class="st15" d="M320,171.9c0-17.5-15-23-15-23"/>
					<path class="st15" d="M266.5,189.2c2.9,5.6,8.4,10.2,14.5,11.9"/>
				</g>
				<g>
					<path class="st15" d="M154.6,171.5c0-17.5-15-23-15-23"/>
					<path class="st15" d="M101.2,188.8c2.9,5.6,8.4,10.2,14.5,11.9"/>
				</g>
			</g>
		</g>
	</g>
</g>
</svg>
