<?xml version="1.0" encoding="UTF-8"?>
<svg id="Layer_2" data-name="Layer 2" xmlns="http://www.w3.org/2000/svg" xmlns:xlink="http://www.w3.org/1999/xlink" viewBox="0 0 48 48">
  <defs>
    <style>
      .cls-1 {
        fill: #fff;
      }

      .cls-2 {
        fill: #cfa477;
      }

      .cls-3 {
        clip-path: url(#clippath-7);
      }

      .cls-3, .cls-4, .cls-5, .cls-6 {
        fill: #070707;
      }

      .cls-7 {
        clip-path: url(#clippath-2);
      }

      .cls-8 {
        clip-path: url(#clippath-6);
      }

      .cls-9 {
        fill: #9e724a;
      }

      .cls-10 {
        fill: #855a2d;
      }

      .cls-11 {
        clip-path: url(#clippath-1);
      }

      .cls-12 {
        clip-path: url(#clippath-4);
      }

      .cls-13 {
        fill: #77554c;
      }

      .cls-14 {
        fill: #f9bb41;
      }

      .cls-15 {
        fill: #b6bbc2;
      }

      .cls-16 {
        fill: #684842;
      }

      .cls-17 {
        clip-path: url(#clippath);
      }

      .cls-18 {
        stroke-width: .81px;
      }

      .cls-18, .cls-19 {
        stroke: #d88f0e;
        stroke-miterlimit: 10;
      }

      .cls-18, .cls-19, .cls-20 {
        fill: #eae1dc;
      }

      .cls-21 {
        fill: none;
      }

      .cls-19 {
        stroke-width: .74px;
      }

      .cls-22 {
        clip-path: url(#clippath-8);
      }

      .cls-4 {
        clip-path: url(#clippath-5);
      }

      .cls-6 {
        clip-path: url(#clippath-3);
      }

      .cls-23 {
        fill: #7eb239;
      }

      .cls-24 {
        fill: #f46e6e;
      }
    </style>
    <clipPath id="clippath">
      <rect class="cls-21" width="48" height="48"/>
    </clipPath>
    <clipPath id="clippath-1">
      <path class="cls-20" d="m27.16,16.63v-4.86c0-.19-.15-.35-.34-.35h-8.51c-.19,0-.34.16-.34.35v4.86l-1.92,24h13.44l-2.33-24Z"/>
    </clipPath>
    <clipPath id="clippath-2">
      <path class="cls-20" d="m34.6,20.47v-4.31c0-.17-.08-.31-.17-.31h-4.21c-.09,0-.17.14-.17.31v4.31l-.95,21.29h6.65l-1.15-21.29Z"/>
    </clipPath>
    <clipPath id="clippath-3">
      <path class="cls-13" d="m11.97,37.46c-.23,1.5.52,2.87,1.69,3.23v.02s10.99,1.91,10.99,1.91l.02-.03c-2.07-.31-3.48-2.32-3.15-4.48.26-1.75,1.59-3.07,3.18-3.34l-10.15.1h0c-1.23,0-2.35,1.09-2.57,2.59Z"/>
    </clipPath>
    <clipPath id="clippath-4">
      <path class="cls-6" d="m13.66,40.74h-.03s0-.03,0-.03c-1.19-.38-1.91-1.77-1.69-3.26h0c.23-1.49,1.34-2.61,2.6-2.61h0l10.15-.1v.06c-1.62.28-2.89,1.61-3.15,3.32-.16,1.04.08,2.08.67,2.92.59.84,1.46,1.39,2.45,1.54h.04s-.05.08-.05.08l-11.01-1.92Zm.89-5.84h0c-1.23,0-2.32,1.1-2.54,2.56h0c-.22,1.46.5,2.84,1.67,3.2h.02s0,.03,0,.03l10.45,1.82c-.79-.24-1.47-.74-1.96-1.44-.6-.85-.84-1.9-.68-2.96.25-1.63,1.41-2.93,2.93-3.31l-9.88.09Z"/>
    </clipPath>
    <clipPath id="clippath-5">
      <path class="cls-13" d="m8.74,32.48c0,1.51.94,2.76,2.16,2.94v.02s11.16.25,11.16.25v-.03c-2.08,0-3.77-1.77-3.77-3.96,0-1.77,1.11-3.27,2.64-3.78l-10.02,1.61h0c-1.22.18-2.16,1.43-2.16,2.94Z"/>
    </clipPath>
    <clipPath id="clippath-6">
      <path class="cls-4" d="m10.89,35.47h-.03v-.03c-1.23-.2-2.16-1.47-2.16-2.97,0-1.51.94-2.79,2.18-2.97l10.02-1.61v.05c-1.56.52-2.61,2.03-2.61,3.75,0,2.17,1.68,3.94,3.76,3.94h.04l-.04.08-11.17-.25Zm0-5.91c-1.22.18-2.13,1.43-2.13,2.92,0,1.48.92,2.73,2.13,2.92h.02v.02l10.61.24c-1.85-.27-3.27-1.94-3.27-3.95,0-1.65.95-3.11,2.4-3.71l-9.75,1.57Z"/>
    </clipPath>
    <clipPath id="clippath-7">
      <path class="cls-13" d="m4.93,37.46c-.23,1.5.52,2.87,1.69,3.23v.02s10.99,1.91,10.99,1.91l.02-.03c-2.07-.31-3.48-2.32-3.15-4.48.26-1.75,1.59-3.07,3.18-3.34l-10.15.1h0c-1.23,0-2.35,1.09-2.57,2.59Z"/>
    </clipPath>
    <clipPath id="clippath-8">
      <path class="cls-3" d="m6.62,40.74h-.03s0-.03,0-.03c-1.19-.38-1.91-1.77-1.69-3.26h0c.23-1.49,1.34-2.61,2.6-2.61h0l10.15-.1v.06c-1.62.28-2.89,1.61-3.15,3.32-.16,1.04.08,2.08.67,2.92.59.84,1.46,1.39,2.45,1.54h.04s-.05.08-.05.08l-11.01-1.92Zm.89-5.84h0c-1.23,0-2.32,1.1-2.54,2.56h0c-.22,1.46.5,2.84,1.67,3.2h.02s0,.03,0,.03l10.45,1.82c-.79-.24-1.47-.74-1.96-1.44-.6-.85-.84-1.9-.68-2.96.25-1.63,1.41-2.93,2.93-3.31l-9.88.09Z"/>
    </clipPath>
  </defs>
  <g id="Layer_1-2" data-name="Layer 1">
    <g class="cls-17">
      <g>
        <g>
          <path class="cls-20" d="m27.16,16.63v-4.86c0-.19-.15-.35-.34-.35h-8.51c-.19,0-.34.16-.34.35v4.86l-1.92,24h13.44l-2.33-24Z"/>
          <g class="cls-11">
            <rect class="cls-24" x="17.19" y="15.02" width="11.72" height="4.98"/>
          </g>
        </g>
        <g>
          <path class="cls-20" d="m34.6,20.47v-4.31c0-.17-.08-.31-.17-.31h-4.21c-.09,0-.17.14-.17.31v4.31l-.95,21.29h6.65l-1.15-21.29Z"/>
          <g class="cls-7">
            <rect class="cls-24" x="29.67" y="19.41" width="5.8" height="2.95"/>
          </g>
        </g>
        <rect class="cls-14" x="15.05" y="25.66" width="27.47" height="16.91" rx="1.28" ry="1.28"/>
        <rect class="cls-18" x="34.38" y="34.1" width="5.7" height="7.58"/>
        <rect class="cls-19" x="20.01" y="29.44" width="5" height="2.77"/>
        <rect class="cls-19" x="26.93" y="29.44" width="5" height="2.77"/>
        <rect class="cls-19" x="26.93" y="33.8" width="5" height="2.77"/>
        <rect class="cls-19" x="20.01" y="33.8" width="5" height="2.77"/>
        <g>
          <g>
            <g>
              <path class="cls-13" d="m11.97,37.46c-.23,1.5.52,2.87,1.69,3.23v.02s10.99,1.91,10.99,1.91l.02-.03c-2.07-.31-3.48-2.32-3.15-4.48.26-1.75,1.59-3.07,3.18-3.34l-10.15.1h0c-1.23,0-2.35,1.09-2.57,2.59Z"/>
              <path class="cls-5" d="m13.66,40.74h-.03s0-.03,0-.03c-1.19-.38-1.91-1.77-1.69-3.26h0c.23-1.49,1.34-2.61,2.6-2.61h0l10.15-.1v.06c-1.62.28-2.89,1.61-3.15,3.32-.16,1.04.08,2.08.67,2.92.59.84,1.46,1.39,2.45,1.54h.04s-.05.08-.05.08l-11.01-1.92Zm.89-5.84h0c-1.23,0-2.32,1.1-2.54,2.56h0c-.22,1.46.5,2.84,1.67,3.2h.02s0,.03,0,.03l10.45,1.82c-.79-.24-1.47-.74-1.96-1.44-.6-.85-.84-1.9-.68-2.96.25-1.63,1.41-2.93,2.93-3.31l-9.88.09Z"/>
              <g class="cls-12">
                <path class="cls-16" d="m12.38,38.25c.13.07.29.1.39.2.21.21.1.59.26.83.13.18.4.28.41.5.67-.05,1.36.08,1.97.39.19.1.38.22.59.29.36.13.76.1,1.13.16.62.09,1.21.4,1.84.44.67.04,1.33-.24,2.01-.21.25.01.49.06.73.11.44.09.91.2,1.24.52.37.36.48.91.82,1.29-.42.03-.85-.04-1.27-.1-2.2-.33-4.4-.67-6.6-1-.3-.05-.61-.09-.91-.16-.42-.1-.82-.25-1.25-.31-.15-.02-.3-.03-.43-.11-.11-.06-.2-.17-.29-.26-.3-.29-.73-.41-1.13-.53-.09-.02-.18-.05-.23-.12-.08-.1-.07-.23-.06-.36.07-.56.11-1.13.2-1.69.11-.7.29-.06.58.11Z"/>
                <path d="m17.75,40.78c-.23-.03-.46-.09-.69-.14-1.01-.24-2.02-.48-3.03-.72-.08-.02-.19-.02-.22.05.35.24.77.33,1.18.42.79.17,1.57.33,2.36.5.46.1.91.19,1.38.22.39.02.77,0,1.16,0,.26,0,.79.15.99.02-.93-.5-2.12-.19-3.13-.33Z"/>
                <path d="m21.82,35.81c.02-.11-.1-.18-.2-.22-.46-.16-.96-.2-1.45-.23-.98-.06-1.97-.09-2.96-.12-.13,0-.27,0-.4-.01-.5-.01-1-.03-1.49-.13.48.1.97.2,1.46.14.22-.03.43-.08.65-.1.2-.02.4-.01.6,0,.55.02,1.09.05,1.64.07.19,0,.39.02.58.02.66.03,1.32.06,1.96.2-.34.02-.67.04-1.01.06"/>
                <path d="m16.79,36.18c-.25.03-.5.12-.75.15-.24.03-.47,0-.71-.04-.84-.13-1.69-.36-2.52-.22.61.16,1.26,0,1.88.09.49.08.95.32,1.45.33.38,0,.74-.12,1.11-.18.43-.07.83,0,1.25.07-.53-.12-1.17-.27-1.71-.2Z"/>
              </g>
            </g>
            <g>
              <path class="cls-13" d="m21.53,38.11c-.33,2.16,1.08,4.17,3.15,4.48s4.01-1.19,4.33-3.35-1.08-4.17-3.15-4.48h-1.16c-1.59.28-2.91,1.6-3.18,3.35Z"/>
              <path d="m24.67,42.65c-1.01-.15-1.91-.71-2.51-1.57-.6-.86-.85-1.92-.69-2.98.26-1.74,1.56-3.1,3.22-3.39h1.17s0-.01,0-.01h0c1.01.15,1.91.71,2.51,1.57.6.86.85,1.92.69,2.98-.3,2-1.97,3.44-3.85,3.44-.18,0-.37-.01-.55-.04Zm.04-7.83c-1.61.28-2.87,1.6-3.13,3.3h0c-.16,1.03.08,2.06.67,2.9.59.83,1.45,1.38,2.43,1.52.18.03.36.04.53.04,1.82,0,3.44-1.4,3.74-3.35.16-1.03-.08-2.06-.67-2.9-.59-.83-1.45-1.37-2.43-1.52h-1.15Z"/>
            </g>
            <g>
              <path class="cls-2" d="m21.81,38.16c-.3,2,1,3.85,2.91,4.14s3.7-1.1,4-3.1c.3-2-1-3.85-2.91-4.14h-1.07c-1.47.26-2.69,1.48-2.93,3.1Z"/>
              <path d="m24.72,42.32c-.93-.14-1.75-.65-2.3-1.44-.55-.79-.78-1.76-.63-2.73.24-1.6,1.43-2.85,2.96-3.11h1.07c.93.13,1.75.64,2.3,1.43.55.79.78,1.76.63,2.73-.15.97-.65,1.83-1.41,2.42-.62.48-1.36.73-2.11.73-.17,0-.34-.01-.51-.04Zm.03-7.23c-1.5.26-2.67,1.49-2.91,3.06h0c-.14.96.08,1.91.62,2.69.54.78,1.35,1.28,2.26,1.42.91.14,1.83-.1,2.58-.68.75-.58,1.24-1.43,1.39-2.39s-.08-1.91-.62-2.69c-.54-.78-1.35-1.28-2.26-1.42h-1.06Z"/>
            </g>
            <path class="cls-9" d="m24.87,41.94c-.65-.12-1.07-.49-1.35-.74-.94-.82-1.4-1.84-1.31-2.88.03-.38.21-1.34,1.05-2.05,1-.84,2.22-.69,2.57-.62.83.16,1.41.6,1.74.95.3.31,1.24,1.42.92,2.67-.06.23-.28.53-.7,1.11l-.05.07c-.37.51-.56.76-.77.93-.08.07-.76.58-1.66.58-.14,0-.28-.01-.43-.04Zm-1.5-5.53c-.8.67-.96,1.58-1,1.94h0c-.09.98.36,1.95,1.25,2.74.28.25.67.58,1.27.7,1.04.19,1.86-.43,1.95-.51.2-.16.38-.41.74-.9l.05-.07c.4-.55.63-.85.68-1.05.3-1.17-.6-2.22-.88-2.51-.32-.33-.86-.76-1.65-.9-.11-.02-.32-.05-.58-.05-.51,0-1.23.12-1.85.64Z"/>
            <path class="cls-9" d="m24.95,41.41c-.7-.11-1.3-.51-1.72-1.14-.36-.55-.54-1.24-.49-1.85h0c.02-.3.15-1.06.8-1.65.61-.55,1.46-.77,2.21-.57.64.18,1.02.61,1.32.97h.01c.31.37.95,1.13.87,2.02-.05.6-.42,1.21-.98,1.66-.49.39-1.06.59-1.64.59-.13,0-.25,0-.38-.03Zm-1.3-4.52c-.62.57-.73,1.32-.75,1.54h0c-.08,1.04.59,2.59,2.07,2.81.66.1,1.34-.09,1.89-.53.52-.41.87-.99.91-1.54.07-.83-.54-1.54-.83-1.89h-.01c-.3-.36-.64-.76-1.23-.92-.17-.05-.34-.07-.52-.07-.55,0-1.11.21-1.53.6Z"/>
            <path class="cls-9" d="m25.07,40.7c-.57-.02-.94-.25-1.14-.44-.41-.38-.57-.97-.48-1.73h.08s-.08,0-.08,0h0c.1-.83.46-1.41.99-1.63.51-.21,1-.04,1.2.03.73.26,1.76,1.05,1.59,2.17-.17,1.12-1.31,1.61-2.11,1.61-.02,0-.04,0-.06,0Zm-.56-3.66c-.48.2-.79.73-.89,1.5h-.08s.08,0,.08,0c-.03.27-.13,1.07.42,1.59.18.17.51.38,1.03.39.73.02,1.84-.42,2-1.46.15-1.02-.8-1.75-1.48-1.99-.12-.04-.35-.12-.62-.12-.15,0-.3.02-.46.09Z"/>
            <path class="cls-9" d="m25.18,39.93c-.64-.1-1-.74-.95-1.29h0c.03-.36.23-.7.53-.93.27-.2.58-.28.88-.21.27.06.51.24.67.5.18.29.24.66.17.98-.12.49-.57.96-1.14.96-.05,0-.1,0-.15-.01Zm-.32-2.08c-.27.2-.44.5-.46.81-.04.47.28,1.03.81,1.11.54.08,1-.36,1.11-.82.07-.28.01-.6-.15-.86-.14-.22-.34-.37-.56-.42-.06-.01-.12-.02-.18-.02-.19,0-.39.07-.57.2Z"/>
            <path class="cls-9" d="m25.24,39.37c-.05-.02-.53-.24-.47-.66h0c.02-.15.1-.29.23-.38.13-.09.28-.13.43-.11.35.05.48.42.49.65,0,.04,0,.4-.25.52-.06.03-.12.04-.17.04-.11,0-.21-.04-.26-.06Zm-.14-.9c-.09.07-.15.16-.16.27-.04.29.33.46.37.48.07.03.19.08.29.03.17-.08.16-.36.16-.37,0-.12-.07-.45-.35-.49-.02,0-.04,0-.06,0-.09,0-.17.03-.25.08Z"/>
            <path d="m21.68,37.37c-2.15-.27-4.3-.5-6.45-.7,2.15.25,4.29.54,6.43.86l.02-.16h0Z"/>
            <path d="m21.61,37.55c.63.33,1.26.65,1.9.96-.61-.36-1.22-.72-1.81-1.1l-.08.14h0Z"/>
            <path d="m27.99,40.98c-.5-.37-1.01-.72-1.52-1.05.49.39.97.8,1.45,1.23l.08-.18h0Z"/>
            <path d="m21.63,39.19c-.26-.07-.53-.13-.79-.19l-.8-.11c-.54-.07-1.07-.14-1.61-.2-.54-.06-1.07-.13-1.61-.19l-.81-.09c-.27,0-.54,0-.82,0,.27.06.53.11.8.17l.81.09c.54.06,1.07.12,1.61.19.54.06,1.07.13,1.61.2l.8.11c.27.01.54.02.81.03,0,0-.27,0,0,0Z"/>
            <path d="m20.87,36.14c-.1-.02-.21-.02-.32-.03s-.22-.02-.32-.04c-.21-.03-.41-.05-.62-.08-.42-.05-.83-.09-1.25-.12-.84-.06-1.69-.07-2.54-.09-.48-.01-.95,0-1.43-.05-.05,0-.05-.09,0-.08.42.04.84.03,1.26.04s.86.02,1.29.03c.86.03,1.71.07,2.56.17.23.03.46.06.69.09.12.02.24.03.37.04.11.01.23,0,.34.03.05.01.03.09-.02.08h0Z"/>
            <path d="m25.74,42.28s.03,0,.05-.02c.03-.03.04-.07.03-.1-.02-.04-.06-.07-.12-.08-.01,0-.02,0-.03,0-.03,0-.06,0-.08-.02-.05-.03-.07-.11-.05-.17.02-.06.05-.11.09-.16l.02-.02c.08-.1.25-.37.13-.61l-.05.02c.1.21-.05.45-.12.55l-.02.02c-.04.05-.08.11-.1.18-.02.08,0,.19.07.23.03.02.07.02.1.03.01,0,.02,0,.03,0,.03,0,.07.02.08.05,0,.01,0,.03-.01.04,0,0-.01,0-.02,0l-.02.05s.02,0,.03,0Z"/>
            <path class="cls-10" d="m21.78,36.7l-1.08-.2c-.45-.08-.9-.17-1.36-.19-.3-.02-.6-.01-.89-.04-.29-.03-.57-.08-.86-.11-.85-.09-1.72.03-2.56-.16.05.12.2.16.33.18.2.04.4.07.59.1.32.05.64.1.97.12.28.01.56,0,.84,0,.22.01.44.04.65.07.75.09,1.51.16,2.26.23.33.03.67.06,1,.09.07,0,.16,0,.17-.07-.07-.01-.14-.02-.2-.04"/>
            <path class="cls-10" d="m18.08,37.34c-.42-.03-.85-.02-1.28-.05-.37-.03-.73-.09-1.09-.16-.31-.06-.62-.11-.92-.17-.37-.07-.74-.13-1.11-.2.61.27,1.27.37,1.93.46.5.07,1,.14,1.5.21.13.02.26.04.4.04.1,0,.2-.01.29-.02.16,0,.32.02.49.04.27.04.54.08.8.17.19.06.52.24.71.13-.05-.09-.23-.12-.32-.16-.15-.05-.31-.1-.46-.14-.31-.08-.63-.13-.95-.16Z"/>
            <path class="cls-10" d="m20.14,39.59c-.24-.06-.48-.13-.73-.13-.23,0-.46.04-.69.07-.36.04-.72.04-1.09.03-1.27-.04-2.55-.14-3.82-.25.53.1,1.06.2,1.6.29.26.05.53.1.8.13,1.02.12,2.06,0,3.08.13.2.02.39.06.59.04.17-.02.34-.08.52-.09.14,0,.29.06.42.05-.2-.14-.45-.2-.68-.26Z"/>
            <path class="cls-10" d="m19.59,40.51c-1.6,0-3.2-.17-4.79-.34.92.14,1.84.28,2.75.42.62.09,1.24.18,1.86.27l.42.06c.67.1,1.35.19,2.02.29.03,0,.06,0,.09,0,.35-.09-.21-.73-.42-.76-.6-.09-1.32.07-1.94.06Z"/>
          </g>
          <g>
            <g>
              <path class="cls-13" d="m8.74,32.48c0,1.51.94,2.76,2.16,2.94v.02s11.16.25,11.16.25v-.03c-2.08,0-3.77-1.77-3.77-3.96,0-1.77,1.11-3.27,2.64-3.78l-10.02,1.61h0c-1.22.18-2.16,1.43-2.16,2.94Z"/>
              <path class="cls-5" d="m10.89,35.47h-.03v-.03c-1.23-.2-2.16-1.47-2.16-2.97,0-1.51.94-2.79,2.18-2.97l10.02-1.61v.05c-1.56.52-2.61,2.03-2.61,3.75,0,2.17,1.68,3.94,3.76,3.94h.04l-.04.08-11.17-.25Zm0-5.91c-1.22.18-2.13,1.43-2.13,2.92,0,1.48.92,2.73,2.13,2.92h.02v.02l10.61.24c-1.85-.27-3.27-1.94-3.27-3.95,0-1.65.95-3.11,2.4-3.71l-9.75,1.57Z"/>
              <g class="cls-8">
                <path class="cls-16" d="m9.26,33.2c.14.05.3.05.42.14.24.17.18.56.38.78.15.16.44.22.48.44.66-.15,1.36-.12,2,.09.21.07.41.16.62.2.38.07.76-.01,1.15-.01.63,0,1.25.22,1.88.16.67-.06,1.28-.43,1.95-.5.24-.03.49-.01.74,0,.45.03.93.06,1.3.33.42.3.61.83,1,1.15-.42.09-.85.09-1.27.09-2.22,0-4.45,0-6.67,0-.31,0-.62,0-.92-.03-.43-.04-.85-.12-1.28-.12-.15,0-.3.01-.44-.04-.12-.05-.22-.14-.33-.21-.34-.24-.78-.3-1.2-.36-.09-.01-.18-.03-.25-.08-.09-.08-.1-.22-.11-.35-.02-.56-.06-1.13-.06-1.7,0-.71.27-.1.59.02Z"/>
                <path d="m14.94,34.9c-.23,0-.47-.02-.7-.04-1.04-.09-2.07-.17-3.11-.26-.08,0-.19,0-.21.08.38.18.81.21,1.23.23.8.05,1.6.09,2.4.14.47.03.93.05,1.4.01.38-.04.76-.12,1.14-.18.25-.04.8.03.98-.13-.99-.35-2.13.13-3.14.14Z"/>
                <path d="m18.23,29.38c0-.11-.12-.16-.23-.18-.48-.09-.98-.05-1.47,0-.98.09-1.96.21-2.94.33-.13.02-.27.03-.4.05-.5.06-.99.12-1.49.09.49.02.99.05,1.47-.08.21-.06.42-.15.63-.2.19-.05.39-.07.59-.09.54-.06,1.09-.12,1.63-.18.19-.02.38-.04.58-.06.65-.07,1.31-.14,1.97-.1-.33.07-.66.14-.99.21"/>
                <path d="m13.3,30.49c-.25.07-.47.19-.72.26-.23.06-.47.07-.71.07-.85,0-1.72-.11-2.53.16.63.07,1.25-.19,1.88-.19.5,0,.99.17,1.48.1.37-.05.71-.23,1.07-.35.42-.13.82-.13,1.25-.12-.54-.04-1.2-.09-1.73.06Z"/>
              </g>
            </g>
            <g>
              <path class="cls-13" d="m18.28,31.7c0,2.19,1.69,3.96,3.78,3.96s3.78-1.77,3.78-3.96c0-2.19-1.69-3.96-3.78-3.96l-1.14.18c-1.53.51-2.64,2.01-2.64,3.78Z"/>
              <path d="m18.22,31.7c0-1.76,1.08-3.3,2.68-3.83l1.15-.19h0c2.12,0,3.84,1.8,3.84,4.02,0,2.22-1.72,4.02-3.84,4.02s-3.84-1.8-3.84-4.02Zm2.71-3.73c-1.55.52-2.6,2.01-2.6,3.73,0,2.16,1.67,3.91,3.73,3.91s3.73-1.75,3.73-3.91-1.67-3.91-3.72-3.91l-1.13.18Z"/>
            </g>
            <g>
              <path class="cls-2" d="m18.57,31.7c0,2.02,1.56,3.66,3.49,3.66s3.49-1.64,3.49-3.66-1.56-3.66-3.49-3.66l-1.05.17c-1.41.47-2.44,1.85-2.44,3.49Z"/>
              <path d="m18.54,31.7c0-1.62.99-3.03,2.46-3.52l1.06-.17c1.94,0,3.52,1.65,3.52,3.69,0,2.03-1.58,3.69-3.52,3.69s-3.52-1.65-3.52-3.69Zm2.47-3.46c-1.45.48-2.42,1.87-2.42,3.46,0,2,1.55,3.63,3.46,3.63s3.46-1.63,3.46-3.63-1.55-3.63-3.46-3.63l-1.05.17Z"/>
            </g>
            <path class="cls-9" d="m22.16,34.99c-.66-.02-1.14-.32-1.45-.52-1.05-.67-1.66-1.61-1.73-2.65h0c-.02-.38,0-1.35.74-2.18.86-.98,2.09-1.01,2.44-1,.85.03,1.48.39,1.86.68.34.26,1.44,1.22,1.31,2.5-.02.24-.19.56-.53,1.2l-.04.08c-.29.56-.44.84-.63,1.04-.08.09-.82.85-1.9.85-.03,0-.05,0-.08,0Zm-2.31-5.24c-.69.78-.72,1.7-.7,2.06.06.98.64,1.87,1.65,2.52.31.2.75.48,1.36.5,1.06.03,1.78-.71,1.85-.79.17-.19.32-.46.6-1l.04-.08c.32-.6.49-.94.51-1.14.12-1.2-.92-2.11-1.25-2.35-.3-.23-.92-.62-1.77-.65-.03,0-.06,0-.09,0-.42,0-1.47.09-2.22.95Z"/>
            <path class="cls-9" d="m20.29,33.58c-.44-.49-.72-1.15-.77-1.76-.02-.3-.01-1.07.55-1.75.52-.64,1.33-.98,2.1-.89.66.08,1.1.45,1.45.76h.01c.36.32,1.11.97,1.16,1.87.04.6-.23,1.26-.72,1.78-.52.55-1.2.86-1.91.86s-1.37-.31-1.87-.87Zm-.09-3.4c-.53.65-.52,1.41-.51,1.63h-.08s.08,0,.08,0c.07,1.04.97,2.47,2.47,2.47.67,0,1.31-.29,1.79-.8.46-.49.71-1.11.67-1.66-.05-.83-.77-1.45-1.11-1.74h-.01c-.35-.31-.74-.66-1.36-.73-.07,0-.15-.01-.22-.01-.64,0-1.3.32-1.73.84Z"/>
            <path class="cls-9" d="m20.98,33.46c-.46-.32-.71-.87-.73-1.64h.08s-.08,0-.08,0c-.02-.84.24-1.46.73-1.76.47-.29.98-.19,1.2-.15.76.15,1.9.77,1.9,1.91,0,1.16-1.11,1.82-1.9,1.91-.09.01-.17.01-.25.01-.44,0-.75-.14-.95-.28Zm.09-3.27c-.44.27-.67.84-.65,1.62h0c0,.27.03,1.08.66,1.51.21.14.56.3,1.08.24.73-.09,1.76-.69,1.76-1.75s-1.05-1.61-1.76-1.75c-.09-.02-.24-.05-.42-.05-.2,0-.44.04-.66.17Zm-.82,1.62h.08s-.08,0-.08,0c0,0,0,0,0,0Z"/>
            <path class="cls-9" d="m21.02,31.82h0c-.03-.36.12-.73.39-1,.24-.24.54-.36.84-.34.28.02.54.16.73.39.22.26.34.62.31.95-.05.54-.49,1.13-1.14,1.13h0c-.65,0-1.1-.59-1.14-1.13Zm.5-.88c-.23.23-.36.56-.34.87.03.47.43.98.97.98h0c.55,0,.93-.51.97-.98.02-.29-.08-.6-.27-.83-.17-.2-.39-.32-.62-.33-.02,0-.04,0-.06,0-.23,0-.46.1-.65.29Z"/>
            <path class="cls-9" d="m22.14,32.39c-.06-.01-.56-.16-.56-.58,0-.32.26-.58.58-.58.35,0,.54.34.58.57,0,.04.06.39-.17.55-.08.05-.16.07-.24.07-.08,0-.15-.02-.19-.03Zm-.4-.58c0,.3.39.41.44.42.07.02.2.05.29-.02.15-.1.1-.39.1-.39-.02-.12-.14-.43-.42-.43-.23,0-.42.19-.42.42Z"/>
            <path d="m18.32,30.95c-2.16.05-4.32.15-6.48.28,2.16-.07,4.32-.11,6.48-.11v-.17h0Z"/>
            <path d="m18.28,31.13c.67.24,1.34.46,2.02.67-.66-.26-1.31-.53-1.96-.82l-.06.15h0Z"/>
            <path d="m25.1,33.57c-.55-.29-1.11-.56-1.66-.81.54.32,1.08.65,1.61,1l.05-.19h0Z"/>
            <path d="m18.54,32.75c-.27-.03-.54-.05-.81-.07l-.81.02c-.54.01-1.08.03-1.62.04-.54.02-1.08.03-1.62.06l-.81.03c-.27.04-.54.07-.81.12.27.02.54.03.81.05l.81-.03c.54-.02,1.08-.04,1.62-.06s1.08-.03,1.62-.04h.81c.27-.04.54-.07.81-.11,0,0-.27.04,0,0Z"/>
            <path d="m17.34,29.85c-.1,0-.2.01-.3.02-.11,0-.22,0-.33.01-.21,0-.42,0-.63.01-.43.01-.85.03-1.28.07-.84.07-1.69.18-2.52.29-.47.06-.94.14-1.42.17-.05,0-.05-.08,0-.08.42-.02.84-.09,1.26-.15s.85-.11,1.28-.16c.84-.1,1.68-.19,2.53-.21.24,0,.47-.01.71-.02.12,0,.24,0,.35,0s.24-.03.35-.02c.05,0,.05.09,0,.08h0Z"/>
            <path d="m23.06,35.19s.04,0,.05-.03c.02-.03.03-.07.01-.1-.02-.04-.07-.06-.14-.07-.01,0-.02,0-.03,0-.03,0-.06,0-.09,0-.06-.02-.08-.1-.07-.16,0-.06.04-.11.07-.17v-.03c.08-.11.2-.4.05-.62l-.05.03c.13.19.02.46-.04.56v.03c-.05.06-.08.12-.09.19-.01.08.02.19.11.22.04.01.07.01.11.01.01,0,.02,0,.03,0,.03,0,.07,0,.09.04,0,.01,0,.03,0,.04,0,0,0,0-.01,0l-.02.05s.01,0,.02,0Z"/>
            <path class="cls-10" d="m18.31,30.27l-1.1-.04c-.46-.02-.92-.03-1.37.01-.3.03-.59.08-.89.1-.29.02-.58,0-.86.02-.85.04-1.7.29-2.55.22.07.11.22.13.36.13.2,0,.4,0,.6.01.32,0,.65,0,.97-.03.28-.03.55-.09.83-.12.22-.02.44-.03.66-.03.76-.02,1.52-.07,2.27-.12.34-.02.67-.04,1.01-.06.07,0,.16-.03.16-.1-.07,0-.14,0-.21,0"/>
            <path class="cls-10" d="m14.76,31.45c-.42.03-.84.11-1.27.14-.37.03-.73.02-1.1,0-.31,0-.63-.02-.94-.03-.37-.01-.75-.02-1.12-.03.64.18,1.31.17,1.98.16.5,0,1.01-.01,1.51-.02.13,0,.27,0,.4-.02.1-.02.19-.04.29-.06.16-.03.32-.03.49-.03.27,0,.55,0,.82.05.2.03.55.16.72.03-.07-.08-.24-.09-.34-.11-.16-.03-.32-.06-.48-.07-.32-.03-.64-.04-.96-.02Z"/>
            <path class="cls-10" d="m17.13,33.37c-.25-.03-.5-.05-.74-.02-.23.03-.45.11-.68.17-.35.1-.71.14-1.07.19-1.27.15-2.54.24-3.81.33.54.02,1.08.03,1.62.05.27,0,.54.02.81,0,1.03-.03,2.04-.31,3.07-.33.2,0,.4,0,.59-.05.17-.04.33-.13.5-.17.14-.03.3.02.42-.02-.22-.1-.47-.13-.71-.15Z"/>
            <path class="cls-10" d="m16.72,34.36c-1.59.23-3.19.31-4.79.38.93,0,1.86,0,2.79,0,.63,0,1.25,0,1.88-.01h.43c.68,0,1.36-.02,2.04-.02.03,0,.06,0,.09-.01.33-.14-.32-.69-.53-.69-.61,0-1.3.26-1.91.35Z"/>
          </g>
          <g>
            <g>
              <path class="cls-13" d="m4.93,37.46c-.23,1.5.52,2.87,1.69,3.23v.02s10.99,1.91,10.99,1.91l.02-.03c-2.07-.31-3.48-2.32-3.15-4.48.26-1.75,1.59-3.07,3.18-3.34l-10.15.1h0c-1.23,0-2.35,1.09-2.57,2.59Z"/>
              <path class="cls-5" d="m6.62,40.74h-.03s0-.03,0-.03c-1.19-.38-1.91-1.77-1.69-3.26h0c.23-1.49,1.34-2.61,2.6-2.61h0l10.15-.1v.06c-1.62.28-2.89,1.61-3.15,3.32-.16,1.04.08,2.08.67,2.92.59.84,1.46,1.39,2.45,1.54h.04s-.05.08-.05.08l-11.01-1.92Zm.89-5.84h0c-1.23,0-2.32,1.1-2.54,2.56h0c-.22,1.46.5,2.84,1.67,3.2h.02s0,.03,0,.03l10.45,1.82c-.79-.24-1.47-.74-1.96-1.44-.6-.85-.84-1.9-.68-2.96.25-1.63,1.41-2.93,2.93-3.31l-9.88.09Z"/>
              <g class="cls-22">
                <path class="cls-16" d="m5.34,38.25c.13.07.29.1.39.2.21.21.1.59.26.83.13.18.4.28.41.5.67-.05,1.36.08,1.97.39.19.1.38.22.59.29.36.13.76.1,1.13.16.62.09,1.21.4,1.84.44.67.04,1.33-.24,2.01-.21.25.01.49.06.73.11.44.09.91.2,1.24.52.37.36.48.91.82,1.29-.42.03-.85-.04-1.27-.1-2.2-.33-4.4-.67-6.6-1-.3-.05-.61-.09-.91-.16-.42-.1-.82-.25-1.25-.31-.15-.02-.3-.03-.43-.11-.11-.06-.2-.17-.29-.26-.3-.29-.73-.41-1.13-.53-.09-.02-.18-.05-.23-.12-.08-.1-.07-.23-.06-.36.07-.56.11-1.13.2-1.69.11-.7.29-.06.58.11Z"/>
                <path d="m10.71,40.78c-.23-.03-.46-.09-.69-.14-1.01-.24-2.02-.48-3.03-.72-.08-.02-.19-.02-.22.05.35.24.77.33,1.18.42.79.17,1.57.33,2.36.5.46.1.91.19,1.38.22.39.02.77,0,1.16,0,.26,0,.79.15.99.02-.93-.5-2.12-.19-3.13-.33Z"/>
                <path d="m14.78,35.81c.02-.11-.1-.18-.2-.22-.46-.16-.96-.2-1.45-.23-.98-.06-1.97-.09-2.96-.12-.13,0-.27,0-.4-.01-.5-.01-1-.03-1.49-.13.48.1.97.2,1.46.14.22-.03.43-.08.65-.1.2-.02.4-.01.6,0,.55.02,1.09.05,1.64.07.19,0,.39.02.58.02.66.03,1.32.06,1.96.2-.34.02-.67.04-1.01.06"/>
                <path d="m9.74,36.18c-.25.03-.5.12-.75.15-.24.03-.47,0-.71-.04-.84-.13-1.69-.36-2.52-.22.61.16,1.26,0,1.88.09.49.08.95.32,1.45.33.38,0,.74-.12,1.11-.18.43-.07.83,0,1.25.07-.53-.12-1.17-.27-1.71-.2Z"/>
              </g>
            </g>
            <g>
              <path class="cls-13" d="m20.46,41.76c1.76-1.3,2.18-3.72.94-5.4s-3.67-1.99-5.44-.69-2.18,3.72-.94,5.4l.83.81c1.32.93,3.18.93,4.61-.12Z"/>
              <path d="m15.82,41.92l-.83-.82h0c-.61-.83-.84-1.86-.66-2.89.18-1.03.76-1.95,1.62-2.59.86-.64,1.91-.91,2.95-.78,1.04.13,1.95.66,2.56,1.49.61.83.84,1.85.66,2.88-.18,1.03-.76,1.95-1.62,2.59h0c-.74.54-1.6.82-2.45.82-.79,0-1.56-.23-2.22-.7Zm4.61-.21c.84-.62,1.4-1.51,1.58-2.52.18-1-.05-2-.64-2.8-.59-.8-1.47-1.31-2.48-1.44-1.01-.13-2.03.14-2.87.76-.84.62-1.4,1.51-1.58,2.52-.18,1,.05,2,.64,2.8l.82.8c1.34.94,3.16.9,4.54-.12h0Z"/>
            </g>
            <g>
              <path class="cls-2" d="m20.28,41.53c1.63-1.2,2.02-3.43.87-4.98s-3.39-1.84-5.02-.64-2.02,3.43-.87,4.98l.76.75c1.22.86,2.94.86,4.26-.11Z"/>
              <path d="m16.01,41.65l-.76-.75c-1.15-1.56-.76-3.81.88-5.02,1.64-1.21,3.9-.92,5.06.65,1.15,1.56.76,3.81-.88,5.02h0c-.68.5-1.47.75-2.25.75-.72,0-1.43-.21-2.04-.64Zm.15-5.73c-1.61,1.19-2,3.41-.87,4.94l.76.75c1.24.88,2.94.84,4.22-.11,1.61-1.19,2-3.41.87-4.94-.66-.9-1.7-1.37-2.77-1.37-.76,0-1.54.24-2.21.73Z"/>
            </g>
            <path class="cls-9" d="m17.94,41.83c-1.3-.12-2.05-1.08-2.25-1.37-.48-.7-.57-1.42-.56-1.9,0-.43.12-1.88,1.24-2.54.21-.12.57-.18,1.28-.29h.09c.62-.11.94-.16,1.21-.13.12.01,1.22.16,1.86,1.09.38.55.41,1.11.44,1.48.08,1.25-.31,2.3-1.11,2.96h0c-.27.22-.97.71-1.94.71-.08,0-.17,0-.26-.01Zm-.18-5.95h-.09c-.67.12-1.05.17-1.23.28-1.04.61-1.15,1.99-1.16,2.4,0,.38.05,1.11.53,1.81.19.28.9,1.19,2.13,1.3,1.04.09,1.8-.43,2.07-.66h0c.75-.63,1.13-1.63,1.05-2.82-.02-.37-.06-.88-.41-1.39-.6-.87-1.62-1.01-1.74-1.02-.05,0-.1,0-.15,0-.23,0-.52.05-1.01.12Z"/>
            <path class="cls-9" d="m18.08,41.29c-.82-.04-1.58-.49-1.96-1.16-.33-.58-.29-1.15-.25-1.61v-.02c.04-.47.12-1.46.81-2.04.46-.38,1.15-.56,1.86-.48.75.09,1.4.46,1.82,1.03.42.57.56,1.28.41,2.02-.13.64-.49,1.26-.96,1.66h0c-.22.19-.8.6-1.61.6-.04,0-.08,0-.12,0Zm1.62-.73c.79-.67,1.41-2.25.53-3.45-.4-.54-1.01-.88-1.71-.97-.66-.08-1.31.09-1.73.44-.63.53-.71,1.47-.75,1.93v.02c-.04.46-.08.98.23,1.52.35.62,1.07,1.04,1.82,1.08.84.04,1.45-.42,1.62-.56h0Z"/>
            <path class="cls-9" d="m17.53,40.57c-.51-.21-.73-.67-.83-.87-.34-.7-.5-1.99.41-2.66.94-.69,2.12-.18,2.67.4.39.42.49.84.5,1.12.02.56-.28,1.09-.89,1.56l-.05-.06.05.07c-.47.36-.94.55-1.36.55-.17,0-.34-.03-.49-.09Zm-.32-3.4c-.83.61-.67,1.81-.36,2.46.09.18.29.61.74.79.48.19,1.08.04,1.69-.43h0c.21-.17.85-.66.83-1.43,0-.25-.09-.63-.45-1.01-.33-.35-.92-.68-1.52-.68-.31,0-.63.09-.92.3Z"/>
            <path class="cls-9" d="m17.89,39.76c-.33-.05-.61-.22-.77-.48-.15-.23-.19-.53-.12-.82.08-.34.29-.64.58-.81.46-.28,1.2-.27,1.58.24.39.52.18,1.23-.24,1.59-.22.19-.52.3-.83.3-.07,0-.13,0-.2-.01Zm-.23-1.97c-.25.15-.43.42-.5.71-.06.25-.02.5.1.7.14.21.37.36.65.4.33.05.66-.04.9-.24h0c.36-.31.53-.93.21-1.36-.19-.25-.48-.36-.77-.36-.21,0-.42.06-.59.16Z"/>
            <path class="cls-9" d="m17.77,38.92c-.21-.28-.05-.64.11-.8.03-.03.28-.28.55-.19.18.06.25.24.29.32.02.06.21.54-.13.8-.1.08-.22.11-.34.11-.18,0-.36-.08-.47-.24Zm.23-.69c-.08.09-.26.37-.1.59.14.18.4.22.58.09h0c.24-.18.1-.56.08-.6-.03-.07-.08-.19-.19-.23-.02,0-.05-.01-.07-.01-.15,0-.3.15-.31.16Z"/>
            <path d="m14.64,37.37c-2.15-.27-4.3-.5-6.45-.7,2.15.25,4.29.54,6.43.86l.02-.16h0Z"/>
            <path d="m19.99,42.1c-.21-.68-.43-1.35-.66-2.02.18.68.35,1.37.5,2.06l.16-.04h0Z"/>
            <path d="m17.91,35.17c.1.61.21,1.22.34,1.82-.07-.62-.12-1.26-.15-1.89l-.18.07h0Z"/>
            <path d="m14.59,39.19c-.26-.07-.53-.13-.79-.19l-.8-.11c-.54-.07-1.07-.14-1.61-.2-.54-.06-1.07-.13-1.61-.19l-.81-.09c-.27,0-.54,0-.82,0,.27.06.53.11.8.17l.81.09c.54.06,1.07.12,1.61.19.54.06,1.07.13,1.61.2l.8.11c.27.01.54.02.81.03,0,0-.27,0,0,0Z"/>
            <path d="m13.83,36.14c-.1-.02-.21-.02-.32-.03s-.22-.02-.32-.04c-.21-.03-.41-.05-.62-.08-.42-.05-.83-.09-1.25-.12-.84-.06-1.69-.07-2.54-.09-.48-.01-.95,0-1.43-.05-.05,0-.05-.09,0-.08.42.04.84.03,1.26.04s.86.02,1.29.03c.86.03,1.71.07,2.56.17.23.03.46.06.69.09.12.02.24.03.37.04.11.01.23,0,.34.03.05.01.03.09-.02.08h0Z"/>
            <path d="m19.61,36.67c.08-.22.36-.28.48-.3h.03c.07-.01.14-.02.2-.06.07-.04.14-.13.11-.22,0-.04-.03-.07-.05-.09,0,0-.01-.02-.02-.02-.01-.02-.04-.06-.02-.09,0-.01.02-.02.03-.02,0,0,.01,0,.01,0l.05-.02s-.03-.04-.06-.05c-.04,0-.07.02-.09.05-.02.04,0,.09.03.15,0,0,.01.02.02.03.02.02.04.05.04.07.02.06-.03.12-.09.15-.05.03-.11.04-.18.05h-.03c-.13.02-.44.09-.52.34l.05.02Z"/>
            <path class="cls-10" d="m14.74,36.7l-1.08-.2c-.45-.08-.9-.17-1.36-.19-.3-.02-.6-.01-.89-.04-.29-.03-.57-.08-.86-.11-.85-.09-1.72.03-2.56-.16.05.12.2.16.33.18.2.04.4.07.59.1.32.05.64.1.97.12.28.01.56,0,.84,0,.22.01.44.04.65.07.75.09,1.51.16,2.26.23.33.03.67.06,1,.09.07,0,.16,0,.17-.07-.07-.01-.14-.02-.2-.04"/>
            <path class="cls-10" d="m11.04,37.34c-.42-.03-.85-.02-1.28-.05-.37-.03-.73-.09-1.09-.16-.31-.06-.62-.11-.92-.17-.37-.07-.74-.13-1.11-.2.61.27,1.27.37,1.93.46.5.07,1,.14,1.5.21.13.02.26.04.4.04.1,0,.2-.01.29-.02.16,0,.32.02.49.04.27.04.54.08.8.17.19.06.52.24.71.13-.05-.09-.23-.12-.32-.16-.15-.05-.31-.1-.46-.14-.31-.08-.63-.13-.95-.16Z"/>
            <path class="cls-10" d="m13.1,39.59c-.24-.06-.48-.13-.73-.13-.23,0-.46.04-.69.07-.36.04-.72.04-1.09.03-1.27-.04-2.55-.14-3.82-.25.53.1,1.06.2,1.6.29.26.05.53.1.8.13,1.02.12,2.06,0,3.08.13.2.02.39.06.59.04.17-.02.34-.08.52-.09.14,0,.29.06.42.05-.2-.14-.45-.2-.68-.26Z"/>
            <path class="cls-10" d="m12.55,40.51c-1.6,0-3.2-.17-4.79-.34.92.14,1.84.28,2.75.42.62.09,1.24.18,1.86.27l.42.06c.67.1,1.35.19,2.02.29.03,0,.06,0,.09,0,.35-.09-.21-.73-.42-.76-.6-.09-1.32.07-1.94.06Z"/>
          </g>
        </g>
        <path class="cls-15" d="m28.23,3.31c-1.38-.45-2.84.21-3.48,1.48-.86.04-1.65.61-1.93,1.49,0,.01,0,.02,0,.04-.66.08-1.22.58-1.31,1.29-.01.1.01.2.02.3-.34.16-.61.47-.66.88-.08.63.35,1.72.97,1.81.54.07,1.02-.27,1.19-.77.31,0,.6-.09.84-.27.23.28.54-.02.91.1.79.26,1.62-.02,2.12-.63,1.39.22,2.76-.61,3.21-2,.49-1.55-.35-3.21-1.88-3.71Z"/>
        <path class="cls-20" d="m36.97,11.82c-.7-.46-1.61-.32-2.15.29-.48-.11-1.01.08-1.29.53,0,0,0,.01,0,.02-.38-.05-.76.14-.92.51-.02.06-.02.11-.03.17-.21.04-.41.17-.5.38-.14.34-.07,1.01.26,1.15.29.12.61,0,.78-.24.17.04.35.04.51-.02.09.19.3.07.49.2.4.26.9.24,1.27-.03.74.33,1.62.09,2.08-.62.51-.78.3-1.83-.48-2.34Z"/>
      </g>
      <g>
        <circle class="cls-23" cx="10.83" cy="41.04" r="4.99"/>
        <g>
          <rect class="cls-1" x="9.95" y="37.42" width="1.76" height="4.9"/>
          <polygon class="cls-1" points="13.5 41.97 8.15 41.97 10.83 44.65 13.5 41.97"/>
        </g>
      </g>
    </g>
  </g>
</svg>