<?xml version="1.0" encoding="UTF-8"?>
<svg id="Layer_2" data-name="Layer 2" xmlns="http://www.w3.org/2000/svg" xmlns:xlink="http://www.w3.org/1999/xlink" viewBox="0 0 48 48">
  <defs>
    <style>
      .cls-1 {
        fill: #cfa477;
      }

      .cls-2 {
        clip-path: url(#clippath-7);
      }

      .cls-2, .cls-3, .cls-4, .cls-5 {
        fill: #070707;
      }

      .cls-6 {
        stroke-width: .77px;
      }

      .cls-6, .cls-7 {
        stroke: #d88f0e;
        stroke-miterlimit: 10;
      }

      .cls-6, .cls-7, .cls-8 {
        fill: #eae1dc;
      }

      .cls-9 {
        clip-path: url(#clippath-2);
      }

      .cls-10 {
        clip-path: url(#clippath-6);
      }

      .cls-11 {
        fill: #9e724a;
      }

      .cls-12 {
        fill: #855a2d;
      }

      .cls-13 {
        clip-path: url(#clippath-1);
      }

      .cls-14 {
        clip-path: url(#clippath-4);
      }

      .cls-15 {
        fill: #77554c;
      }

      .cls-16 {
        fill: #f9bb41;
      }

      .cls-17 {
        fill: #b6bbc2;
      }

      .cls-18 {
        fill: #684842;
      }

      .cls-19 {
        clip-path: url(#clippath);
      }

      .cls-20 {
        fill: none;
      }

      .cls-7 {
        stroke-width: .84px;
      }

      .cls-21 {
        clip-path: url(#clippath-8);
      }

      .cls-3 {
        clip-path: url(#clippath-5);
      }

      .cls-5 {
        clip-path: url(#clippath-3);
      }

      .cls-22 {
        fill: #f46e6e;
      }
    </style>
    <clipPath id="clippath">
      <rect class="cls-20" width="48" height="48"/>
    </clipPath>
    <clipPath id="clippath-1">
      <path class="cls-8" d="m27.45,17.16v-5.05c0-.2-.16-.36-.35-.36h-8.84c-.2,0-.35.16-.35.36v5.05l-2,24.94h13.97l-2.42-24.94Z"/>
    </clipPath>
    <clipPath id="clippath-2">
      <path class="cls-8" d="m35.18,21.14v-4.48c0-.18-.08-.32-.18-.32h-4.38c-.1,0-.18.14-.18.32v4.48l-.99,22.12h6.91l-1.2-22.12Z"/>
    </clipPath>
    <clipPath id="clippath-3">
      <path class="cls-15" d="m11.67,38.79c-.24,1.56.54,2.98,1.76,3.36v.02s11.42,1.99,11.42,1.99l.02-.03c-2.15-.32-3.61-2.41-3.27-4.66.28-1.82,1.65-3.19,3.3-3.47l-10.55.1h0c-1.28,0-2.44,1.13-2.67,2.69Z"/>
    </clipPath>
    <clipPath id="clippath-4">
      <path class="cls-5" d="m13.42,42.2h-.03s0-.03,0-.03c-1.23-.39-1.99-1.84-1.75-3.38h0c.23-1.55,1.39-2.71,2.7-2.71h0l10.55-.1v.06c-1.69.29-3,1.68-3.27,3.45-.16,1.08.08,2.16.7,3.03.61.87,1.52,1.44,2.55,1.6h.05s-.06.09-.06.09l-11.44-1.99Zm.92-6.07h0c-1.28,0-2.41,1.14-2.64,2.66h0c-.23,1.52.52,2.95,1.74,3.33h.02s0,.03,0,.03l10.86,1.89c-.82-.25-1.53-.77-2.04-1.5-.62-.89-.87-1.98-.71-3.07.26-1.7,1.46-3.04,3.04-3.44l-10.26.1Z"/>
    </clipPath>
    <clipPath id="clippath-5">
      <path class="cls-15" d="m8.31,33.62c0,1.57.98,2.87,2.24,3.06v.02s11.59.26,11.59.26v-.03c-2.16,0-3.92-1.84-3.92-4.12,0-1.84,1.15-3.4,2.74-3.93l-10.42,1.68h0c-1.26.19-2.24,1.49-2.24,3.06Z"/>
    </clipPath>
    <clipPath id="clippath-6">
      <path class="cls-3" d="m10.55,36.73h-.03v-.03c-1.28-.21-2.24-1.53-2.24-3.08,0-1.57.97-2.89,2.27-3.09l10.42-1.68v.06c-1.62.54-2.71,2.11-2.71,3.9,0,2.26,1.75,4.09,3.9,4.09h.05l-.04.09-11.61-.26Zm0-6.14c-1.26.19-2.22,1.49-2.22,3.03s.95,2.84,2.22,3.03h.02v.02l11.02.25c-1.92-.28-3.4-2.02-3.4-4.11,0-1.72.99-3.23,2.49-3.85l-10.13,1.63Z"/>
    </clipPath>
    <clipPath id="clippath-7">
      <path class="cls-15" d="m4.36,38.79c-.24,1.56.54,2.98,1.76,3.36v.02s11.42,1.99,11.42,1.99l.02-.03c-2.15-.32-3.61-2.41-3.27-4.66.28-1.82,1.65-3.19,3.3-3.47l-10.55.1h0c-1.28,0-2.44,1.13-2.67,2.69Z"/>
    </clipPath>
    <clipPath id="clippath-8">
      <path class="cls-2" d="m6.11,42.2h-.03s0-.03,0-.03c-1.23-.39-1.99-1.84-1.75-3.38h0c.23-1.55,1.39-2.71,2.7-2.71h0l10.55-.1v.06c-1.69.29-3,1.68-3.27,3.45-.16,1.08.08,2.16.7,3.03.61.87,1.52,1.44,2.55,1.6h.05s-.06.09-.06.09l-11.44-1.99Zm.92-6.07h0c-1.28,0-2.41,1.14-2.64,2.66h0c-.23,1.52.52,2.95,1.74,3.33h.02s0,.03,0,.03l10.86,1.89c-.82-.25-1.53-.77-2.04-1.5-.62-.89-.87-1.98-.71-3.07.26-1.7,1.46-3.04,3.04-3.44l-10.26.1Z"/>
    </clipPath>
  </defs>
  <g id="Layer_1-2" data-name="Layer 1">
    <g class="cls-19">
      <g>
        <g>
          <path class="cls-8" d="m27.45,17.16v-5.05c0-.2-.16-.36-.35-.36h-8.84c-.2,0-.35.16-.35.36v5.05l-2,24.94h13.97l-2.42-24.94Z"/>
          <g class="cls-13">
            <rect class="cls-22" x="17.09" y="15.49" width="12.18" height="5.18"/>
          </g>
        </g>
        <g>
          <path class="cls-8" d="m35.18,21.14v-4.48c0-.18-.08-.32-.18-.32h-4.38c-.1,0-.18.14-.18.32v4.48l-.99,22.12h6.91l-1.2-22.12Z"/>
          <g class="cls-9">
            <rect class="cls-22" x="30.06" y="20.04" width="6.03" height="3.06"/>
          </g>
        </g>
        <rect class="cls-16" x="14.87" y="26.53" width="28.55" height="17.57" rx="1.33" ry="1.33"/>
        <rect class="cls-7" x="34.95" y="35.31" width="5.92" height="7.87"/>
        <rect class="cls-6" x="20.02" y="30.47" width="5.2" height="2.88"/>
        <rect class="cls-6" x="27.21" y="30.47" width="5.2" height="2.88"/>
        <rect class="cls-6" x="27.21" y="35" width="5.2" height="2.88"/>
        <rect class="cls-6" x="20.02" y="35" width="5.2" height="2.88"/>
        <g>
          <g>
            <g>
              <path class="cls-15" d="m11.67,38.79c-.24,1.56.54,2.98,1.76,3.36v.02s11.42,1.99,11.42,1.99l.02-.03c-2.15-.32-3.61-2.41-3.27-4.66.28-1.82,1.65-3.19,3.3-3.47l-10.55.1h0c-1.28,0-2.44,1.13-2.67,2.69Z"/>
              <path class="cls-4" d="m13.42,42.2h-.03s0-.03,0-.03c-1.23-.39-1.99-1.84-1.75-3.38h0c.23-1.55,1.39-2.71,2.7-2.71h0l10.55-.1v.06c-1.69.29-3,1.68-3.27,3.45-.16,1.08.08,2.16.7,3.03.61.87,1.52,1.44,2.55,1.6h.05s-.06.09-.06.09l-11.44-1.99Zm.92-6.07h0c-1.28,0-2.41,1.14-2.64,2.66h0c-.23,1.52.52,2.95,1.74,3.33h.02s0,.03,0,.03l10.86,1.89c-.82-.25-1.53-.77-2.04-1.5-.62-.89-.87-1.98-.71-3.07.26-1.7,1.46-3.04,3.04-3.44l-10.26.1Z"/>
              <g class="cls-14">
                <path class="cls-18" d="m12.1,39.62c.13.07.3.1.41.21.22.22.1.61.27.86.13.19.42.29.43.52.7-.06,1.42.09,2.04.41.2.1.39.22.61.3.38.13.79.11,1.18.17.65.1,1.25.42,1.91.46.7.04,1.39-.25,2.09-.21.26.01.51.06.76.12.46.1.95.21,1.29.54.38.37.5.94.85,1.34-.44.03-.88-.04-1.32-.11-2.28-.35-4.57-.69-6.85-1.04-.32-.05-.63-.1-.95-.17-.43-.1-.86-.26-1.3-.32-.15-.02-.31-.03-.45-.11-.12-.07-.2-.18-.3-.27-.32-.3-.76-.43-1.17-.55-.09-.03-.18-.06-.24-.13-.08-.1-.07-.24-.06-.37.07-.58.11-1.17.21-1.75.12-.73.3-.06.61.11Z"/>
                <path d="m17.67,42.25c-.24-.04-.48-.09-.72-.15-1.05-.25-2.1-.5-3.15-.75-.08-.02-.19-.02-.22.05.36.25.8.34,1.23.43.82.17,1.63.34,2.45.51.47.1.95.2,1.43.23.4.02.8,0,1.2,0,.27,0,.82.16,1.03.02-.97-.52-2.21-.19-3.25-.35Z"/>
                <path d="m21.91,37.09c.02-.11-.1-.19-.21-.22-.48-.17-1-.2-1.51-.23-1.02-.06-2.05-.09-3.07-.12-.14,0-.28,0-.42-.01-.52-.02-1.04-.03-1.55-.14.5.1,1.01.2,1.52.15.23-.03.45-.08.68-.11.21-.02.41-.01.62,0,.57.02,1.14.05,1.7.07.2,0,.4.02.6.03.68.03,1.37.06,2.04.2-.35.02-.7.04-1.05.06"/>
                <path d="m16.67,37.46c-.26.03-.52.12-.78.15-.25.03-.49,0-.74-.04-.87-.13-1.75-.38-2.62-.22.63.17,1.31,0,1.96.1.51.08.99.33,1.51.34.39,0,.77-.13,1.15-.19.45-.07.86,0,1.3.07-.55-.13-1.22-.28-1.78-.21Z"/>
              </g>
            </g>
            <g>
              <path class="cls-15" d="m21.6,39.48c-.34,2.25,1.12,4.34,3.27,4.66s4.16-1.24,4.5-3.48-1.12-4.34-3.27-4.66h-1.2c-1.65.29-3.03,1.66-3.3,3.48Z"/>
              <path d="m24.86,44.2c-1.05-.16-1.98-.74-2.61-1.63-.63-.89-.88-1.99-.71-3.09.27-1.81,1.62-3.23,3.35-3.52h1.21s0-.01,0-.01h0c1.05.16,1.98.74,2.61,1.63.63.89.88,1.99.71,3.09-.31,2.08-2.04,3.58-4,3.58-.19,0-.38-.01-.57-.04Zm.04-8.13c-1.68.29-2.98,1.67-3.25,3.42h0c-.16,1.07.08,2.14.69,3.01.61.87,1.51,1.43,2.53,1.58.19.03.37.04.56.04,1.9,0,3.58-1.46,3.88-3.48.16-1.07-.08-2.14-.69-3.01-.61-.87-1.5-1.43-2.53-1.58h-1.19Z"/>
            </g>
            <g>
              <path class="cls-1" d="m21.9,39.52c-.31,2.08,1.04,4,3.02,4.3s3.84-1.14,4.16-3.22c.31-2.08-1.04-4-3.02-4.3h-1.11c-1.52.27-2.79,1.54-3.05,3.22Z"/>
              <path d="m24.91,43.85c-.97-.15-1.82-.68-2.39-1.5-.57-.82-.81-1.83-.65-2.84.25-1.66,1.48-2.96,3.08-3.23h1.11c.97.14,1.82.67,2.39,1.49.57.82.81,1.83.65,2.84-.15,1.01-.67,1.91-1.46,2.52-.65.5-1.41.76-2.2.76-.18,0-.35-.01-.53-.04Zm.04-7.51c-1.56.27-2.78,1.55-3.02,3.18h0c-.15,1,.08,1.99.64,2.8.57.81,1.4,1.33,2.35,1.47.95.14,1.9-.11,2.68-.71.78-.6,1.29-1.48,1.44-2.48s-.08-1.99-.64-2.8c-.57-.81-1.4-1.33-2.35-1.47h-1.1Z"/>
            </g>
            <path class="cls-11" d="m25.07,43.46c-.68-.13-1.12-.51-1.41-.76-.98-.85-1.46-1.92-1.36-2.99.04-.39.21-1.39,1.1-2.13,1.04-.87,2.3-.72,2.67-.65.86.16,1.46.63,1.81.99.31.32,1.29,1.47.96,2.78-.06.24-.29.55-.73,1.16l-.06.08c-.39.53-.58.79-.8.97-.09.07-.78.6-1.72.6-.14,0-.29-.01-.45-.04Zm-1.56-5.75c-.83.7-1,1.64-1.03,2.01h0c-.09,1.02.37,2.03,1.3,2.84.29.26.69.61,1.32.72,1.08.2,1.93-.45,2.03-.53.21-.16.39-.42.77-.94l.05-.07c.42-.57.65-.89.7-1.1.31-1.21-.62-2.31-.91-2.61-.33-.34-.9-.79-1.72-.94-.12-.02-.33-.05-.6-.05-.53,0-1.27.12-1.92.66Z"/>
            <path class="cls-11" d="m25.16,42.9c-.72-.11-1.36-.53-1.78-1.18-.37-.57-.56-1.29-.51-1.92h0c.02-.31.15-1.1.83-1.71.64-.58,1.51-.8,2.29-.59.67.18,1.06.64,1.37,1h.01c.32.39.99,1.17.91,2.1-.05.62-.43,1.26-1.01,1.72-.51.4-1.1.61-1.71.61-.13,0-.26,0-.39-.03Zm-1.35-4.69c-.65.59-.76,1.37-.78,1.6h0c-.09,1.08.61,2.69,2.15,2.92.69.1,1.39-.09,1.97-.55.54-.43.9-1.03.95-1.6.07-.86-.56-1.6-.87-1.96h-.01c-.31-.38-.66-.79-1.28-.96-.17-.05-.35-.07-.54-.07-.57,0-1.15.22-1.59.62Z"/>
            <path class="cls-11" d="m25.28,42.16c-.6-.02-.97-.26-1.18-.46-.43-.4-.59-1-.49-1.8h.09s-.09,0-.09,0h0c.11-.86.47-1.47,1.03-1.7.53-.22,1.03-.04,1.25.03.76.27,1.83,1.09,1.65,2.26-.18,1.17-1.36,1.67-2.19,1.67-.02,0-.04,0-.06,0Zm-.58-3.8c-.49.21-.82.76-.92,1.56h-.09s.09,0,.09,0c-.03.28-.14,1.11.44,1.65.19.18.53.39,1.07.41.76.02,1.91-.43,2.08-1.52.16-1.06-.83-1.82-1.54-2.07-.13-.05-.37-.13-.65-.13-.15,0-.31.02-.48.09Z"/>
            <path class="cls-11" d="m25.39,41.36c-.67-.1-1.03-.77-.99-1.34h0c.03-.37.23-.73.55-.97.28-.21.61-.29.91-.22.28.06.53.25.69.51.19.3.25.69.17,1.02-.12.51-.6,1-1.18,1-.05,0-.11,0-.16-.01Zm-.34-2.16c-.28.21-.46.52-.48.84-.04.49.29,1.07.85,1.15.56.09,1.03-.38,1.15-.85.07-.29.01-.62-.15-.89-.14-.23-.35-.38-.59-.44-.06-.01-.12-.02-.18-.02-.2,0-.41.07-.59.21Z"/>
            <path class="cls-11" d="m25.46,40.79c-.06-.02-.55-.25-.49-.68h0c.02-.16.11-.3.24-.4.13-.1.29-.14.45-.11.36.05.5.43.51.67,0,.04,0,.41-.26.54-.06.03-.12.04-.18.04-.11,0-.22-.04-.27-.07Zm-.15-.94c-.09.07-.15.17-.17.28-.05.31.34.48.38.5.07.03.19.08.3.03.17-.08.17-.37.17-.38,0-.13-.07-.46-.36-.51-.02,0-.04,0-.07,0-.09,0-.18.03-.26.08Z"/>
            <path d="m21.76,38.71c-2.23-.28-4.46-.52-6.7-.72,2.23.26,4.46.56,6.68.89l.02-.17h0Z"/>
            <path d="m21.69,38.89c.65.35,1.31.68,1.97,1-.64-.37-1.26-.75-1.88-1.15l-.09.15h0Z"/>
            <path d="m28.31,42.45c-.52-.38-1.05-.74-1.58-1.09.51.41,1.01.83,1.5,1.28l.08-.19h0Z"/>
            <path d="m21.71,40.59c-.27-.07-.55-.14-.82-.2l-.84-.11c-.56-.07-1.11-.14-1.67-.21-.56-.07-1.12-.13-1.67-.2l-.84-.09c-.28,0-.56,0-.85,0,.28.06.55.12.83.17l.84.09c.56.06,1.12.13,1.67.19.56.07,1.11.14,1.67.21l.83.11c.28.01.56.02.85.03,0,0-.28,0,0,0Z"/>
            <path d="m20.91,37.43c-.11-.02-.22-.02-.33-.03s-.22-.03-.34-.04c-.21-.03-.43-.06-.65-.08-.43-.05-.86-.1-1.3-.13-.88-.06-1.76-.07-2.64-.09-.49-.01-.99,0-1.48-.05-.05,0-.06-.09,0-.09.44.04.88.04,1.31.04s.89.02,1.34.04c.89.03,1.77.07,2.66.18.24.03.48.06.71.09.13.02.25.03.38.05.12.01.24,0,.35.03.05.01.03.09-.02.08h0Z"/>
            <path d="m25.98,43.8s.04,0,.05-.02c.03-.03.04-.07.03-.1-.02-.04-.06-.08-.13-.09-.01,0-.02,0-.03,0-.03,0-.06,0-.09-.02-.06-.03-.07-.12-.05-.18.02-.06.06-.11.1-.17l.02-.03c.08-.11.26-.39.13-.63l-.05.03c.11.22-.05.47-.13.57l-.02.03c-.04.06-.09.11-.11.18-.02.08,0,.19.08.24.03.02.07.03.11.03.01,0,.02,0,.03,0,.03,0,.07.02.09.05,0,.01,0,.03-.01.04,0,0-.01,0-.02,0l-.03.05s.02,0,.03,0Z"/>
            <path class="cls-12" d="m21.86,38.01l-1.13-.21c-.47-.09-.94-.17-1.41-.2-.31-.02-.62-.01-.93-.04-.3-.03-.59-.08-.89-.12-.88-.1-1.79.03-2.66-.17.05.13.21.17.34.19.21.04.41.07.62.11.33.06.67.11,1,.12.29.01.58,0,.87,0,.23.01.45.04.68.07.78.1,1.57.16,2.35.23.35.03.7.06,1.04.09.07,0,.17,0,.18-.08-.07-.01-.14-.03-.21-.04"/>
            <path class="cls-12" d="m18.02,38.67c-.44-.04-.88-.02-1.32-.06-.38-.03-.75-.1-1.13-.16-.32-.06-.64-.12-.96-.17-.38-.07-.77-.14-1.15-.21.63.28,1.32.38,2.01.48.52.07,1.04.15,1.55.22.14.02.27.04.41.04.1,0,.2-.01.3-.02.17,0,.34.02.5.05.28.04.57.08.84.17.2.07.54.25.74.14-.05-.09-.23-.13-.33-.16-.16-.06-.32-.11-.48-.15-.32-.08-.65-.14-.98-.17Z"/>
            <path class="cls-12" d="m20.16,41.01c-.25-.07-.5-.13-.76-.14-.24,0-.48.04-.72.07-.37.04-.75.04-1.13.03-1.32-.04-2.64-.15-3.97-.26.55.1,1.11.2,1.66.3.28.05.55.1.83.13,1.06.13,2.14,0,3.2.13.2.03.41.06.61.04.18-.02.36-.08.54-.1.15,0,.3.06.43.05-.21-.14-.46-.21-.7-.27Z"/>
            <path class="cls-12" d="m19.59,41.97c-1.66,0-3.32-.18-4.98-.35.95.15,1.91.3,2.86.43.64.09,1.29.19,1.93.28l.44.06c.7.1,1.4.2,2.1.3.03,0,.07,0,.1,0,.36-.1-.22-.76-.43-.79-.63-.09-1.38.07-2.02.07Z"/>
          </g>
          <g>
            <g>
              <path class="cls-15" d="m8.31,33.62c0,1.57.98,2.87,2.24,3.06v.02s11.59.26,11.59.26v-.03c-2.16,0-3.92-1.84-3.92-4.12,0-1.84,1.15-3.4,2.74-3.93l-10.42,1.68h0c-1.26.19-2.24,1.49-2.24,3.06Z"/>
              <path class="cls-4" d="m10.55,36.73h-.03v-.03c-1.28-.21-2.24-1.53-2.24-3.08,0-1.57.97-2.89,2.27-3.09l10.42-1.68v.06c-1.62.54-2.71,2.11-2.71,3.9,0,2.26,1.75,4.09,3.9,4.09h.05l-.04.09-11.61-.26Zm0-6.14c-1.26.19-2.22,1.49-2.22,3.03s.95,2.84,2.22,3.03h.02v.02l11.02.25c-1.92-.28-3.4-2.02-3.4-4.11,0-1.72.99-3.23,2.49-3.85l-10.13,1.63Z"/>
              <g class="cls-10">
                <path class="cls-18" d="m8.85,34.37c.14.05.31.06.43.15.25.18.19.59.4.81.16.17.46.23.5.45.68-.16,1.41-.13,2.08.1.21.07.42.16.65.2.39.07.79-.01,1.19-.01.66,0,1.3.23,1.96.16.7-.06,1.33-.45,2.03-.52.25-.03.51-.01.77,0,.47.03.97.07,1.35.34.43.31.63.86,1.04,1.2-.43.09-.88.09-1.32.09-2.31,0-4.62,0-6.93,0-.32,0-.64,0-.96-.03-.44-.04-.89-.12-1.33-.12-.15,0-.32.01-.46-.04-.13-.05-.23-.14-.34-.22-.36-.25-.81-.31-1.24-.37-.09-.01-.19-.03-.26-.09-.1-.09-.11-.23-.11-.36-.02-.59-.06-1.18-.06-1.76,0-.74.28-.1.62.02Z"/>
                <path d="m14.75,36.14c-.24,0-.49-.02-.73-.04-1.08-.09-2.15-.18-3.23-.27-.08,0-.2,0-.21.09.39.19.84.22,1.28.24.83.05,1.67.1,2.5.14.48.03.97.06,1.45.01.4-.04.79-.12,1.19-.18.26-.04.83.04,1.02-.13-1.03-.37-2.21.14-3.27.14Z"/>
                <path d="m18.17,30.41c0-.11-.13-.17-.24-.19-.5-.09-1.02-.05-1.53,0-1.02.09-2.04.22-3.05.34-.14.02-.28.03-.42.05-.52.06-1.03.12-1.55.1.51.03,1.03.05,1.53-.08.22-.06.43-.15.65-.21.2-.05.41-.07.61-.1.56-.06,1.13-.12,1.69-.18.2-.02.4-.04.6-.06.68-.07,1.36-.15,2.05-.1-.34.07-.68.14-1.03.21"/>
                <path d="m13.05,31.56c-.25.07-.49.2-.75.27-.24.06-.49.07-.73.07-.88,0-1.79-.11-2.63.17.65.08,1.29-.2,1.95-.2.52,0,1.03.18,1.54.11.39-.05.74-.24,1.11-.36.43-.14.85-.14,1.3-.12-.56-.05-1.24-.1-1.79.06Z"/>
              </g>
            </g>
            <g>
              <path class="cls-15" d="m18.22,32.82c0,2.27,1.76,4.12,3.93,4.12s3.93-1.84,3.93-4.12c0-2.27-1.76-4.12-3.93-4.12l-1.19.19c-1.59.53-2.74,2.09-2.74,3.93Z"/>
              <path d="m18.17,32.82c0-1.83,1.12-3.43,2.78-3.98l1.2-.19h0c2.2,0,3.99,1.87,3.99,4.18,0,2.3-1.79,4.18-3.99,4.18s-3.99-1.87-3.99-4.18Zm2.82-3.87c-1.62.54-2.7,2.09-2.7,3.87,0,2.24,1.74,4.06,3.87,4.06s3.87-1.82,3.87-4.06-1.74-4.06-3.87-4.06l-1.18.19Z"/>
            </g>
            <g>
              <path class="cls-1" d="m18.53,32.82c0,2.1,1.62,3.8,3.63,3.8s3.63-1.7,3.63-3.8-1.62-3.8-3.63-3.8l-1.1.18c-1.47.49-2.53,1.93-2.53,3.63Z"/>
              <path d="m18.5,32.82c0-1.68,1.03-3.15,2.56-3.65l1.1-.18c2.02,0,3.66,1.72,3.66,3.83,0,2.11-1.64,3.83-3.66,3.83s-3.66-1.72-3.66-3.83Zm2.57-3.6c-1.5.5-2.51,1.94-2.51,3.6,0,2.08,1.61,3.77,3.6,3.77s3.6-1.69,3.6-3.77-1.61-3.77-3.6-3.77l-1.09.17Z"/>
            </g>
            <path class="cls-11" d="m22.25,36.23c-.69-.02-1.18-.34-1.5-.54-1.09-.7-1.73-1.68-1.79-2.75h0c-.02-.4,0-1.41.77-2.27.9-1.02,2.17-1.05,2.54-1.04.88.03,1.54.4,1.94.71.35.27,1.5,1.27,1.36,2.6-.03.25-.2.58-.55,1.25l-.04.08c-.3.58-.46.87-.65,1.08-.09.09-.85.88-1.98.88-.03,0-.06,0-.08,0Zm-2.4-5.45c-.72.81-.74,1.77-.72,2.14.06,1.02.67,1.95,1.71,2.62.33.21.77.5,1.42.52,1.1.04,1.84-.73,1.93-.82.18-.19.33-.48.62-1.04l.04-.08c.33-.63.51-.97.53-1.19.13-1.25-.96-2.19-1.3-2.45-.31-.24-.96-.64-1.84-.67-.03,0-.06,0-.1,0-.44,0-1.52.1-2.31.98Z"/>
            <path class="cls-11" d="m20.32,34.76c-.45-.51-.75-1.19-.8-1.83-.02-.31-.01-1.11.57-1.82.54-.66,1.38-1.02,2.18-.92.69.08,1.14.47,1.5.79h.01c.37.34,1.15,1.01,1.21,1.94.04.62-.24,1.31-.75,1.85-.54.57-1.24.89-1.99.89s-1.42-.32-1.94-.9Zm-.1-3.53c-.55.68-.54,1.47-.53,1.7h-.09s.09,0,.09,0c.08,1.08,1.01,2.57,2.56,2.57.7,0,1.36-.3,1.86-.83.47-.51.74-1.15.7-1.72-.05-.86-.8-1.5-1.15-1.81h-.01c-.36-.33-.77-.68-1.41-.76-.08,0-.15-.01-.23-.01-.66,0-1.35.33-1.8.87Z"/>
            <path class="cls-11" d="m21.03,34.64c-.48-.33-.74-.9-.76-1.71h.09s-.09,0-.09,0c-.02-.87.25-1.52.76-1.83.49-.3,1.02-.2,1.24-.16.79.15,1.97.8,1.97,1.99,0,1.21-1.16,1.89-1.98,1.99-.09.01-.18.02-.26.02-.45,0-.78-.15-.98-.29Zm.09-3.4c-.46.28-.7.88-.68,1.68h0c0,.28.03,1.12.68,1.57.21.15.58.31,1.12.24.76-.09,1.82-.71,1.82-1.82s-1.09-1.68-1.83-1.82c-.1-.02-.25-.05-.43-.05-.21,0-.46.04-.69.18Zm-.85,1.69h.09s-.09,0-.09,0c0,0,0,0,0,0Z"/>
            <path class="cls-11" d="m21.07,32.94h0c-.03-.37.12-.76.4-1.04.25-.25.56-.37.87-.35.29.02.56.16.76.4.23.27.35.64.32.98-.05.56-.51,1.17-1.18,1.17h0c-.68,0-1.14-.61-1.18-1.17Zm.52-.92c-.24.24-.37.58-.35.9.04.49.45,1.01,1.01,1.01h0c.57,0,.97-.53,1.01-1.02.03-.3-.08-.62-.28-.86-.18-.21-.4-.33-.64-.34-.02,0-.04,0-.06,0-.24,0-.48.11-.68.3Z"/>
            <path class="cls-11" d="m22.23,33.53c-.06-.02-.58-.16-.58-.6,0-.33.27-.6.6-.6.37,0,.56.35.6.59,0,.04.06.41-.18.58-.08.05-.17.07-.24.07-.08,0-.16-.02-.2-.03Zm-.41-.6c0,.31.41.42.45.43.07.02.2.05.3-.02.16-.11.11-.4.11-.4-.02-.12-.14-.45-.43-.45-.24,0-.43.19-.43.43Z"/>
            <path d="m18.27,32.03c-2.25.06-4.49.15-6.74.29,2.25-.08,4.49-.11,6.74-.11v-.17h0Z"/>
            <path d="m18.23,32.22c.69.25,1.39.48,2.1.69-.68-.27-1.36-.55-2.03-.85l-.06.16h0Z"/>
            <path d="m25.31,34.75c-.57-.3-1.15-.58-1.73-.84.56.33,1.12.67,1.68,1.04l.05-.2h0Z"/>
            <path d="m18.5,33.9c-.28-.03-.56-.05-.84-.07l-.84.02c-.56.01-1.12.03-1.69.04-.56.02-1.12.04-1.68.06l-.84.03c-.28.04-.56.08-.84.12.28.02.56.03.85.05l.84-.03c.56-.02,1.12-.04,1.68-.06s1.12-.03,1.68-.04l.84-.02c.28-.03.56-.06.84-.1,0,0-.28.04,0,0Z"/>
            <path d="m17.24,30.89c-.1,0-.21.01-.31.02-.11,0-.23,0-.34.01-.22,0-.43,0-.65.01-.44.01-.89.03-1.33.07-.88.07-1.75.19-2.62.3-.49.06-.98.15-1.47.17-.06,0-.06-.08,0-.09.44-.02.87-.1,1.31-.15s.88-.11,1.33-.16c.87-.1,1.75-.19,2.63-.22.25,0,.49-.01.74-.02.12,0,.24,0,.37,0s.25-.03.37-.02c.06,0,.06.09,0,.09h0Z"/>
            <path d="m23.19,36.44s.04-.01.06-.03c.02-.03.03-.07.01-.1-.02-.04-.07-.07-.14-.07-.01,0-.02,0-.03,0-.03,0-.06,0-.09,0-.06-.02-.08-.1-.08-.17,0-.06.04-.12.07-.18l.02-.03c.06-.12.2-.42.04-.64l-.05.03c.14.2.02.48-.04.58l-.02.03c-.03.06-.07.13-.08.2-.01.09.02.19.11.23.04.01.07.01.11.01.01,0,.02,0,.03,0,.03,0,.07,0,.09.04,0,.01,0,.03,0,.04,0,0,0,0-.01,0l-.02.05s.01,0,.02,0Z"/>
            <path class="cls-12" d="m18.26,31.32l-1.14-.04c-.48-.02-.95-.03-1.43.01-.31.03-.62.08-.92.1-.3.02-.6,0-.9.02-.89.04-1.77.3-2.65.23.07.12.23.13.37.14.21,0,.42,0,.63.01.34,0,.68,0,1.01-.03.29-.03.57-.09.86-.12.23-.02.46-.03.68-.03.79-.02,1.58-.07,2.36-.12.35-.02.7-.04,1.04-.06.07,0,.16-.03.16-.1-.07,0-.14,0-.22,0"/>
            <path class="cls-12" d="m14.56,32.55c-.44.03-.88.11-1.32.14-.38.03-.76.02-1.14,0-.33,0-.65-.02-.98-.03-.39-.01-.78-.02-1.17-.03.67.18,1.37.18,2.06.17.52,0,1.05-.01,1.57-.02.14,0,.28,0,.41-.03.1-.02.2-.04.3-.06.17-.03.34-.03.51-.03.29,0,.57,0,.85.05.2.04.57.16.75.03-.07-.08-.25-.09-.35-.11-.17-.03-.33-.06-.5-.07-.33-.03-.66-.04-1-.02Z"/>
            <path class="cls-12" d="m17.03,34.55c-.26-.03-.52-.05-.77-.02-.24.03-.47.12-.7.18-.36.1-.74.15-1.11.2-1.32.16-2.64.25-3.96.34.56.02,1.12.04,1.69.05.28,0,.56.02.84,0,1.07-.03,2.12-.32,3.19-.35.21,0,.41,0,.61-.05.18-.05.34-.14.52-.18.14-.03.31.02.44-.02-.23-.11-.49-.13-.74-.16Z"/>
            <path class="cls-12" d="m16.61,35.58c-1.65.24-3.31.32-4.98.4.96,0,1.93,0,2.89,0,.65,0,1.3,0,1.95-.01h.44c.71-.01,1.41-.02,2.12-.02.03,0,.07,0,.1-.01.34-.15-.33-.71-.55-.71-.63,0-1.35.27-1.98.37Z"/>
          </g>
          <g>
            <g>
              <path class="cls-15" d="m4.36,38.79c-.24,1.56.54,2.98,1.76,3.36v.02s11.42,1.99,11.42,1.99l.02-.03c-2.15-.32-3.61-2.41-3.27-4.66.28-1.82,1.65-3.19,3.3-3.47l-10.55.1h0c-1.28,0-2.44,1.13-2.67,2.69Z"/>
              <path class="cls-4" d="m6.11,42.2h-.03s0-.03,0-.03c-1.23-.39-1.99-1.84-1.75-3.38h0c.23-1.55,1.39-2.71,2.7-2.71h0l10.55-.1v.06c-1.69.29-3,1.68-3.27,3.45-.16,1.08.08,2.16.7,3.03.61.87,1.52,1.44,2.55,1.6h.05s-.06.09-.06.09l-11.44-1.99Zm.92-6.07h0c-1.28,0-2.41,1.14-2.64,2.66h0c-.23,1.52.52,2.95,1.74,3.33h.02s0,.03,0,.03l10.86,1.89c-.82-.25-1.53-.77-2.04-1.5-.62-.89-.87-1.98-.71-3.07.26-1.7,1.46-3.04,3.04-3.44l-10.26.1Z"/>
              <g class="cls-21">
                <path class="cls-18" d="m4.78,39.62c.13.07.3.1.41.21.22.22.1.61.27.86.13.19.42.29.43.52.7-.06,1.42.09,2.04.41.2.1.39.22.61.3.38.13.79.11,1.18.17.65.1,1.25.42,1.91.46.7.04,1.39-.25,2.09-.21.26.01.51.06.76.12.46.1.95.21,1.29.54.38.37.5.94.85,1.34-.44.03-.88-.04-1.32-.11-2.28-.35-4.57-.69-6.85-1.04-.32-.05-.63-.1-.95-.17-.43-.1-.86-.26-1.3-.32-.15-.02-.31-.03-.45-.11-.12-.07-.2-.18-.3-.27-.32-.3-.76-.43-1.17-.55-.09-.03-.18-.06-.24-.13-.08-.1-.07-.24-.06-.37.07-.58.11-1.17.21-1.75.12-.73.3-.06.61.11Z"/>
                <path d="m10.36,42.25c-.24-.04-.48-.09-.72-.15-1.05-.25-2.1-.5-3.15-.75-.08-.02-.19-.02-.22.05.36.25.8.34,1.23.43.82.17,1.63.34,2.45.51.47.1.95.2,1.43.23.4.02.8,0,1.2,0,.27,0,.82.16,1.03.02-.97-.52-2.21-.19-3.25-.35Z"/>
                <path d="m14.59,37.09c.02-.11-.1-.19-.21-.22-.48-.17-1-.2-1.51-.23-1.02-.06-2.05-.09-3.07-.12-.14,0-.28,0-.42-.01-.52-.02-1.04-.03-1.55-.14.5.1,1.01.2,1.52.15.23-.03.45-.08.68-.11.21-.02.41-.01.62,0,.57.02,1.14.05,1.7.07.2,0,.4.02.6.03.68.03,1.37.06,2.04.2-.35.02-.7.04-1.05.06"/>
                <path d="m9.36,37.46c-.26.03-.52.12-.78.15-.25.03-.49,0-.74-.04-.87-.13-1.75-.38-2.62-.22.63.17,1.31,0,1.96.1.51.08.99.33,1.51.34.39,0,.77-.13,1.15-.19.45-.07.86,0,1.3.07-.55-.13-1.22-.28-1.78-.21Z"/>
              </g>
            </g>
            <g>
              <path class="cls-15" d="m20.49,43.27c1.83-1.35,2.27-3.86.98-5.61s-3.82-2.07-5.65-.72c-1.83,1.35-2.27,3.86-.98,5.61l.86.84c1.37.97,3.31.97,4.79-.12Z"/>
              <path d="m15.66,43.44l-.86-.85h0c-.63-.86-.88-1.93-.69-3,.19-1.07.79-2.03,1.68-2.69.9-.66,1.99-.95,3.07-.81,1.08.14,2.03.69,2.66,1.54.63.86.88,1.92.69,3-.19,1.07-.79,2.03-1.68,2.69h0c-.77.57-1.66.85-2.55.85-.82,0-1.62-.24-2.31-.73Zm4.79-.22c.87-.64,1.46-1.57,1.64-2.62.18-1.04-.05-2.08-.67-2.91-.61-.83-1.53-1.36-2.58-1.5-1.05-.13-2.11.15-2.99.79-.87.64-1.46,1.57-1.64,2.62-.18,1.04.05,2.07.67,2.91l.85.84c1.39.98,3.29.93,4.72-.12h0Z"/>
            </g>
            <g>
              <path class="cls-1" d="m20.31,43.02c1.69-1.25,2.1-3.56.91-5.18s-3.52-1.91-5.21-.66-2.1,3.56-.91,5.18l.79.78c1.26.89,3.05.9,4.42-.11Z"/>
              <path d="m15.87,43.16l-.79-.78c-1.2-1.62-.79-3.96.91-5.22,1.7-1.25,4.06-.95,5.25.67,1.2,1.62.79,3.96-.91,5.22h0c-.7.52-1.52.78-2.34.78-.75,0-1.49-.22-2.12-.67Zm.15-5.95c-1.67,1.23-2.08,3.54-.9,5.13l.79.77c1.29.91,3.06.87,4.39-.11,1.67-1.23,2.08-3.54.9-5.14-.69-.93-1.76-1.42-2.87-1.42-.79,0-1.6.25-2.3.76Z"/>
            </g>
            <path class="cls-11" d="m17.87,43.34c-1.35-.12-2.13-1.12-2.34-1.43-.5-.73-.59-1.48-.58-1.98,0-.45.13-1.96,1.29-2.64.21-.13.59-.18,1.33-.3h.09c.65-.11.97-.16,1.26-.13.13.01,1.26.17,1.93,1.14.39.57.43,1.15.45,1.53.09,1.29-.32,2.39-1.15,3.08h0c-.28.23-1.01.74-2.01.74-.09,0-.18,0-.27-.01Zm-.18-6.19h-.09c-.7.12-1.09.18-1.27.29-1.08.64-1.19,2.07-1.2,2.49,0,.39.05,1.15.55,1.88.2.29.94,1.24,2.22,1.35,1.08.1,1.87-.45,2.15-.69h0c.78-.65,1.17-1.69,1.09-2.93-.03-.39-.06-.92-.42-1.45-.62-.9-1.69-1.05-1.81-1.06-.05,0-.1,0-.16,0-.24,0-.54.05-1.05.13Z"/>
            <path class="cls-11" d="m18.02,42.77c-.86-.04-1.64-.5-2.04-1.21-.34-.6-.3-1.2-.26-1.68v-.02c.04-.49.12-1.52.84-2.12.48-.4,1.2-.59,1.93-.5.78.09,1.45.47,1.9,1.07.43.59.58,1.33.42,2.1-.14.67-.51,1.31-1,1.72h0c-.23.19-.83.63-1.67.63-.04,0-.08,0-.12,0Zm1.69-.75c.82-.7,1.47-2.34.55-3.59-.41-.56-1.04-.92-1.78-1-.69-.08-1.36.09-1.8.46-.66.55-.74,1.53-.78,2v.02c-.04.48-.08,1.02.23,1.58.37.64,1.11,1.08,1.9,1.12.87.04,1.51-.43,1.68-.58h0Z"/>
            <path class="cls-11" d="m17.44,42.03c-.53-.22-.76-.7-.86-.91-.35-.73-.52-2.06.43-2.76.97-.72,2.21-.19,2.77.41.41.43.51.87.52,1.16.02.58-.29,1.13-.93,1.62l-.06-.07.05.07c-.49.38-.97.57-1.41.57-.18,0-.35-.03-.51-.1Zm-.33-3.53c-.87.64-.7,1.88-.38,2.55.09.19.3.63.77.82.5.2,1.12.04,1.76-.45h0c.22-.17.89-.69.86-1.48,0-.26-.1-.65-.47-1.05-.34-.37-.95-.7-1.58-.7-.33,0-.66.09-.96.31Z"/>
            <path class="cls-11" d="m17.82,41.19c-.35-.05-.63-.23-.8-.49-.15-.24-.2-.55-.13-.85.08-.35.31-.66.6-.85.48-.3,1.25-.28,1.65.25.4.54.19,1.28-.24,1.65-.23.2-.54.31-.87.31-.07,0-.14,0-.21-.02Zm-.24-2.05c-.26.16-.45.43-.52.74-.06.26-.02.52.1.72.14.22.38.37.68.42.34.05.69-.04.93-.25h0c.37-.32.55-.96.22-1.41-.2-.26-.5-.38-.8-.38-.22,0-.44.06-.62.17Z"/>
            <path class="cls-11" d="m17.7,40.31c-.22-.29-.05-.66.12-.84.03-.03.29-.29.57-.2.19.07.26.25.3.33.02.06.22.57-.14.83-.11.08-.23.12-.36.12-.19,0-.37-.09-.49-.25Zm.24-.72c-.09.09-.28.38-.1.61.14.19.41.23.6.09h0c.25-.18.1-.58.08-.62-.03-.07-.08-.2-.19-.23-.02,0-.05-.01-.07-.01-.16,0-.31.16-.32.16Z"/>
            <path d="m14.44,38.71c-2.23-.28-4.46-.52-6.7-.72,2.23.26,4.46.56,6.68.89l.02-.17h0Z"/>
            <path d="m20.01,43.62c-.22-.7-.44-1.4-.69-2.1.19.71.36,1.43.52,2.14l.17-.04h0Z"/>
            <path d="m17.84,36.41c.1.64.22,1.27.35,1.89-.07-.65-.12-1.3-.16-1.96l-.19.07h0Z"/>
            <path d="m14.39,40.59c-.27-.07-.55-.14-.82-.2l-.84-.11c-.56-.07-1.11-.14-1.67-.21-.56-.07-1.12-.13-1.67-.2l-.84-.09c-.28,0-.56,0-.85,0,.28.06.55.12.83.17l.84.09c.56.06,1.12.13,1.67.19.56.07,1.11.14,1.67.21l.83.11c.28.01.56.02.85.03,0,0-.28,0,0,0Z"/>
            <path d="m13.6,37.43c-.11-.02-.22-.02-.33-.03s-.22-.03-.34-.04c-.21-.03-.43-.06-.65-.08-.43-.05-.86-.1-1.3-.13-.88-.06-1.76-.07-2.64-.09-.49-.01-.99,0-1.48-.05-.05,0-.06-.09,0-.09.44.04.88.04,1.31.04s.89.02,1.34.04c.89.03,1.77.07,2.66.18.24.03.48.06.71.09.13.02.25.03.38.05.12.01.24,0,.35.03.05.01.03.09-.02.08h0Z"/>
            <path d="m19.61,37.98c.08-.23.37-.3.5-.31h.03c.07-.01.14-.02.21-.06.08-.04.14-.13.12-.22,0-.04-.03-.07-.05-.1,0,0-.01-.02-.02-.03-.02-.02-.04-.06-.02-.1,0-.01.02-.02.04-.02,0,0,.01,0,.01,0l.05-.02s-.03-.05-.07-.05c-.04,0-.08.02-.09.05-.02.04,0,.1.03.15,0,0,.01.02.02.03.02.03.04.05.04.08.02.06-.03.13-.09.16-.06.03-.12.04-.19.05h-.03c-.13.02-.45.1-.54.36l.05.02Z"/>
            <path class="cls-12" d="m14.54,38.01l-1.13-.21c-.47-.09-.94-.17-1.41-.2-.31-.02-.62-.01-.93-.04-.3-.03-.59-.08-.89-.12-.88-.1-1.79.03-2.66-.17.05.13.21.17.34.19.21.04.41.07.62.11.33.06.67.11,1,.12.29.01.58,0,.87,0,.23.01.45.04.68.07.78.1,1.57.16,2.35.23.35.03.7.06,1.04.09.07,0,.17,0,.18-.08-.07-.01-.14-.03-.21-.04"/>
            <path class="cls-12" d="m10.7,38.67c-.44-.04-.88-.02-1.32-.06-.38-.03-.75-.1-1.13-.16-.32-.06-.64-.12-.96-.17-.38-.07-.77-.14-1.15-.21.63.28,1.32.38,2.01.48.52.07,1.04.15,1.55.22.14.02.27.04.41.04.1,0,.2-.01.3-.02.17,0,.34.02.5.05.28.04.57.08.84.17.2.07.54.25.74.14-.05-.09-.23-.13-.33-.16-.16-.06-.32-.11-.48-.15-.32-.08-.65-.14-.98-.17Z"/>
            <path class="cls-12" d="m12.84,41.01c-.25-.07-.5-.13-.76-.14-.24,0-.48.04-.72.07-.37.04-.75.04-1.13.03-1.32-.04-2.64-.15-3.97-.26.55.1,1.11.2,1.66.3.28.05.55.1.83.13,1.06.13,2.14,0,3.2.13.2.03.41.06.61.04.18-.02.36-.08.54-.1.15,0,.3.06.43.05-.21-.14-.46-.21-.7-.27Z"/>
            <path class="cls-12" d="m12.27,41.97c-1.66,0-3.32-.18-4.98-.35.95.15,1.91.3,2.86.43.64.09,1.29.19,1.93.28l.44.06c.7.1,1.4.2,2.1.3.03,0,.07,0,.1,0,.36-.1-.22-.76-.43-.79-.63-.09-1.38.07-2.02.07Z"/>
          </g>
        </g>
        <path class="cls-17" d="m28.56,3.32c-1.44-.47-2.96.22-3.61,1.54-.89.04-1.71.63-2,1.54,0,.01,0,.02,0,.04-.69.09-1.27.61-1.36,1.34-.01.11.01.21.02.31-.36.16-.63.49-.69.91-.08.65.37,1.79,1.01,1.88.56.07,1.06-.28,1.24-.8.32,0,.62-.09.87-.28.24.29.56-.02.94.11.82.27,1.69-.02,2.2-.66,1.44.22,2.87-.63,3.33-2.08.51-1.61-.36-3.33-1.95-3.85Z"/>
        <path class="cls-8" d="m37.64,12.15c-.72-.48-1.67-.33-2.24.3-.5-.11-1.04.09-1.34.55,0,0,0,.01,0,.02-.4-.06-.79.14-.96.53-.02.06-.02.12-.04.18-.22.04-.42.17-.52.4-.15.35-.07,1.05.27,1.19.3.13.63,0,.81-.25.18.04.36.04.53-.02.09.2.31.08.51.2.41.27.94.25,1.32-.03.76.34,1.69.09,2.16-.65.53-.81.31-1.9-.49-2.43Z"/>
      </g>
    </g>
  </g>
</svg>