<?xml version="1.0" encoding="UTF-8"?>
<svg id="Layer_2" data-name="Layer 2" xmlns="http://www.w3.org/2000/svg" xmlns:xlink="http://www.w3.org/1999/xlink" viewBox="0 0 48 48">
  <defs>
    <style>
      .cls-1 {
        fill: #fff;
      }

      .cls-2 {
        fill: #f0f7ff;
      }

      .cls-3 {
        fill: gray;
      }

      .cls-3, .cls-4, .cls-5, .cls-6, .cls-7, .cls-8 {
        stroke: #000;
        stroke-miterlimit: 10;
      }

      .cls-9 {
        fill: #ffda79;
      }

      .cls-10 {
        fill: #fdbf4c;
      }

      .cls-4 {
        fill: #606060;
      }

      .cls-11 {
        fill: #fabe2c;
      }

      .cls-5 {
        fill: #707070;
      }

      .cls-12 {
        clip-path: url(#clippath);
      }

      .cls-6 {
        fill: #717272;
      }

      .cls-13 {
        fill: none;
      }

      .cls-7 {
        fill: #3f3f3f;
      }

      .cls-14 {
        fill: #463f3f;
      }

      .cls-15 {
        fill: #ff914c;
      }

      .cls-8 {
        fill: #515151;
      }

      .cls-16 {
        fill: #7eb239;
      }
    </style>
    <clipPath id="clippath">
      <rect class="cls-13" width="48" height="48"/>
    </clipPath>
  </defs>
  <g id="Layer_1-2" data-name="Layer 1">
    <g class="cls-12">
      <g>
        <g>
          <polygon class="cls-7" points="22.74 13.11 24.32 11.18 27.6 10.21 32.95 11.53 32.29 19.68 30.54 15.3 22.74 13.11"/>
          <path class="cls-5" d="m21.95,23.51l-.87-3.19-4.88-2.24s-.98,1.1-1.38,2.39c-.4,1.28,0,2.51,0,2.51,0,0,2.85,1.02,3.49,1.17s3.63-.63,3.63-.63Z"/>
          <polygon class="cls-4" points="18.7 19.07 18.9 16.52 21.32 12.66 29.05 15.11 25.36 23.4 18.7 19.07"/>
          <path class="cls-3" d="m25.41,16.1l4.56-1.48,1.62-2.8,2.18-.84,5.56,2.14,1.49-.59.58,2.97-.14,1.82c-.03.39-.3,2.59-.71,2.71s-3.8-1.75-3.8-1.75l-1.71,1.27-5.92-1.45-3.73-1.99Z"/>
          <path class="cls-6" d="m31.76,19.61l2.37-2.85,2.7.74s2.95,2.78,3.63,2.76.95,1.62.95,1.62l-.92,1.48s-4.17.83-5.04.8-1.6-1.97-1.6-1.97l-2.09-2.58Z"/>
          <polygon class="cls-8" points="22.12 23.44 20.76 20.01 21.45 17.1 24.67 14.58 30.54 15.3 32.29 19.68 34.07 21.55 34.69 23.48 22.12 23.44"/>
        </g>
        <g>
          <g>
            <polygon class="cls-11" points="14.86 27.62 18.85 39.72 28.16 39.72 28.16 27.62 14.86 27.62"/>
            <polygon class="cls-15" points="41.46 27.62 28.16 27.62 28.16 39.72 37.48 39.72 41.46 27.62"/>
          </g>
          <g>
            <rect class="cls-9" x="12.32" y="22.76" width="15.84" height="4.86"/>
            <rect class="cls-10" x="28.16" y="22.76" width="15.84" height="4.86"/>
          </g>
          <g>
            <circle class="cls-14" cx="18.7" cy="39.72" r="4.28"/>
            <rect class="cls-2" x="17.91" y="38.93" width="1.58" height="1.58"/>
          </g>
          <g>
            <circle class="cls-14" cx="37.19" cy="39.72" r="4.28"/>
            <rect class="cls-2" x="36.4" y="38.93" width="1.58" height="1.58"/>
          </g>
        </g>
      </g>
      <g>
        <circle class="cls-16" cx="10" cy="39.72" r="5.49"/>
        <g>
          <rect class="cls-1" x="9.03" y="35.75" width="1.94" height="5.39"/>
          <polygon class="cls-1" points="12.94 40.75 7.05 40.75 10 43.7 12.94 40.75"/>
        </g>
      </g>
    </g>
  </g>
</svg>