<?xml version="1.0" encoding="UTF-8"?>
<svg id="Layer_2" data-name="Layer 2" xmlns="http://www.w3.org/2000/svg" xmlns:xlink="http://www.w3.org/1999/xlink" viewBox="0 0 48 48">
  <defs>
    <style>
      .cls-1 {
        fill: #fff;
      }

      .cls-2 {
        fill: #fadf4a;
      }

      .cls-3 {
        clip-path: url(#clippath-2);
      }

      .cls-4 {
        fill: #e5c12c;
      }

      .cls-5 {
        fill: #71a0c6;
      }

      .cls-6 {
        clip-path: url(#clippath-6);
      }

      .cls-7 {
        fill: #225e99;
      }

      .cls-8 {
        clip-path: url(#clippath-1);
      }

      .cls-9 {
        clip-path: url(#clippath-4);
      }

      .cls-10 {
        fill: #497eb2;
      }

      .cls-11 {
        clip-path: url(#clippath);
      }

      .cls-12 {
        fill: none;
      }

      .cls-13 {
        clip-path: url(#clippath-3);
      }

      .cls-14 {
        clip-path: url(#clippath-5);
      }

      .cls-15 {
        fill: #fb6771;
      }

      .cls-16 {
        fill: #7eb239;
      }
    </style>
    <clipPath id="clippath">
      <rect class="cls-12" width="48" height="48"/>
    </clipPath>
    <clipPath id="clippath-1">
      <rect class="cls-10" x="17.05" y="12.07" width="17.76" height="27.36"/>
    </clipPath>
    <clipPath id="clippath-2">
      <path class="cls-2" d="m28.31,26.8c0,1.31-1.06,2.38-2.38,2.38s-2.38-1.06-2.38-2.38,2.38-4.48,2.38-4.48c0,0,2.38,3.17,2.38,4.48Z"/>
    </clipPath>
    <clipPath id="clippath-3">
      <rect class="cls-10" x="6.9" y="20.19" width="14.65" height="22.56"/>
    </clipPath>
    <clipPath id="clippath-4">
      <path class="cls-2" d="m16.18,32.34c0,1.08-.88,1.96-1.96,1.96s-1.96-.88-1.96-1.96,1.96-3.7,1.96-3.7c0,0,1.96,2.61,1.96,3.7Z"/>
    </clipPath>
    <clipPath id="clippath-5">
      <rect class="cls-10" x="29.09" y="22.9" width="12.98" height="20"/>
    </clipPath>
    <clipPath id="clippath-6">
      <path class="cls-2" d="m37.32,33.67c0,.96-.78,1.74-1.74,1.74s-1.74-.78-1.74-1.74,1.74-3.28,1.74-3.28c0,0,1.74,2.32,1.74,3.28Z"/>
    </clipPath>
  </defs>
  <g id="Layer_1-2" data-name="Layer 1">
    <g class="cls-11">
      <g>
        <g>
          <rect class="cls-10" x="17.05" y="12.07" width="17.76" height="27.36"/>
          <g class="cls-8">
            <rect class="cls-5" x="15" y="10.47" width="4.11" height="30.47"/>
          </g>
        </g>
        <path class="cls-7" d="m35.93,13.62h-19.38c-.58,0-1.04-.47-1.04-1.04s.47-1.04,1.04-1.04h19.38c.58,0,1.04.47,1.04,1.04s-.47,1.04-1.04,1.04Z"/>
        <path class="cls-7" d="m35.93,40.94h-19.38c-.58,0-1.04-.47-1.04-1.04s.47-1.04,1.04-1.04h19.38c.58,0,1.04.47,1.04,1.04s-.47,1.04-1.04,1.04Z"/>
        <circle class="cls-15" cx="25.93" cy="25.75" r="5.68"/>
        <g>
          <g>
            <path class="cls-2" d="m28.31,26.8c0,1.31-1.06,2.38-2.38,2.38s-2.38-1.06-2.38-2.38,2.38-4.48,2.38-4.48c0,0,2.38,3.17,2.38,4.48Z"/>
            <g class="cls-3">
              <path class="cls-4" d="m26.72,21.97c-.61,1.09-1.01,2.05-1.27,2.75-.46,1.26-.69,1.9-.55,2.65.22,1.14,1.11,1.86,1.54,2.16-1.34-.24-2.69-.47-4.03-.71l1.19-6.86h3.12Z"/>
            </g>
          </g>
          <path class="cls-1" d="m26.89,28.11c-.08,0-.15-.07-.15-.15s.07-.15.15-.15c.28,0,.52-.41.52-.9,0-.08.07-.15.15-.15s.15.07.15.15c0,.67-.36,1.2-.82,1.2Z"/>
        </g>
        <path class="cls-7" d="m35.83,16.32h-19.28c-.33,0-.6-.27-.6-.6s.27-.6.6-.6h19.28c.33,0,.6.27.6.6s-.27.6-.6.6Z"/>
        <path class="cls-7" d="m35.83,37.48h-19.28c-.33,0-.6-.27-.6-.6s.27-.6.6-.6h19.28c.33,0,.6.27.6.6s-.27.6-.6.6Z"/>
      </g>
      <g>
        <g>
          <rect class="cls-10" x="6.9" y="20.19" width="14.65" height="22.56"/>
          <g class="cls-13">
            <rect class="cls-5" x="5.2" y="18.88" width="3.39" height="25.12"/>
          </g>
        </g>
        <path class="cls-7" d="m22.46,21.47H6.48c-.48,0-.86-.39-.86-.86s.39-.86.86-.86h15.98c.48,0,.86.39.86.86s-.39.86-.86.86Z"/>
        <path class="cls-7" d="m22.46,44H6.48c-.48,0-.86-.39-.86-.86s.39-.86.86-.86h15.98c.48,0,.86.39.86.86s-.39.86-.86.86Z"/>
        <circle class="cls-15" cx="14.22" cy="31.47" r="4.68"/>
        <g>
          <g>
            <path class="cls-2" d="m16.18,32.34c0,1.08-.88,1.96-1.96,1.96s-1.96-.88-1.96-1.96,1.96-3.7,1.96-3.7c0,0,1.96,2.61,1.96,3.7Z"/>
            <g class="cls-9">
              <path class="cls-4" d="m14.87,28.35c-.51.9-.83,1.69-1.05,2.27-.38,1.04-.57,1.57-.45,2.19.18.94.91,1.54,1.27,1.78-1.11-.19-2.22-.39-3.33-.58l.98-5.66h2.57Z"/>
            </g>
          </g>
          <path class="cls-1" d="m15.01,33.42c-.07,0-.12-.05-.12-.12s.06-.12.12-.12c.23,0,.43-.34.43-.74,0-.07.06-.12.12-.12s.12.05.12.12c0,.55-.3.99-.67.99Z"/>
        </g>
        <path class="cls-7" d="m22.38,23.7H6.48c-.27,0-.49-.22-.49-.49s.22-.49.49-.49h15.9c.27,0,.49.22.49.49s-.22.49-.49.49Z"/>
        <path class="cls-7" d="m22.38,41.15H6.48c-.27,0-.49-.22-.49-.49s.22-.49.49-.49h15.9c.27,0,.49.22.49.49s-.22.49-.49.49Z"/>
      </g>
      <g>
        <circle class="cls-16" cx="9.59" cy="40.57" r="4.99"/>
        <g>
          <rect class="cls-1" x="8.71" y="36.96" width="1.76" height="4.9"/>
          <polygon class="cls-1" points="12.27 41.51 6.92 41.51 9.59 44.18 12.27 41.51"/>
        </g>
      </g>
      <g>
        <g>
          <rect class="cls-10" x="29.09" y="22.9" width="12.98" height="20"/>
          <g class="cls-14">
            <rect class="cls-5" x="27.59" y="21.73" width="3.01" height="22.27"/>
          </g>
        </g>
        <path class="cls-7" d="m42.89,24.03h-14.17c-.42,0-.76-.34-.76-.76s.34-.76.76-.76h14.17c.42,0,.76.34.76.76s-.34.76-.76.76Z"/>
        <path class="cls-7" d="m42.89,44h-14.17c-.42,0-.76-.34-.76-.76s.34-.76.76-.76h14.17c.42,0,.76.34.76.76s-.34.76-.76.76Z"/>
        <circle class="cls-15" cx="35.58" cy="32.9" r="4.15"/>
        <g>
          <g>
            <path class="cls-2" d="m37.32,33.67c0,.96-.78,1.74-1.74,1.74s-1.74-.78-1.74-1.74,1.74-3.28,1.74-3.28c0,0,1.74,2.32,1.74,3.28Z"/>
            <g class="cls-6">
              <path class="cls-4" d="m36.15,30.13c-.45.8-.74,1.5-.93,2.01-.34.92-.5,1.39-.4,1.94.16.84.81,1.36,1.12,1.58-.98-.17-1.97-.34-2.95-.52l.87-5.01h2.28Z"/>
            </g>
          </g>
          <path class="cls-1" d="m36.28,34.62c-.06,0-.11-.05-.11-.11s.05-.11.11-.11c.21,0,.38-.3.38-.66,0-.06.05-.11.11-.11s.11.05.11.11c0,.49-.26.87-.6.87Z"/>
        </g>
        <path class="cls-7" d="m42.81,26h-14.09c-.24,0-.44-.2-.44-.44s.19-.44.44-.44h14.09c.24,0,.44.2.44.44s-.19.44-.44.44Z"/>
        <path class="cls-7" d="m42.81,41.47h-14.09c-.24,0-.44-.2-.44-.44s.19-.44.44-.44h14.09c.24,0,.44.2.44.44s-.19.44-.44.44Z"/>
      </g>
    </g>
  </g>
</svg>