<?xml version="1.0" encoding="UTF-8"?>
<svg id="Layer_2" data-name="Layer 2" xmlns="http://www.w3.org/2000/svg" xmlns:xlink="http://www.w3.org/1999/xlink" viewBox="0 0 24 24">
  <defs>
    <style>
      .cls-1, .cls-2 {
        fill: #fff;
      }

      .cls-3 {
        stroke: #dbcbb6;
      }

      .cls-3, .cls-2, .cls-4, .cls-5, .cls-6, .cls-7, .cls-8, .cls-9, .cls-10 {
        stroke-miterlimit: 10;
      }

      .cls-3, .cls-4 {
        stroke-width: 1.5px;
      }

      .cls-3, .cls-4, .cls-5, .cls-6, .cls-11, .cls-7, .cls-8, .cls-9, .cls-10 {
        fill: none;
      }

      .cls-2 {
        stroke: #e2e2e2;
        stroke-width: .5px;
      }

      .cls-4, .cls-10 {
        stroke: #b6d6db;
      }

      .cls-12 {
        fill: #213244;
      }

      .cls-5 {
        stroke: #d7dbb6;
      }

      .cls-5, .cls-6, .cls-8, .cls-10 {
        stroke-width: 3.5px;
      }

      .cls-6 {
        stroke: #bddbb6;
      }

      .cls-13 {
        opacity: .55;
      }

      .cls-14 {
        clip-path: url(#clippath);
      }

      .cls-7 {
        stroke: #c3b6db;
      }

      .cls-7, .cls-9 {
        stroke-width: 2.5px;
      }

      .cls-8 {
        stroke: #dbc1b6;
      }

      .cls-15 {
        fill: #8f9aaa;
      }

      .cls-16 {
        fill: #6b7a8c;
      }

      .cls-9 {
        stroke: #dbb6b6;
      }

      .cls-17 {
        fill: #122230;
        font-family: Arial-BoldMT, Arial;
        font-size: 3.8px;
        font-weight: 700;
      }
    </style>
    <clipPath id="clippath">
      <rect class="cls-11" width="24" height="24"/>
    </clipPath>
  </defs>
  <g id="Layer_2-2" data-name="Layer 2">
    <g id="Layer_1-2" data-name="Layer 1-2">
      <g class="cls-14">
        <g class="cls-13">
          <path class="cls-6" d="m19.11,3.71c-.36,0-.81,0-1.35.18-1.44.54-1.44,1.62-3.15,2.88-1.08.81-1.44.63-1.89,1.26,0,0-.36.54-.72,2.34h0"/>
          <path class="cls-4" d="m19.11,16.76c-.9,0-1.8-.09-2.52-.63s-1.08-1.08-1.62-1.62c-.63-.81-1.62-1.89-3.15-2.88"/>
          <path class="cls-7" d="m19.11,13.25h-1.35c-.99.09-1.08.18-1.44.09-.63-.09-.9-.36-2.16-1.17-.45-.27-1.08-.72-1.89-1.26"/>
          <path class="cls-8" d="m19.11,8.75c-.36,0-.81.09-1.35.18-.99.36-1.08.72-1.98,1.17-.72.36-.9.27-3.06.81-.63.18-1.17.36-1.53.45"/>
          <path class="cls-10" d="m4.98,15.86c.36,0,.81,0,1.35-.18,1.44-.54,1.44-1.62,3.15-2.88,1.08-.81,1.44-.63,1.89-1.26,0,0,.36-.54.72-2.34h0"/>
          <rect class="cls-15" x="3" y="1.73" width="1.98" height="1.98"/>
          <rect class="cls-15" x="3" y="4.7" width="1.98" height="2.97"/>
          <rect class="cls-15" x="3" y="8.75" width="1.98" height="3.96"/>
          <rect class="cls-15" x="3" y="13.7" width="1.98" height="3.96"/>
          <rect class="cls-15" x="19.02" y="15.77" width="1.98" height="1.98"/>
          <rect class="cls-15" x="19.02" y="11.72" width="1.98" height="2.97"/>
          <rect class="cls-15" x="19.02" y="6.77" width="1.98" height="3.96"/>
          <rect class="cls-15" x="19.02" y="1.73" width="1.98" height="3.96"/>
          <path class="cls-3" d="m4.98,2.72c.81,0,1.8.09,2.52.63.63.45.81.9,1.62,1.62.45.54,1.17,1.08,2.07,1.71"/>
          <path class="cls-9" d="m4.98,6.23h1.35c.99-.09,1.08-.18,1.44-.09.63,0,.99.36,2.16,1.17.45.27,1.08.72,1.89,1.26"/>
          <path class="cls-5" d="m4.98,10.73c.36,0,.81-.09,1.35-.18.99-.36,1.08-.72,1.98-1.17.72-.36.9-.27,3.06-.81.63-.18,1.17-.36,1.53-.45"/>
          <circle class="cls-2" cx="12" cy="9.74" r="4.23"/>
          <g>
            <path class="cls-1" d="m7.45,4.06c-.58,0-1.15.46-1.15,1.15v9.58l.23-.23,1.27-1.27,3.81-3.81c.23-.12.35-.23.46-.46l4.96-4.96s-9.58,0-9.58,0Zm10.74.92l-.23.23-6.46,6.46-1.39,1.39-2.66,2.66-.23.23h9.93c.58,0,1.15-.46,1.15-1.15V5.21q-.12-.12-.12-.23Z"/>
            <path class="cls-16" d="m17.03,3.82H7.45c-.81,0-1.5.58-1.5,1.39v9.93l.35-.35.23-.23V5.21c0-.46.35-.81.81-.81h9.35l.58-.58h-.23Zm1.39.92l-.23.23h0l-.23.23v9.7c0,.46-.35.81-.81.81H7.45l-.46.46c.12.12.35.12.46.12h9.7c.81,0,1.39-.58,1.39-1.39V5.21c0-.12-.12-.35-.12-.46Z"/>
          </g>
          <g>
            <path class="cls-1" d="m7.79,13.29l-1.04.12h-.46l.23-.23,2.89-2.66c.35-.23.81-.23,1.15,0h0l-2.77,2.77Z"/>
            <path class="cls-1" d="m18.18,12.37h-.23l-7.85.69,1.39-1.39.23-.23.58.58c.46.35,1.04.23,1.27-.23l1.04-2.31c.23-.58,1.04-.69,1.39-.12l2.08,2.66.12.35Z"/>
            <path class="cls-16" d="m10.79,10.29l-.46.46h0c-.23-.23-.58-.23-.69,0l-2.89,2.66-.23.23-.12.12-.12-.35-.23-.23.23-.12.23-.23,2.66-2.42c.46-.46,1.15-.46,1.62-.12h0Z"/>
            <path class="cls-16" d="m18.41,12.14l-.23.23-.23.12-.12-.12-2.19-2.89c-.12-.12-.23-.23-.46-.23s-.35.12-.46.35l-1.04,2.31c-.12.35-.46.58-.81.58-.35.12-.69,0-.92-.23l-.58-.58.35-.35.58.58c.12.12.23.12.46.12.12,0,.35-.12.35-.35l1.04-2.31c.12-.35.46-.58.92-.69.35,0,.81.12,1.04.46l1.85,2.31.23.35.23.35Z"/>
          </g>
          <g>
            <circle class="cls-1" cx="10.79" cy="8.21" r="1.15"/>
            <path class="cls-16" d="m10.79,6.83c-.81,0-1.5.69-1.5,1.5s.69,1.5,1.5,1.5c.23,0,.58-.12.81-.23.23-.12.35-.23.46-.46.12-.23.23-.46.23-.81,0-.92-.69-1.5-1.5-1.5Zm0,.58c.46,0,.92.35.92.92,0,.46-.35.92-.92.92-.46,0-.92-.35-.92-.92.12-.58.46-.92.92-.92Z"/>
          </g>
          <g>
            <path class="cls-12" d="m11.6,9.48l.23-.54c-.06.27-.12.4-.23.54Z"/>
            <path class="cls-12" d="m18.76,3.94l-.58.58-12.7,12.7c-.12.12-.23.12-.35.12s-.23,0-.35-.12c-.23-.23-.23-.46,0-.58L18.18,3.36c.23-.23.46-.23.58,0,.23.12.23.35,0,.58Z"/>
          </g>
        </g>
        <text class="cls-17" transform="translate(3.46 21.63)"><tspan x="0" y="0">No Image</tspan></text>
      </g>
    </g>
  </g>
</svg>