<?xml version="1.0" encoding="UTF-8"?>
<svg id="Layer_2" data-name="Layer 2" xmlns="http://www.w3.org/2000/svg" xmlns:xlink="http://www.w3.org/1999/xlink" viewBox="0 0 48 48">
  <defs>
    <style>
      .cls-1 {
        fill: #bfaf8d;
      }

      .cls-2, .cls-3 {
        fill: #ede6dd;
      }

      .cls-4 {
        clip-path: url(#clippath-2);
      }

      .cls-5 {
        clip-path: url(#clippath-1);
      }

      .cls-6 {
        fill: #070707;
        opacity: .15;
      }

      .cls-7 {
        fill: #fdb659;
      }

      .cls-8 {
        fill: #b6bbc2;
      }

      .cls-9 {
        clip-path: url(#clippath);
      }

      .cls-10 {
        fill: #5a86cc;
      }

      .cls-11 {
        fill: none;
      }

      .cls-12 {
        fill: #eac06c;
      }

      .cls-13 {
        fill: #f4da3f;
      }

      .cls-14 {
        fill: #d8ac5d;
      }

      .cls-3 {
        stroke: #757575;
        stroke-miterlimit: 10;
        stroke-width: .53px;
      }
    </style>
    <clipPath id="clippath">
      <rect class="cls-11" width="48" height="48"/>
    </clipPath>
    <clipPath id="clippath-1">
      <rect class="cls-12" x="13.19" y="28.9" width="26.51" height="13.88" rx="1.14" ry="1.14"/>
    </clipPath>
    <clipPath id="clippath-2">
      <path class="cls-1" d="m2.82,42.02l8.93.03,9.05.18c-3.95-9.7-3.29-25.73-3.29-25.73h-.12l.12-.21H6.11s0,.07,0,.21h0,0c.06,1.97.38,16.48-3.3,25.51Z"/>
    </clipPath>
  </defs>
  <g id="Layer_1-2" data-name="Layer 1">
    <g class="cls-9">
      <g>
        <path class="cls-10" d="m34.95,28.39h-5.8c-.23,0-.42-.19-.43-.42l-.23-15.55c0-.11.04-.22.12-.31.08-.08.19-.13.3-.13h6.25c.11,0,.22.05.3.13.08.08.12.19.12.31l-.23,15.55c0,.23-.19.42-.43.42Zm-5.38-.85h4.96l.21-14.7h-5.39l.21,14.7Z"/>
        <path class="cls-10" d="m35.08,12.93h-6.05c-.14,0-.28-.07-.36-.19-.08-.12-.09-.27-.04-.4l1.8-4.22c.07-.16.22-.26.39-.26h2.46c.17,0,.32.1.39.26l1.8,4.22c.06.13.04.28-.04.4-.08.12-.21.19-.36.19Zm-5.41-.85h4.76l-1.43-3.37h-1.9l-1.43,3.37Z"/>
        <path class="cls-10" d="m37.52,10.63c-.24,0-.43-.19-.43-.43v-1.31h-10.02v1.31c0,.24-.19.43-.43.43s-.43-.19-.43-.43v-1.74c0-.24.19-.43.43-.43h10.87c.24,0,.43.19.43.43v1.74c0,.24-.19.43-.43.43Z"/>
        <path class="cls-13" d="m27.84,10.63h-2.15c-.24,0-.43-.19-.43-.43s.19-.43.43-.43h2.15c.24,0,.43.19.43.43s-.19.43-.43.43Z"/>
        <path class="cls-13" d="m38.59,10.63h-2.15c-.24,0-.43-.19-.43-.43s.19-.43.43-.43h2.15c.24,0,.43.19.43.43s-.19.43-.43.43Z"/>
        <path class="cls-10" d="m43.52,20.62c-.24,0-.43-.19-.43-.43v-3.57l-8.11-3.69h-5.86l-8.01,4.17v3.09c0,.24-.19.43-.43.43s-.43-.19-.43-.43v-3.61l8.66-4.5h6.25l8.78,3.99v4.12c0,.24-.19.43-.43.43Z"/>
        <path class="cls-10" d="m43.52,28.31c-.24,0-.43-.19-.43-.43v-3.57l-8.11-3.69h-5.86l-8.01,4.17v3.09c0,.24-.19.43-.43.43s-.43-.19-.43-.43v-3.61l8.66-4.5h6.25l8.78,3.99v4.12c0,.24-.19.43-.43.43Z"/>
        <path class="cls-10" d="m20.69,30.39c-.24,0-.43-.19-.43-.43v-2.65c0-.24.19-.43.43-.43s.43.19.43.43v2.65c0,.24-.19.43-.43.43Z"/>
        <path class="cls-10" d="m43.52,30.39c-.24,0-.43-.19-.43-.43v-2.65c0-.24.19-.43.43-.43s.43.19.43.43v2.65c0,.24-.19.43-.43.43Z"/>
        <path class="cls-13" d="m44.6,20.62h-2.15c-.24,0-.43-.19-.43-.43s.19-.43.43-.43h2.15c.24,0,.43.19.43.43s-.19.43-.43.43Z"/>
        <path class="cls-13" d="m44.6,28.39h-2.15c-.24,0-.43-.19-.43-.43s.19-.43.43-.43h2.15c.24,0,.43.19.43.43s-.19.43-.43.43Z"/>
        <path class="cls-13" d="m44.6,30.39h-2.15c-.24,0-.43-.19-.43-.43s.19-.43.43-.43h2.15c.24,0,.43.19.43.43s-.19.43-.43.43Z"/>
        <path class="cls-13" d="m21.76,28.48h-2.15c-.24,0-.43-.19-.43-.43s.19-.43.43-.43h2.15c.24,0,.43.19.43.43s-.19.43-.43.43Z"/>
        <path class="cls-13" d="m21.76,30.39h-2.15c-.24,0-.43-.19-.43-.43s.19-.43.43-.43h2.15c.24,0,.43.19.43.43s-.19.43-.43.43Z"/>
        <path class="cls-13" d="m21.76,20.62h-2.15c-.24,0-.43-.19-.43-.43s.19-.43.43-.43h2.15c.24,0,.43.19.43.43s-.19.43-.43.43Z"/>
        <path class="cls-10" d="m43.52,26.58h-22.83c-.24,0-.43-.19-.43-.43s.19-.43.43-.43h22.83c.24,0,.43.19.43.43s-.19.43-.43.43Z"/>
        <path class="cls-10" d="m39.84,38.03c-.16,0-.31-.09-.38-.23l-4.89-9.64c-.11-.21-.02-.47.19-.57.21-.11.47-.02.57.19l4.89,9.64c.11.21.02.47-.19.57-.06.03-.13.05-.19.05Z"/>
        <path class="cls-10" d="m37.97,38.17c-.12,0-.23-.05-.31-.14l-8.3-9.11c-.16-.17-.15-.44.03-.6.18-.16.44-.15.6.03l8.3,9.11c.16.17.15.44-.03.6-.08.07-.18.11-.29.11Z"/>
        <path class="cls-10" d="m26.33,38.17c-.1,0-.21-.04-.29-.11-.17-.16-.19-.43-.03-.6l8.3-9.11c.16-.17.43-.19.6-.03.17.16.19.43.03.6l-8.3,9.11c-.08.09-.2.14-.31.14Z"/>
        <path class="cls-10" d="m34.88,26.4c-.11,0-.22-.04-.31-.13l-5.31-5.45c-.16-.17-.16-.44,0-.6.17-.16.44-.16.6,0l5.31,5.45c.16.17.16.44,0,.6-.08.08-.19.12-.3.12Z"/>
        <path class="cls-10" d="m29.4,26.58c-.1,0-.21-.04-.29-.11-.17-.16-.19-.43-.03-.6l5.13-5.63c.16-.17.43-.19.6-.03.17.16.19.43.03.6l-5.13,5.63c-.08.09-.2.14-.31.14Z"/>
        <path class="cls-10" d="m34.88,18.38c-.11,0-.22-.04-.31-.13l-5.31-5.45c-.16-.17-.16-.44,0-.6.17-.16.44-.16.6,0l5.31,5.45c.16.17.16.44,0,.6-.08.08-.19.12-.3.12Z"/>
        <path class="cls-10" d="m29.4,18.57c-.1,0-.21-.04-.29-.11-.17-.16-.19-.43-.03-.6l5.13-5.63c.16-.17.43-.19.6-.03.17.16.19.43.03.6l-5.13,5.63c-.08.09-.2.14-.31.14Z"/>
        <path class="cls-10" d="m24.37,38.03c-.06,0-.13-.01-.19-.05-.21-.11-.29-.36-.19-.57l4.89-9.64c.11-.21.36-.29.57-.19.21.11.29.36.19.57l-4.89,9.64c-.07.15-.22.23-.38.23Z"/>
        <path class="cls-10" d="m43.52,18.61h-22.83c-.24,0-.43-.19-.43-.43s.19-.43.43-.43h22.83c.24,0,.43.19.43.43s-.19.43-.43.43Z"/>
      </g>
      <g>
        <rect class="cls-12" x="13.19" y="28.9" width="26.51" height="13.88" rx="1.14" ry="1.14"/>
        <g class="cls-5">
          <path class="cls-14" d="m18.39,25.62s2.54,16.68,5.61,18.38-7.71.51-7.71.51v-18.47l2.1-.43Z"/>
        </g>
      </g>
      <rect class="cls-3" x="34.2" y="36.27" width="3.97" height="6.51" rx=".36" ry=".36"/>
      <g>
        <g>
          <path class="cls-1" d="m2.82,42.02l8.93.03,9.05.18c-3.95-9.7-3.29-25.73-3.29-25.73h-.12l.12-.21H6.11s0,.07,0,.21h0,0c.06,1.97.38,16.48-3.3,25.51Z"/>
          <g class="cls-4">
            <path class="cls-6" d="m15.12,15.42s-.77,24.3,3.84,29.34l4.61.55-.82-6.16s-1.2-11.45-1.51-14.99-.3-6.78-.63-7.14-2.84-2.03-2.84-2.03l-2.64.44Z"/>
          </g>
        </g>
        <rect class="cls-7" x="2.9" y="42.05" width="41.1" height="1.95"/>
      </g>
      <rect class="cls-2" x="22.29" y="32.39" width="3.76" height="2.26"/>
      <rect class="cls-2" x="27.15" y="32.39" width="3.76" height="2.26"/>
      <rect class="cls-2" x="22.29" y="35.66" width="3.76" height="2.26"/>
      <rect class="cls-2" x="27.15" y="35.66" width="3.76" height="2.26"/>
      <path class="cls-8" d="m22.31,6.63c0-1.69-1.37-3.07-3.07-3.07-.89,0-1.69.39-2.25.99-.38-.34-.87-.56-1.42-.56-1.17,0-2.12.95-2.12,2.12,0,.03,0,.06,0,.09-.88.26-1.53,1.06-1.53,2.03,0,.06.01.12.02.19,0,0-.01,0-.02,0-1.17,0-2.12.95-2.12,2.12,0,.74.38,1.4.96,1.78-.02.1-.03.21-.03.31,0,1.17.95,2.12,2.12,2.12,1.01,0,1.85-.71,2.07-1.65.85-.02,1.56-.56,1.84-1.31.28.14.6.23.94.23,1.17,0,2.12-.95,2.12-2.12,0-.09-.02-.18-.03-.27,1.43-.26,2.52-1.51,2.52-3.01Z"/>
    </g>
  </g>
</svg>