<?xml version="1.0" encoding="UTF-8"?>
<svg id="Layer_2" data-name="Layer 2" xmlns="http://www.w3.org/2000/svg" xmlns:xlink="http://www.w3.org/1999/xlink" viewBox="0 0 48 48">
  <defs>
    <style>
      .cls-1 {
        fill: #fff;
      }

      .cls-2 {
        fill: #848484;
      }

      .cls-3 {
        fill: #e2b864;
      }

      .cls-4 {
        clip-path: url(#clippath-2);
      }

      .cls-5 {
        fill: #b2b2b2;
      }

      .cls-6 {
        fill: #ffda79;
      }

      .cls-7 {
        fill: #ce921b;
      }

      .cls-8 {
        clip-path: url(#clippath-1);
      }

      .cls-9 {
        clip-path: url(#clippath);
      }

      .cls-10 {
        fill: none;
      }

      .cls-11 {
        fill: #5b9ad8;
      }

      .cls-12 {
        clip-path: url(#clippath-3);
      }

      .cls-13 {
        fill: #737b82;
      }

      .cls-14 {
        fill: #6d6d6d;
      }

      .cls-15 {
        fill: #7eb239;
      }

      .cls-16 {
        fill: #c1851b;
      }
    </style>
    <clipPath id="clippath">
      <rect class="cls-10" width="48" height="48"/>
    </clipPath>
    <clipPath id="clippath-1">
      <path class="cls-6" d="m24.8,43.48h-14.5v-18.58c0-.53.42-.96.94-.96h12.62c.52,0,.94.43.94.96v18.58Z"/>
    </clipPath>
    <clipPath id="clippath-2">
      <path class="cls-7" d="m20.48,43.48h-5.86v-7.41c0-.27.21-.48.47-.48h4.92c.26,0,.47.22.47.48v7.41Z"/>
    </clipPath>
    <clipPath id="clippath-3">
      <rect class="cls-5" x="15.82" y="9.24" width="3.46" height="14.69"/>
    </clipPath>
  </defs>
  <g id="Layer_1-2" data-name="Layer 1">
    <g class="cls-9">
      <g>
        <g>
          <path class="cls-5" d="m26.16,30.4c-.26,0-.47-.21-.47-.48v-5.59c0-2.68,2.13-4.86,4.75-4.86h1.87c.26,0,.47.21.47.48s-.21.48-.47.48h-1.87c-2.11,0-3.82,1.75-3.82,3.9v5.59c0,.26-.21.48-.47.48Z"/>
          <path class="cls-14" d="m8.05,35.23h2.61c.52,0,.95.42.95.95v7.3h-4.5v-7.3c0-.52.42-.95.95-.95Z"/>
          <path class="cls-14" d="m24.85,28.66h2.61c.52,0,.95.42.95.95v13.87h-4.5v-13.87c0-.52.42-.95.95-.95Z"/>
          <g>
            <path class="cls-6" d="m24.8,43.48h-14.5v-18.58c0-.53.42-.96.94-.96h12.62c.52,0,.94.43.94.96v18.58Z"/>
            <g class="cls-8">
              <rect class="cls-3" x="23.38" y="22.22" width="5.03" height="24.54"/>
            </g>
          </g>
          <polygon class="cls-11" points="19.35 28.71 18.14 28.71 18.12 28.71 17.83 26.03 15.76 29.31 16.97 29.31 16.99 29.31 17.28 32 19.35 28.71"/>
          <g>
            <path class="cls-7" d="m20.48,43.48h-5.86v-7.41c0-.27.21-.48.47-.48h4.92c.26,0,.47.22.47.48v7.41Z"/>
            <g class="cls-4">
              <rect class="cls-16" x="19.65" y="34.79" width="2.35" height="10.62"/>
            </g>
          </g>
          <g>
            <path class="cls-5" d="m30.05,43.96c-.16,0-.32-.08-.4-.24-.13-.23-.06-.52.17-.65l10.31-6.17-9.37-6.19c-.13-.09-.21-.23-.21-.39,0-.16.07-.31.19-.4l8.4-6.2-7.22-5.84c-.11-.09-.18-.23-.18-.37,0-.15.06-.28.17-.37l5.98-4.95c.2-.17.5-.14.66.07.16.2.13.51-.07.67l-5.52,4.58,7.25,5.86c.12.09.18.24.18.39,0,.15-.07.29-.19.38l-8.35,6.16,9.43,6.23c.14.09.22.25.21.41,0,.17-.09.32-.23.4l-10.96,6.56c-.08.04-.16.07-.24.07Z"/>
            <path class="cls-5" d="m41.16,43.96c-.08,0-.16-.02-.24-.07l-10.96-6.56c-.14-.08-.23-.24-.23-.41,0-.17.08-.32.22-.41l9.89-6.23-8.62-6.15c-.12-.09-.19-.22-.2-.37s.06-.29.17-.39l7.07-5.87-5.36-4.58c-.2-.17-.22-.47-.06-.67.16-.2.46-.23.66-.06l5.8,4.95c.11.09.17.23.17.37,0,.14-.07.28-.17.37l-7.02,5.83,8.7,6.21c.13.09.2.25.2.41,0,.16-.09.31-.22.39l-9.83,6.19,10.29,6.16c.22.13.3.43.17.65-.09.15-.24.24-.4.24Z"/>
            <path class="cls-2" d="m41.32,44.24c-.23,0-.44-.18-.46-.42l-3.6-31.65h-3.15l-3.6,31.65c-.03.26-.26.45-.52.42-.26-.03-.44-.27-.41-.53l3.64-32.07c.03-.24.23-.42.47-.42h3.98c.24,0,.44.18.47.42l3.64,32.07c.03.26-.15.5-.41.53-.02,0-.04,0-.06,0Z"/>
            <path class="cls-13" d="m40.7,14.36c-.26,0-.47-.21-.47-.48v-1.72h-9.1v1.72c0,.26-.21.48-.47.48s-.47-.21-.47-.48v-2.2c0-.26.21-.48.47-.48h10.04c.26,0,.47.21.47.48v2.2c0,.26-.21.48-.47.48Z"/>
            <path class="cls-13" d="m31.27,14.54h-1.21c-.26,0-.47-.21-.47-.48s.21-.48.47-.48h1.21c.26,0,.47.21.47.48s-.21.48-.47.48Z"/>
            <path class="cls-13" d="m41.3,14.54h-1.21c-.26,0-.47-.21-.47-.48s.21-.48.47-.48h1.21c.26,0,.47.21.47.48s-.21.48-.47.48Z"/>
          </g>
          <g>
            <rect class="cls-5" x="15.82" y="9.24" width="3.46" height="14.69"/>
            <g class="cls-12">
              <rect class="cls-2" x="17.61" y="9.24" width="3.46" height="14.69"/>
            </g>
          </g>
          <path class="cls-2" d="m20.2,9.3h-5.3c-.26,0-.47-.21-.47-.48s.21-.48.47-.48h5.3c.26,0,.47.21.47.48s-.21.48-.47.48Z"/>
          <path class="cls-2" d="m20.2,13.08h-5.3c-.26,0-.47-.21-.47-.48s.21-.48.47-.48h5.3c.26,0,.47.21.47.48s-.21.48-.47.48Z"/>
          <path class="cls-2" d="m20.2,16.43h-5.3c-.26,0-.47-.21-.47-.48s.21-.48.47-.48h5.3c.26,0,.47.21.47.48s-.21.48-.47.48Z"/>
          <path class="cls-2" d="m20.2,19.78h-5.3c-.26,0-.47-.21-.47-.48s.21-.48.47-.48h5.3c.26,0,.47.21.47.48s-.21.48-.47.48Z"/>
        </g>
        <path class="cls-2" d="m43.15,44.24H4.42c-.23,0-.42-.21-.42-.48s.19-.48.42-.48h38.73c.23,0,.42.21.42.48s-.19.48-.42.48Z"/>
      </g>
      <g>
        <circle class="cls-15" cx="10.46" cy="40.68" r="4.99"/>
        <g>
          <rect class="cls-1" x="9.57" y="37.07" width="1.76" height="4.9"/>
          <polygon class="cls-1" points="13.13 41.61 7.78 41.61 10.46 44.29 13.13 41.61"/>
        </g>
      </g>
    </g>
  </g>
</svg>