<?xml version="1.0" encoding="UTF-8"?>
<svg id="Layer_2" data-name="Layer 2" xmlns="http://www.w3.org/2000/svg" xmlns:xlink="http://www.w3.org/1999/xlink" viewBox="0 0 48 48">
  <defs>
    <style>
      .cls-1 {
        fill: #ff1a1a;
      }

      .cls-2 {
        fill: #fff;
      }

      .cls-3 {
        fill: #40bde5;
      }

      .cls-4 {
        clip-path: url(#clippath);
      }

      .cls-5 {
        fill: none;
      }

      .cls-6 {
        fill: #f2d840;
        stroke: #fff;
        stroke-linejoin: round;
        stroke-width: 1.23px;
      }
    </style>
    <clipPath id="clippath">
      <rect class="cls-5" width="48" height="48"/>
    </clipPath>
  </defs>
  <g id="Layer_1-2" data-name="Layer 1">
    <g class="cls-4">
      <g>
        <g>
          <g>
            <path class="cls-3" d="m11.88,33.5h0s.09.09.14.13c-.05-.04-.09-.08-.13-.13Z"/>
            <path class="cls-3" d="m21.86,4.49c.07,0,.13,0,.2,0,0,0,0,0,0,0-.07,0-.14,0-.2.02Z"/>
            <path class="cls-3" d="m24.9,38.06s0,0,0,0c.07,0,.14,0,.2-.02-.07,0-.13,0-.2,0Zm-2.86,0c-.06,0-.13,0-.19,0,.07,0,.13,0,.2.02"/>
            <path class="cls-3" d="m22.04,38.06s0,0,0,0"/>
          </g>
          <g>
            <path class="cls-3" d="m16.46,13.17c-1.24,2.27-2.16,4.87-2.25,7.61h8.78v-6.18c-2.28-.06-4.47-.54-6.53-1.43Zm.48-.85c1.91.82,3.94,1.25,6.05,1.31V5.01c-1.33,1.2-4,3.85-6.05,7.31Zm16.82,9.44c-.09,2.92-1.02,5.65-2.3,8.03,1.58.78,3.03,1.8,4.3,3.03,2.85-3.03,4.45-6.92,4.57-11.06h-6.57Zm-2.78,8.87c-2,3.45-4.61,6.09-6.07,7.43,0,0,0,0,0,0,.07,0,.14,0,.2-.02.26-.02.53-.06.8-.1,1.58-.22,3.11-.67,4.56-1.33.2-.09.4-.19.6-.28.2-.1.38-.2.57-.3.15-.08.29-.17.44-.25.3-.18.61-.37.9-.58.2-.13.38-.25.57-.4.16-.11.31-.22.46-.35.17-.13.33-.26.49-.41.2-.17.41-.35.6-.54-1.21-1.16-2.59-2.13-4.1-2.88Zm-7.01-1.74v8.63c1.32-1.2,3.99-3.85,6.05-7.32-1.9-.82-3.94-1.26-6.05-1.31Zm6.52-15.72c-2.06.9-4.25,1.38-6.52,1.43v6.18h8.77c-.1-2.74-1.02-5.34-2.25-7.61Zm-6.52,8.59v6.16c2.28.05,4.48.53,6.53,1.43,1.23-2.27,2.15-4.86,2.24-7.59h-8.77Zm11.77-12.04c-1.27,1.22-2.71,2.23-4.29,3.02,1.28,2.39,2.23,5.12,2.31,8.05h6.57c-.12-4.15-1.73-8.04-4.59-11.07Zm-11.77-4.7v8.62c2.11-.06,4.14-.5,6.04-1.31-2.05-3.46-4.72-6.11-6.04-7.31Zm10.79,3.74c-.2-.18-.39-.35-.6-.52-.17-.14-.33-.27-.5-.4-.3-.22-.61-.45-.93-.65-.2-.14-.4-.26-.61-.38-.2-.13-.4-.24-.61-.35-.06-.03-.12-.06-.18-.09-.16-.09-.32-.18-.48-.25-1.05-.51-2.15-.91-3.28-1.19-.18-.05-.34-.09-.52-.12-.39-.09-.79-.17-1.19-.21-.26-.04-.53-.08-.79-.1-.07,0-.14,0-.2-.02,1.45,1.34,4.06,3.97,6.07,7.42,1.5-.75,2.88-1.7,4.1-2.86-.1-.1-.2-.19-.3-.27Zm-12.72,29.31c-1.46-1.34-4.06-3.97-6.07-7.42-1.51.75-2.88,1.71-4.09,2.86h0s.09.09.14.13c.04.04.08.08.13.12.19.18.37.34.57.5.04.04.09.08.13.11.2.16.39.31.6.46.19.15.37.27.57.4.29.2.59.4.89.58.2.12.41.23.61.34.02,0,.03.02.05.03.18.1.35.19.53.27.65.32,1.34.6,2.04.83.2.07.39.13.59.19.21.06.43.13.65.18.18.05.34.09.52.12.39.09.79.17,1.19.21.26.04.54.08.8.1.07,0,.13,0,.2.02m-8.86-16.31h-6.58c.12,4.14,1.73,8.03,4.58,11.06,1.27-1.23,2.71-2.24,4.3-3.03-1.28-2.38-2.22-5.11-2.3-8.03Zm-1.99-12.04c-2.85,3.03-4.47,6.92-4.59,11.07h6.58c.09-2.93,1.03-5.66,2.31-8.05-1.58-.78-3.03-1.8-4.3-3.02Zm3.01,12.04c.1,2.73,1.02,5.32,2.24,7.59,2.05-.91,4.25-1.39,6.54-1.44v-6.15h-8.78Zm2.25-8.59c-1.24,2.27-2.16,4.87-2.25,7.61h8.78v-6.18c-2.28-.06-4.47-.54-6.53-1.43Zm.47,17.03c2.06,3.47,4.73,6.12,6.06,7.32v-8.63c-2.12.05-4.16.49-6.06,1.31Zm0-17.88c1.91.82,3.94,1.25,6.05,1.31V5.01c-1.33,1.2-4,3.85-6.05,7.31Zm4.92-7.84c-.26.02-.53.06-.8.1-.26.03-.53.08-.78.13-.18.03-.35.07-.52.11-.36.08-.71.18-1.06.27-.2.06-.39.12-.59.19-.55.19-1.08.39-1.61.63-.2.09-.4.19-.6.28-.2.1-.38.2-.57.3-.18.09-.34.19-.52.29-.18.11-.35.22-.53.33-.16.1-.31.2-.47.31-.28.2-.56.41-.83.62-.18.14-.34.27-.51.42-.2.17-.39.34-.58.53,0,0-.02,0-.03.02,1.22,1.16,2.6,2.11,4.1,2.86,2.01-3.45,4.62-6.08,6.07-7.41,0,0,0,0,0,0-.07,0-.14,0-.2.02Zm-5.4,8.69c-1.24,2.27-2.16,4.87-2.25,7.61h8.78v-6.18c-2.28-.06-4.47-.54-6.53-1.43Zm.48-.85c1.91.82,3.94,1.25,6.05,1.31V5.01c-1.33,1.2-4,3.85-6.05,7.31Z"/>
            <path class="cls-3" d="m23.97,5.01v8.62c2.11-.06,4.14-.5,6.04-1.31-2.05-3.46-4.72-6.11-6.04-7.31Zm10.79,3.74c-.2-.18-.39-.35-.6-.52-.17-.14-.33-.27-.5-.4-.3-.22-.61-.45-.93-.65-.2-.14-.4-.26-.61-.38-.2-.13-.4-.24-.61-.35-.06-.03-.12-.06-.18-.09-.16-.09-.32-.18-.48-.25-1.05-.51-2.15-.91-3.28-1.19-.18-.05-.34-.09-.52-.12-.39-.09-.79-.17-1.19-.21-.26-.04-.53-.08-.79-.1-.07,0-.14,0-.2-.02,1.45,1.34,4.06,3.97,6.07,7.42,1.5-.75,2.88-1.7,4.1-2.86-.1-.1-.2-.19-.3-.27Zm-17.82,3.57c1.91.82,3.94,1.25,6.05,1.31V5.01c-1.33,1.2-4,3.85-6.05,7.31Zm4.92-7.84c-.26.02-.53.06-.8.1-.26.03-.53.08-.78.13-.18.03-.35.07-.52.11-.36.08-.71.18-1.06.27-.2.06-.39.12-.59.19-.55.19-1.08.39-1.61.63-.2.09-.4.19-.6.28-.2.1-.38.2-.57.3-.18.09-.34.19-.52.29-.18.11-.35.22-.53.33-.16.1-.31.2-.47.31-.28.2-.56.41-.83.62-.18.14-.34.27-.51.42-.2.17-.39.34-.58.53,0,0-.02,0-.03.02,1.22,1.16,2.6,2.11,4.1,2.86,2.01-3.45,4.62-6.08,6.07-7.41,0,0,0,0,0,0-.07,0-.14,0-.2.02Z"/>
            <path class="cls-3" d="m22.05,38.07c-.07,0-.13,0-.2-.02-.26-.02-.54-.06-.8-.1-.4-.05-.8-.13-1.19-.21-.18-.03-.34-.07-.52-.12-.22-.05-.44-.12-.65-.18-.2-.06-.39-.12-.59-.19-.7-.23-1.39-.51-2.04-.83-.18-.09-.35-.18-.53-.27-.02,0-.03-.02-.05-.03-.2-.11-.41-.22-.61-.34-.3-.18-.6-.37-.89-.58-.2-.13-.38-.25-.57-.4-.2-.15-.4-.3-.6-.46-.04-.03-.09-.07-.13-.11-.2-.16-.38-.32-.57-.5-.05-.04-.09-.08-.13-.12-.05-.04-.1-.08-.14-.12h0c1.21-1.16,2.58-2.12,4.09-2.87,2.01,3.45,4.61,6.08,6.07,7.42"/>
            <path class="cls-3" d="m22.99,28.89v8.63c-1.33-1.2-4-3.85-6.06-7.32,1.9-.82,3.94-1.26,6.06-1.31Z"/>
            <path class="cls-3" d="m30.02,30.2c-2.06,3.47-4.73,6.12-6.05,7.32v-8.63c2.11.05,4.15.49,6.05,1.31Z"/>
            <path class="cls-3" d="m35.07,33.51c-.2.19-.4.37-.6.54-.16.15-.32.28-.49.41-.15.13-.3.24-.46.35-.19.15-.37.27-.57.4-.29.2-.6.4-.9.58-.15.09-.29.18-.44.25-.19.11-.37.2-.57.3-.2.1-.39.2-.6.28-1.44.65-2.98,1.1-4.56,1.33-.27.04-.54.08-.8.1-.07,0-.14,0-.2.02,0,0,0,0,0,0,1.46-1.34,4.07-3.98,6.07-7.43,1.51.75,2.89,1.72,4.1,2.88Z"/>
            <path class="cls-3" d="m22.99,5.01v8.62c-2.11-.06-4.14-.49-6.05-1.31,2.05-3.46,4.72-6.11,6.05-7.31Z"/>
            <path class="cls-3" d="m22.99,14.61v6.18h-8.78c.1-2.74,1.02-5.34,2.25-7.61,2.06.9,4.25,1.38,6.53,1.43Z"/>
            <path class="cls-3" d="m14.21,21.76h8.78v6.15c-2.29.06-4.49.54-6.54,1.44-1.23-2.27-2.15-4.86-2.24-7.59Z"/>
            <path class="cls-3" d="m16.93,30.2c1.9-.82,3.94-1.26,6.06-1.31v8.63c-1.33-1.2-4-3.85-6.06-7.32Z"/>
            <path class="cls-3" d="m30.01,12.32c-1.9.81-3.93,1.25-6.04,1.31V5.01c1.32,1.2,3.99,3.85,6.04,7.31Z"/>
            <path class="cls-3" d="m23.97,28.89c2.11.05,4.15.49,6.05,1.31-2.06,3.47-4.73,6.12-6.05,7.32v-8.63Z"/>
            <path class="cls-3" d="m23.97,21.76h8.77c-.1,2.73-1.02,5.32-2.24,7.59-2.05-.91-4.25-1.39-6.53-1.43v-6.16Z"/>
            <path class="cls-3" d="m32.74,20.78h-8.77v-6.18c2.27-.06,4.46-.54,6.52-1.43,1.24,2.27,2.16,4.87,2.25,7.61Z"/>
          </g>
        </g>
        <polygon class="cls-6" points="40.63 13.75 34.77 13.75 34.66 13.75 33.27 2.62 23.24 16.25 29.11 16.25 29.22 16.25 30.6 27.37 40.63 13.75"/>
        <g>
          <circle class="cls-1" cx="11.31" cy="39.61" r="5.66"/>
          <g>
            <rect class="cls-2" x="10.31" y="38.14" width="2" height="5.56"/>
            <polygon class="cls-2" points="8.28 38.55 14.35 38.55 11.31 35.52 8.28 38.55"/>
          </g>
        </g>
      </g>
    </g>
  </g>
</svg>