<?xml version="1.0" encoding="UTF-8"?>
<svg id="Layer_2" data-name="Layer 2" xmlns="http://www.w3.org/2000/svg" xmlns:xlink="http://www.w3.org/1999/xlink" viewBox="0 0 48 48">
  <defs>
    <style>
      .cls-1 {
        fill: #fff;
      }

      .cls-2 {
        clip-path: url(#clippath);
      }

      .cls-3 {
        fill: none;
      }

      .cls-4 {
        fill: #a3a8ad;
      }

      .cls-5 {
        fill: #4799cf;
      }

      .cls-6 {
        fill: #6cbae5;
      }

      .cls-7 {
        fill: #447ef2;
      }
    </style>
    <clipPath id="clippath">
      <rect class="cls-3" width="48" height="48"/>
    </clipPath>
  </defs>
  <g id="Layer_1-2" data-name="Layer 1">
    <g class="cls-2">
      <g>
        <g>
          <path class="cls-4" d="m35.3,20.37c.02-1.49-.26-2.94-.78-4.28l1.09-.7c1.37-.89,1.77-2.72.88-4.09l-.82-1.27-3.58,2.31c-1-1.03-2.21-1.88-3.58-2.48l.27-1.27c.34-1.6-.67-3.17-2.27-3.52l-1.47-.32-.9,4.16c-1.49-.02-2.94.26-4.28.78l-.7-1.09c-.89-1.37-2.72-1.77-4.09-.88l-1.27.82,2.31,3.58c-1.03,1-1.88,2.21-2.48,3.58l-1.27-.27c-1.6-.34-3.17.67-3.52,2.27l-.32,1.47,4.16.9c-.02,1.49.26,2.94.78,4.28l-1.09.7c-1.37.89-1.77,2.72-.88,4.09l.82,1.27,3.58-2.31c1,1.03,2.21,1.88,3.58,2.48l-.27,1.27c-.34,1.6.67,3.17,2.27,3.52l1.47.32.9-4.16c1.49.02,2.94-.26,4.28-.78l.7,1.09c.89,1.37,2.72,1.77,4.09.88l1.27-.82-2.31-3.58c1.03-1,1.88-2.21,2.48-3.58l1.27.27c1.6.34,3.17-.67,3.52-2.27l.32-1.47-4.16-.9Z"/>
          <circle class="cls-1" cx="24" cy="20.21" r="8.49"/>
          <polygon class="cls-7" points="28.31 19.27 25.37 19.48 25.32 19.49 24.21 13.97 19.69 21.16 22.63 20.95 22.68 20.94 23.79 26.46 28.31 19.27"/>
        </g>
        <g>
          <path class="cls-6" d="m44,37.04c-1.67,0-1.67,1.92-3.34,1.92s-1.67-1.92-3.34-1.92-1.67,1.92-3.33,1.92-1.67-1.92-3.33-1.92-1.67,1.92-3.33,1.92-1.67-1.92-3.33-1.92-1.67,1.92-3.33,1.92-1.67-1.92-3.33-1.92-1.67,1.92-3.33,1.92-1.66-1.92-3.33-1.92-1.67,1.92-3.33,1.92-1.67-1.92-3.33-1.92v-3.86c1.67,0,1.67,1.92,3.33,1.92s1.67-1.92,3.33-1.92,1.66,1.92,3.33,1.92,1.67-1.92,3.33-1.92,1.67,1.92,3.33,1.92,1.67-1.92,3.33-1.92,1.67,1.92,3.33,1.92,1.67-1.92,3.33-1.92,1.67,1.92,3.33,1.92,1.67-1.92,3.33-1.92,1.67,1.92,3.34,1.92,1.67-1.92,3.34-1.92v3.86Z"/>
          <path class="cls-5" d="m40.66,38.7c-1.67,0-1.67-2.63-3.34-2.63s-1.67,2.63-3.33,2.63-1.67-2.63-3.33-2.63-1.67,2.63-3.33,2.63-1.67-2.63-3.33-2.63-1.67,2.63-3.33,2.63-1.67-2.63-3.33-2.63-1.67,2.63-3.33,2.63-1.67-2.63-3.33-2.63-1.67,2.63-3.33,2.63-1.67-2.63-3.33-2.63v7.93h40v-7.93c-1.67,0-1.67,2.63-3.34,2.63Z"/>
        </g>
      </g>
    </g>
  </g>
</svg>