<?xml version="1.0" encoding="UTF-8"?>
<svg id="Layer_2" data-name="Layer 2" xmlns="http://www.w3.org/2000/svg" xmlns:xlink="http://www.w3.org/1999/xlink" viewBox="0 0 24 24">
  <defs>
    <style>
      .cls-1 {
        fill: #e9e9e9;
      }

      .cls-2 {
        fill: #33d8dd;
      }

      .cls-3 {
        fill: #acc3d1;
      }

      .cls-4 {
        fill: #020202;
      }

      .cls-5 {
        fill: #859299;
        stroke: #000;
        stroke-width: .24px;
      }

      .cls-5, .cls-6, .cls-7 {
        stroke-miterlimit: 10;
      }

      .cls-8 {
        clip-path: url(#clippath-1);
      }

      .cls-9 {
        clip-path: url(#clippath);
      }

      .cls-10 {
        fill: #fedf30;
      }

      .cls-6 {
        fill: #22b37f;
        stroke: #e9e9e9;
        stroke-width: .4px;
      }

      .cls-11, .cls-7 {
        fill: none;
      }

      .cls-12 {
        opacity: .2;
      }

      .cls-7 {
        stroke: #919191;
        stroke-width: 1.54px;
      }
    </style>
    <clipPath id="clippath">
      <rect class="cls-11" width="24" height="24"/>
    </clipPath>
    <clipPath id="clippath-1">
      <path class="cls-11" d="m15.94,19.02h-7.95l-2.59-6.55c-.07-.17,0-.37.18-.44l6.38-3.03,6.38,3.03c.17.08.24.27.18.44l-2.59,6.55Z"/>
    </clipPath>
  </defs>
  <g id="Layer_1-2" data-name="Layer 1">
    <g class="cls-9">
      <g>
        <path class="cls-5" d="m13.79,6.13v-1.49h-3.64v1.49h-3.31v6.6h10.25v-6.6h-3.31Zm1.26,4.93h-6.16v-3.27h6.16v3.27Z"/>
        <line class="cls-7" x1="12" y1="1.53" x2="12" y2="4.5"/>
        <g>
          <g>
            <path class="cls-1" d="m15.94,19.02h-7.95l-2.59-6.55c-.07-.17,0-.37.18-.44l6.38-3.03,6.38,3.03c.17.08.24.27.18.44l-2.59,6.55Z"/>
            <g class="cls-8">
              <g>
                <polygon class="cls-3" points="15.94 20.43 8 20.43 5.29 13.59 11.97 10.42 18.65 13.59 15.94 20.43"/>
                <g class="cls-12">
                  <rect class="cls-4" x="11.77" y="14.97" width="10.69" height="2.6" transform="translate(-4.29 26.24) rotate(-68.51)"/>
                </g>
              </g>
            </g>
          </g>
          <path class="cls-2" d="m19.85,19.93c-.61,0-1.15-.21-1.63-.4-.36-.14-.73-.28-.99-.28s-.63.15-.99.28c-.47.18-1.02.4-1.63.4s-1.15-.21-1.63-.4c-.36-.14-.73-.28-.99-.28s-.63.15-.99.28c-.47.18-1.02.4-1.63.4s-1.15-.21-1.63-.4c-.36-.14-.73-.28-.99-.28s-.63.15-.99.28c-.47.18-1.02.4-1.63.4s-1.15-.21-1.63-.4c-.36-.14-.73-.28-.99-.28v-.91c.61,0,1.15.21,1.63.4.36.14.73.28.99.28s.63-.15.99-.28c.47-.18,1.02-.4,1.63-.4s1.15.21,1.63.4c.36.14.73.28.99.28s.63-.15.99-.28c.47-.18,1.02-.4,1.63-.4s1.15.21,1.63.4c.36.14.73.28.99.28s.63-.15.99-.28c.47-.18,1.02-.4,1.63-.4s1.15.21,1.63.4c.36.14.73.28.99.28s.63-.15.99-.28c.47-.18,1.02-.4,1.63-.4v.91c-.26,0-.63.15-.99.28-.47.18-1.02.4-1.63.4Z"/>
          <path class="cls-2" d="m19.85,21.2c-.61,0-1.15-.21-1.63-.4-.36-.14-.73-.28-.99-.28s-.63.15-.99.28c-.47.18-1.02.4-1.63.4s-1.15-.21-1.63-.4c-.36-.14-.73-.28-.99-.28s-.63.15-.99.28c-.47.18-1.02.4-1.63.4s-1.15-.21-1.63-.4c-.36-.14-.73-.28-.99-.28s-.63.15-.99.28c-.47.18-1.02.4-1.63.4s-1.15-.21-1.63-.4c-.36-.14-.73-.28-.99-.28v-.91c.61,0,1.15.21,1.63.4.36.14.73.28.99.28s.63-.15.99-.28c.47-.18,1.02-.4,1.63-.4s1.15.21,1.63.4c.36.14.73.28.99.28s.63-.15.99-.28c.47-.18,1.02-.4,1.63-.4s1.15.21,1.63.4c.36.14.73.28.99.28s.63-.15.99-.28c.47-.18,1.02-.4,1.63-.4s1.15.21,1.63.4c.36.14.73.28.99.28s.63-.15.99-.28c.47-.18,1.02-.4,1.63-.4v.91c-.26,0-.63.15-.99.28-.47.18-1.02.4-1.63.4Z"/>
          <path class="cls-2" d="m19.85,22.47c-.61,0-1.15-.21-1.63-.4-.36-.14-.73-.28-.99-.28s-.63.15-.99.28c-.47.18-1.02.4-1.63.4s-1.15-.21-1.63-.4c-.36-.14-.73-.28-.99-.28s-.63.15-.99.28c-.47.18-1.02.4-1.63.4s-1.15-.21-1.63-.4c-.36-.14-.73-.28-.99-.28s-.63.15-.99.28c-.47.18-1.02.4-1.63.4s-1.15-.21-1.63-.4c-.36-.14-.73-.28-.99-.28v-.91c.61,0,1.15.21,1.63.4.36.14.73.28.99.28s.63-.15.99-.28c.47-.18,1.02-.4,1.63-.4s1.15.21,1.63.4c.36.14.73.28.99.28s.63-.15.99-.28c.47-.18,1.02-.4,1.63-.4s1.15.21,1.63.4c.36.14.73.28.99.28s.63-.15.99-.28c.47-.18,1.02-.4,1.63-.4s1.15.21,1.63.4c.36.14.73.28.99.28s.63-.15.99-.28c.47-.18,1.02-.4,1.63-.4v.91c-.26,0-.63.15-.99.28-.47.18-1.02.4-1.63.4Z"/>
        </g>
        <g>
          <circle class="cls-6" cx="17.67" cy="12.38" r="2.47"/>
          <polygon class="cls-10" points="18.71 12.38 18.02 12.38 18.02 10.57 16.62 12.38 17.32 12.38 17.32 14.18 18.71 12.38"/>
        </g>
      </g>
    </g>
  </g>
</svg>