<?xml version="1.0" encoding="UTF-8"?>
<svg id="Layer_2" data-name="Layer 2" xmlns="http://www.w3.org/2000/svg" xmlns:xlink="http://www.w3.org/1999/xlink" viewBox="0 0 48 48">
  <defs>
    <style>
      .cls-1 {
        fill: #fff;
      }

      .cls-2 {
        fill: #6a6d6d;
      }

      .cls-3 {
        clip-path: url(#clippath-2);
      }

      .cls-4 {
        clip-path: url(#clippath-1);
      }

      .cls-5 {
        opacity: .15;
      }

      .cls-6 {
        fill: #f9bb41;
      }

      .cls-7 {
        fill: #67b4e8;
      }

      .cls-8 {
        clip-path: url(#clippath);
      }

      .cls-9 {
        fill: none;
      }

      .cls-10 {
        fill: #c47f33;
      }

      .cls-11 {
        fill: #d2d2d2;
      }
    </style>
    <clipPath id="clippath">
      <rect class="cls-9" width="48" height="48"/>
    </clipPath>
    <clipPath id="clippath-1">
      <polygon class="cls-6" points="20.35 44.29 7.69 44.29 7.69 30.24 20.35 24.79 20.35 44.29"/>
    </clipPath>
    <clipPath id="clippath-2">
      <rect class="cls-7" x="19.7" y="34.96" width="22.08" height="9.33"/>
    </clipPath>
  </defs>
  <g id="Layer_1-2" data-name="Layer 1">
    <g class="cls-8">
      <g>
        <g>
          <polygon class="cls-6" points="20.35 44.29 7.69 44.29 7.69 30.24 20.35 24.79 20.35 44.29"/>
          <g class="cls-4">
            <rect class="cls-5" x="5" y="27" width="5" height="19"/>
          </g>
        </g>
        <g>
          <polygon class="cls-2" points="32.46 23.41 27.83 23.41 26.82 35.42 33.47 35.42 32.46 23.41"/>
          <polygon class="cls-2" points="39.58 23.41 34.94 23.41 33.93 35.42 40.58 35.42 39.58 23.41"/>
          <rect class="cls-10" x="27.19" y="21.84" width="6.01" height="2.49" rx=".33" ry=".33"/>
          <rect class="cls-10" x="34.3" y="21.84" width="6.01" height="2.49" rx=".33" ry=".33"/>
        </g>
        <g>
          <rect class="cls-7" x="19.7" y="34.96" width="22.08" height="9.33"/>
          <g class="cls-3">
            <rect class="cls-5" x="16" y="32" width="5" height="19"/>
          </g>
        </g>
        <rect class="cls-10" x="5.29" y="25.9" width="16.91" height="2.49" rx=".56" ry=".56" transform="translate(-9.62 7.65) rotate(-23.31)"/>
        <rect class="cls-1" x="24.05" y="37.63" width="2.77" height="2.77" rx=".37" ry=".37"/>
        <rect class="cls-1" x="29.41" y="37.63" width="2.77" height="2.77" rx=".37" ry=".37"/>
        <rect class="cls-1" x="34.59" y="37.63" width="2.77" height="2.77" rx=".37" ry=".37"/>
        <rect class="cls-10" x="18.96" y="33.75" width="23.38" height="2.49" rx=".64" ry=".64"/>
        <path class="cls-11" d="m29.47,17.86l-3.58-.26c-.33,1.19-2.36,1.3-2.81.15-1.74.89-3.2.77-4.94,1.66-.38.19-.78.39-1.2.39-.83,0-1.47-.81-1.6-1.63s-.14-.62.12-1.41c-1.12-.97-5.95-.46-6.23-2.02-.03-.17-.03-.35,0-.52.3-1.94,2.4-3.6,1.55-5.38-.31-.65-.7-1.34-.57-2.04.12-.64.66-1.12,1.21-1.48,2.62-1.7,5.96-1.66,9.08-1.57,1.22.04,2.63.17,3.33,1.18.96,1.39-.17,3.24-1.25,4.54.73.07,1.47.04,2.2-.09,1.27-.22,2.27,1.06,1.72,2.22,0,.01-.01.02-.02.04.76.02,1.57.05,2.21.46s1.01,1.35.56,1.96c-.29.39-.85.59-.64,1.27.12.41.48.69.9.77.64.12,2.84.3,2.84,1.23,0,0,0-.03,0,0,0,1.36-.09,3.14-.09,4.53-.73,0-2.49,0-2.96,0,0,0,.17-3.34.16-3.98Z"/>
      </g>
    </g>
  </g>
</svg>