<?xml version="1.0" encoding="UTF-8"?>
<svg id="Layer_2" data-name="Layer 2" xmlns="http://www.w3.org/2000/svg" xmlns:xlink="http://www.w3.org/1999/xlink" viewBox="0 0 48 48">
  <defs>
    <style>
      .cls-1 {
        fill: #e9e9e9;
      }

      .cls-2 {
        fill: #33d8dd;
      }

      .cls-3 {
        fill: #acc3d1;
      }

      .cls-4 {
        clip-path: url(#clippath-2);
      }

      .cls-5 {
        fill: #020202;
      }

      .cls-6 {
        opacity: .2;
      }

      .cls-7 {
        clip-path: url(#clippath-1);
      }

      .cls-8 {
        fill: #8e8e8e;
      }

      .cls-9 {
        clip-path: url(#clippath);
      }

      .cls-10, .cls-11 {
        fill: none;
      }

      .cls-12 {
        fill: #1b3c4c;
      }

      .cls-13 {
        fill: #b4b6bc;
      }

      .cls-14 {
        fill: #919191;
        stroke: #1b3c4c;
        stroke-width: .28px;
      }

      .cls-14, .cls-15, .cls-11 {
        stroke-miterlimit: 10;
      }

      .cls-15 {
        fill: #859299;
        stroke: #000;
        stroke-width: .33px;
      }

      .cls-11 {
        stroke: #919191;
        stroke-width: .83px;
      }
    </style>
    <clipPath id="clippath">
      <rect class="cls-10" width="48" height="48"/>
    </clipPath>
    <clipPath id="clippath-1">
      <rect class="cls-1" x="31.48" y="12.58" width="5.21" height="2.02" rx=".53" ry=".53" transform="translate(68.16 27.17) rotate(180)"/>
    </clipPath>
    <clipPath id="clippath-2">
      <path class="cls-1" d="m39.46,39.46h-10.84l-3.53-8.93c-.09-.23.01-.5.24-.6l8.71-4.13,8.71,4.13c.23.11.33.37.24.6l-3.53,8.93Z"/>
    </clipPath>
  </defs>
  <g id="Layer_1-2" data-name="Layer 1">
    <g class="cls-9">
      <g>
        <path class="cls-15" d="m36.52,21.88v-2.03h-4.96v2.03h-4.51v9h13.99v-9h-4.51Zm1.72,6.73h-8.41v-4.46h8.41v4.46Z"/>
        <line class="cls-11" x1="34.08" y1="15.6" x2="34.08" y2="19.65"/>
        <g>
          <rect class="cls-8" x="8.02" y="35.94" width="9.9" height="2.11"/>
          <path d="m18.13,38.25H7.81v-2.52h10.32v2.52Zm-9.9-.41h9.49v-1.69h-9.49v1.69Z"/>
        </g>
        <g>
          <rect class="cls-13" x="33.49" y="13.92" width="1.18" height="1.68" rx=".26" ry=".26" transform="translate(68.16 29.52) rotate(180)"/>
          <g>
            <rect class="cls-1" x="31.48" y="12.58" width="5.21" height="2.02" rx=".53" ry=".53" transform="translate(68.16 27.17) rotate(180)"/>
            <g class="cls-7">
              <g class="cls-6">
                <rect class="cls-5" x="30.64" y="11.06" width="2.13" height="4.31"/>
              </g>
            </g>
          </g>
        </g>
        <g>
          <g>
            <path class="cls-1" d="m39.46,39.46h-10.84l-3.53-8.93c-.09-.23.01-.5.24-.6l8.71-4.13,8.71,4.13c.23.11.33.37.24.6l-3.53,8.93Z"/>
            <g class="cls-4">
              <polygon class="cls-3" points="39.46 41.39 28.62 41.39 24.93 32.05 34.04 27.73 43.15 32.05 39.46 41.39"/>
              <g class="cls-6">
                <rect class="cls-5" x="33.77" y="33.94" width="14.59" height="3.55" transform="translate(-7.21 60.84) rotate(-68.51)"/>
              </g>
            </g>
          </g>
          <path class="cls-2" d="m41.52,40.7c-.58,0-1.09-.29-1.54-.54-.34-.19-.69-.38-.94-.38s-.6.2-.94.38c-.45.25-.97.54-1.54.54s-1.09-.29-1.54-.54c-.34-.19-.69-.38-.94-.38s-.6.2-.94.38c-.45.25-.97.54-1.54.54s-1.09-.29-1.54-.54c-.34-.19-.69-.38-.94-.38s-.6.2-.94.38c-.45.25-.97.54-1.54.54s-1.09-.29-1.54-.54c-.34-.19-.69-.38-.94-.38v-1.24c.58,0,1.09.29,1.54.54.34.19.69.38.94.38s.6-.2.94-.38c.45-.25.97-.54,1.54-.54s1.09.29,1.54.54c.34.19.69.38.94.38s.6-.2.94-.38c.45-.25.97-.54,1.54-.54s1.09.29,1.54.54c.34.19.69.38.94.38s.6-.2.94-.38c.45-.25.97-.54,1.54-.54s1.09.29,1.54.54c.34.19.69.38.94.38s.6-.2.94-.38c.45-.25.97-.54,1.54-.54v1.24c-.25,0-.6.2-.94.38-.45.25-.97.54-1.54.54Z"/>
        </g>
        <g>
          <rect class="cls-8" x="5.14" y="37.7" width="15.17" height="1.93"/>
          <path d="m20.51,39.82H4.93v-2.31h15.58v2.31Zm-15.17-.38h14.76v-1.56H5.35v1.56Z"/>
        </g>
        <g>
          <path class="cls-12" d="m16.24,36.44h-6.54V8.69h6.54v27.75Zm-6.11-.43h5.68V9.12h-5.68v26.89Z"/>
          <polygon class="cls-12" points="15.63 36.13 9.74 33.23 15.24 30.52 9.73 27.82 15.24 25.12 9.73 22.41 15.24 19.71 9.73 17.01 15.24 14.31 9.73 11.6 15.63 8.71 15.81 9.1 10.7 11.6 16.21 14.31 10.7 17.01 16.2 19.71 10.7 22.41 16.2 25.12 10.7 27.82 16.2 30.52 10.7 33.23 15.81 35.75 15.63 36.13"/>
          <rect class="cls-12" x="9.68" y="14.09" width="6.04" height=".43"/>
          <rect class="cls-12" x="9.95" y="16.77" width="6.04" height=".43"/>
          <rect class="cls-12" x="10.14" y="19.44" width="6.04" height=".43"/>
          <rect class="cls-12" x="10.11" y="22.33" width="6.04" height=".43"/>
          <rect class="cls-12" x="9.95" y="24.79" width="6.04" height=".43"/>
          <rect class="cls-12" x="9.95" y="27.62" width="6.04" height=".43"/>
          <rect class="cls-12" x="9.68" y="30.22" width="6.04" height=".43"/>
          <rect class="cls-12" x="10.14" y="32.97" width="6.04" height=".43"/>
        </g>
        <g>
          <path class="cls-12" d="m38.33,12.79h-22.09v-3.87h17.25l4.84,3.87Zm-21.57-.32h20.59l-4.27-3.22h-16.31v3.22Z"/>
          <polygon class="cls-12" points="29.19 12.68 24.91 9.38 20.63 12.68 16.26 9.31 16.44 9.09 20.63 12.32 24.91 9.02 29.19 12.32 33.47 9.02 37.83 12.39 37.66 12.61 33.47 9.38 29.19 12.68"/>
        </g>
        <path class="cls-14" d="m9.41,8.71h7.11v3.97h-7.11c-.88,0-1.6-.72-1.6-1.6v-.77c0-.88.72-1.6,1.6-1.6Z"/>
        <path class="cls-2" d="m21.68,40.7c-.58,0-1.09-.29-1.54-.54-.34-.19-.69-.38-.94-.38s-.6.2-.94.38c-.45.25-.97.54-1.54.54s-1.09-.29-1.54-.54c-.34-.19-.69-.38-.94-.38s-.6.2-.94.38c-.45.25-.97.54-1.54.54s-1.09-.29-1.54-.54c-.34-.19-.69-.38-.94-.38s-.6.2-.94.38c-.45.25-.97.54-1.54.54s-1.09-.29-1.54-.54c-.34-.19-.69-.38-.94-.38v-1.24c.58,0,1.09.29,1.54.54.34.19.69.38.94.38s.6-.2.94-.38c.45-.25.97-.54,1.54-.54s1.09.29,1.54.54c.34.19.69.38.94.38s.6-.2.94-.38c.45-.25.97-.54,1.54-.54s1.09.29,1.54.54c.34.19.69.38.94.38s.6-.2.94-.38c.45-.25.97-.54,1.54-.54s1.09.29,1.54.54c.34.19.69.38.94.38s.6-.2.94-.38c.45-.25.97-.54,1.54-.54v1.24c-.25,0-.6.2-.94.38-.45.25-.97.54-1.54.54Z"/>
      </g>
    </g>
  </g>
</svg>