<?xml version="1.0" encoding="UTF-8"?>
<svg id="Layer_2" data-name="Layer 2" xmlns="http://www.w3.org/2000/svg" xmlns:xlink="http://www.w3.org/1999/xlink" viewBox="0 0 48 48">
  <defs>
    <style>
      .cls-1 {
        fill: #e9e9e9;
      }

      .cls-2 {
        fill: #3f8bc9;
      }

      .cls-3 {
        fill: #ea756c;
      }

      .cls-4 {
        fill: #b6bbc2;
      }

      .cls-5 {
        clip-path: url(#clippath);
      }

      .cls-6 {
        fill: none;
      }

      .cls-7 {
        fill: #cea657;
      }
    </style>
    <clipPath id="clippath">
      <rect class="cls-6" width="48" height="48"/>
    </clipPath>
  </defs>
  <g id="Layer_1-2" data-name="Layer 1">
    <g class="cls-5">
      <g>
        <g>
          <g>
            <polygon class="cls-3" points="32.95 30.37 25.44 30.37 28.05 19.28 28.14 17.55 30.25 17.55 30.29 19.16 32.95 30.37"/>
            <path d="m32.95,30.47h-7.5s-.06-.01-.08-.04-.03-.06-.02-.09l2.6-11.1.1-1.71c0-.05.05-.1.1-.1h2.1c.06,0,.1.04.1.1l.05,1.6,2.65,11.2s0,.06-.02.09c-.02.02-.05.04-.08.04Zm-7.38-.2h7.25l-2.63-11.08s0-.01,0-.02l-.04-1.51h-1.91l-.09,1.63-2.58,10.99Z"/>
          </g>
          <g>
            <g>
              <g>
                <rect class="cls-7" x="15.49" y="24.55" width="17.67" height="7.34"/>
                <path d="m33.15,31.99H15.49c-.06,0-.1-.05-.1-.1v-7.34c0-.06.05-.1.1-.1h17.67c.06,0,.1.05.1.1v7.34c0,.06-.05.1-.1.1Zm-17.56-.2h17.46v-7.13H15.59v7.13Z"/>
              </g>
              <g>
                <rect class="cls-1" x="27.05" y="28.49" width="1.82" height="3.39"/>
                <path d="m28.87,32h-1.82c-.06,0-.11-.05-.11-.11v-3.39c0-.06.05-.11.11-.11h1.82c.06,0,.11.05.11.11v3.39c0,.06-.05.11-.11.11Zm-1.71-.22h1.6v-3.17h-1.6v3.17Z"/>
              </g>
              <g>
                <rect class="cls-1" x="28.87" y="28.49" width="1.82" height="3.39"/>
                <path d="m30.7,32h-1.82c-.06,0-.11-.05-.11-.11v-3.39c0-.06.05-.11.11-.11h1.82c.06,0,.11.05.11.11v3.39c0,.06-.05.11-.11.11Zm-1.71-.22h1.6v-3.17h-1.6v3.17Z"/>
              </g>
              <rect class="cls-1" x="17.47" y="26.08" width="1.6" height="1.6"/>
              <rect class="cls-1" x="19.83" y="26.08" width="1.6" height="1.6"/>
              <rect class="cls-1" x="22.19" y="26.08" width="1.6" height="1.6"/>
              <rect class="cls-1" x="17.47" y="28.22" width="1.6" height="1.6"/>
              <rect class="cls-1" x="19.83" y="28.22" width="1.6" height="1.6"/>
              <rect class="cls-1" x="22.19" y="28.22" width="1.6" height="1.6"/>
            </g>
            <path d="m29.23,28.6h-2.18c-.06,0-.1-.05-.1-.1s.05-.1.1-.1h2.18c.06,0,.1.05.1.1s-.05.1-.1.1Z"/>
            <path d="m31.06,28.64h-4.42c-.08,0-.15-.07-.15-.15s.07-.15.15-.15h4.42c.08,0,.15.07.15.15s-.07.15-.15.15Z"/>
          </g>
          <path class="cls-4" d="m29.03,15.54s-.08,0-.12,0c.07-.11.12-.24.12-.39,0-.39-.31-.7-.7-.7-.09,0-.18.02-.26.05,0-.01,0-.02,0-.03,0-.45-.36-.81-.81-.81-.27,0-.5.13-.65.33-.15-.16-.36-.26-.59-.26-.45,0-.81.36-.81.81s.36.81.81.81c.08,0,.16-.01.23-.03-.03.08-.05.17-.05.27,0,.45.36.81.81.81.07,0,.14,0,.2-.03.14.15.33.24.55.24.2,0,.38-.08.51-.2.06.36.37.63.74.63.42,0,.75-.34.75-.75s-.34-.75-.75-.75Z"/>
        </g>
        <polygon class="cls-2" points="30 22.49 29.46 22.49 29.45 22.49 29.32 21.46 28.4 22.72 28.94 22.72 28.95 22.72 29.07 23.74 30 22.49"/>
      </g>
      <g>
        <g>
          <path class="cls-2" d="m10.59,33.25c-.85-1.34-1.55-2.78-2.02-4.31-.44-1.54-.67-3.14-.7-4.77.01-1.62.26-3.25.72-4.83.47-1.58,1.19-3.09,2.1-4.5l.72-1.03c.26-.33.54-.65.81-.97.14-.16.27-.33.42-.48l.46-.44.46-.45.23-.22c.08-.07.16-.14.25-.2l.99-.81c.33-.27.69-.52,1.04-.75.71-.49,1.47-.92,2.25-1.29,1.57-.76,3.29-1.22,5.04-1.38,1.75-.15,3.51,0,5.18.39.72.17,1.17.89.99,1.59-.16.62-.74,1.02-1.36,1h-.03c-2.97-.11-5.8.43-8.5,1.38-1.36.47-2.67,1.13-3.85,1.97-.07.05-.15.1-.23.15l-.21.17-.42.34-.42.35c-.14.12-.26.25-.39.38-.25.26-.52.51-.77.78l-.7.84c-.06.07-.12.14-.17.21l-.15.23-.31.45-.31.45c-.09.16-.18.32-.27.48l-.27.48c-.09.16-.19.32-.26.49l-.46,1c-.54,1.37-.91,2.81-1.1,4.29-.15,1.48-.09,2.99.14,4.49.28,1.49.75,2.95,1.4,4.36h0c.04.09,0,.18-.08.22-.08.03-.17,0-.21-.06Z"/>
          <polygon class="cls-2" points="34.98 10.91 24.23 11.5 27.79 8.5 26.88 4 34.98 10.91"/>
        </g>
        <g>
          <path class="cls-2" d="m38.8,13.74c.88,1.34,1.61,2.78,2.1,4.31.46,1.54.7,3.14.72,4.77-.01,1.62-.27,3.25-.74,4.83-.48,1.58-1.24,3.09-2.18,4.5l-.75,1.03c-.26.33-.56.65-.84.97-.15.16-.28.33-.43.48l-.47.44-.47.45-.24.22c-.08.07-.17.14-.25.2l-1.03.81c-.35.27-.71.52-1.08.75-.74.49-1.52.92-2.34,1.29-1.63.76-3.42,1.22-5.23,1.38-1.81.15-3.64,0-5.38-.39-.75-.17-1.21-.89-1.02-1.59.16-.62.76-1.02,1.41-1h.03c3.08.11,6.01-.43,8.82-1.38,1.41-.47,2.77-1.13,4-1.97.08-.05.16-.1.23-.15l.22-.17.44-.34.44-.35c.14-.12.27-.25.4-.38.26-.26.54-.51.8-.78l.73-.84c.06-.07.12-.14.18-.21l.16-.23.32-.45.32-.45c.1-.16.19-.32.28-.48l.28-.48c.09-.16.2-.32.27-.49l.47-1c.56-1.37.95-2.81,1.14-4.29.15-1.48.1-2.99-.14-4.49-.29-1.49-.78-2.95-1.45-4.36h0c-.04-.09,0-.18.09-.22.08-.03.17,0,.22.06Z"/>
          <polygon class="cls-2" points="13.5 36.08 24.65 35.49 20.96 38.49 21.91 42.99 13.5 36.08"/>
        </g>
      </g>
    </g>
  </g>
</svg>