<?xml version="1.0" encoding="UTF-8"?>
<svg id="Layer_1" data-name="Layer 1" xmlns="http://www.w3.org/2000/svg" viewBox="0 0 467.79 288.37">
  <defs>
    <style>
      .cls-1 {
        fill: #9d884c;
      }

      .cls-2 {
        fill: #f28b24;
      }

      .cls-3 {
        fill: #060300;
      }

      .cls-4 {
        fill: #956d3d;
      }

      .cls-5 {
        fill: #396973;
      }

      .cls-6 {
        fill: #657a85;
      }

      .cls-7 {
        fill: #f2f4f8;
      }

      .cls-8 {
        fill: #2d4a59;
      }

      .cls-9 {
        fill: #ffc450;
      }

      .cls-10 {
        fill: #ffbf42;
      }

      .cls-11 {
        fill: #6bc5d9;
      }

      .cls-12 {
        fill: #ffbe40;
      }
    </style>
  </defs>
  <path class="cls-3" d="m75.89,34.27c-2.75,1.87-5.95,2.96-8.93,4.43s-5.9,3.5-7.31,6.52-.8,7.17,2.07,8.86c3.19,1.88,8.47.71,9.83,4.16.61,1.54-.01,3.36.62,4.88.75,1.81,2.92,2.51,4.82,2.98,3.15.79,6.62,1.55,9.51.09,2.56-1.29,4.64-4.26,7.48-3.82,1.92.3,3.18,2.07,4.41,3.58,3.1,3.79,7.31,6.66,11.98,8.15.53.17,1.1.32,1.62.12.82-.31,1.09-1.29,1.4-2.11,1.13-2.95,3.95-4.91,6.82-6.23s5.97-2.2,8.61-3.92c5.22-3.4,7.9-9.54,9.76-15.48-4.12-2.96-7.68-6.68-10.47-10.92-1.79-2.73-3.26-5.66-5.15-8.32-3.14-4.43-7.45-8-12.33-10.37-3.61-1.75-11.48-5.16-14.8-1.8-1.51,1.53-1.57,4.04-3.37,5.56-1.36,1.15-3.23,1.55-4.73,2.49-4.6,2.91-7.3,8.08-11.83,11.15Z"/>
  <path class="cls-3" d="m119.17,26.04c.23-3.38.88-6.92,3.08-9.49,4.3-5.02,12.06-4.2,18.63-4.92,7.66-.85,14.75-4.34,21.52-8.03,4.54-2.47,10.08-5.08,14.61-2.59,1.37.76,2.47,1.91,3.48,3.11,4.93,5.84,8.2,13.06,9.35,20.62.14.95.27,1.95.86,2.7.82,1.05,2.27,1.32,3.6,1.47,4.36.5,8.79.53,13.08,1.51s8.53,3.08,10.93,6.75c2.4,3.68,2.36,9.13-.92,12.05-1.37,1.22-3.13,1.89-4.89,2.39-11.08,3.15-23.43.39-34.06,4.84-1.53.64-3.04,1.46-4.12,2.73-1.5,1.77-1.94,4.17-2.65,6.38-1.16,3.63-3.17,6.98-5.83,9.7-3.1,3.19-7.4,5.59-11.83,5.16-5.08-.5-9.13-4.54-11.71-8.95-2.58-4.4-4.11-9.36-6.9-13.64-2.62-4.02-6.2-6.7-9.72-9.84-6.4-5.7-7.05-13.66-6.5-21.97Z"/>
  <path class="cls-3" d="m160.32,45.32c.23-3.38.88-6.92,3.08-9.49,4.3-5.02,12.06-4.2,18.63-4.92,7.66-.85,14.75-4.34,21.52-8.03,4.54-2.47,10.08-5.08,14.61-2.59,1.37.76,2.47,1.91,3.48,3.11,4.93,5.84,8.2,13.06,9.35,20.62.14.95.27,1.95.86,2.7.82,1.05,2.27,1.32,3.6,1.47,4.36.5,8.79.53,13.08,1.51s8.53,3.08,10.93,6.75,2.36,9.13-.92,12.05c-1.37,1.22-3.13,1.89-4.89,2.39-11.08,3.15-23.43.39-34.06,4.84-1.53.64-3.04,1.46-4.12,2.73-1.5,1.77-1.94,4.17-2.65,6.38-1.16,3.63-3.17,6.98-5.83,9.7-3.1,3.19-7.4,5.59-11.83,5.16-5.08-.5-9.13-4.54-11.71-8.95-2.58-4.4-4.11-9.36-6.9-13.64-2.62-4.02-6.2-6.7-9.72-9.84-6.4-5.7-7.05-13.66-6.5-21.97Z"/>
  <path class="cls-3" d="m53.7,40.61c-4.27-3.97-8.64-8.01-13.97-10.36s-11.9-2.72-16.74.52c-5.62,3.77-7.41,11.07-8.77,17.7-1.25,6.08-2.49,12.17-3.74,18.25,7.97,1.53,15.74,4.03,23.11,7.43,2.72,1.26,5.63,2.68,8.59,2.18,3.15-.54,5.5-3.1,7.55-5.54,3.39-4.03,6.7-8.16,9.25-12.77,2.51-4.52,4.28-9.82,3.03-14.84-1.25-5.02-6.44-9.28-11.44-7.97"/>
  <path class="cls-3" d="m104.46,28.52c-5.01.47-9.41-3.21-12.76-6.97s-6.64-8.05-11.46-9.52c-4.24-1.3-8.91-.09-12.75,2.12-10.71,6.16-15.64,18.73-19.8,30.36-1.19,3.33-2.4,6.77-2.2,10.29.31,5.6,4.04,10.35,7.71,14.57,3.41,3.92,7.04,7.84,11.72,10.08,4.55,2.18,9.72,2.6,14.76,2.77,5.7.2,11.4.13,17.09-.21,5.4-.32,11.35-1.16,14.85-5.28,4.32-5.09,3-12.76.96-19.12-3.85-12-9.38-23.47-16.37-33.95"/>
  <path class="cls-3" d="m50.53,29.03c-4.32,1.52-8.46,3.53-12.34,5.97-.94.59-1.91,1.26-2.37,2.27-.61,1.34-.17,2.91.28,4.31.88,2.75,1.77,5.53,3.25,8s3.65,4.65,6.37,5.6c1.62.56,3.37.67,5.09.65,3.06-.03,6.12-.45,9.08-1.23,1.83-.48,3.74-1.19,4.85-2.72.56-.77.87-1.7,1.13-2.61.79-2.73,1.25-5.64.62-8.41-.62-2.72-2.25-5.09-3.93-7.33-2.27-3.03-4.85-6.07-8.37-7.46-12.69-5.03-18.81,12.32-18.71,21.55.06,4.98,1.63,10.15,5.3,13.52,2.23,2.05,5.08,3.3,7.56,5.04,4.88,3.42,8.23,8.62,10.77,14,2.59,5.48,5.32,12.04,11.22,13.44,3.26.78,6.69-.35,9.66-1.9,5.78-3.02,10.59-7.64,16.24-10.9,5.65-3.26,12.89-5.04,18.62-1.92.67.37,1.35.81,2.11.81,1.07.01,1.94-.81,2.67-1.59,4.07-4.39,8.05-9.73,13.96-10.73,1.18-.2,2.42-.22,3.47-.77,2.45-1.28,2.71-4.94,1.22-7.28s-4.12-3.64-6.63-4.79c-3.86-1.77-8.15-3.47-12.23-2.3-4.92,1.41-7.79,6.47-12.12,9.2-5.81,3.67-13.65,2.59-19.59-.88s-10.38-8.94-14.69-14.3c-1.99,2.01-3.97,4.01-5.96,6.02"/>
  <g>
    <path class="cls-8" d="m467.79,242.47c-2.84,2.83-6.24,3.63-10.23,3.57-10.29-.16-20.58.04-30.88.1-.02-9.4-3.03-17.71-8.34-25.48-3.44-5.04-8.6-7.96-12.71-12.13,17.33-.08,34.65-.16,51.98-.25,3.39.44,6.78.87,10.17,1.31v32.89Z"/>
    <path class="cls-12" d="m238.47,32.36c2.38-6.75,5.16-13.26,10.54-18.28,2.52-2.35,5.36-3.78,8.92-3.78,30.14.02,60.29,0,90.43-.04,3.55,0,5.42,1.45,5.41,5.11-.02,4.72.09,9.44-.03,14.16-.1,3.91-1.84,5.96-6.2,5.9-12.63-.19-25.27.06-37.91-.15-3.6-.06-4.59.95-4.58,4.57.13,40.65.17,81.29.01,121.94-.04,9.77-1.65,19.28-9.17,26.59-6.98,6.78-15.31,9.99-25.06,9.43-78.75,0-157.5-.02-236.26-.03-7.74.02-15.47.1-23.21.04-7.59-.06-11.45-4.27-11.19-11.99,2.23-.46,1.64-2.26,1.65-3.67.02-35.31.02-70.62,0-105.94,0-1.41.58-3.21-1.65-3.67-.21-6.19,3.22-10.21,9.48-10.99,1.5-.19,3.04-.15,4.56-.15,65.54,0,131.08-.01,196.62,0,4.06,0,8.01.25,11.97-1.48,5.22-2.28,8.76-5.73,10.34-11.22,1.48-5.17,3.05-10.32,4.58-15.48.25-.29.51-.58.76-.86Zm-84.06,97.2c0-8.51.03-17.02,0-25.54-.02-5.86-3.36-9.53-8.6-9.56-5.08-.03-8.66,3.4-8.7,9.03-.13,17.17-.14,34.35.01,51.53.05,5.59,3.73,8.97,8.85,8.87,5.06-.1,8.4-3.71,8.44-9.26.05-8.36.01-16.72.01-25.08Zm86.83-.4c0-8.67.04-17.34-.01-26.01-.04-6.85-6.21-10.56-12.35-7.61-4.3,2.07-4.93,5.94-4.96,9.94-.1,15.82-.06,31.64,0,47.46,0,1.49.3,3.02.72,4.45,1.3,4.44,5.33,7.1,9.57,6.46,3.94-.6,7.02-4.34,7.03-8.68.03-8.67,0-17.34,0-26.01Zm-130.65.18c0-8.83.03-17.66-.01-26.49-.02-4.02-3.15-7.7-6.92-8.33-4.04-.67-8.11,1.92-9.58,5.92-1.47,4.01-.78,8.14-.81,12.21-.09,13.85-.09,27.71,0,41.56.03,5.72,3.84,9.59,9.17,9.67,4.65.07,8.15-3.95,8.16-9.43.02-8.37,0-16.75,0-25.12Zm70.3-.62c0,8.35-.01,16.7,0,25.05.01,6.3,3.16,10.03,8.48,10.12,5.33.09,8.84-3.7,8.86-9.88.06-16.55.05-33.1,0-49.65-.02-5.51-4.55-10.02-9.72-9.88-4.07.11-7.61,4.54-7.62,9.64-.03,8.2,0,16.4,0,24.6Zm-113.29.84c0-8.66.12-17.32-.04-25.98-.11-5.76-3.92-9.35-9.16-9.11-4.94.22-8.15,3.89-8.15,9.42-.01,16.71-.02,33.43,0,50.14,0,5.16,3.32,9.8,6.92,9.77,6.3-.05,10.39-3.95,10.43-10.08.05-8.05.01-16.11,0-24.16Z"/>
    <path class="cls-12" d="m457.62,208.27c-17.33.08-34.65.16-51.98.25-9.96-3.64-20.02-5.9-30.74-3.61-3.53.75-6.54,3.08-10.28,2.96-1.54.01-3.15-.59-4.58.47-14.71-.05-29.42-.1-44.13-.15,0,0,.01-.03.01-.03-.18-.43-.36-.86-.55-1.29-.05-26.88-.14-53.75-.14-80.63,0-21.56.1-43.12.16-64.68.24-.23.48-.45.72-.68,27.97-.05,55.95-.38,83.92,0,9.53.13,19.12,1.28,27.53,7.04,7.13,4.89,11.36,11.55,13.68,19.57,5.19,17.94,10.24,35.91,15.3,53.88,2.35,8.34.83,16.86,1.01,25.3-.24.28-.48.56-.72.84-2.27.01-4.55-.01-6.82.05-5.06.15-8.86,3.88-8.71,8.5.14,4.4,3.94,7.9,8.67,7.95,2.58.03,5.16,0,7.73,0-.03,8.08-.06,16.17-.09,24.25Zm-107.51-126.7c-.35.28-.7.55-1.06.83-3.24,1.77-4.8,5.39-5.82,8.17-1.62,4.4-1.42,9.57-1.45,14.42-.05,6.3,0,12.6.51,18.92.48,6.12,3.33,12.9,8.6,15.57.21.21.43.42.64.63,1.81,2.58,4.71,3.49,7.43,3.51,20.69.17,41.38.21,62.07,0,6.69-.07,10.65-6.64,8.69-12.97-3.26-10.55-6.48-21.13-9.33-31.8-3.99-14.97-8.76-22.01-27.6-21.74-9.43.14-18.87.08-28.3,0-5.3-.04-10.17,1.12-14.39,4.46Zm5.66,99.03v-.03c2.89,0,5.79.2,8.66-.06,2.41-.22,4.41-1.6,4.58-4.24.16-2.41-.82-4.79-3.42-5.2-6.45-1.02-12.98-1.06-19.44-.03-2.86.46-3.77,2.62-3.55,5.43.22,2.88,2.03,3.96,4.51,4.09,2.88.16,5.77.04,8.66.04Z"/>
    <path class="cls-5" d="m364.62,207.87c3.73.13,6.75-2.2,10.28-2.96,10.72-2.29,20.78-.03,30.74,3.61,4.1,4.17,9.27,7.1,12.71,12.13,5.3,7.77,8.32,16.08,8.34,25.48-.98,8.79-2.56,17.34-8.23,24.59-8.38,10.7-19.1,16.68-32.82,17.48-10.28.6-19.19-2.83-26.8-9.1-7.92-6.54-13.96-14.66-15.14-25.42-.28-2.53-1.61-4.91-1.07-7.56.3-1.01.81-2,.86-3.02.59-11.32,4.4-21.13,13.09-28.77,1.58-1.39,2.9-3.08,4.34-4.63,1.5-.07,2.95-.26,3.72-1.82Zm3.58,37.84c0,9.14,7.38,16.84,16.23,16.85,8.99,0,16.69-7.09,16.66-16.95-.03-8.13-6.19-16.15-16.93-15.97-8.51.15-15.96,7.51-15.95,16.06Z"/>
    <path class="cls-5" d="m244.87,246.13c.42,22.92-19.87,40.54-38.09,42.09-26.43,2.26-47-21.62-45.1-42-.35-9.24,2.41-17.43,7.76-24.98,3.66-5.16,8.72-8.67,13.37-12.69.19-.16.41-.26.66-.3.39-.12.79-.25,1.18-.37,12.43-5.59,24.86-4.97,37.28.01.87.99,1.9.82,2.96.41.26,0,.51.08.72.23-.03,1.85,1.48,2.39,2.64,3.37,10.58,8.94,17.42,19.74,16.61,34.23Zm-41.99-16.46c-9.71-.55-15.97,7.81-16.4,16-.45,8.44,8.22,16.95,16.5,16.89,9.06-.06,15.95-7.1,16.39-15.8.48-9.51-7.17-17.65-16.49-17.1Z"/>
    <path class="cls-5" d="m139.86,248.05c-1.81,2.08-1.42,4.78-2.11,7.17-2.45,8.5-6.55,16.22-13.28,22.13-8.1,7.11-17.43,11.08-28.5,10.82-13.58-.32-23.83-6.46-32.23-16.7-6.1-7.43-8.21-16.09-8.92-25.32.64-1.23.97-2.52.92-3.93-.15-5.13,1.53-9.77,3.61-14.38,3.76-8.34,10.46-13.93,17.47-19.28,7.44-2.99,15.02-5.12,23.2-4.5,6.22.47,11.94,2.65,17.77,4.5.51,1.43,1.92,1.83,3,2.61,11.65,8.37,17.57,19.78,18.1,34.05.33.94.65,1.89.98,2.83Zm-43.06-18.38c-8.93-.02-16.4,7.27-16.4,16,0,8.78,7.5,16.84,15.7,16.89,9.63.05,17.17-7.15,17.19-16.44.03-9.52-6.9-16.43-16.5-16.45Z"/>
    <path class="cls-8" d="m244.87,246.13c.81-14.49-6.03-25.29-16.61-34.23-1.16-.98-2.67-1.52-2.64-3.37,4.1-.05,8.2-.08,12.3-.17,10.92-.24,21.85.52,32.76-.41,15.08.68,30.16.24,45.24.22,14.71.05,29.42.1,44.13.15.29.45.57.9.86,1.35-1.44,1.55-2.76,3.24-4.34,4.63-8.69,7.64-12.5,17.45-13.09,28.77-.05,1.02-.56,2.01-.86,3.02-32.58,0-65.16.01-97.74.02Z"/>
    <path class="cls-2" d="m270.67,207.96c-10.91.93-21.84.17-32.76.41-4.1.09-8.2.11-12.3.17-.22-.15-.46-.22-.73-.22-.91-.71-1.93-.57-2.96-.42-12.43-4.98-24.85-5.6-37.28-.01-.39.12-.79.25-1.18.37-.25.04-.47.14-.66.3-21.68,0-43.35,0-65.03,0-5.83-1.85-11.55-4.03-17.77-4.5-8.18-.62-15.76,1.52-23.2,4.5-14.04-.12-28.07-.24-42.11-.36-.05-3.47-.09-6.95-.14-10.42,78.75,0,157.5.02,236.26.03-.05,3.39-.1,6.78-.15,10.16Z"/>
    <path class="cls-8" d="m34.7,208.2c14.04.12,28.07.24,42.11.36-7.01,5.35-13.71,10.93-17.46,19.28-2.07,4.61-3.76,9.25-3.61,14.38.04,1.41-.28,2.7-.92,3.93-15.34-.06-30.68-.12-46.03-.19-7.01-.03-8.77-1.83-8.78-8.92-.01-6.99-.02-13.98,0-20.97.02-6.13,1.53-7.69,7.8-7.76,8.96-.1,17.93-.08,26.89-.11Z"/>
    <path class="cls-8" d="m117.78,208.56c21.68,0,43.35,0,65.03,0-4.65,4.02-9.71,7.53-13.36,12.69-5.35,7.54-8.12,15.74-7.76,24.98-6.69-.05-13.38-.1-20.08-.16-.64-1.15-1.75-.77-2.72-.85-.54-14.27-6.46-25.68-18.1-34.05-1.08-.78-2.49-1.17-3-2.61Z"/>
    <path class="cls-2" d="m457.7,184.02c-2.58,0-5.16.03-7.73,0-4.73-.05-8.53-3.56-8.67-7.95-.15-4.62,3.65-8.35,8.71-8.5,2.27-.07,4.55-.04,6.82-.05.28.03.56.05.84.05.62,5.49.56,10.97.03,16.46Z"/>
    <path class="cls-10" d="m.17,72.54c2.23.46,1.65,2.26,1.65,3.67.02,35.31.02,70.62,0,105.94,0,1.41.59,3.21-1.65,3.67-.05-30.18-.12-60.36-.15-90.54,0-7.58.1-15.16.15-22.74Z"/>
    <path class="cls-6" d="m138.89,245.22c.97.08,2.08-.3,2.72.85-.19,1.01-.94,1.52-1.74,1.98-.33-.94-.65-1.89-.98-2.83Z"/>
    <path class="cls-9" d="m316.11,60.88c-.24.23-.48.45-.72.68-.06-.55.16-.79.72-.68Z"/>
    <path class="cls-10" d="m315.38,206.87c.18.43.36.86.55,1.29-.79-.17-.62-.75-.55-1.29Z"/>
    <path class="cls-10" d="m457.68,167.56c-.28,0-.56-.01-.84-.05.24-.28.48-.56.72-.84.12.29.16.58.12.89Z"/>
    <path class="cls-10" d="m238.47,32.36c-.25.29-.51.58-.76.86-.09-.59.24-.82.76-.86Z"/>
    <path class="cls-2" d="m154.42,129.56c0,8.36.04,16.72-.01,25.08-.03,5.55-3.38,9.16-8.44,9.26-5.12.1-8.8-3.28-8.85-8.87-.15-17.17-.14-34.35-.01-51.53.04-5.63,3.63-9.06,8.7-9.03,5.23.03,8.57,3.7,8.6,9.56.03,8.51,0,17.02,0,25.54Z"/>
    <path class="cls-2" d="m241.24,129.16c0,8.67.02,17.34,0,26.01-.02,4.34-3.09,8.08-7.03,8.68-4.24.64-8.27-2.02-9.57-6.46-.42-1.43-.71-2.96-.72-4.45-.05-15.82-.09-31.64,0-47.46.03-4,.66-7.87,4.96-9.94,6.13-2.95,12.3.76,12.35,7.61.06,8.67.01,17.34.01,26.01Z"/>
    <path class="cls-2" d="m110.59,129.34c0,8.37.01,16.75,0,25.12-.01,5.48-3.51,9.5-8.16,9.43-5.33-.08-9.14-3.95-9.17-9.67-.08-13.85-.09-27.71,0-41.56.03-4.07-.67-8.2.81-12.21,1.47-4,5.54-6.59,9.58-5.92,3.78.63,6.9,4.31,6.92,8.33.04,8.83.01,17.66.02,26.49Z"/>
    <path class="cls-2" d="m180.89,128.73c0-8.2-.02-16.4,0-24.6.02-5.11,3.55-9.53,7.62-9.64,5.16-.14,9.7,4.37,9.72,9.88.05,16.55.06,33.1,0,49.65-.02,6.18-3.53,9.97-8.86,9.88-5.32-.09-8.46-3.82-8.48-10.12-.02-8.35,0-16.7,0-25.05Z"/>
    <path class="cls-2" d="m67.6,129.56c0,8.05.04,16.11-.01,24.16-.04,6.13-4.13,10.03-10.43,10.08-3.6.03-6.91-4.61-6.92-9.77-.02-16.71-.01-33.43,0-50.14,0-5.53,3.21-9.2,8.15-9.42,5.24-.23,9.05,3.35,9.16,9.11.17,8.66.04,17.32.05,25.98Z"/>
    <path class="cls-11" d="m350.89,139.48c-5.27-2.66-8.12-9.44-8.6-15.57-.5-6.33-.55-12.62-.51-18.92.04-4.85-.17-10.02,1.45-14.42,1.02-2.78,2.58-6.4,5.82-8.17.59.03,1.3.21,1.06-.83,4.22-3.34,9.08-4.5,14.39-4.46,9.43.08,18.87.13,28.3,0,18.84-.28,23.61,6.77,27.6,21.74,2.85,10.67,6.07,21.25,9.33,31.8,1.96,6.33-1.99,12.9-8.69,12.97-20.69.21-41.38.17-62.07,0-2.72-.02-5.62-.93-7.43-3.51.1-.54-.08-.78-.64-.63Z"/>
    <path class="cls-5" d="m355.77,180.6c-2.89,0-5.78.12-8.66-.04-2.48-.14-4.29-1.21-4.51-4.09-.22-2.81.7-4.98,3.55-5.43,6.46-1.03,12.99-.99,19.44.03,2.6.41,3.57,2.79,3.42,5.2-.17,2.64-2.17,4.02-4.58,4.24-2.86.27-5.77.06-8.66.06v.03Z"/>
    <path class="cls-1" d="m360.9,209.69c-.29-.45-.57-.9-.86-1.35,1.43-1.06,3.04-.46,4.58-.47-.77,1.57-2.22,1.75-3.72,1.82Z"/>
    <path class="cls-10" d="m350.11,81.58c.24,1.04-.46.86-1.06.83.35-.28.7-.55,1.06-.83Z"/>
    <path class="cls-10" d="m350.89,139.48c.57-.15.75.09.64.63-.21-.21-.43-.42-.64-.63Z"/>
    <path class="cls-7" d="m368.2,245.71c0-8.56,7.45-15.92,15.95-16.06,10.74-.18,16.9,7.83,16.93,15.97.04,9.86-7.67,16.95-16.66,16.95-8.85,0-16.22-7.71-16.23-16.85Z"/>
    <path class="cls-7" d="m202.88,229.68c9.32-.55,16.97,7.59,16.49,17.1-.44,8.7-7.33,15.73-16.39,15.8-8.28.06-16.95-8.45-16.5-16.89.43-8.19,6.69-16.55,16.4-16Z"/>
    <path class="cls-4" d="m221.93,207.9c1.03-.15,2.05-.29,2.96.42-1.06.41-2.09.57-2.96-.42Z"/>
    <path class="cls-4" d="m183.47,208.26c.39-.12.78-.25,1.18-.37-.39.12-.78.25-1.18.37Z"/>
    <path class="cls-7" d="m96.8,229.68c9.6.02,16.52,6.93,16.5,16.45-.03,9.29-7.56,16.49-17.19,16.44-8.21-.05-15.7-8.11-15.7-16.89,0-8.73,7.47-16.02,16.4-16Z"/>
  </g>
</svg>