<?xml version="1.0" encoding="UTF-8"?>
<svg id="Layer_2" data-name="Layer 2" xmlns="http://www.w3.org/2000/svg" xmlns:xlink="http://www.w3.org/1999/xlink" viewBox="0 0 48 48">
  <defs>
    <style>
      .cls-1 {
        fill: #140503;
      }

      .cls-1, .cls-2, .cls-3, .cls-4, .cls-5 {
        fill-rule: evenodd;
      }

      .cls-2 {
        fill: #454545;
      }

      .cls-3 {
        fill: #cfcfcf;
      }

      .cls-6 {
        fill: #d95040;
      }

      .cls-4 {
        fill: #0c1214;
      }

      .cls-7 {
        clip-path: url(#clippath);
      }

      .cls-8 {
        fill: none;
      }

      .cls-5 {
        fill: #290601;
      }
    </style>
    <clipPath id="clippath">
      <rect class="cls-8" width="48" height="48"/>
    </clipPath>
  </defs>
  <g id="Layer_1-2" data-name="Layer 1">
    <g class="cls-7">
      <g>
        <path class="cls-2" d="m11.5,36.05c2.49-.81,4.74.35,5.73-1.7l2.57-5.34,3.29-2.85.16-4.71c-.39-2.42.38-4.56,1.41-4.6,1.02-3.79,3.72-6.1,6.65-2.11,2.26.42,2.6,1.16,3.35,3.43,4,.59,2.16,7.95,4.34,8.64,3.43,1.09,4.16,14,4.6,17.4H3.91v-.24c.22-1.34,2.1-2.6,3.77-3.85.33-1.43,2.08-3.54,3.82-4.07Z"/>
        <g>
          <rect class="cls-6" x="3.06" y="26.53" width="19.3" height="1.5" transform="translate(-15.57 16.98) rotate(-45.01)"/>
          <path class="cls-3" d="m20.27,21.19c-.09-.42-1.12-1.41-1.47-1.47l-3.25,3.25c.12.63,1.03,1.42,1.47,1.47l3.25-3.25Z"/>
          <path class="cls-3" d="m13.39,17.28c3.45,2.39,6.93,5.86,9.32,9.32-.26-3.94-5.37-8.95-9.32-9.32Z"/>
        </g>
        <polygon class="cls-1" points="21.13 26.23 21.43 25.78 21.73 25.91 22 26.24 21.95 26.76 21.46 26.76 21.11 26.54 21.13 26.23"/>
        <polygon class="cls-1" points="19.13 25.43 19.96 25.55 19.98 26.05 19.68 26.65 18.93 26.92 18.6 26.23 18.68 25.61 19.13 25.43"/>
        <polygon class="cls-1" points="17.59 28.71 17.17 28.16 17.45 27.84 17.98 27.65 18.59 27.93 18.39 28.54 17.97 28.87 17.59 28.71"/>
        <g>
          <polygon class="cls-1" points="20.78 17 21.09 16.69 21.3 16.84 21.46 17.14 21.34 17.54 20.96 17.46 20.72 17.24 20.78 17"/>
          <path class="cls-1" d="m21.04,17.38s1.2,4.43,1.21,4.32c.01-.11-.98-4.4-.98-4.4l-.24.09Z"/>
        </g>
        <g>
          <polygon class="cls-1" points="22.51 21.55 22.78 21.21 23.01 21.34 23.2 21.63 23.12 22.03 22.73 22 22.47 21.8 22.51 21.55"/>
          <path class="cls-1" d="m22.78,21.9s.12,3.16.14,3.1c.02-.06,0-3.12,0-3.12l-.14.02Z"/>
        </g>
        <g>
          <polygon class="cls-1" points="20.25 20.37 20.35 19.95 20.61 19.96 20.91 20.14 21.01 20.54 20.65 20.68 20.33 20.61 20.25 20.37"/>
          <path class="cls-1" d="m20.72,20.63s1.52,2.77,1.51,2.71c-.01-.06-1.39-2.79-1.39-2.79l-.11.08Z"/>
        </g>
        <path class="cls-5" d="m29.4,13.37c-2.04-.59-3.17,1.07-3.77,3.65,1.04-2.37,1.54-3.54,3.77-3.65Z"/>
        <polygon class="cls-4" points="23.82 27.31 20.82 29.52 17.94 34.85 21.25 30.01 23.82 27.31"/>
        <polygon class="cls-4" points="34.17 18.32 31.84 20.6 32.58 27 29.51 29.09 26.13 29.29 20.28 37.52 25.44 28.59 29.21 27.6 31.19 26.36 30.85 20.8 34.17 18.32"/>
        <polygon class="cls-4" points="38.99 26.81 33.82 30.33 32.93 32.86 33.13 36.28 35.02 42.34 32.14 36.09 31.44 32.61 32.44 30.03 38.99 26.81"/>
        <path class="cls-4" d="m31.19,14.94l-3.62,2.53-.2,3.28,1.59,5.81-2.83.55-3.03-.5,2.98.15,1.84-.79-1.29-5.01.3-3.67s4.27-2.38,4.27-2.33Z"/>
        <polygon class="cls-4" points="16.34 35.97 16.31 36.04 22.66 39.21 30.3 40.4 34.57 41 31.19 39.71 23.35 37.92 17.5 35.14 16.34 35.97"/>
      </g>
    </g>
  </g>
</svg>