<?xml version="1.0" encoding="UTF-8"?>
<svg id="Layer_2" data-name="Layer 2" xmlns="http://www.w3.org/2000/svg" xmlns:xlink="http://www.w3.org/1999/xlink" viewBox="0 0 48 48">
  <defs>
    <style>
      .cls-1 {
        fill: #ff8634;
      }

      .cls-2, .cls-3 {
        fill: #756e78;
      }

      .cls-3 {
        clip-path: url(#clippath-2);
      }

      .cls-4 {
        fill: #ffd064;
      }

      .cls-5 {
        fill: #020202;
      }

      .cls-5, .cls-6 {
        opacity: .1;
      }

      .cls-7 {
        clip-path: url(#clippath-1);
      }

      .cls-8 {
        clip-path: url(#clippath);
      }

      .cls-9 {
        fill: none;
      }

      .cls-10 {
        clip-path: url(#clippath-3);
      }
    </style>
    <clipPath id="clippath">
      <rect class="cls-9" width="48" height="48"/>
    </clipPath>
    <clipPath id="clippath-1">
      <path class="cls-4" d="m24,43.37c-.55,0-.99-.44-.99-.99v-19.28c0-.55.44-.99.99-.99s.99.44.99.99v19.28c0,.55-.44.99-.99.99Z"/>
    </clipPath>
    <clipPath id="clippath-2">
      <path class="cls-2" d="m34.12,42.85l-2.92-9.4h.88c.55,0,.99-.44.99-.99s-.44-.99-.99-.99h-1.5l-2.47-7.96h.49c.55,0,.99-.44.99-.99s-.44-.99-.99-.99h-9.32c-.55,0-.99.44-.99.99s.44.99.99.99h.51l-2.47,7.96h-1.35c-.55,0-.99.44-.99.99s.44.99.99.99h.74l-2.83,9.1c-.16.52.13,1.08.65,1.24.1.03.2.04.29.04.42,0,.81-.27.94-.7l3.01-9.69h10.34l3.11,9.99c.13.42.52.7.94.7.1,0,.2-.01.29-.04.52-.16.81-.72.65-1.24Z"/>
    </clipPath>
    <clipPath id="clippath-3">
      <polygon class="cls-3" points="19.4 31.47 21.87 23.51 26.04 23.51 28.51 31.47 19.4 31.47"/>
    </clipPath>
  </defs>
  <g id="Layer_1-2" data-name="Layer 1">
    <g class="cls-8">
      <g>
        <g>
          <g>
            <path class="cls-4" d="m24,43.37c-.55,0-.99-.44-.99-.99v-19.28c0-.55.44-.99.99-.99s.99.44.99.99v19.28c0,.55-.44.99-.99.99Z"/>
            <g class="cls-7">
              <rect class="cls-6" x="17.83" y="20.14" width="6.13" height="29.38"/>
            </g>
          </g>
          <g>
            <path class="cls-2" d="m34.12,42.85l-2.92-9.4h.88c.55,0,.99-.44.99-.99s-.44-.99-.99-.99h-1.5l-2.47-7.96h.49c.55,0,.99-.44.99-.99s-.44-.99-.99-.99h-9.32c-.55,0-.99.44-.99.99s.44.99.99.99h.51l-2.47,7.96h-1.35c-.55,0-.99.44-.99.99s.44.99.99.99h.74l-2.83,9.1c-.16.52.13,1.08.65,1.24.1.03.2.04.29.04.42,0,.81-.27.94-.7l3.01-9.69h10.34l3.11,9.99c.13.42.52.7.94.7.1,0,.2-.01.29-.04.52-.16.81-.72.65-1.24Z"/>
            <polygon class="cls-2" points="19.4 31.47 21.87 23.51 26.04 23.51 28.51 31.47 19.4 31.47"/>
            <g class="cls-10">
              <path class="cls-6" d="m20.94,23.51c-.51,1.59-1.91,6.28-2.36,7.96-.48.08-.86.45-.95.9-.12.61.34,1.04.36,1.07l-4.16,12.54-6.2-2.61,10.78-19.36c-.03-.17-.06-.33-.08-.5,1.66.25,2.61,0,2.61,0Z"/>
              <polygon class="cls-5" points="26.92 23.51 29.44 31.47 27.87 31.47 25.68 23.51 26.92 23.51"/>
              <path class="cls-6" d="m33.71,44.86c.06-.45-3.76-11.45-3.76-11.45l-1.81.1,3.58,12.25,1.99-.9Z"/>
            </g>
          </g>
        </g>
        <path class="cls-1" d="m22.59,20.22c-.62-.26-2.5-1.14-3.58-3.23-1.8-3.48.31-7.02.44-7.23,0,.17-.02,1.28.81,1.95.27.22.54.33.76.39.17-.15.46-.44.64-.9.26-.64.17-1.21.12-1.44-.25-.75-.51-1.5-.76-2.25.24.01.85.07,1.45.5.62.44.88,1.01.97,1.23.27-.33.59-.82.77-1.48.51-1.87-.58-3.48-.77-3.75.71.48,1.73,1.3,2.63,2.58,1.29,1.84,1.64,3.67,1.76,4.63.17-.24.39-.62.52-1.14.17-.66.1-1.21.04-1.52.28.43,2,3.19,1.06,6.67-.86,3.19-3.34,4.71-3.84,5,.36-.32,1.5-1.44,1.8-3.29.23-1.47-.2-2.63-.4-3.11-.03.15-.14.7-.64,1.1-.33.26-.67.34-.85.36-.06-.57-.1-1.21-.09-1.92,0-.67.05-1.28.12-1.82-.35.14-.82.38-1.25.8-1.19,1.17-1.14,2.79-1.13,3.13-.33-.67-.65-1.34-.98-2.01-.2.23-1.44,1.67-1.19,3.74.2,1.73,1.31,2.77,1.6,3.02Z"/>
      </g>
    </g>
  </g>
</svg>