<?xml version="1.0" encoding="UTF-8"?>
<svg id="Layer_2" data-name="Layer 2" xmlns="http://www.w3.org/2000/svg" xmlns:xlink="http://www.w3.org/1999/xlink" viewBox="0 0 48 48">
  <defs>
    <style>
      .cls-1 {
        fill: #ff8634;
      }

      .cls-2 {
        stroke-width: 1.01px;
      }

      .cls-2, .cls-3, .cls-4, .cls-5, .cls-6, .cls-7 {
        stroke-linecap: round;
        stroke-linejoin: round;
      }

      .cls-2, .cls-3, .cls-4, .cls-5, .cls-6, .cls-7, .cls-8 {
        fill: none;
      }

      .cls-2, .cls-5, .cls-6, .cls-7 {
        stroke: #756e78;
      }

      .cls-9, .cls-10 {
        fill: #fff;
      }

      .cls-3 {
        stroke: #ffd064;
      }

      .cls-3, .cls-5 {
        stroke-width: .82px;
      }

      .cls-11 {
        fill: #f2b438;
      }

      .cls-12 {
        fill: #fee97d;
      }

      .cls-13 {
        fill: #81daef;
      }

      .cls-4 {
        stroke: #2b5a71;
        stroke-width: .57px;
      }

      .cls-14 {
        fill: #5b666d;
      }

      .cls-15 {
        fill: #99e6fc;
      }

      .cls-16 {
        fill: orange;
      }

      .cls-10 {
        stroke: #d89825;
        stroke-miterlimit: 10;
        stroke-width: .57px;
      }

      .cls-6 {
        stroke-width: .87px;
      }

      .cls-7 {
        stroke-width: .93px;
      }

      .cls-17 {
        clip-path: url(#clippath);
      }

      .cls-18 {
        fill: #d92;
      }
    </style>
    <clipPath id="clippath">
      <rect class="cls-8" width="48" height="48"/>
    </clipPath>
  </defs>
  <g id="Layer_1-2" data-name="Layer 1">
    <g class="cls-17">
      <g>
        <g>
          <line class="cls-5" x1="24.93" y1="10.6" x2="21.48" y2="43.45"/>
          <line class="cls-5" x1="27.46" y1="10.6" x2="30.91" y2="43.45"/>
          <line class="cls-3" x1="26.28" y1="10.6" x2="26.28" y2="43.2"/>
          <line class="cls-5" x1="23.7" y1="10.6" x2="28.87" y2="10.6"/>
          <path class="cls-1" d="m25.84,9.19c-.23-.1-.92-.42-1.32-1.19-.66-1.28.12-2.58.16-2.66,0,.06,0,.47.3.72.1.08.2.12.28.14.06-.05.17-.16.24-.33.1-.24.06-.45.04-.53-.09-.28-.19-.55-.28-.83.09,0,.31.03.53.18.23.16.32.37.35.45.1-.12.22-.3.28-.55.19-.69-.21-1.28-.28-1.38.26.18.64.48.97.95.47.68.6,1.35.65,1.7.06-.09.14-.23.19-.42.06-.24.04-.44.01-.56.1.16.73,1.17.39,2.45-.32,1.17-1.23,1.73-1.41,1.84.13-.12.55-.53.66-1.21.09-.54-.07-.97-.15-1.14,0,.06-.05.26-.24.4-.12.1-.25.12-.31.13-.02-.21-.04-.45-.03-.7,0-.25.02-.47.04-.67-.13.05-.3.14-.46.3-.44.43-.42,1.02-.41,1.15-.12-.25-.24-.49-.36-.74-.07.08-.53.61-.44,1.38.08.64.48,1.02.59,1.11Z"/>
        </g>
        <line class="cls-5" x1="22.71" y1="18.29" x2="29.85" y2="18.29"/>
        <line class="cls-6" x1="22.19" y1="25.32" x2="30.37" y2="25.32"/>
        <line class="cls-7" x1="21.63" y1="30.87" x2="30.93" y2="30.87"/>
        <line class="cls-2" x1="20.81" y1="36.41" x2="31.76" y2="36.41"/>
      </g>
      <g>
        <g>
          <g>
            <circle class="cls-15" cx="13.19" cy="31.38" r="6.99"/>
            <path class="cls-13" d="m13.19,24.39c-.21,0-.42.01-.62.03,3.57.32,6.37,3.31,6.37,6.96s-2.8,6.65-6.37,6.96c.21.02.41.03.62.03,3.86,0,6.99-3.13,6.99-6.99s-3.13-6.99-6.99-6.99Z"/>
          </g>
          <g>
            <path class="cls-16" d="m14.5,32.62c-.08.1-.67.77-1.5.71-1.03-.07-1.55-1.11-1.43-1.95.12-.85.93-1.11,1.32-2.48.09-.32.11-.81.11-.81.26.22.7.81.95,1.77.17.63.18,1.22.12,1.54.08-.13.11-.29.15-.61.04-.32-.04-.73-.08-.87.62.86.92,2.02.35,2.7Z"/>
            <path class="cls-12" d="m13.91,31.81c0,.6-.33.86-.73.86s-.73-.26-.73-.86.73-1.61.73-1.61c0,0,.73,1.01.73,1.61Z"/>
          </g>
        </g>
        <path class="cls-14" d="m19.14,35.06l-11.89.02c-.1-.16-.2-.34-.3-.54-.09-.19-.17-.37-.24-.54,4.33-.03,8.67-.05,13-.08-.07.17-.15.35-.24.54-.11.22-.22.42-.33.59Z"/>
        <g>
          <rect class="cls-14" x="20.67" y="33.72" width=".73" height="9.93" transform="translate(-12.75 10.45) rotate(-21.58)"/>
          <polygon class="cls-14" points="3.86 44.13 3.17 43.87 6.83 34.1 7.52 34.36 3.86 44.13"/>
          <rect class="cls-14" x="12.84" y="34.5" width=".73" height="9.43"/>
        </g>
      </g>
      <rect class="cls-11" x="19.87" y="31.39" width="24.13" height="12.56"/>
      <rect class="cls-9" x="22.66" y="33.59" width="3.2" height="3.2"/>
      <rect class="cls-9" x="26.87" y="33.59" width="3.2" height="3.2"/>
      <rect class="cls-9" x="31.07" y="33.59" width="3.2" height="3.2"/>
      <rect class="cls-9" x="22.66" y="37.62" width="3.2" height="3.2"/>
      <rect class="cls-9" x="26.87" y="37.62" width="3.2" height="3.2"/>
      <rect class="cls-9" x="31.07" y="37.62" width="3.2" height="3.2"/>
      <rect class="cls-10" x="37.94" y="37.62" width="4.24" height="6.31"/>
      <line class="cls-4" x1="44" y1="44" x2="3.34" y2="44"/>
      <polygon class="cls-18" points="24.46 31.48 19.87 31.48 19.87 26.9 24.46 31.48"/>
      <polygon class="cls-18" points="29.3 31.48 24.72 31.48 24.72 26.9 29.3 31.48"/>
    </g>
  </g>
</svg>