<?xml version="1.0" encoding="UTF-8"?>
<svg id="Layer_2" data-name="Layer 2" xmlns="http://www.w3.org/2000/svg" xmlns:xlink="http://www.w3.org/1999/xlink" viewBox="0 0 48 48">
  <defs>
    <style>
      .cls-1 {
        fill: #ff8634;
      }

      .cls-2 {
        fill: #b5adb6;
      }

      .cls-3 {
        fill: #6c7fd8;
      }

      .cls-4 {
        fill: #fff;
      }

      .cls-5 {
        fill: #fee97d;
      }

      .cls-6 {
        fill: #dff6fd;
      }

      .cls-7 {
        fill: #99e6fc;
      }

      .cls-8 {
        fill: #fe646f;
      }

      .cls-9 {
        fill: #918291;
      }

      .cls-10 {
        stroke: #918291;
        stroke-linecap: round;
        stroke-linejoin: round;
        stroke-width: .92px;
      }

      .cls-10, .cls-11 {
        fill: none;
      }

      .cls-12 {
        fill: #a79ba7;
      }

      .cls-13 {
        clip-path: url(#clippath);
      }

      .cls-14 {
        fill: #f2fbff;
      }

      .cls-15 {
        fill: #7eb239;
      }
    </style>
    <clipPath id="clippath">
      <rect class="cls-11" width="48" height="48"/>
    </clipPath>
  </defs>
  <g id="Layer_1-2" data-name="Layer 1">
    <g class="cls-13">
      <g>
        <g>
          <rect class="cls-2" x="5.44" y="35.67" width="9.28" height="3.09" rx="1.02" ry="1.02"/>
          <rect class="cls-2" x="33.92" y="35.67" width="9.28" height="3.09" rx="1.02" ry="1.02"/>
          <g>
            <path class="cls-1" d="m21.92,30.3c-1.01-.42-4.06-1.85-5.81-5.25-2.91-5.64.51-11.39.72-11.72,0,.28-.03,2.07,1.32,3.16.43.35.88.53,1.23.62.27-.24.74-.71,1.04-1.46.42-1.04.27-1.97.2-2.33-.41-1.22-.83-2.44-1.24-3.65.39.02,1.37.12,2.35.8,1.01.71,1.42,1.64,1.57,2,.44-.53.96-1.34,1.25-2.41.83-3.04-.94-5.64-1.25-6.08,1.15.78,2.81,2.1,4.26,4.18,2.09,2.99,2.66,5.95,2.85,7.51.27-.38.64-1.01.85-1.85.27-1.06.16-1.96.07-2.46.45.7,3.24,5.17,1.72,10.81-1.39,5.18-5.41,7.64-6.22,8.11.58-.52,2.44-2.33,2.92-5.33.38-2.38-.32-4.26-.66-5.04-.04.24-.23,1.13-1.04,1.78-.54.43-1.09.55-1.37.59-.1-.93-.16-1.97-.15-3.11.01-1.08.09-2.07.2-2.96-.57.22-1.32.61-2.02,1.31-1.93,1.9-1.85,4.52-1.83,5.07-.53-1.09-1.06-2.18-1.59-3.26-.32.36-2.33,2.71-1.94,6.07.33,2.81,2.13,4.49,2.59,4.89Z"/>
            <path class="cls-5" d="m29.7,25.02c-.45,2.87-2.18,4.65-2.83,5.25l-.34.22-4.63-.15h0s-.06-.07-.12-.12c-.08-.08-.2-.2-.34-.33,0,0,0,0,0,0-.72-.75-1.86-2.25-2.11-4.43-.4-3.37,1.61-5.71,1.94-6.07.53,1.09,1.06,2.18,1.59,3.26-.02-.55-.1-3.16,1.83-5.07.7-.69,1.45-1.08,2.02-1.3-.11.88-.18,1.87-.2,2.96-.01,1.14.06,2.19.15,3.11.28-.04.84-.16,1.37-.58.81-.65,1-1.53,1.04-1.78.34.77,1.03,2.65.66,5.04Z"/>
          </g>
          <rect class="cls-12" x="12.95" y="33.99" width="21.91" height="6.43" rx=".93" ry=".93"/>
          <g>
            <circle class="cls-14" cx="23.97" cy="33.37" r="6.12"/>
            <path class="cls-6" d="m23.97,27.25c-.27,0-.54.02-.8.06,3,.39,5.31,2.95,5.31,6.06s-2.32,5.67-5.31,6.06c.26.03.53.06.8.06,3.38,0,6.12-2.74,6.12-6.12s-2.74-6.12-6.12-6.12Z"/>
          </g>
          <path class="cls-9" d="m33.93,33.99h-1.99c.52,0,.93.42.93.93v4.56c0,.52-.42.93-.93.93h1.99c.52,0,.93-.42.93-.93v-4.56c0-.52-.42-.93-.93-.93Z"/>
          <line class="cls-10" x1="28.31" y1="28.13" x2="27.34" y2="29.3"/>
          <line class="cls-10" x1="30.65" y1="32.11" x2="29.16" y2="32.39"/>
          <line class="cls-10" x1="17.27" y1="32.18" x2="18.77" y2="32.44"/>
          <line class="cls-10" x1="19.57" y1="28.18" x2="20.55" y2="29.34"/>
          <line class="cls-10" x1="23.9" y1="26.57" x2="23.91" y2="28.09"/>
          <path class="cls-7" d="m23.97,42.15c-4.84,0-8.79-3.94-8.79-8.78s3.94-8.78,8.79-8.78,8.79,3.94,8.79,8.78-3.94,8.78-8.79,8.78Zm0-16.1c-4.03,0-7.32,3.28-7.32,7.32s3.28,7.32,7.32,7.32,7.32-3.28,7.32-7.32-3.28-7.32-7.32-7.32Z"/>
          <path class="cls-2" d="m23.97,40.72c-4.05,0-7.35-3.3-7.35-7.35s3.3-7.35,7.35-7.35,7.35,3.3,7.35,7.35-3.3,7.35-7.35,7.35Zm0-13.47c-3.37,0-6.12,2.74-6.12,6.12s2.74,6.12,6.12,6.12,6.12-2.74,6.12-6.12-2.74-6.12-6.12-6.12Z"/>
          <path class="cls-8" d="m23.96,35.86c-.25,0-.46-.22-.46-.5v-4.79c0-.28.21-.5.46-.5s.46.22.46.5v4.79c0,.28-.21.5-.46.5Z"/>
          <circle class="cls-3" cx="23.97" cy="35.17" r="1.56"/>
          <path class="cls-9" d="m42.18,35.67h-1.23c.56,0,1.02.46,1.02,1.02v1.05c0,.56-.46,1.02-1.02,1.02h1.23c.56,0,1.02-.46,1.02-1.02v-1.05c0-.56-.46-1.02-1.02-1.02Z"/>
        </g>
        <g>
          <circle class="cls-15" cx="16.65" cy="40.72" r="5.49"/>
          <g>
            <rect class="cls-4" x="15.68" y="36.74" width="1.94" height="5.4"/>
            <polygon class="cls-4" points="19.6 41.74 13.71 41.74 16.65 44.69 19.6 41.74"/>
          </g>
        </g>
      </g>
    </g>
  </g>
</svg>