<?xml version="1.0" encoding="UTF-8"?>
<svg id="Layer_2" data-name="Layer 2" xmlns="http://www.w3.org/2000/svg" viewBox="0 0 102.63 107.91">
  <defs>
    <style>
      .cls-1 {
        fill: #2b2b2a;
      }

      .cls-2 {
        fill: #035a69;
      }

      .cls-3 {
        fill: #ffce11;
      }

      .cls-4 {
        fill: #fff;
        opacity: .8;
      }

      .cls-5 {
        fill: #ffa524;
      }

      .cls-6 {
        fill: #e1e1e1;
      }

      .cls-7 {
        fill: #37b8c9;
      }

      .cls-8 {
        fill: #8e8e8e;
      }

      .cls-9 {
        opacity: .15;
      }

      .cls-9, .cls-10 {
        fill: #1d1d1b;
      }

      .cls-11 {
        fill: #b6b6b6;
      }

      .cls-12 {
        fill: #215072;
        opacity: .4;
      }

      .cls-13 {
        opacity: .1;
      }

      .cls-14 {
        fill: #ffaf2f;
      }

      .cls-15 {
        fill: #3f5d71;
      }

      .cls-16 {
        fill: #669dc1;
      }

      .cls-17 {
        fill: #efefef;
      }

      .cls-18 {
        fill: #e7695c;
      }

      .cls-19 {
        fill: #ff8e0c;
      }

      .cls-20 {
        fill: #007c91;
      }

      .cls-21 {
        fill: #2beafc;
      }

      .cls-22 {
        fill: #ff6f00;
      }

      .cls-23 {
        fill: #a9ddff;
      }

      .cls-24 {
        fill: #c4c4c4;
      }
    </style>
  </defs>
  <g id="Layer_1-2" data-name="Layer 1">
    <g>
      <path class="cls-23" d="m52.85,1.2c0,.66-.54,1.2-1.2,1.2s-1.2-.54-1.2-1.2.54-1.2,1.2-1.2,1.2.54,1.2,1.2Z"/>
      <g>
        <g class="cls-13">
          <g>
            <path class="cls-10" d="m43.32,89.63l-2.76.19-.78,3.15,2.35,1.46.28,2.68-2,1.92,1.42,2.92,2.74-.39,1.94,1.87-.29,2.75,2.97,1.32,1.85-2.06,2.68.19,1.55,2.3,3.12-.9.09-2.77,2.18-1.58,2.66.77,1.81-2.69-1.71-2.18.65-2.61,2.53-1.12-.34-3.23-2.71-.57-1.18-2.42,1.22-2.49-2.34-2.25-2.44,1.31-2.46-1.09-.67-2.69-3.24-.22-1.03,2.57-2.59.74-2.24-1.63-2.62,1.91.86,2.63-1.5,2.23Zm5.54-1.02l4.82-1.38,4.58,2.04,2.2,4.5-1.21,4.86-4.05,2.95-5-.35-3.61-3.48-.53-4.98,2.8-4.16Z"/>
            <path class="cls-10" d="m53.56,88.59l3.76,1.67,1.8,3.69-.99,3.99-3.33,2.42-4.1-.28-2.96-2.85-.43-4.09,2.3-3.41,3.95-1.14Zm2.67,2.8l-2.78-1.24-2.92.84-1.7,2.52.32,3.03,2.19,2.11,3.03.21,2.46-1.79.73-2.95-1.34-2.73Z"/>
          </g>
          <g>
            <path class="cls-10" d="m43.32,89.63l-2.76.19-.78,3.15,2.35,1.46.28,2.68-2,1.92,1.42,2.92,2.74-.39,1.94,1.87-.29,2.75,2.97,1.32,1.85-2.06,2.68.19,1.55,2.3,3.12-.9.09-2.77,2.18-1.58,2.66.77,1.81-2.69-1.71-2.18.65-2.61,2.53-1.12-.34-3.23-2.71-.57-1.18-2.42,1.22-2.49-2.34-2.25-2.44,1.31-2.46-1.09-.67-2.69-3.24-.22-1.03,2.57-2.59.74-2.24-1.63-2.62,1.91.86,2.63-1.5,2.23Zm5.54-1.02l4.82-1.38,4.58,2.04,2.2,4.5-1.21,4.86-4.05,2.95-5-.35-3.61-3.48-.53-4.98,2.8-4.16Z"/>
            <path class="cls-10" d="m53.56,88.59l3.76,1.67,1.8,3.69-.99,3.99-3.33,2.42-4.1-.28-2.96-2.85-.43-4.09,2.3-3.41,3.95-1.14Zm2.67,2.8l-2.78-1.24-2.92.84-1.7,2.52.32,3.03,2.19,2.11,3.03.21,2.46-1.79.73-2.95-1.34-2.73Z"/>
          </g>
        </g>
        <g class="cls-13">
          <path class="cls-10" d="m27.39,100.79l3.55,1.05,3.26-1.77,1.05-3.55-1.77-3.26-3.55-1.05-3.26,1.77-1.05,3.55,1.77,3.26Zm2.7-7.04l2.42.72,1.2,2.22-.72,2.42-2.22,1.2-2.42-.72-1.2-2.22.72-2.42,2.22-1.2Z"/>
          <path class="cls-10" d="m39.14,98.35l2.29-1.05-.33-2.91-2.45-.54-1.12-2.04.87-2.37-2.29-1.83-2.12,1.36-2.23-.65-1.05-2.29-2.91.32-.54,2.46-2.04,1.12-2.37-.87-1.83,2.28,1.36,2.12-.66,2.24-2.28,1.05.11,1.09h0c.86.82,1.74,1.6,2.65,2.36,3.34,2.75,7.02,5.11,10.95,7.02l.43-1.98,2.04-1.12,2.36.87,1.84-2.29-1.36-2.12.65-2.23Zm-4.02,2.46l-4.05,2.2-4.42-1.31-2.2-4.05,1.31-4.42,4.05-2.2,4.42,1.31,2.2,4.06-1.31,4.41Z"/>
        </g>
        <g class="cls-13">
          <path class="cls-10" d="m82.76,42.39l-.11,1.67-1.54,1.41.85,2.1,2.09-.06,1.24,1.13.14,2.08,2.17.64,1.26-1.67,1.66-.27,1.72,1.19,1.86-1.3-.52-2.02.82-1.46,2-.6.14-2.26-1.91-.85-.63-1.55.78-1.94-1.68-1.52-1.86.96-1.61-.48-1.03-1.82-2.24.36-.41,2.05-1.37.96-2.06-.33-1.11,1.98,1.35,1.6Zm5.27-3.44l3.93,1.16,1.54,3.8-2.01,3.57-4.05.66-3.04-2.75.26-4.09,3.36-2.35Z"/>
          <path class="cls-10" d="m87.72,47.24l3.24-.53,1.61-2.86-1.23-3.04-3.15-.93-2.69,1.88-.21,3.27,2.43,2.2Zm.68-5.75l1.87.55.73,1.81-.95,1.7-1.92.31-1.44-1.31.12-1.94,1.6-1.12Z"/>
        </g>
      </g>
      <g>
        <path class="cls-9" d="m97.29,74.71v10.53h-26.89v-.09H9.51c-1.6-2.8-2.97-5.74-4.07-8.82h0c4.98-15.38,8.43-31.9,7.85-51.4,0-.58-.03-1.17-.06-1.75h-.31c-.72,0-1.29-.58-1.29-1.29s.57-1.29,1.29-1.29h36.99c.71,0,1.29.57,1.29,1.29s-.58,1.29-1.29,1.29h-.31c-.23,5.39-.14,10.57.19,15.54h26.47c.52,0,.93.42.93.94s-.41.93-.93.93h-.22c-.35,8.55.36,16.32,1.76,23.57h4.53c1.74,0,3.17,1.42,3.17,3.17v4.23h8.63c1.74,0,3.15,1.41,3.15,3.15Z"/>
        <path class="cls-9" d="m33.85,18.66c.61,0,1.15-.3,1.5-.75.59.46,1.33.75,2.14.75,1.17,0,2.21-.58,2.84-1.47,1.06.91,2.44,1.47,3.95,1.47,2.25,0,4.21-1.23,5.26-3.05.79.48,1.7.77,2.69.77,2.35,0,4.32-1.58,4.95-3.73.48.2,1,.31,1.55.31,1.35,0,2.54-.67,3.26-1.7.45.35,1,.56,1.61.56,1.46,0,2.65-1.19,2.65-2.65s-1.19-2.65-2.65-2.65c-.53,0-1.02.16-1.44.43-.69-1.19-1.97-1.99-3.44-1.99s-2.78.83-3.47,2.05c-.85-.62-1.89-.99-3.03-.99-1.63,0-3.07.77-4.02,1.94-1.06-.9-2.43-1.45-3.94-1.45-3.07,0-5.61,2.29-6.01,5.25-.25-.06-.51-.1-.78-.1-1.84,0-3.33,1.43-3.47,3.23-.06,0-.11-.02-.17-.02-1.04,0-1.89.85-1.89,1.89s.85,1.89,1.89,1.89Z"/>
        <path class="cls-9" d="m50.23,3.52c-.3.57-.89.97-1.58.97-.5,0-.96-.2-1.28-.54.95-.17,1.91-.32,2.86-.43Z"/>
        <path class="cls-9" d="m63.93,14.88c0-.66-.54-1.2-1.2-1.2s-1.2.54-1.2,1.2.54,1.2,1.2,1.2,1.2-.54,1.2-1.2Z"/>
        <path class="cls-9" d="m62.62,31.99c-.05,0-.11-.02-.16-.02-1.14,0-2.08.84-2.25,1.93-.05,0-.09-.01-.14-.01-.74,0-1.33.6-1.33,1.33s.6,1.33,1.33,1.33c.41,0,.77-.19,1.01-.47.38.29.86.47,1.38.47.74,0,1.39-.36,1.81-.9.72.56,1.62.9,2.6.9,1.54,0,2.87-.82,3.63-2.03.5.26,1.07.43,1.68.43,1.61,0,2.96-1.05,3.45-2.49.21.05.43.08.66.08.92,0,1.73-.45,2.25-1.13.3.21.67.33,1.06.33,1.03,0,1.87-.84,1.87-1.87s-.84-1.87-1.87-1.87c-.33,0-.64.09-.91.25-.5-.81-1.38-1.35-2.4-1.35s-1.81.49-2.32,1.23c-.53-.3-1.13-.48-1.78-.48-1.09,0-2.05.48-2.72,1.24-.72-.55-1.61-.89-2.59-.89-2.27,0-4.11,1.77-4.26,4.01Z"/>
        <path class="cls-9" d="m76.21,35.22c0,.45.37.82.82.82s.82-.37.82-.82-.37-.82-.82-.82-.82.37-.82.82Z"/>
        <path class="cls-9" d="m75.59,25.19c.91,0,1.65-.74,1.65-1.65s-.74-1.65-1.65-1.65-1.65.74-1.65,1.65.74,1.65,1.65,1.65Z"/>
        <path class="cls-9" d="m70.62,26.88c.47,0,.84-.38.84-.84s-.38-.84-.84-.84-.84.38-.84.84.38.84.84.84Z"/>
        <path class="cls-9" d="m79.5,25.68c.38,0,.68-.3.68-.68s-.3-.68-.68-.68-.68.3-.68.68.3.68.68.68Z"/>
      </g>
      <path class="cls-16" d="m94.9,82.67h-26.89v-13.69h23.73c1.74,0,3.16,1.41,3.16,3.16v10.53Z"/>
      <g>
        <path class="cls-24" d="m39.7,82.59c4.91-13.46,8.67-27.78,7.76-45.57h26.23c-.91,17.79,2.85,32.11,7.76,45.57h-41.75Z"/>
        <path class="cls-8" d="m74.81,37.08c0,.51-.42.93-.93.93h-26.6c-.51,0-.93-.42-.93-.93h0c0-.51.42-.93.93-.93h26.6c.51,0,.93.42.93.93h0Z"/>
      </g>
      <path class="cls-18" d="m83.12,82.59h-36.77v-21.01h33.6c1.75,0,3.17,1.42,3.17,3.17v17.84Z"/>
      <path class="cls-17" d="m0,82.59c6.83-18.72,12.05-38.63,10.79-63.37h36.47c-1.26,24.74,3.96,44.65,10.79,63.37H0Z"/>
      <path class="cls-11" d="m48.82,19.31c0,.71-.58,1.29-1.29,1.29H10.53c-.71,0-1.29-.58-1.29-1.29h0c0-.71.58-1.29,1.29-1.29h36.99c.71,0,1.29.58,1.29,1.29h0Z"/>
      <g>
        <path class="cls-3" d="m39.7,50.9c0,5.9-4.78,10.67-10.67,10.67s-10.67-4.78-10.67-10.67,4.78-10.67,10.67-10.67,10.67,4.78,10.67,10.67Z"/>
        <g>
          <path class="cls-1" d="m27.01,50.9c0,1.11.9,2.02,2.02,2.02s2.02-.9,2.02-2.02-.9-2.02-2.02-2.02-2.02.9-2.02,2.02Z"/>
          <path class="cls-1" d="m27.69,48.58l-3.32-5.75c-2.99,1.73-4.66,4.86-4.66,8.08h6.64c0-.99.54-1.86,1.35-2.33Z"/>
          <path class="cls-1" d="m31.72,50.9h6.64c0-1.59-.4-3.19-1.25-4.66-.85-1.47-2.04-2.62-3.41-3.41l-3.32,5.75c.8.47,1.35,1.33,1.35,2.32Z"/>
          <path class="cls-1" d="m29.03,53.59c-.49,0-.95-.13-1.34-.36l-3.32,5.75c2.79,1.61,6.34,1.73,9.33,0l-3.32-5.75c-.4.23-.85.36-1.34.36Z"/>
        </g>
        <path class="cls-1" d="m29.03,62.57c-6.44,0-11.67-5.24-11.67-11.67s5.24-11.67,11.67-11.67,11.67,5.24,11.67,11.67-5.24,11.67-11.67,11.67Zm0-22.02c-5.7,0-10.34,4.64-10.34,10.34s4.64,10.34,10.34,10.34,10.34-4.64,10.34-10.34-4.64-10.34-10.34-10.34Z"/>
      </g>
      <path class="cls-17" d="m0,82.59c6.83-18.72,12.05-38.63,10.79-63.37h36.47c-1.26,24.74,3.96,44.65,10.79,63.37H0Z"/>
      <path class="cls-11" d="m48.82,19.31c0,.71-.58,1.29-1.29,1.29H10.53c-.71,0-1.29-.58-1.29-1.29h0c0-.71.58-1.29,1.29-1.29h36.99c.71,0,1.29.58,1.29,1.29h0Z"/>
      <g>
        <path class="cls-3" d="m39.7,50.9c0,5.9-4.78,10.67-10.67,10.67s-10.67-4.78-10.67-10.67,4.78-10.67,10.67-10.67,10.67,4.78,10.67,10.67Z"/>
        <g>
          <path class="cls-1" d="m27.01,50.9c0,1.11.9,2.02,2.02,2.02s2.02-.9,2.02-2.02-.9-2.02-2.02-2.02-2.02.9-2.02,2.02Z"/>
          <path class="cls-1" d="m27.69,48.58l-3.32-5.75c-2.99,1.73-4.66,4.86-4.66,8.08h6.64c0-.99.54-1.86,1.35-2.33Z"/>
          <path class="cls-1" d="m31.72,50.9h6.64c0-1.59-.4-3.19-1.25-4.66-.85-1.47-2.04-2.62-3.41-3.41l-3.32,5.75c.8.47,1.35,1.33,1.35,2.32Z"/>
          <path class="cls-1" d="m29.03,53.59c-.49,0-.95-.13-1.34-.36l-3.32,5.75c2.79,1.61,6.34,1.73,9.33,0l-3.32-5.75c-.4.23-.85.36-1.34.36Z"/>
        </g>
        <path class="cls-1" d="m29.03,62.57c-6.44,0-11.67-5.24-11.67-11.67s5.24-11.67,11.67-11.67,11.67,5.24,11.67,11.67-5.24,11.67-11.67,11.67Zm0-22.02c-5.7,0-10.34,4.64-10.34,10.34s4.64,10.34,10.34,10.34,10.34-4.64,10.34-10.34-4.64-10.34-10.34-10.34Z"/>
      </g>
      <circle class="cls-23" cx="35.1" cy="12.59" r="3.5"/>
      <circle class="cls-23" cx="41.89" cy="10.01" r="6.07"/>
      <path class="cls-23" d="m55.02,8.62c0,2.86-2.32,5.18-5.18,5.18s-5.18-2.32-5.18-5.18,2.32-5.18,5.18-5.18,5.18,2.32,5.18,5.18Z"/>
      <path class="cls-23" d="m60.34,6.39c0,2.21-1.79,4-4,4s-4-1.79-4-4,1.79-4,4-4,4,1.79,4,4Z"/>
      <path class="cls-23" d="m63.87,6.6c0,1.46-1.19,2.65-2.65,2.65s-2.65-1.19-2.65-2.65,1.19-2.65,2.65-2.65,2.65,1.19,2.65,2.65Z"/>
      <path class="cls-23" d="m33.34,14.19c0,1.04-.85,1.89-1.89,1.89s-1.89-.85-1.89-1.89.85-1.89,1.89-1.89,1.89.85,1.89,1.89Z"/>
      <path class="cls-23" d="m61.53,12.31c0,.66-.54,1.2-1.2,1.2s-1.2-.54-1.2-1.2.54-1.2,1.2-1.2,1.2.54,1.2,1.2Z"/>
      <path class="cls-16" d="m62.35,31.68c0,1.26-1.02,2.29-2.29,2.29s-2.29-1.02-2.29-2.29,1.02-2.29,2.29-2.29,2.29,1.02,2.29,2.29Z"/>
      <path class="cls-16" d="m68.76,29.69c0,2.37-1.92,4.28-4.28,4.28s-4.28-1.92-4.28-4.28,1.92-4.28,4.28-4.28,4.28,1.92,4.28,4.28Z"/>
      <path class="cls-16" d="m73.44,28.71c0,2.02-1.64,3.65-3.65,3.65s-3.65-1.64-3.65-3.65,1.64-3.65,3.65-3.65,3.65,1.64,3.65,3.65Z"/>
      <path class="cls-16" d="m76.71,27.14c0,1.56-1.26,2.82-2.82,2.82s-2.82-1.26-2.82-2.82,1.26-2.82,2.82-2.82,2.82,1.26,2.82,2.82Z"/>
      <path class="cls-16" d="m79.07,27.29c0,1.03-.84,1.87-1.87,1.87s-1.87-.84-1.87-1.87.84-1.87,1.87-1.87,1.87.84,1.87,1.87Z"/>
      <path class="cls-16" d="m59,32.64c0,.74-.6,1.33-1.33,1.33s-1.33-.6-1.33-1.33.6-1.33,1.33-1.33,1.33.6,1.33,1.33Z"/>
      <path class="cls-16" d="m75.47,32.64c0,.45-.37.82-.82.82s-.82-.37-.82-.82.37-.82.82-.82.82.37.82.82Z"/>
      <path class="cls-16" d="m74.85,20.97c0,.91-.74,1.65-1.65,1.65s-1.65-.74-1.65-1.65.74-1.65,1.65-1.65,1.65.74,1.65,1.65Z"/>
      <path class="cls-16" d="m69.07,23.46c0,.47-.38.84-.84.84s-.84-.38-.84-.84.38-.84.84-.84.84.38.84.84Z"/>
      <path class="cls-16" d="m77.79,22.42c0,.38-.3.68-.68.68s-.68-.3-.68-.68.3-.68.68-.68.68.3.68.68Z"/>
      <rect class="cls-12" x="54.85" y="64.92" width="4.98" height="3.42"/>
      <rect class="cls-12" x="64.38" y="64.92" width="4.98" height="3.42"/>
      <rect class="cls-12" x="73.91" y="64.92" width="4.98" height="3.42"/>
      <rect class="cls-12" x="85.87" y="72.08" width="4.98" height="3.42"/>
      <g>
        <circle class="cls-9" cx="82.77" cy="75.21" r="19.87" transform="translate(-21.68 35.23) rotate(-21.32)"/>
        <circle class="cls-23" cx="81.1" cy="73.23" r="19.87" transform="translate(-21.08 34.52) rotate(-21.33)"/>
        <g>
          <path class="cls-14" d="m84.78,73.7c-.02,2.14-1.76,3.85-3.9,3.84-2.14-.02-3.85-1.76-3.84-3.9s1.76-3.85,3.9-3.84,3.85,1.76,3.84,3.9Z"/>
          <path class="cls-7" d="m80.79,89.51c-3.81-.03-6.73-7.01-6.67-15.89.07-8.88,3.1-15.82,6.91-15.79,3.81.03,6.73,7.01,6.67,15.89-.07,8.88-3.1,15.82-6.91,15.79Zm.24-30.99c-3.31-.03-6.15,6.89-6.22,15.11-.06,8.21,2.68,15.17,5.98,15.2,3.31.03,6.15-6.89,6.22-15.11.06-8.21-2.68-15.17-5.98-15.2Z"/>
          <path class="cls-20" d="m89.85,83.63c-3.42-.03-8.04-1.56-12.38-4.11-3.61-2.12-6.66-4.7-8.59-7.27-2-2.65-2.57-5-1.63-6.61.75-1.29,2.39-1.96,4.72-1.94,3.42.03,8.04,1.56,12.38,4.11,7.66,4.5,12.15,10.6,10.22,13.88-.75,1.28-2.39,1.95-4.72,1.94Zm-17.89-19.24c-1.44-.01-3.33.26-4.12,1.6-.79,1.34-.21,3.47,1.58,5.85,1.88,2.5,4.86,5.01,8.39,7.09,4.24,2.49,8.73,3.99,12.04,4.02,1.44.01,3.33-.26,4.12-1.6,1.67-2.85-2.89-8.77-9.97-12.94-4.24-2.49-8.73-3.99-12.04-4.02Z"/>
          <path class="cls-2" d="m71.82,83.49c-2.33-.02-3.95-.71-4.69-2.01-1.88-3.31,2.7-9.34,10.43-13.72,4.37-2.48,9.02-3.95,12.44-3.92,2.33.02,3.95.71,4.69,2.01.92,1.63.31,3.96-1.73,6.58-1.97,2.54-5.06,5.07-8.7,7.14-4.37,2.48-9.02,3.95-12.44,3.92Zm18.18-18.96c-3.3-.03-7.82,1.41-12.1,3.83-7.14,4.05-11.8,9.91-10.17,12.78.77,1.35,2.65,1.65,4.09,1.66,3.3.03,7.82-1.41,12.1-3.83,3.56-2.02,6.58-4.49,8.5-6.96,1.83-2.35,2.44-4.47,1.67-5.82-.77-1.35-2.65-1.65-4.09-1.66Z"/>
          <path class="cls-7" d="m74.81,73.85c0-.08,0-.15,0-.23.06-8.21,2.91-15.13,6.22-15.11,3.31.03,6.05,6.99,5.98,15.2,0,.08,0,.15,0,.23h.69c0-.07,0-.14,0-.22.07-8.88-2.86-15.86-6.67-15.89-3.81-.03-6.84,6.91-6.91,15.79,0,.08,0,.15,0,.23h.69Z"/>
          <path class="cls-20" d="m90.12,72.01s-.08-.08-.13-.12v.09s-.98,0-.98,0c.38.33.75.67,1.1,1v-.97Z"/>
          <path class="cls-20" d="m92.76,74.83v.57s-.47,0-.47,0c1.8,2.35,2.52,4.53,1.68,5.95-.79,1.34-2.67,1.61-4.12,1.6-3.3-.03-7.8-1.53-12.04-4.02-3.53-2.07-6.51-4.59-8.39-7.09-1.79-2.38-2.37-4.51-1.58-5.85.79-1.34,2.67-1.61,4.12-1.6.78,0,1.63.1,2.53.26v-.7c-.89-.16-1.74-.25-2.52-.25-2.33-.02-3.96.65-4.72,1.94-.95,1.61-.37,3.96,1.63,6.61,1.93,2.57,4.98,5.15,8.59,7.27,4.33,2.55,8.96,4.08,12.38,4.11,2.33.02,3.96-.65,4.72-1.94,1.01-1.72.25-4.22-1.81-6.86Z"/>
          <path class="cls-4" d="m78.39,73.65c.01-1.38.61-2.59,1.52-3.36-1.4.52-2.41,1.82-2.42,3.35-.01,1.54.97,2.85,2.37,3.39-.9-.78-1.48-2-1.47-3.38Z"/>
          <g>
            <path class="cls-5" d="m78.79,60.91c0,.81-.66,1.45-1.47,1.45-.81,0-1.45-.66-1.45-1.47,0-.81.66-1.45,1.47-1.45.81,0,1.45.66,1.45,1.47Z"/>
            <path class="cls-4" d="m76.38,60.89c0-.52.23-.98.57-1.27-.53.2-.91.69-.91,1.27,0,.58.37,1.08.89,1.28-.34-.29-.56-.76-.55-1.28Z"/>
          </g>
          <g>
            <path class="cls-19" d="m96.12,66.77c0,.97-.8,1.75-1.77,1.74-.97,0-1.75-.8-1.74-1.77,0-.97.8-1.75,1.77-1.74.97,0,1.75.8,1.74,1.77Z"/>
            <path class="cls-4" d="m93.22,66.75c0-.63.28-1.18.69-1.53-.64.24-1.09.83-1.1,1.52,0,.7.44,1.29,1.08,1.54-.41-.35-.67-.91-.67-1.54Z"/>
          </g>
          <g>
            <path class="cls-22" d="m73.63,75.23c0,.7-.58,1.27-1.28,1.26-.7,0-1.27-.58-1.26-1.28,0-.7.58-1.27,1.28-1.26.7,0,1.27.58,1.26,1.28Z"/>
            <path class="cls-4" d="m71.53,75.21c0-.45.2-.85.5-1.11-.46.17-.79.6-.8,1.1,0,.51.32.94.78,1.12-.3-.26-.49-.66-.48-1.11Z"/>
          </g>
        </g>
      </g>
      <g>
        <g>
          <path class="cls-6" d="m42.19,88.13l-2.76.19-.78,3.15,2.35,1.46.28,2.68-2,1.92,1.42,2.92,2.74-.39,1.94,1.87-.29,2.75,2.97,1.32,1.85-2.06,2.69.19,1.55,2.3,3.12-.9.09-2.77,2.18-1.58,2.66.77,1.81-2.69-1.71-2.18.65-2.61,2.53-1.12-.34-3.23-2.71-.57-1.18-2.42,1.22-2.49-2.34-2.25-2.44,1.31-2.46-1.09-.67-2.69-3.24-.22-1.03,2.57-2.59.74-2.24-1.63-2.62,1.91.86,2.63-1.5,2.23Zm5.54-1.02l4.82-1.38,4.58,2.04,2.2,4.5-1.21,4.86-4.05,2.95-5-.35-3.61-3.48-.53-4.98,2.8-4.16Z"/>
          <path class="cls-6" d="m52.43,87.09l3.76,1.67,1.8,3.69-.99,3.99-3.33,2.42-4.1-.28-2.96-2.85-.43-4.09,2.3-3.41,3.95-1.14Zm2.67,2.8l-2.78-1.24-2.92.84-1.7,2.52.32,3.03,2.19,2.11,3.03.21,2.46-1.79.73-2.95-1.34-2.73Z"/>
        </g>
        <g>
          <path class="cls-15" d="m42.19,88.13l-2.76.19-.78,3.15,2.35,1.46.28,2.68-2,1.92,1.42,2.92,2.74-.39,1.94,1.87-.29,2.75,2.97,1.32,1.85-2.06,2.69.19,1.55,2.3,3.12-.9.09-2.77,2.18-1.58,2.66.77,1.81-2.69-1.71-2.18.65-2.61,2.53-1.12-.34-3.23-2.71-.57-1.18-2.42,1.22-2.49-2.34-2.25-2.44,1.31-2.46-1.09-.67-2.69-3.24-.22-1.03,2.57-2.59.74-2.24-1.63-2.62,1.91.86,2.63-1.5,2.23Zm5.54-1.02l4.82-1.38,4.58,2.04,2.2,4.5-1.21,4.86-4.05,2.95-5-.35-3.61-3.48-.53-4.98,2.8-4.16Z"/>
          <path class="cls-15" d="m52.43,87.09l3.76,1.67,1.8,3.69-.99,3.99-3.33,2.42-4.1-.28-2.96-2.85-.43-4.09,2.3-3.41,3.95-1.14Zm2.67,2.8l-2.78-1.24-2.92.84-1.7,2.52.32,3.03,2.19,2.11,3.03.21,2.46-1.79.73-2.95-1.34-2.73Z"/>
        </g>
      </g>
      <g>
        <path class="cls-21" d="m26.26,99.29l3.55,1.05,3.26-1.77,1.05-3.55-1.77-3.26-3.55-1.05-3.26,1.77-1.05,3.55,1.77,3.26Zm2.7-7.04l2.42.72,1.2,2.22-.72,2.42-2.22,1.2-2.42-.72-1.2-2.22.72-2.42,2.22-1.2Z"/>
        <path class="cls-21" d="m21.25,91.96l-.65,2.24-2.29,1.05.32,2.91,2.46.54,1.12,2.04-.87,2.36,2.28,1.83,2.12-1.36,2.24.65,1.05,2.29,2.91-.32.54-2.46,2.04-1.12,2.36.87,1.83-2.28-1.36-2.12.65-2.24,2.29-1.05-.32-2.91-2.46-.54-1.12-2.04.87-2.36-2.28-1.83-2.12,1.36-2.24-.65-1.05-2.29-2.91.32-.54,2.46-2.04,1.12-2.36-.87-1.83,2.28,1.36,2.12Zm7.42-2.43l4.42,1.31,2.2,4.05-1.31,4.42-4.05,2.2-4.42-1.31-2.2-4.05,1.31-4.42,4.05-2.2Z"/>
      </g>
      <g>
        <path class="cls-17" d="m81.63,40.89l-.11,1.67-1.54,1.41.85,2.1,2.09-.06,1.24,1.13.14,2.08,2.17.64,1.26-1.67,1.66-.27,1.72,1.19,1.86-1.3-.52-2.02.82-1.46,2-.6.15-2.26-1.91-.85-.63-1.55.78-1.94-1.68-1.52-1.85.96-1.61-.48-1.03-1.82-2.24.36-.41,2.05-1.37.96-2.06-.33-1.11,1.98,1.35,1.6Zm5.27-3.44l3.93,1.16,1.54,3.8-2.01,3.57-4.05.66-3.04-2.75.26-4.09,3.36-2.35Z"/>
        <path class="cls-17" d="m86.59,45.74l3.24-.53,1.61-2.86-1.23-3.04-3.15-.93-2.69,1.88-.21,3.27,2.43,2.2Zm.68-5.75l1.87.55.73,1.81-.95,1.7-1.92.31-1.44-1.31.12-1.94,1.6-1.12Z"/>
      </g>
    </g>
  </g>
</svg>