<?xml version="1.0" encoding="UTF-8"?>
<svg id="Layer_1" data-name="Layer 1" xmlns="http://www.w3.org/2000/svg" viewBox="0 0 422.16 422.62">
  <defs>
    <style>
      .cls-1 {
        fill: #e56a6a;
      }

      .cls-2 {
        fill: #59a2d8;
      }

      .cls-3 {
        fill: #f9cb6e;
      }

      .cls-4 {
        fill: #6db569;
      }
    </style>
  </defs>
  <path d="m143.38,68.16c0-19.86-.01-39.72,0-59.58,0-6.54,2.02-8.57,8.5-8.57,39.58-.01,79.15,0,118.73,0,6.16,0,9.02,2.83,9.02,8.94.01,39.44.01,78.88,0,118.31,0,6.19-2.8,9.01-8.97,9.01-39.58,0-79.15.01-118.73,0-6.52,0-8.54-2.01-8.55-8.52-.02-19.86,0-39.72,0-59.58Zm122.56.4s.05,0,.07,0c0-17.03-.06-34.06.06-51.1.02-2.74-.34-3.93-3.57-3.92-34.06.15-68.12.16-102.18.09-2.64,0-3.31.71-3.3,3.32.09,34.06.09,68.13,0,102.19,0,2.87.88,3.48,3.58,3.47,33.92-.09,67.84-.1,101.76.02,3.11.01,3.68-.99,3.65-3.84-.13-16.75-.06-33.5-.06-50.24Z"/>
  <path d="m143.38,354.24c0-8.52.08-17.03-.04-25.55-.05-3.17.87-5.59,3.18-7.86,9.83-9.64,19.43-19.51,29.29-29.12,3.57-3.48,7.54-5.87,13.19-5.69,14.6.45,29.24.38,43.85.04,6.17-.14,10.91,2.62,14.93,6.33,8.54,7.89,16.55,16.36,24.79,24.58,4.8,4.79,7.7,9.9,7.29,17.34-.73,13.3-.71,26.7,0,40,.38,7.24-2.28,12.33-7.01,17.03-8.45,8.41-16.83,16.89-25.3,25.27-3.96,3.92-8.32,6.18-14.43,5.98-15.74-.5-31.5-.23-47.25-.11-3.19.02-5.57-.93-7.81-3.2-10.46-10.62-21-21.15-31.61-31.61-2.17-2.14-3.13-4.44-3.08-7.47.12-8.66.04-17.32.04-25.97Zm13.68-.05c0,7.09.06,14.19-.04,21.28-.03,2.1.42,3.7,2,5.25,8.81,8.65,17.52,17.38,26.18,26.17,1.43,1.45,2.89,1.91,4.86,1.9,14.33-.07,28.65-.08,42.98.01,2.04.01,3.39-.68,4.77-2.07,8.59-8.66,17.2-17.3,25.91-25.84,1.63-1.6,2.35-3.19,2.33-5.51-.11-14.04-.1-28.09,0-42.13.02-2.3-.66-3.91-2.3-5.52-8.3-8.15-16.53-16.37-24.67-24.68-2.22-2.27-4.7-3.27-7.77-3.27-13.76.01-27.52.05-41.28-.04-1.99-.01-3.41.53-4.81,1.96-8.62,8.74-17.28,17.43-26.04,26.02-1.69,1.65-2.21,3.35-2.17,5.61.11,6.95.04,13.9.04,20.85Z"/>
  <path d="m69.02,279.33c-38.92.88-66.44-31.71-68.75-61.23-1.81-23.16,5.63-42.58,22.84-58.1,5.87-5.29,12.55-10.8,19.73-12.8,28.88-8.04,55.56-4.02,76.63,19.41,11.27,12.53,16.51,27.78,17.09,44.61.41,12-3.97,22.82-9.09,33.22-5.54,11.25-14.65,19.72-25.27,25.96-10.39,6.11-21.84,9.86-33.19,8.95ZM14.02,210.7c-1.3,29.01,25.13,55.2,53.73,55.08,29.58-.12,55.35-24,54.89-53.98-.46-30.36-20.85-54.08-54.53-54.89-30.09-.72-54.18,24.59-54.09,53.79Z"/>
  <path d="m353.88,279.36c-19.72,0-39.45-.27-59.16.15-6.4.14-10.45-5.16-7.25-11.61,10.48-21.12,20.78-42.33,31.69-63.23,9.79-18.75,18.97-37.78,28.58-56.61,1.35-2.65,3.29-4.17,6.44-4.16,3.3,0,5.48,1.42,6.93,4.33,19.96,40.13,39.95,80.25,59.92,120.38,2.94,5.9-.05,10.72-6.71,10.73-20.15.04-40.3.01-60.44.01Zm50.49-13.84c-.22-.73-.31-1.28-.55-1.76-15.82-31.59-31.64-63.18-47.52-94.74-.43-.86-.62-2.29-2.26-2.08-1.49.19-1.5,1.55-1.95,2.44-13.95,27.89-27.85,55.8-41.76,83.71-2.02,4.06-4.04,8.12-6.18,12.42h100.22Z"/>
  <path d="m236.06,265.73c-6.53,0-13.07.27-19.58-.1-3.99-.22-5.75.68-5.01,4.93.5,2.85-.63,5.2-2.89,7.04-2.85,2.31-5.93,2.47-8.85.51-12.84-8.6-25.6-17.33-38.4-25.99-5.98-4.04-5.92-9.6.17-13.67,12.26-8.19,24.5-16.4,36.75-24.61,2.8-1.88,5.66-3.85,9.12-1.82,3.37,1.98,4.71,5.13,4.12,8.97-.5,3.19.66,3.97,3.85,3.93,13.9-.2,27.81-.1,41.72-.08,6.13,0,8.94,2.85,8.96,9.01.02,7.66.02,15.33,0,22.99-.02,6.04-2.91,8.86-9.09,8.88-6.95.02-13.91,0-20.86,0Zm-9.3-13.63h15.74c10.02,0,9.86,0,10.03-9.84.06-3.3-.97-3.95-4.05-3.92-14.32.16-28.65.01-42.97.11-3.74.02-6.52-1.41-7.31-4.97-.69-3.11-2.23-1.5-3.2-.87-5.7,3.73-11.24,7.69-16.96,11.4-1.48.96-1.92,1.61-.4,2.64,5.87,3.97,11.78,7.91,17.71,11.8,1,.66,2.5.99,2.5-.77,0-5.92,4.27-5.49,8.05-5.55,6.95-.12,13.9-.03,20.85-.04Z"/>
  <path d="m186.22,156.71c7.52,0,15.03-.09,22.54.05,2.27.04,3.08-.65,2.77-2.84-.1-.69.02-1.42-.02-2.12-.17-3.21.19-6.14,3.43-7.93,3.26-1.8,6.03-.09,8.46,1.47,9.58,6.16,18.99,12.56,28.43,18.93,3.2,2.16,6.13,4.73,9.45,6.67,6.18,3.62,6.4,8.31.23,12.72-8.02,5.74-16.37,11.02-24.57,16.51-4.68,3.13-9.4,6.19-14.01,9.42-2.49,1.74-4.92,2.32-7.73.92-2.84-1.42-3.85-3.56-3.74-6.77.2-6.12.03-6.13-6.14-6.13-13.47,0-26.94.02-40.41-.01-5.68-.01-7.84-2.19-7.87-7.91-.04-8.37-.04-16.73,0-25.1.03-5.67,2.23-7.83,7.93-7.85,7.09-.03,14.18,0,21.27,0Zm60.22,20.44c-6.61-4.34-13.12-8.58-19.59-12.89-1.53-1.02-1.89,0-2.28,1.07-1.45,3.89-4.51,4.97-8.32,4.96-11.9-.04-23.8-.01-35.7-.01-10.09,0-9.94,0-10,10.15-.02,3.21,1.2,3.61,3.94,3.59,13.74-.12,27.49,0,41.23-.09,4.13-.02,7.52.96,9.03,5.23.8,2.25,1.58,1.27,2.99.42,6.2-3.79,12.48-7.45,18.71-12.43Z"/>
  <path d="m61.63,96.66c0-9.36-.03-18.73,0-28.09.02-6.13,1.03-7.19,7.27-7.22,13.9-.07,27.81-.02,41.71-.02,5.53,0,11.07.09,16.6-.05,2.09-.05,2.52.64,2.59,2.63.4,11.05.46,11.05-10.31,11.05-13.62,0-27.24.09-40.86-.07-2.81-.03-3.48.76-3.46,3.5.13,15.89,0,31.78.13,47.67.02,2.79-.72,3.49-3.49,3.48-10.21-.06-10.21.05-10.21-10.31,0-7.52,0-15.04,0-22.56Z"/>
  <path d="m61.63,325.87c0-9.78.07-19.56-.05-29.34-.03-2.53.29-3.66,3.32-3.63,10.35.08,10.35-.06,10.35,10.16,0,13.75.08,27.5-.07,41.25-.03,2.65.66,3.27,3.27,3.25,15.87-.13,31.75.01,47.63-.14,2.9-.03,3.8.57,3.76,3.64-.15,10.06,0,10.06-10.02,10.06-17.01,0-34.02.01-51.03-.01-5.75,0-7.13-1.4-7.15-7.17-.03-9.36,0-18.71-.01-28.07Z"/>
  <path d="m325.19,361.12c-9.65,0-19.29-.08-28.94.06-2.4.03-3.03-.63-3.06-3.03-.12-10.65-.21-10.65,10.28-10.65,13.62,0,27.24-.08,40.85.06,2.73.03,3.53-.62,3.51-3.45-.15-15.89,0-31.78-.13-47.66-.02-2.68.55-3.56,3.42-3.54,10.27.07,10.27-.05,10.27,10.25,0,16.03.08,32.06-.03,48.09-.06,9.23-1.56,9.91-9.79,9.88-8.79-.03-17.59,0-26.38,0Z"/>
  <path d="m324.76,61.32c9.21,0,18.43-.01,27.64,0,6.12,0,8.99,2.77,8.99,8.73.02,18.71-.04,37.43.06,56.14.01,2.5-.44,3.34-3.19,3.34-10.5,0-10.5.11-10.5-10.44,0-13.47-.14-26.94.1-40.4.06-3.35-1-3.85-4.01-3.82-15.73.15-31.47,0-47.2.14-2.82.03-3.47-.77-3.46-3.5.06-10.2-.05-10.2,10.3-10.2,7.09,0,14.18,0,21.26,0Z"/>
  <path class="cls-2" d="m265.94,68.56c0,16.75-.07,33.5.06,50.24.02,2.85-.54,3.85-3.65,3.84-33.92-.12-67.84-.1-101.76-.02-2.7,0-3.59-.61-3.58-3.47.1-34.06.1-68.13,0-102.19,0-2.61.66-3.33,3.3-3.32,34.06.07,68.12.06,102.18-.09,3.23-.01,3.58,1.18,3.57,3.92-.11,17.03-.06,34.06-.06,51.1-.02,0-.05,0-.07,0Z"/>
  <path class="cls-3" d="m157.07,354.19c0-6.95.07-13.9-.04-20.85-.03-2.25.48-3.95,2.17-5.61,8.76-8.59,17.42-17.29,26.04-26.02,1.4-1.42,2.82-1.97,4.81-1.96,13.76.08,27.52.05,41.28.04,3.07,0,5.55,1,7.77,3.27,8.13,8.31,16.37,16.53,24.67,24.68,1.64,1.61,2.32,3.22,2.3,5.52-.1,14.04-.1,28.09,0,42.13.02,2.32-.7,3.9-2.33,5.51-8.71,8.54-17.32,17.18-25.91,25.84-1.37,1.39-2.73,2.08-4.77,2.07-14.33-.09-28.65-.08-42.98-.01-1.97,0-3.44-.46-4.86-1.9-8.66-8.79-17.38-17.53-26.18-26.17-1.58-1.56-2.03-3.15-2-5.25.1-7.09.04-14.19.04-21.28Z"/>
  <path class="cls-4" d="m14.02,210.7c-.09-29.2,24-54.51,54.09-53.79,33.68.81,54.07,24.53,54.53,54.89.46,29.98-25.31,53.86-54.89,53.98-28.6.12-55.03-26.07-53.73-55.08Z"/>
  <path class="cls-1" d="m404.37,265.52h-100.22c2.14-4.31,4.16-8.37,6.18-12.42,13.91-27.91,27.8-55.83,41.76-83.71.44-.88.46-2.24,1.95-2.44,1.64-.21,1.83,1.22,2.26,2.08,15.88,31.56,31.7,63.15,47.52,94.74.24.48.32,1.03.55,1.76Z"/>
  <path class="cls-4" d="m226.76,252.1c-6.95,0-13.9-.09-20.85.03-3.79.07-8.06-.36-8.05,5.55,0,1.76-1.5,1.43-2.5.77-5.93-3.89-11.83-7.82-17.71-11.8-1.52-1.03-1.08-1.69.4-2.64,5.71-3.7,11.26-7.67,16.96-11.4.97-.63,2.5-2.24,3.2.87.79,3.56,3.57,4.99,7.31,4.97,14.32-.09,28.65.05,42.97-.11,3.08-.04,4.11.62,4.05,3.92-.18,9.84-.02,9.84-10.03,9.84-5.25,0-10.49,0-15.74,0Z"/>
  <path class="cls-4" d="m246.44,177.16c-6.23,4.98-12.5,8.65-18.71,12.43-1.4.86-2.19,1.83-2.99-.42-1.51-4.28-4.9-5.25-9.03-5.23-13.74.08-27.49-.04-41.23.09-2.75.02-3.96-.38-3.94-3.59.05-10.15-.1-10.15,10-10.15,11.9,0,23.8-.03,35.7.01,3.82.01,6.87-1.07,8.32-4.96.4-1.06.75-2.09,2.28-1.07,6.47,4.31,12.98,8.55,19.59,12.89Z"/>
</svg>