<?xml version="1.0" encoding="utf-8"?>
<!-- Generator: Adobe Illustrator 27.3.1, SVG Export Plug-In . SVG Version: 6.00 Build 0)  -->
<svg version="1.1" id="Layer_1" xmlns="http://www.w3.org/2000/svg" xmlns:xlink="http://www.w3.org/1999/xlink" x="0px" y="0px"
	 viewBox="0 0 419 413.4" style="enable-background:new 0 0 419 413.4;" xml:space="preserve">
<style type="text/css">
	.st0{fill:#030303;}
	.st1{fill:#8AC9FE;}
	.st2{fill:#ECBA78;}
	.st3{fill:#60B7FF;}
	.st4{fill:#C1EB55;}
	.st5{fill:#E2A76F;}
	.st6{fill:#D8ECFE;}
	.st7{fill:#C4E2FF;}
	.st8{fill:#FFE177;}
	.st9{fill:#D3E7F8;}
	.st10{fill:#827582;}
</style>
<g>
	<path d="M216.5,0.9c4.5-1.9,9.2-0.4,13.6,0.1c9.2,1,18.4,2.6,27.4,4.7c10.1,2.3,19.8,5.7,29.4,9.3c8.3,3.1,16.2,7.1,23.9,11.5
		c7.7,4.4,15,9.3,22.1,14.8c6.7,5.2,13.4,10.3,19.5,16.1c19.1,17.9,33.8,38.9,44.9,62.6c7.1,15.1,12.2,30.9,15.1,47.4
		c1.8,9.7,3.5,19.3,3.2,29.1c-0.1,4.3-1.8,6.2-6.1,6.5c-1.2,0.1-2.5,0-3.8,0c-42.5,0-85-0.1-127.5,0.1c-5,0-8.1-1.2-10.3-5.7
		c-1-2.1,0.1-3.9-0.5-6c-4.2-13.2-10.6-24.8-22.3-32.9c-7.8-5.4-16-9.7-25.9-10.2c-3.6-0.2-6.1-4-5.9-7.8c0.1-1.1,0-2.2,0-3.3
		c0-42.5,0-85,0.1-127.5c0-2.7-1-5.9,2-8C215.9,1.4,216.2,1.1,216.5,0.9L216.5,0.9z M361.6,88.3c1.3,3.2,1,6.2-0.7,9.1
		c-4.5,2.9-8,7.4-9.3,11.9c-2,6.8-4.6,13.2-7.7,19.5c-4.5,9.3-11.8,16-21.6,18.4c-6.7,1.6-10.3,4.4-10.6,11.2c0,0.1,0,0.3,0.1,0.8
		c1.3,0,2.7,0,4,0c10.4,0,20.8,0,31.2,0c4.1,0,7.3,1.2,9.5,5.1c4.4,7.8,9.2,15.4,13.7,23.1c0.8,1.3,1.5,2.1,3.1,2.1
		c7.8-0.1,15.5-0.2,23.3-0.3c3.9,0.4,5.6-1.4,5-5.4c0-0.1,0-0.3,0-0.4c-1-11.9-3.7-23.5-7.1-34.9c-4.9-16.7-12.7-32-21.7-46.8
		c-3-4.8-6.3-9.5-10.4-13.6c-0.1-0.7,0.3-1.7-0.8-2.1C360.9,86.8,361.8,87.6,361.6,88.3L361.6,88.3z M357.9,81.8
		c-2.3-2.7-4.6-5.4-7-8c-11.7-12.8-25.2-23.4-40-32.4c-15.8-9.5-32.4-17.2-50.4-21.5c-9.4-2.2-18.7-4.2-28.3-5.2
		c-6.1-0.7-6.6-0.7-4.8,5.3c-0.1,0.5-0.2,1.1-0.2,1.6c0,36.9,0,73.9-0.1,110.8c0,2.8,1.4,3.6,3.4,4.1c13.8,3.7,25.2,11.1,34.5,21.8
		c0.7,0.8,1.3,0.9,2.1,0.9c9.8,0,19.7,0,29.6,0c-1.1-6.4-2.4-12.3-5.3-17.8c-0.9-1.7-1.8-2.7-3.8-2.2c-7,2-13.5-0.1-19.7-3
		c-8.9-4.1-14.6-11.8-20.2-19.4c-4.4-5.9-8.2-12.3-15.4-15.5c-2.5-1.2-4.2-3.8-3.9-7.2c0.5-4.1,3.5-6.2,6.8-6.7
		c15-2.4,30-4.2,44.4,3.2c8.5,4.4,14.4,11,17.2,20.2c1.2,3.8,2.1,7.7,3.2,11.6c1.3-4.1,1.2-8.3,3.6-11.8c0.2-0.3,0.4-0.6,0.6-0.9
		c2.6-7.3,8.5-11.9,14.8-15.6c10.3-6,21.8-8.1,33.6-8.7c1.2,0.1,2.5,0.3,3.7,0.1c1.2-0.3,2.8,1.6,3.6-0.3c0.7-1.6-1.5-2.1-1.7-3.5
		c0.1-0.2,0.8-0.2,0.3-0.7C358.2,81.5,358.1,81.7,357.9,81.8L357.9,81.8z M276.5,175.2c1.2,3.6,2.5,7.1,3.4,10.8
		c0.7,3,2.4,3.6,5.2,3.6c20-0.1,39.9-0.1,59.9-0.1c1.6,0,3.3,0.2,4.9,0.3c1.9,0.1,3.8,0.4,5.9-0.3c-1.9-5-5.5-8.9-7.8-13.5
		c-1.3-2.7-3.1-3.6-6.2-3.6c-20.8,0.1-41.6,0.1-62.5,0.1c-0.8,0-1.7-0.1-2.5,0C274.7,173.1,275.6,174.2,276.5,175.2L276.5,175.2z
		 M341.5,100.9c-4.4-0.6-8,1.1-11.4,2.5c-13,5.1-18.5,16.6-16,29.9c0.5,2.4,1.4,2.4,3.7,2.1c6.5-0.9,9.9-5.4,13.1-10.2
		C335.9,117.9,337.9,109.2,341.5,100.9L341.5,100.9z M250.9,99.3c4.9,6.4,9.3,12.4,14,18.3c4.7,5.8,10.8,8.9,18.3,9.1
		c1.5,0,2.6,0,2.6-2.1c0-7.8-4.1-17.2-11.6-21.7C266.9,98.6,259.1,98.9,250.9,99.3L250.9,99.3z"/>
	<path d="M213.4,338.9c0-22.4,0-44.7,0-67.1c0-3,3.5-6.2,7.9-6.8c3.6-0.5,7.7,0.6,10.1-3.9c0.7-1.4,3.8,0.1,5.8-1
		c11.6-6.4,21-15,26.4-27.4c2.2-5.1,4.4-10,5-15.6c0.4-4.3,4-6.6,8.9-6.7c8.1-0.1,16.1,0,24.2,0c35.1,0,70.3,0,105.4,0
		c7.5,0,9,1.3,8.8,8.8c-0.4,17.8-4.2,35-9.7,52c-4.7,14.5-11,28.3-18.7,41.3c-10.4,17.7-23.4,33.4-38.5,47.2
		c-8.3,7.5-17.3,14.2-26.7,20.4c-16.8,11-34.7,19.2-53.9,25c-12.6,3.8-25.3,6.3-38.4,7.5c-3.6,0.3-7.1,0.8-10.6,0.6
		c-2.9-0.1-5.2-1.4-5.4-4.9c-0.1-1.8-0.3-3.6-0.3-5.4c0-21.4,0-42.8,0-64.2C213.6,338.9,213.5,338.9,213.4,338.9L213.4,338.9z
		 M358.7,331c1.5-3.4,4.2-6,6.4-8.8c9.9-12.2,16.8-26.1,23.1-40.3c6.2-13.8,9.6-28.5,12.7-43.2c0.9-4,0.1-8.1,1.4-12.1
		c0.5-1.5,0-2.7-2.1-2.5c-1.2,0.1-2.5,0.1-3.7,0.1c-1.8-0.2-3.6-0.5-5.4-0.5c-35.4,0-70.9,0-106.3-0.1c-3,0-4.4,0.9-5.1,3.7
		c-3.1,12.4-9.9,22.7-18.7,31.6c-8.4,8.5-18.7,14.4-30,18c-4,1.3-4.3,3-4.3,6.3c0,36.7,0,73.4-0.1,110c-0.1,0.7-0.3,1.3-0.3,2
		c-0.3,3,0,4.4,4,4c6.9-0.6,13.7-2.2,20.4-3.5c16.6-3.4,32.4-9.2,47.5-16.9c11.3-5.8,21.9-12.9,31.9-21c9.8-8,19.2-16.3,27.1-26.3
		l-0.1,0.1c0.1-0.5,0.4-0.7,0.9-0.6c0.1,0.2,0.2,0.4,0.3,0.6C358.7,331.5,358.7,331.3,358.7,331L358.7,331z"/>
	<path d="M126.4,396.8c-11.7-5.8-23.2-11.8-33.9-19.4c-17.4-12.2-32.8-26.4-45.8-43.2c-14.9-19.2-26.2-40-33.8-63
		c-4.5-13.8-7.5-27.8-9.1-42.2c-0.5-4-0.6-7.9-0.6-11.9c0-4.3,1.8-6.1,6.2-6.5c1.2-0.1,2.5-0.1,3.8-0.1c42.2,0,84.5,0,126.7-0.1
		c4.8,0,8.9,0.6,11,5.5c1.1,2.6,0.5,5.6,1.4,8.4c4.9,15.9,14.8,27.4,29,35.6c6,3.5,12.6,5.2,19.2,6.6c4.1,0.8,5.3,3.3,5.7,6.7
		c0.1,1.1,0.1,2.2,0.1,3.3c0,42.2,0,84.5,0,126.7c0,8-2.1,10.4-9.9,10.1c-16-0.6-31.6-3.8-47-8.4c-7.2-2.2-14.1-5-21.1-7.5
		C128.1,395.8,127.2,396.5,126.4,396.8L126.4,396.8z M192.3,393.4c0.6-0.7,0.5-1.6,0.5-2.4c0-36.5,0-73.1,0.1-109.6
		c0-2.6-1.3-3.3-3.1-3.9c-5.8-1.9-11.5-4.2-16.9-7.3c-16.5-9.6-27.5-23.9-33.6-41.8c-1.3-3.9-2.6-4.8-6.2-4.8
		c-35.2,0.1-70.3,0.1-105.5,0.1c-1.5,0-3,0.1-4.6,0.2h-7.2c2.4,3.7,1.5,7.3,2,10.6c2.9,20.3,9.2,39.4,18,57.8
		c4.1,8.7,9.3,16.7,14.6,24.7c5.7,8.7,12.7,16.4,19.5,24.2c5.6,6.4,12.8,11.2,19.2,16.8c9.1,8,19.1,14.4,29.5,20
		c17.1,9.3,35.5,15.5,54.5,19.3c5.4,1.1,11,2.3,16.6,1.9c2-0.1,2.8-0.6,2.5-2.6C192.3,395.7,192.4,394.6,192.3,393.4L192.3,393.4z"
		/>
	<path d="M78.1,46.8c10.7-8.6,22-16.5,34.1-22.9c15.9-8.4,32.7-14.9,50.2-18.7c10.2-2.2,20.7-4.5,31.4-4.4c0.5,0,1.1-0.1,1.6-0.2
		c7-1.8,10.7,1.2,10.7,8.5c0,37,0,73.9,0,110.9c0,5.4,0,10.8,0,16.3c0,9.1-1.3,10.1-10.2,12.3c-20,4.9-34.5,16.6-42,36.2
		c-1.4,3.8-3.6,7.3-2.5,11.8c0.6,2.3-4.8,7.1-7.2,6.8c-6-0.7-11.9-0.3-17.9-0.3c-37.7-0.1-75.3,0-113,0c-1.8,0-3.6,0.1-5.4-0.2
		c-2.8-0.5-4.6-2.3-4.7-5.2c-0.3-7.8,0.7-15.5,1.9-23.2c1.2-7.9,3-15.7,4.5-23.6c0.8-4.2,3.2-8.6,4.8-13C22,116.4,32.7,97,46.6,79.2
		c7.1-9.1,14.8-17.4,23.1-25.3c2.4-2.2,4.8-4.5,7.5-6.5C77.5,47.2,77.8,47,78.1,46.8L78.1,46.8z M163.9,149.2c0.3-0.2,0.6-0.5,1-0.7
		c7.1-5.8,15.4-9.1,24-12c3.1-1,4.1-2.3,4.1-5.6c-0.1-35.1-0.1-70.2-0.1-105.2c0-1.9-0.3-3.8-0.5-5.8c0.4-6.6-0.1-7-6.8-5.3
		c-0.5,0.1-1.1,0.2-1.6,0.3c-10.6,1.6-21,3.4-31.2,6.6c-25.5,8-48.4,20.6-68.9,37.9c-10.7,9-20,19.1-28.4,30
		c-14.4,18.6-24.6,39.5-31.3,62.1c-3.5,11.9-5.6,24.1-7.4,36.4c-0.2,1.3,0.7,2,2,2.1c1.5,0,3-0.1,4.6-0.1c2.3-0.1,4.7-0.3,7-0.3
		c34.7,0,69.4,0,104.1,0c2,0,4.1,0.4,4.8-2.5C142.8,171.4,151.9,159.4,163.9,149.2L163.9,149.2z"/>
	<path d="M209.2,230c-14.1,0.6-22.4-9.7-22.5-19.8c-0.2-16.1,9.8-27.3,22.6-27c6.9,0.2,12.6,2.5,17.3,7.3c3.3,3.4,6,7.6,6.3,12.4
		C233.9,221,220.9,230.9,209.2,230L209.2,230z M209.3,197.5c-6.2,0-9.5,3.1-9.5,8.9c0.1,6.9,3.4,10.1,11.6,10.2
		c3.9,0,7.6-4.9,7.6-10C219.1,200.3,216.1,197.5,209.3,197.5L209.3,197.5z"/>
	<path d="M203.2,248.1c0-1.4,0-2.8,0-4.2c-0.1-3.5,0.7-6.3,5-6.4c5.3-0.2,8.2,1.7,8.2,6.1c0,4.3,1,8.8-1,13
		c-1.7,3.6-4.8,3.8-7.9,3.3c-2.8-0.5-4.3-2.6-4.2-5.6C203.3,252.3,203.3,250.2,203.2,248.1C203.2,248.1,203.2,248.1,203.2,248.1
		L203.2,248.1z"/>
	<path d="M216.5,165.8c-0.1,3.1,0.9,6.8-2.9,9.2c-2.1,1.3-4,2.2-6.4,1.2c-2.3-1-3.9-2.7-3.9-5.2c-0.1-4.3-0.2-8.6,0-12.9
		c0.2-3.5,3.1-4.6,6-4.7c3.8-0.2,6.8,2.8,7.2,6.6C216.7,161.8,216.5,163.6,216.5,165.8L216.5,165.8z"/>
	<path d="M235.2,226.9c3.9-1.7,6,1.8,7.6,3.6c2.5,2.8,6.9,4.9,6.2,9.9c-0.4,2.6-1.5,4.4-3.9,5.7c-2.5,1.3-4.6,0.6-6.3-1
		c-2.9-2.6-5.8-5.4-8.4-8.4c-1.9-2.1-2.1-5-0.9-7.3C230.5,227.3,232.5,225.7,235.2,226.9L235.2,226.9z"/>
	<path d="M249.1,173.9c0.2,4.2-3.9,5.6-5.6,8.5c-1.1,1.8-3.4,3.1-5.3,4.2c-3,1.8-5.7,1-7.9-1.7c-2.2-2.8-1.8-5.8,0.1-8.2
		c2.4-3.1,5.4-6,8.5-8.4c2.1-1.6,4.8-1.1,7.3-0.1C248.8,169.3,249.2,171.5,249.1,173.9L249.1,173.9z"/>
	<path d="M251.5,213.3c-1.5,0-3.1,0-4.6,0c-4.1-0.1-6.7-2.3-7-5.9c-0.3-4.1,1.8-7,5.9-7.3c4.5-0.4,9.1-0.4,13.5,0.9
		c3.1,0.9,4,4,3.7,6.4c-0.3,2.6-1.5,5.9-5.3,6C255.6,213.4,253.6,213.3,251.5,213.3C251.5,213.3,251.5,213.3,251.5,213.3
		L251.5,213.3z"/>
	<path d="M183.5,226.7c2.9-0.7,5.3,0.6,6.1,3c0.8,2.6,1,5.5-1.7,7.9c-2.5,2.2-4.6,4.9-7.2,7c-3.1,2.6-6,2.8-8.7,0.4
		c-2.6-2.3-3.1-6.4-0.8-9.1c2.6-3,5.6-5.7,8.4-8.5C180.8,226.1,182.2,226.9,183.5,226.7L183.5,226.7z"/>
	<path d="M167.4,213.4c-1.2,0-2.5,0-3.7,0c-3.4,0-6.8-0.2-7.1-4.8c-0.4-5.5,1.3-8.1,6.2-8.5c4.2-0.4,8.5-0.5,12.6,0.7
		c3.5,1.1,4.1,4,3.7,7.2c-0.4,3.2-2.6,4.7-5.4,5.2C171.6,213.6,169.5,213.3,167.4,213.4C167.4,213.3,167.4,213.3,167.4,213.4
		L167.4,213.4z"/>
	<path d="M176.8,167.5c4-1.1,5.8,2.8,7.8,4.8c2.2,2.2,5.6,4.1,5.5,8.5c-0.1,3.2-1.7,5.2-3.8,6.3c-2.3,1.3-5.1,0.5-7.1-1.6
		c-2.4-2.4-4.9-4.8-7.3-7.3c-2-2.1-2.6-4.7-1.5-7.5C171.5,167.9,173.9,167.3,176.8,167.5L176.8,167.5z"/>
	<path class="st0" d="M126.4,396.8c0.8-0.3,1.7-1,1.7,0.6C127.5,397.6,126.7,397.8,126.4,396.8z"/>
	<path class="st0" d="M78.1,46.8c-0.3,0.2-0.6,0.4-0.9,0.6C77.4,47,77.6,46.6,78.1,46.8z"/>
	<path class="st1" d="M352.4,85.6c-11.8,0.6-23.3,2.6-33.6,8.7c-6.3,3.7-12.1,8.3-14.8,15.6c-0.5,0.1-0.8,0.3-0.6,0.9
		c-2.5,3.5-2.4,7.7-3.6,11.8c-1.1-3.9-2-7.8-3.2-11.6c-2.8-9.2-8.7-15.7-17.2-20.2C265,83.4,250,85.2,235,87.6
		c-3.3,0.5-6.3,2.6-6.8,6.7c-0.4,3.3,1.3,6,3.9,7.2c7.2,3.3,11,9.6,15.4,15.5c5.6,7.6,11.4,15.3,20.2,19.4c6.1,2.8,12.7,5,19.7,3
		c2-0.6,2.9,0.5,3.8,2.2c2.9,5.5,4.2,11.4,5.3,17.8c-9.9,0-19.7,0-29.6,0c-0.8,0-1.4-0.1-2.1-0.9c-9.3-10.7-20.8-18.1-34.5-21.8
		c-2-0.5-3.4-1.3-3.4-4.1C227,95.4,227,58.5,227,21.6c0-0.5,0.1-1.1,0.2-1.6c2.1-0.3,4.1,0.5,6.1,0.8c20.1,2.3,39.1,8.1,57.4,16.7
		c20.9,9.8,39,23.5,55,40C348.2,79.8,351.3,82,352.4,85.6L352.4,85.6z"/>
	<path class="st1" d="M396.7,189.3c-7.8,0.1-15.5,0.1-23.3,0.3c-1.6,0-2.3-0.8-3.1-2.1c-4.5-7.7-9.3-15.3-13.7-23.1
		c-2.2-3.9-5.3-5.1-9.5-5.1c-10.4,0.1-20.8,0-31.2,0c-1.4,0-2.7,0-4,0c-0.1-0.5-0.1-0.6-0.1-0.8c0.3-6.9,3.9-9.6,10.6-11.2
		c9.8-2.4,17.1-9.1,21.6-18.4c3.1-6.3,5.7-12.7,7.7-19.5c1.3-4.5,4.8-9.1,9.3-11.9c1.8,0.1,2.5,1.5,3.4,2.8
		c2.1,3.4,4.4,6.7,6.5,10.1C385.5,134.7,393.9,161,396.7,189.3L396.7,189.3z"/>
	<path class="st2" d="M349.9,189.9c-1.6-0.1-3.3-0.3-4.9-0.3c-20,0-39.9-0.1-59.9,0.1c-2.9,0-4.5-0.6-5.2-3.6
		c-0.9-3.7-2.3-7.2-3.4-10.8c0.8-1.3,2.2-1,3.4-1c19.5,0,39.1,0,58.6,0c1.1,0,2.6-0.4,3.1,0.7C344.4,179.9,348.6,184.1,349.9,189.9
		L349.9,189.9z"/>
	<path class="st3" d="M352.4,85.6c-1.1-3.6-4.3-5.8-6.7-8.3c-16-16.4-34.1-30.2-55-40c-18.3-8.6-37.3-14.4-57.4-16.7
		c-2.1-0.2-4-1-6.1-0.8c-1.7-6-1.3-5.9,4.8-5.3c9.6,1.1,19,3,28.3,5.2c18.1,4.3,34.7,12,50.4,21.5c14.8,9,28.3,19.6,40,32.4
		c2.4,2.6,4.7,5.3,7,8l0.2,0.2c0.2,1.4,2.4,1.9,1.7,3.5c-0.9,1.8-2.4,0-3.6,0.3C355,86,353.7,85.7,352.4,85.6L352.4,85.6z"/>
	<path class="st3" d="M396.7,189.3c-2.7-28.2-11.2-54.6-25.9-78.9c-2.1-3.4-4.4-6.7-6.5-10.1c-0.8-1.3-1.6-2.6-3.4-2.8
		c1.7-2.9,2-5.9,0.7-9.1c0.3-0.1,0.5-0.1,0.8-0.2c4,4.1,7.4,8.8,10.4,13.6c9,14.8,16.8,30.1,21.7,46.7c3.4,11.4,6.1,23,7.1,34.9
		c0,0.1,0,0.3,0,0.4C402.3,187.8,400.6,189.6,396.7,189.3L396.7,189.3z"/>
	<path class="st4" d="M341.5,100.9c-3.6,8.3-5.6,17-10.6,24.3c-3.2,4.7-6.6,9.3-13.1,10.2c-2.3,0.3-3.2,0.4-3.7-2.1
		c-2.5-13.3,3-24.8,16-29.9C333.6,102.1,337.1,100.3,341.5,100.9L341.5,100.9z"/>
	<path class="st4" d="M250.9,99.3c8.3-0.4,16.1-0.6,23.3,3.6c7.5,4.4,11.7,13.9,11.6,21.7c0,2.1-1,2.2-2.6,2.1
		c-7.5-0.2-13.7-3.3-18.3-9.1C260.2,111.7,255.8,105.6,250.9,99.3L250.9,99.3z"/>
	<path class="st5" d="M349.9,189.9c-1.4-5.8-5.6-10-8.4-15.1c-0.6-1-2-0.7-3.1-0.7c-19.5,0-39.1,0-58.6,0c-1.2,0-2.5-0.3-3.4,1
		c-0.8-1-1.8-2.1,0.5-2.6c0.8-0.2,1.7,0,2.5,0c20.8,0,41.6,0.1,62.5-0.1c3.1,0,4.9,0.9,6.2,3.6c2.2,4.6,5.8,8.5,7.8,13.5
		C353.7,190.3,351.8,190,349.9,189.9L349.9,189.9z"/>
	<path class="st0" d="M362.5,88.1c-0.3,0.1-0.5,0.1-0.8,0.2c0.2-0.8-0.7-1.5,0-2.3C362.8,86.5,362.3,87.4,362.5,88.1L362.5,88.1z"/>
	<path class="st0" d="M303.5,110.8c-0.2-0.6,0.2-0.8,0.6-0.9C303.9,110.2,303.7,110.5,303.5,110.8z"/>
	<path class="st0" d="M357.9,81.8c0.2-0.2,0.3-0.3,0.5-0.5c0.5,0.5-0.2,0.4-0.3,0.7L357.9,81.8L357.9,81.8z"/>
	<path class="st2" d="M226.9,393.4c0-36.7,0.1-73.4,0.1-110c0-3.3,0.3-5,4.3-6.3c11.3-3.6,21.6-9.5,30-18
		c8.8-8.9,15.6-19.2,18.7-31.6c0.7-2.8,2-3.7,5.1-3.7c35.4,0.1,70.9,0.1,106.3,0.1c1.8,0,3.6,0.3,5.4,0.5
		c-0.8,9.2-2.4,18.3-4.6,27.3c-4.8,19.6-12.6,38.1-23.5,55.1c-2.5,3.8-4,8.5-8.4,10.9c-4-8.8-8-17.7-12-26.5
		c-3.8-8.4-7.4-16.8-11.8-24.9c-3.2-6-4.9-12.7-9.5-18c-4-4.5-7.7-4.5-11.1,0.6c-1.3,1.9-2.7,3.8-4,5.7c-0.2,0-0.4,0.1-0.6,0.1
		c0.2,0.2,0.4,0.4,0.6,0.5c-4.5,6.1-8.9,12.3-13.5,18.7c-3.6-7.2-7.5-13.8-10.3-20.8c-1.4-3.5-3.7-4.7-6.5-5.1c-2.8-0.3-5,1.4-6.5,4
		c-2.4,4.3-4.9,8.5-7.3,12.7c-9.6,16.8-19.3,33.6-28.9,50.6c-3,5.3,0.4,10.5,6.5,10.5c34.8,0,69.7,0,104.5,0c1.2,0,2.5,0.3,3.7,0.5
		c0.1,1.4-0.5,2.3-1.3,3.3c-9.1,10.2-19.1,19.5-30,27.7c-14.8,11.1-31,19.8-48.3,26.1C258.5,388.6,242.9,392.2,226.9,393.4
		L226.9,393.4z"/>
	<path class="st5" d="M226.9,393.4c16-1.2,31.6-4.8,46.7-10.2c17.4-6.3,33.5-15,48.3-26.1c11-8.2,20.9-17.5,30-27.7
		c0.9-1,1.5-2,1.3-3.3c4.1-1.4,7.4-3.4,6.8-8.5c4.4-2.4,6-7.1,8.4-10.9c10.9-17,18.7-35.5,23.5-55.1c2.2-9,3.8-18.1,4.6-27.3
		c1.2-0.1,2.5,0,3.7-0.1c2-0.2,2.6,1,2.1,2.5c-1.3,3.9-0.6,8-1.4,12.1c-3.1,14.8-6.6,29.4-12.7,43.2c-6.3,14.2-13.2,28.1-23.1,40.3
		c-2.2,2.8-4.9,5.4-6.4,8.8c-0.1,0-0.3,0.1-0.4,0.1c-0.5-0.1-0.8,0.1-0.9,0.6c0.4-0.2,0.4-0.4,0-0.6c-0.1-0.1-0.3,0-0.4,0
		c0.1,0.2,0.3,0.4,0.5,0.5c-7.9,10-17.3,18.3-27.1,26.3c-9.9,8.1-20.5,15.2-31.9,21c-15,7.7-30.9,13.6-47.5,16.9
		c-6.8,1.4-13.5,2.9-20.4,3.5c-4,0.4-4.4-1-4-4C226.6,394.7,226.8,394.1,226.9,393.4L226.9,393.4z"/>
	<path class="st0" d="M358.3,331.2c0.1,0,0.3-0.1,0.4-0.1c0,0.2-0.1,0.5-0.1,0.8C358.5,331.6,358.4,331.4,358.3,331.2L358.3,331.2z"
		/>
	<path class="st1" d="M23.1,224.1c1.5-0.1,3-0.2,4.6-0.2c35.2,0,70.3,0,105.5-0.1c3.7,0,4.9,0.9,6.2,4.8
		c6.1,17.9,17.1,32.1,33.6,41.7c5.3,3.1,11,5.3,16.9,7.3c1.8,0.6,3.1,1.3,3.1,3.9c-0.1,36.5-0.1,73.1-0.1,109.6
		c0,0.8,0.2,1.7-0.5,2.4c-3.3-0.3-6.6-0.4-9.9-1c-16.2-3-32.1-7.1-47.3-13.7c-20.7-9-39-21.5-55.4-36.7
		c-8.8-8.1-16.1-17.5-23.1-27.1c-13-18-22.4-37.8-28-59.2C26,245.4,22.1,235.1,23.1,224.1L23.1,224.1z M106.5,315.9
		c-6.3,0.2-12.2,1.7-16.5,7c-1.7,2.1-3.5,3.3-6.5,3.2c-4.1-0.1-6.2,2.4-6.2,6.3c0.1,4.2,2.4,6.6,6.5,6.9c5.1,0.4,9.3-1.6,12.9-4.9
		c7.6-6.8,8.7-6.9,16.9-1c12.2,8.8,18.9,8.4,30.8-1.6c4.6-3.9,8.9-3.6,13.3,0.8c4.4,4.4,9.6,7.3,16,6.6c3.3-0.4,5.6-2.3,6-5.6
		c0.4-3.2-0.4-6-4.3-6.9c-3.8-0.8-7-2.9-10.1-5c-1.4-0.9-2.2-3.2-3.6-3.6c-9.7-3.1-19-3.9-26.9,4.7c-4.4,4.8-8.6,4.3-13.1-0.2
		C117.7,318.3,112.7,315.9,106.5,315.9L106.5,315.9z M89,279.2c-6.6-0.2-11.2,2.7-15.4,6.7c-1.7,1.7-3.1,3.6-6.2,3.4
		c-4.3-0.2-6.7,2.5-6.8,6.5c0,4.2,2.6,6.7,7.1,6.7c5.3,0,9.6-2.3,13.4-5.9c5.3-5.2,7.9-5.2,14.4-1.8c2.5,1.4,3.6,3.9,6.1,5.2
		c8.2,4.5,18,3.4,24.4-3.4c4.5-4.8,10.9-5.8,15.9-0.2c3.6,3.9,8.1,6.6,14,6.1c3.9-0.4,6.8-2.4,7.3-5.8c0.5-3.7-1.8-7.2-5.9-7.4
		c-3.9-0.2-6.6-2.3-8.8-4.7c-6.9-7.5-21.5-6.6-29-0.3c-6.8,5.8-8.1,7.5-15.1,0.7C100.1,281.2,94.6,278.9,89,279.2L89,279.2z
		 M72,242.6c-5.7-0.5-10.3,2.3-14.4,6.1c-2.3,2.1-4.5,4-8.1,4.1c-3.5,0.1-5.7,3.2-5.5,6.8c0.2,3.6,2.6,6.1,6.2,6.4
		c6.7,0.4,11.6-3.3,16.3-7.1c4.9-4,8.3-4.2,12.7,0.3c8.8,9.2,22.5,9.1,31.3-0.1c2-2.1,4.2-3.4,7.2-3.1c3.5,0.4,6,2.5,8.2,4.9
		c4.1,4.4,9.2,5.8,14.9,5c3.6-0.5,5.2-3.6,5.5-6.7c0.2-2.6-1.7-5.4-4.4-5.5c-3.8-0.1-5.9-2.2-8.4-4.4c-6.1-5.2-12.9-8-21.2-5.9
		c-5,1.2-8.4,4.8-12.5,7.4c-4.5,2.8-7.1,2.8-10.8-1C84.4,244.9,78.9,242.2,72,242.6L72,242.6z"/>
	<path class="st3" d="M23.1,224.1c-1,11,2.9,21.3,5.6,31.6c5.6,21.4,15.1,41.2,28,59.2c7,9.7,14.3,19,23.1,27.1
		c16.5,15.2,34.8,27.7,55.4,36.7c15.2,6.6,31.1,10.7,47.3,13.7c3.2,0.6,6.6,0.7,9.9,1c0,1.1-0.1,2.2,0.1,3.3c0.2,2-0.6,2.5-2.5,2.6
		c-5.7,0.4-11.2-0.9-16.6-1.9c-19.1-3.8-37.5-10-54.5-19.3c-10.4-5.7-20.4-12-29.5-20c-6.4-5.6-13.6-10.4-19.2-16.8
		c-6.8-7.8-13.8-15.5-19.5-24.2c-5.2-8-10.5-16-14.6-24.7c-8.8-18.4-15.1-37.5-18-57.8c-0.5-3.3,0.4-6.9-2-10.6L23.1,224.1
		L23.1,224.1z"/>
	<path class="st6" d="M192.2,19.9c0.2,1.9,0.5,3.8,0.5,5.8c0,35.1,0,70.2,0.1,105.2c0,3.3-0.9,4.6-4.1,5.6c-8.5,2.8-16.9,6.2-24,12
		c-0.6-0.2-0.8,0.2-1,0.7c-12,10.2-21.1,22.3-24.8,37.8c-0.7,3-2.8,2.5-4.8,2.5c-34.7,0-69.4,0-104.1,0c-2.3,0-4.7,0.2-7,0.3
		c0.5-9.5,2.3-18.9,4.6-28.1c5.7-23.2,15.5-44.6,29.5-64c2.3-3.2,3.8-7.5,8.3-8.7c-1.1,4.8-3.8,9.1-4.1,14.1c0,0.9-0.9,1.2-1.6,1.7
		c-10,8-13,20.8-6.6,32.5c-0.2,0.6,0.2,0.8,0.7,0.9c4.9,5.7,10,11,18.2,12.1c2.6,0.3,4.8-0.4,7.2-0.4c24.2,0.1,48.3,0.2,72.5,0
		c8.8-0.1,15.1-5,19.7-12.1c6.9-10.7,4.4-28.2-10-35.7c-0.2-0.2-0.4-0.4-0.6-0.6c-0.4-0.9-0.7-1.8-1.1-2.6
		c-5.4-14.6-18.8-23.8-34.8-22.3c-3.7,0.4-6.1-0.9-9.1-2.4c-9.7-4.9-19.8-6.2-30.5-2.3c-4.3,1.6-7.6,4.4-11.5,6.4
		c-0.1-1.2,0.6-2.1,1.5-2.8c6.2-5.5,12.2-11.2,18.6-16.4c13.3-10.7,28.1-19.1,43.8-25.7C155.3,26.1,173.5,21.7,192.2,19.9
		L192.2,19.9z"/>
	<path class="st7" d="M192.2,19.9c-18.8,1.8-36.9,6.2-54.3,13.5c-15.7,6.6-30.5,15-43.8,25.7C87.7,64.3,81.7,70,75.5,75.5
		c-0.8,0.8-1.6,1.6-1.5,2.8c-2.9,3.5-6.5,6.5-8.5,10.8c-4.6,1.2-6,5.5-8.3,8.7c-14,19.4-23.8,40.8-29.5,64
		c-2.3,9.2-4.1,18.5-4.6,28.1c-1.5,0-3,0.1-4.6,0.1c-1.3,0-2.2-0.7-2-2.1c1.7-12.3,3.8-24.5,7.4-36.4c6.7-22.6,17-43.5,31.3-62.1
		c8.4-10.9,17.7-20.9,28.4-30c20.6-17.3,43.4-29.9,68.9-37.9c10.2-3.2,20.7-5,31.2-6.6c0.5-0.1,1.1-0.1,1.6-0.3
		C192.1,13,192.6,13.3,192.2,19.9L192.2,19.9z"/>
	<path class="st0" d="M163.9,149.2c0.2-0.4,0.4-0.9,1-0.7C164.5,148.7,164.2,148.9,163.9,149.2z"/>
	<path class="st8" d="M209.3,197.5c6.8,0,9.7,2.8,9.7,9.1c0,5.1-3.6,10.1-7.6,10c-8.2-0.1-11.6-3.4-11.6-10.2
		C199.8,200.6,203.2,197.5,209.3,197.5L209.3,197.5z"/>
	<path d="M360.1,317.6c0.5,5.1-2.8,7.1-6.8,8.5c-1.2-0.2-2.5-0.5-3.7-0.5c-34.8,0-69.6,0-104.5,0c-6.1,0-9.5-5.1-6.5-10.5
		c9.5-16.9,19.2-33.7,28.9-50.6c2.4-4.2,5-8.4,7.3-12.7c1.4-2.6,3.7-4.3,6.5-4c2.9,0.4,5.1,1.6,6.5,5.1c2.8,7,6.6,13.6,10.3,20.8
		c4.6-6.4,9.1-12.5,13.5-18.7c0-0.2,0-0.4,0-0.7c1.3-1.9,2.7-3.7,4-5.7c3.4-5.1,7.2-5.1,11.1-0.6c4.7,5.3,6.4,12,9.5,18
		c4.3,8.1,7.9,16.6,11.8,24.9C352.1,299.9,356.1,308.7,360.1,317.6L360.1,317.6z M320.9,264.5c-2.8,4-5.2,7.5-7.5,10.9
		c-6,8.7-11.8,17.5-17.9,26.1c-2.1,3-6,3.4-8.8,1.5c-3.4-2.3-4.1-5.2-2.1-8.8c1.1-2,2.6-3.9,3.9-5.8c0.6-0.9,1.5-1.6,0.8-2.9
		c-2.8-5.4-5.5-10.8-8.5-17c-8.6,15-16.7,29.1-25.1,43.8h5.2c25.1,0,50.2,0,75.4,0c4.9,0,6.2-2.2,3.9-6.6c-0.4-0.7-0.6-1.5-1-2.2
		C333.1,290.7,327.2,277.9,320.9,264.5L320.9,264.5z"/>
	<path class="st0" d="M311.6,254.4c0,0.2,0,0.4,0,0.7c-0.2-0.2-0.4-0.4-0.6-0.5C311.2,254.5,311.4,254.4,311.6,254.4L311.6,254.4z"
		/>
	<path class="st0" d="M357.5,331.7c-0.1-0.2-0.3-0.4-0.5-0.5c0.1,0,0.3-0.1,0.4,0c0.3,0.2,0.3,0.4,0,0.6L357.5,331.7L357.5,331.7z"
		/>
	<path d="M106.5,315.9c6.2,0,11.2,2.5,15.4,6.6c4.5,4.5,8.7,5,13.1,0.2c7.9-8.6,17.2-7.8,26.9-4.7c1.4,0.5,2.2,2.7,3.6,3.6
		c3.1,2.1,6.3,4.2,10.1,5c3.9,0.8,4.6,3.7,4.3,6.9c-0.4,3.3-2.7,5.3-6,5.6c-6.5,0.7-11.6-2.3-16-6.6c-4.4-4.4-8.8-4.7-13.3-0.8
		c-11.9,10-18.5,10.4-30.8,1.6c-8.2-5.9-9.3-5.8-16.9,1c-3.7,3.3-7.8,5.3-12.9,4.9c-4.1-0.3-6.5-2.7-6.5-6.9
		c-0.1-3.9,2.1-6.5,6.2-6.3c3,0.1,4.8-1,6.5-3.2C94.2,317.5,100.2,316,106.5,315.9L106.5,315.9z"/>
	<path d="M89,279.2c5.6-0.3,11.1,2,15.4,6c7.1,6.7,8.3,5,15.1-0.7c7.5-6.3,22.1-7.2,29,0.3c2.2,2.4,4.9,4.5,8.8,4.7
		c4.1,0.2,6.4,3.7,5.9,7.4c-0.4,3.3-3.4,5.4-7.3,5.8c-5.9,0.5-10.5-2.2-14-6.1c-5-5.6-11.5-4.5-15.9,0.2c-6.4,6.8-16.2,7.9-24.4,3.4
		c-2.4-1.3-3.5-3.9-6.1-5.2c-6.5-3.5-9-3.4-14.4,1.8c-3.7,3.6-8.1,5.9-13.4,5.9c-4.5,0-7.1-2.5-7.1-6.7c0-4,2.5-6.8,6.8-6.5
		c3.1,0.2,4.4-1.8,6.2-3.4C77.7,281.9,82.4,279,89,279.2L89,279.2z"/>
	<path d="M72,242.5c7-0.3,12.4,2.4,17,7.1c3.7,3.8,6.3,3.8,10.8,1c4.1-2.5,7.4-6.1,12.5-7.4c8.3-2.1,15.2,0.7,21.2,5.9
		c2.5,2.2,4.6,4.3,8.4,4.4c2.8,0.1,4.7,2.9,4.4,5.5c-0.3,3.1-1.9,6.2-5.5,6.7c-5.7,0.8-10.8-0.7-14.9-5c-2.3-2.4-4.7-4.5-8.2-4.9
		c-3-0.3-5.2,0.9-7.2,3.1c-8.8,9.3-22.5,9.3-31.3,0.1c-4.4-4.5-7.8-4.4-12.7-0.3c-4.7,3.9-9.7,7.6-16.3,7.1c-3.6-0.2-6-2.7-6.2-6.4
		c-0.2-3.6,2-6.8,5.5-6.8c3.5-0.1,5.7-2,8.1-4.1C61.7,244.9,66.3,242,72,242.5L72,242.5z"/>
	<path d="M65.5,89.1c2-4.2,5.6-7.2,8.5-10.8c3.9-2,7.2-4.8,11.5-6.4c10.6-3.9,20.8-2.6,30.5,2.3c3,1.5,5.5,2.8,9.1,2.4
		c16-1.6,29.4,7.7,34.8,22.3c0.3,0.9,0.7,1.8,1.1,2.6c-0.2,0.6,0.1,0.8,0.6,0.6c14.4,7.5,16.9,25,10,35.7c-4.6,7-10.9,12-19.7,12.1
		c-24.2,0.2-48.3,0.2-72.5,0c-2.4,0-4.7,0.7-7.2,0.4c-8.2-1.1-13.3-6.3-18.2-12.1c-0.2-0.3-0.5-0.6-0.7-0.9
		c-6.4-11.7-3.4-24.6,6.6-32.6c0.6-0.5,1.5-0.8,1.6-1.7C61.7,98.2,64.4,93.9,65.5,89.1L65.5,89.1z M113.2,88.1
		c-0.3-0.2-0.6-0.4-0.9-0.7c-5-4.2-10.9-4.4-17-4.2c-6.1,0.2-11.1,2.8-14.8,7.5c-3,3.8-5.6,8.3-5.4,13.2c0.2,5.2-1.1,8.6-5.8,11.1
		c-5.4,2.8-7.4,8.6-5.2,14.1c1.6,4,7.5,9,10.2,8.2c2.1-0.6,4.1-0.5,6.1-0.5c22.9,0,45.8-0.2,68.7,0.1c6.2,0.1,11.4-4.2,12.4-8.6
		c1.5-6.7-1.5-12.4-7.9-14.7c-3.4-1.2-4.8-3.3-5.4-6.8c-1.9-11.2-12.6-20-24.6-16.4C119.1,91.7,116.1,91.4,113.2,88.1z"/>
	<path class="st0" d="M53.3,137.5c0.2,0.3,0.5,0.6,0.7,0.9C53.5,138.3,53.1,138.1,53.3,137.5z"/>
	<path class="st9" d="M161.5,102.3c-0.6,0.1-0.8-0.1-0.6-0.6C161.1,101.9,161.3,102.1,161.5,102.3z"/>
	<path class="st10" d="M320.9,264.5c6.2,13.4,12.2,26.2,18.1,39c0.3,0.7,0.6,1.5,1,2.2c2.3,4.4,1,6.6-3.9,6.6c-25.1,0-50.2,0-75.4,0
		h-5.2c8.4-14.7,16.6-28.9,25.1-43.8c3.1,6.2,5.8,11.6,8.5,17c0.7,1.4-0.2,2-0.8,2.9c-1.3,2-2.8,3.8-3.9,5.8c-2,3.6-1.3,6.5,2.1,8.8
		c2.8,2,6.7,1.6,8.8-1.5c6.1-8.6,11.9-17.4,17.9-26.1C315.7,272,318.1,268.5,320.9,264.5L320.9,264.5z"/>
	<path class="st7" d="M113.2,88.2c3,3.2,5.9,3.6,10.4,2.2c11.9-3.6,22.7,5.3,24.6,16.4c0.6,3.4,2,5.6,5.4,6.8
		c6.4,2.3,9.4,8.1,7.9,14.7c-1,4.4-6.3,8.7-12.4,8.6c-22.9-0.2-45.8-0.1-68.7-0.1c-2,0-4-0.1-6.1,0.5c-2.7,0.9-8.6-4.2-10.2-8.2
		c-2.2-5.5-0.2-11.3,5.2-14.1c4.7-2.4,6-5.9,5.8-11.1c-0.2-4.9,2.4-9.4,5.4-13.2c3.7-4.7,8.7-7.3,14.8-7.5c6.1-0.2,12,0.1,17,4.2
		C112.4,88,112.6,88.3,113.2,88.2L113.2,88.2z"/>
	<path class="st0" d="M113.2,88.2c-0.6,0.2-0.8-0.2-0.9-0.7C112.5,87.7,112.8,87.9,113.2,88.2z"/>
</g>
</svg>
