<?xml version="1.0" encoding="UTF-8"?>
<svg id="Layer_2" data-name="Layer 2" xmlns="http://www.w3.org/2000/svg" xmlns:xlink="http://www.w3.org/1999/xlink" viewBox="0 0 48 48">
  <defs>
    <style>
      .cls-1 {
        fill: #51595e;
      }

      .cls-2 {
        fill: #fcf351;
      }

      .cls-3 {
        fill: #4aa6e5;
      }

      .cls-4 {
        fill: #656c70;
      }

      .cls-5 {
        fill: #60b7ff;
      }

      .cls-6 {
        fill: #e5d942;
      }

      .cls-7 {
        clip-path: url(#clippath);
      }

      .cls-8 {
        fill: #3c96d3;
      }

      .cls-9 {
        fill: none;
      }

      .cls-10 {
        fill: #6b7277;
      }
    </style>
    <clipPath id="clippath">
      <rect class="cls-9" width="48" height="48"/>
    </clipPath>
  </defs>
  <g id="Layer_1-2" data-name="Layer 1">
    <g class="cls-7">
      <g>
        <g>
          <g>
            <rect class="cls-10" x="13.85" y="9.85" width="6.19" height="2.08" rx=".6" ry=".6"/>
            <rect class="cls-10" x="27.88" y="9.85" width="6.19" height="2.08" rx=".6" ry=".6"/>
          </g>
          <rect class="cls-5" x="4" y="11.48" width="39.92" height="19.75" rx="6.69" ry="6.69"/>
          <g>
            <path class="cls-2" d="m31.96,22.5c0,1.98-1.61,3.59-3.59,3.59s-3.59-1.61-3.59-3.59,3.59-5.89,3.59-5.89c0,0,3.59,3.9,3.59,5.89Z"/>
            <path class="cls-6" d="m28.37,16.62s-.46.5-1.04,1.23c1.06,1.31,2.55,3.38,2.55,4.66,0,1.62-1.07,2.99-2.55,3.43.33.1.68.16,1.04.16,1.98,0,3.59-1.61,3.59-3.59s-3.59-5.89-3.59-5.89Z"/>
          </g>
          <path class="cls-3" d="m37.23,11.48h-4.41c3.69,0,6.69,3,6.69,6.69v6.37c0,3.69-3,6.69-6.69,6.69h4.41c3.69,0,6.69-3,6.69-6.69v-6.37c0-3.69-3-6.69-6.69-6.69Z"/>
          <rect class="cls-8" x="8.8" y="14.95" width="6.99" height="1.03" rx=".52" ry=".52"/>
          <rect class="cls-8" x="8.8" y="17.74" width="6.99" height="1.03" rx=".52" ry=".52"/>
          <rect class="cls-8" x="8.8" y="20.53" width="6.99" height="1.03" rx=".52" ry=".52"/>
          <rect class="cls-8" x="8.8" y="23.32" width="6.99" height="1.03" rx=".52" ry=".52"/>
          <rect class="cls-8" x="8.8" y="26.11" width="6.99" height="1.03" rx=".52" ry=".52"/>
          <rect class="cls-10" x="4" y="31.23" width="39.92" height="2.6" rx=".98" ry=".98"/>
          <path class="cls-4" d="m42.95,31.23h-3.17c.54,0,.98.44.98.98v.65c0,.54-.44.98-.98.98h3.17c.54,0,.98-.44.98-.98v-.65c0-.54-.44-.98-.98-.98Z"/>
        </g>
        <g>
          <circle class="cls-10" cx="12.3" cy="36.69" r="2.86"/>
          <path class="cls-4" d="m12.3,33.83c-.14,0-.28.01-.42.03,1.38.2,2.44,1.39,2.44,2.83s-1.06,2.62-2.44,2.83c.14.02.28.03.42.03,1.58,0,2.86-1.28,2.86-2.86s-1.28-2.86-2.86-2.86Z"/>
          <circle class="cls-1" cx="12.3" cy="36.69" r=".52"/>
        </g>
        <g>
          <circle class="cls-10" cx="35.68" cy="36.69" r="2.86"/>
          <path class="cls-4" d="m35.68,33.83c-.14,0-.28.01-.42.03,1.38.2,2.44,1.39,2.44,2.83s-1.06,2.62-2.44,2.83c.14.02.28.03.42.03,1.58,0,2.86-1.28,2.86-2.86s-1.28-2.86-2.86-2.86Z"/>
          <circle class="cls-1" cx="35.68" cy="36.69" r=".52"/>
        </g>
      </g>
    </g>
  </g>
</svg>