<?xml version="1.0" encoding="UTF-8"?>
<svg id="Layer_2" data-name="Layer 2" xmlns="http://www.w3.org/2000/svg" xmlns:xlink="http://www.w3.org/1999/xlink" viewBox="0 0 48 48">
  <defs>
    <style>
      .cls-1 {
        fill: #51595e;
      }

      .cls-2 {
        fill: #6b767c;
      }

      .cls-3 {
        fill: #cad6db;
      }

      .cls-4 {
        fill: #efec89;
      }

      .cls-5 {
        fill: #dce5ea;
      }

      .cls-6 {
        fill: #60b7ff;
      }

      .cls-7 {
        fill: #585e60;
      }

      .cls-8 {
        fill: #53c9e5;
      }

      .cls-9 {
        clip-path: url(#clippath);
      }

      .cls-10 {
        fill: #6bd9fc;
      }

      .cls-11 {
        fill: #777d7f;
      }

      .cls-12 {
        fill: none;
      }

      .cls-13 {
        fill: #61686b;
      }

      .cls-14 {
        fill: #ffff97;
      }

      .cls-15 {
        fill: #51aeed;
      }
    </style>
    <clipPath id="clippath">
      <rect class="cls-12" width="48" height="48"/>
    </clipPath>
  </defs>
  <g id="Layer_1-2" data-name="Layer 1">
    <g class="cls-9">
      <g>
        <g>
          <path class="cls-2" d="m34.19,10.8c-.27,0-.48-.22-.48-.48v-3.8c0-.27.22-.48.48-.48s.48.22.48.48v3.8c0,.27-.22.48-.48.48Z"/>
          <path class="cls-2" d="m37.31,10.9c-.32,0-.58-.26-.58-.58V3.5c0-.32.26-.58.58-.58s.58.26.58.58v6.82c0,.32-.26.58-.58.58Z"/>
          <g>
            <rect class="cls-5" x="32.39" y="9.96" width="7.38" height="3.8" rx=".94" ry=".94"/>
            <path class="cls-3" d="m38.83,9.96h-.9c.52,0,.94.42.94.94v1.92c0,.52-.42.94-.94.94h.9c.52,0,.94-.42.94-.94v-1.92c0-.52-.42-.94-.94-.94Z"/>
          </g>
          <rect class="cls-11" x="30.67" y="12.84" width="10.82" height="15.53" rx="1.57" ry="1.57"/>
          <path class="cls-2" d="m24,23.83c-.32,0-.58-.26-.58-.58v-1.36h-10.12v1.36c0,.32-.26.58-.58.58s-.58-.26-.58-.58v-1.94c0-.32.26-.58.58-.58h11.28c.32,0,.58.26.58.58v1.94c0,.32-.26.58-.58.58Z"/>
          <g>
            <rect class="cls-6" x="7.55" y="23" width="10.07" height="4.89" rx="1.67" ry="1.67"/>
            <g>
              <path class="cls-14" d="m13.65,25.79c0,.59-.48,1.07-1.07,1.07s-1.07-.48-1.07-1.07,1.07-1.75,1.07-1.75c0,0,1.07,1.16,1.07,1.75Z"/>
              <path class="cls-4" d="m12.58,24.04s-.14.15-.31.36c.31.39.76,1.01.76,1.38,0,.48-.32.89-.76,1.02.1.03.2.05.31.05.59,0,1.07-.48,1.07-1.07s-1.07-1.75-1.07-1.75Z"/>
            </g>
            <path class="cls-15" d="m15.95,23h-.79c.92,0,1.67.75,1.67,1.67v1.56c0,.92-.75,1.67-1.67,1.67h.79c.92,0,1.67-.75,1.67-1.67v-1.56c0-.92-.75-1.67-1.67-1.67Z"/>
          </g>
          <g>
            <rect class="cls-6" x="18.97" y="23" width="10.07" height="4.89" rx="1.67" ry="1.67"/>
            <g>
              <path class="cls-14" d="m25.07,25.79c0,.59-.48,1.07-1.07,1.07s-1.07-.48-1.07-1.07,1.07-1.75,1.07-1.75c0,0,1.07,1.16,1.07,1.75Z"/>
              <path class="cls-4" d="m24,24.04s-.14.15-.31.36c.31.39.76,1.01.76,1.38,0,.48-.32.89-.76,1.02.1.03.2.05.31.05.59,0,1.07-.48,1.07-1.07s-1.07-1.75-1.07-1.75Z"/>
            </g>
            <path class="cls-15" d="m27.37,23h-.79c.92,0,1.67.75,1.67,1.67v1.56c0,.92-.75,1.67-1.67,1.67h.79c.92,0,1.67-.75,1.67-1.67v-1.56c0-.92-.75-1.67-1.67-1.67Z"/>
          </g>
          <path class="cls-13" d="m34.91,21.14l-1.59,5.97H5.37c-.29,0-.5.27-.43.55l2.8,10.47h22.65v.05s8.8.01,8.8.01l3.85-14.36c.09-.34-.12-.7-.46-.78l-7.68-1.9Z"/>
          <ellipse class="cls-5" cx="33.29" cy="15.78" rx=".9" ry="1.03"/>
          <ellipse class="cls-5" cx="36.08" cy="15.78" rx=".9" ry="1.03"/>
          <ellipse class="cls-5" cx="38.88" cy="15.78" rx=".9" ry="1.03"/>
          <path class="cls-1" d="m38.52,4.89h-2.41c-.3,0-.54-.24-.54-.54s.24-.54.54-.54h2.41c.3,0,.54.24.54.54s-.24.54-.54.54Z"/>
          <path class="cls-1" d="m38.52,6.86h-2.41c-.3,0-.54-.24-.54-.54s.24-.54.54-.54h2.41c.3,0,.54.24.54.54s-.24.54-.54.54Z"/>
          <path class="cls-1" d="m38.52,8.83h-2.41c-.3,0-.54-.24-.54-.54s.24-.54.54-.54h2.41c.3,0,.54.24.54.54s-.24.54-.54.54Z"/>
          <rect class="cls-5" x="11.78" y="29.67" width="17.62" height="1.12" rx=".54" ry=".54"/>
          <g>
            <rect class="cls-7" x="7.75" y="38.13" width="20.39" height="0"/>
            <path class="cls-7" d="m42.59,23.05l-1.84-.46c.33.11.53.45.44.79l-3.97,14.81h1.99s3.85-14.36,3.85-14.36c.09-.34-.12-.7-.46-.78Z"/>
          </g>
        </g>
        <g>
          <path class="cls-10" d="m4.93,41.52c1.27,0,1.27.77,2.54.77s1.27-.77,2.54-.77,1.27.77,2.54.77,1.27-.77,2.54-.77,1.27.77,2.54.77,1.27-.77,2.54-.77,1.27.77,2.54.77,1.27-.77,2.54-.77,1.27.77,2.54.77,1.27-.77,2.54-.77,1.27.77,2.54.77,1.27-.77,2.54-.77,1.27.77,2.54.77,1.27-.77,2.54-.77,1.27.77,2.54.77v-5.19c-1.27,0-1.27-.77-2.54-.77s-1.27.77-2.54.77-1.27-.77-2.54-.77-1.27.77-2.54.77-1.27-.77-2.54-.77-1.27.77-2.54.77-1.27-.77-2.54-.77-1.27.77-2.54.77-1.27-.77-2.54-.77-1.27.77-2.54.77-1.27-.77-2.54-.77-1.27.77-2.54.77-1.27-.77-2.54-.77-1.27.77-2.54.77-1.27-.77-2.54-.77v5.19Z"/>
          <path class="cls-8" d="m4.93,43.23c1.27,0,1.27.77,2.54.77s1.27-.77,2.54-.77,1.27.77,2.54.77,1.27-.77,2.54-.77,1.27.77,2.54.77,1.27-.77,2.54-.77,1.27.77,2.54.77,1.27-.77,2.54-.77,1.27.77,2.54.77,1.27-.77,2.54-.77,1.27.77,2.54.77,1.27-.77,2.54-.77,1.27.77,2.54.77,1.27-.77,2.54-.77,1.27.77,2.54.77v-5.19c-1.27,0-1.27-.77-2.54-.77s-1.27.77-2.54.77-1.27-.77-2.54-.77-1.27.77-2.54.77-1.27-.77-2.54-.77-1.27.77-2.54.77-1.27-.77-2.54-.77-1.27.77-2.54.77-1.27-.77-2.54-.77-1.27.77-2.54.77-1.27-.77-2.54-.77-1.27.77-2.54.77-1.27-.77-2.54-.77-1.27.77-2.54.77-1.27-.77-2.54-.77v5.19Z"/>
        </g>
      </g>
    </g>
  </g>
</svg>