<?xml version="1.0" encoding="UTF-8"?>
<svg id="Layer_2" data-name="Layer 2" xmlns="http://www.w3.org/2000/svg" xmlns:xlink="http://www.w3.org/1999/xlink" viewBox="0 0 48 48">
  <defs>
    <style>
      .cls-1 {
        fill: #bfaf8d;
      }

      .cls-2 {
        clip-path: url(#clippath-2);
      }

      .cls-3 {
        fill: #c64646;
      }

      .cls-4 {
        stroke-width: .6px;
      }

      .cls-4, .cls-5, .cls-6 {
        stroke-miterlimit: 10;
      }

      .cls-4, .cls-6 {
        stroke: #bf2e2e;
      }

      .cls-4, .cls-6, .cls-7 {
        fill: #eae1dc;
      }

      .cls-8 {
        clip-path: url(#clippath-1);
      }

      .cls-9 {
        fill: #070707;
        opacity: .15;
      }

      .cls-10 {
        fill: #fdb659;
      }

      .cls-5 {
        fill: #ffcb29;
        stroke: #000;
        stroke-width: .09px;
      }

      .cls-6 {
        stroke-width: .65px;
      }

      .cls-11 {
        fill: #b6bbc2;
      }

      .cls-12 {
        clip-path: url(#clippath);
      }

      .cls-13 {
        fill: none;
      }

      .cls-14 {
        clip-path: url(#clippath-3);
      }

      .cls-15 {
        fill: #f46e6e;
      }
    </style>
    <clipPath id="clippath">
      <rect class="cls-13" width="48" height="48"/>
    </clipPath>
    <clipPath id="clippath-1">
      <path class="cls-7" d="m28.62,21.29v-4.22c0-.17-.12-.3-.28-.3h-6.88c-.15,0-.28.14-.28.3v4.22l-1.55,20.82h10.86l-1.88-20.82Z"/>
    </clipPath>
    <clipPath id="clippath-2">
      <path class="cls-7" d="m36.22,22.01v-4.22c0-.17-.08-.3-.18-.3h-4.38c-.1,0-.18.14-.18.3v4.22l-.99,20.82h6.91l-1.2-20.82Z"/>
    </clipPath>
    <clipPath id="clippath-3">
      <path class="cls-1" d="m5.15,42.02l8.93.03,9.05.18c-3.95-9.7-3.29-25.73-3.29-25.73h-.12l.12-.21h-11.39s0,.07,0,.21h0,0c.06,1.97.38,16.48-3.3,25.51Z"/>
    </clipPath>
  </defs>
  <g id="Layer_1-2" data-name="Layer 1">
    <g class="cls-12">
      <g>
        <g>
          <path class="cls-7" d="m28.62,21.29v-4.22c0-.17-.12-.3-.28-.3h-6.88c-.15,0-.28.14-.28.3v4.22l-1.55,20.82h10.86l-1.88-20.82Z"/>
          <g class="cls-8">
            <rect class="cls-15" x="20.56" y="19.9" width="9.48" height="4.32"/>
          </g>
        </g>
        <g>
          <path class="cls-7" d="m36.22,22.01v-4.22c0-.17-.08-.3-.18-.3h-4.38c-.1,0-.18.14-.18.3v4.22l-.99,20.82h6.91l-1.2-20.82Z"/>
          <g class="cls-2">
            <rect class="cls-15" x="31.09" y="20.98" width="6.03" height="2.88"/>
          </g>
        </g>
        <rect class="cls-3" x="11.08" y="30" width="29.96" height="13.67" rx="1.2" ry="1.2"/>
        <rect class="cls-6" x="34.45" y="36.83" width="4.61" height="6.12"/>
        <g>
          <g>
            <path class="cls-1" d="m5.15,42.02l8.93.03,9.05.18c-3.95-9.7-3.29-25.73-3.29-25.73h-.12l.12-.21h-11.39s0,.07,0,.21h0,0c.06,1.97.38,16.48-3.3,25.51Z"/>
            <g class="cls-14">
              <path class="cls-9" d="m17.45,15.42s-.77,24.3,3.84,29.34l4.61.55-.82-6.16s-1.2-11.45-1.51-14.99-.3-6.78-.63-7.14-2.84-2.03-2.84-2.03l-2.64.44Z"/>
            </g>
          </g>
          <rect class="cls-10" x="4" y="42.05" width="40" height="1.95"/>
        </g>
        <polygon class="cls-5" points="16.78 28.6 14.9 28.6 14.9 24.94 11.66 29.2 13.54 29.2 13.53 32.86 16.78 28.6"/>
        <path class="cls-11" d="m22.99,5.01c-1.18-.08-2.26.4-3.06,1.22-.34-.16-.7-.27-1.09-.3-1.3-.09-2.47.67-3.06,1.85-.09-.02-.17-.04-.26-.05-1.35-.1-2.52,1.03-2.6,2.5,0,.08,0,.15,0,.22-.68.97-1.38,2.47-.82,4.04.54,1.53,1.72.05,2.64-1.5.15.04.31.07.47.09.63.04,1.22-.18,1.68-.58.45.32.97.53,1.54.57.55.04,1.06-.09,1.53-.31.67.68,1.53,1.14,2.51,1.2,2.26.16,4.21-1.71,4.35-4.18.15-2.47-1.57-4.6-3.82-4.76Z"/>
        <rect class="cls-4" x="22.84" y="33.06" width="4.04" height="2.24"/>
        <rect class="cls-4" x="28.44" y="33.06" width="4.04" height="2.24"/>
        <rect class="cls-4" x="22.84" y="36.59" width="4.04" height="2.24"/>
        <rect class="cls-4" x="28.44" y="36.59" width="4.04" height="2.24"/>
        <path class="cls-11" d="m33.95,13.3c.05-.11.08-.23.1-.35.11-.85-.53-1.65-1.44-1.8-.72-.11-1.38.22-1.69.79-.03,0-.06-.02-.1-.02-.89-.14-1.71.23-2.16.88-.21-.15-.46-.25-.73-.3-.91-.15-1.74.43-1.85,1.27-.03.21,0,.42.05.61-.42.09-.75.41-.8.84-.08.57.36,1.1.96,1.2s1.16-.28,1.24-.85c.51.08.98-.07,1.33-.35.35.4.84.7,1.42.79.62.1,1.21-.05,1.66-.38.18.1.39.18.6.21.91.15,1.74-.43,1.85-1.27.06-.48-.12-.93-.44-1.27Z"/>
      </g>
    </g>
  </g>
</svg>