<?xml version="1.0" encoding="UTF-8"?>
<svg id="Layer_2" data-name="Layer 2" xmlns="http://www.w3.org/2000/svg" xmlns:xlink="http://www.w3.org/1999/xlink" viewBox="0 0 48 48">
  <defs>
    <style>
      .cls-1 {
        fill: #3d3d3d;
      }

      .cls-2 {
        fill: #e39854;
      }

      .cls-3 {
        fill: #f2b079;
      }

      .cls-4 {
        fill: #ed6354;
      }

      .cls-5 {
        fill: #6ecebf;
      }

      .cls-6 {
        fill: #fe715a;
      }

      .cls-7 {
        fill: #333;
      }

      .cls-8 {
        fill: #53657f;
      }

      .cls-9 {
        fill: #f7f3e2;
      }

      .cls-10 {
        fill: #d38950;
      }

      .cls-11 {
        clip-path: url(#clippath);
      }

      .cls-12, .cls-13 {
        fill: none;
      }

      .cls-14 {
        fill: #6c7d98;
      }

      .cls-13 {
        stroke: #9b7849;
        stroke-linecap: round;
        stroke-linejoin: round;
        stroke-width: 1.48px;
      }

      .cls-15 {
        fill: #6adb77;
      }

      .cls-16 {
        fill: #b3b3b3;
      }

      .cls-17 {
        fill: #eae1c4;
      }

      .cls-18 {
        fill: #a8e2d8;
      }

      .cls-19 {
        fill: #949494;
      }

      .cls-20 {
        fill: #6ac6b4;
      }

      .cls-21 {
        fill: #8bd8cb;
      }
    </style>
    <clipPath id="clippath">
      <rect class="cls-12" width="48" height="48"/>
    </clipPath>
  </defs>
  <g id="Layer_1-2" data-name="Layer 1">
    <g class="cls-11">
      <g>
        <g>
          <rect class="cls-16" x="4.4" y="10.16" width="3.7" height="33.75"/>
          <rect class="cls-19" x="4.4" y="10.16" width="1.85" height="33.75"/>
        </g>
        <polygon class="cls-19" points="16.15 37.64 11.1 44.4 9.88 44.08 13.62 34.66 16.15 37.64"/>
        <polygon class="cls-19" points="21.22 37.64 26.27 44.4 27.48 44.08 23.74 34.66 21.22 37.64"/>
        <g>
          <rect class="cls-16" x="5.29" y="7.85" width="1.91" height="2.6" rx=".18" ry=".18"/>
          <path class="cls-19" d="m5.29,8.05v2.21c0,.11.08.19.17.19h.78v-2.6h-.78c-.1,0-.17.09-.17.19Z"/>
        </g>
        <polyline class="cls-13" points="18.46 21.58 18.46 12.58 36.92 12.58 36.92 24.98"/>
        <g>
          <path class="cls-3" d="m28.26,30.2c0,5.16-4.18,9.33-9.34,9.33s-9.33-4.18-9.33-9.33c0-3.52,1.95-6.59,4.82-8.17h0c.86-.48,1.81-.83,2.81-1.01h3.41c1,.18,1.95.53,2.81,1.01,2.88,1.59,4.82,4.65,4.82,8.17Z"/>
          <rect class="cls-3" x="14.41" y="20.84" width="9.03" height="1.58" rx=".57" ry=".57"/>
          <path class="cls-2" d="m11.97,30.2c0-3.24,1.65-6.08,4.14-7.75h.63c.05,0,.1-.04.1-.1v-1.41s-.01-.05-.03-.07c.05-.01.09-.03.14-.03h-1.96c-.32,0-.57.26-.57.57v.29c-.2.1-.4.21-.59.31h0c-2.87,1.59-4.82,4.65-4.82,8.18,0,5.16,4.18,9.33,9.33,9.33.51,0,1-.05,1.48-.13-4.45-.71-7.85-4.55-7.85-9.2Z"/>
          <g>
            <rect class="cls-2" x="8.77" y="28.06" width="20.31" height="5.68" rx=".91" ry=".91"/>
            <path class="cls-10" d="m11.51,32.76c-.5,0-.91-.41-.91-.91v-3.79h-.92c-.5,0-.91.41-.91.91v3.86c0,.5.41.91.91.91h18.49c.5,0,.91-.41.91-.91v-.07H11.51Z"/>
          </g>
        </g>
        <rect class="cls-1" x="3.43" y="14.7" width="5.64" height="2.72" rx=".59" ry=".59"/>
        <rect class="cls-1" x="3.43" y="10.16" width="5.64" height="1.85" rx=".49" ry=".49"/>
        <path class="cls-7" d="m4.71,11.27c-.27,0-.49-.22-.49-.49v-.62h-.31c-.27,0-.49.22-.49.49v.88c0,.27.22.49.49.49h4.66c.27,0,.49-.22.49-.49v-.26h-4.35Z"/>
        <path class="cls-7" d="m4.68,16.37c-.33,0-.59-.26-.59-.59v-1.08h-.07c-.33,0-.59.26-.59.59v1.54c0,.33.26.59.59.59h4.46c.33,0,.59-.26.59-.59v-.46h-4.39Z"/>
        <g>
          <rect class="cls-18" x="32.61" y="25.9" width="10.23" height="18.26"/>
          <rect class="cls-5" x="32.61" y="25.9" width="3.11" height="18.26"/>
          <rect class="cls-8" x="33.39" y="20.48" width="8.69" height="3.2" rx=".76" ry=".76"/>
          <rect class="cls-14" x="31.46" y="22.81" width="12.54" height="3.2" rx=".91" ry=".91"/>
          <rect class="cls-21" x="32.61" y="28.62" width="10.23" height="13.65"/>
          <rect class="cls-15" x="35.64" y="29.66" width="4.19" height="1.63"/>
          <rect class="cls-20" x="32.61" y="28.62" width="3.11" height="13.65"/>
        </g>
        <g>
          <path class="cls-9" d="m31.36,8.28l1.1,35.37c0,.31-.28.57-.63.57h-5.43c-.35,0-.64-.26-.63-.57l.87-35.37c0-.39.33-.7.71-.7h3.3c.39,0,.7.31.72.69Z"/>
          <path class="cls-17" d="m29.04,44.21h-2.65c-.35,0-.64-.26-.63-.56l.87-35.37c0-.22.11-.42.28-.53-.12.1-.2.24-.24.4,0,.05-.02.09-.02.14l-.12,4.77h2.64l-.75,30.61c0,.3.28.56.63.56Z"/>
          <polygon class="cls-6" points="31.76 21.75 26.27 21.75 26.38 17.67 31.63 17.67 31.76 21.75"/>
          <polygon class="cls-4" points="29.03 17.67 28.92 21.75 26.27 21.75 26.38 17.67 29.03 17.67"/>
          <path class="cls-4" d="m30.07,7.59c-.4,0-.72.31-.73.69l-.12,4.77h-2.72l.12-4.77s.02-.09.02-.14c.04-.16.12-.3.25-.4.03-.02.07-.05.1-.06.03-.02.07-.04.11-.05.03-.02.07-.02.1-.03.05,0,.09-.02.14-.02h2.73Z"/>
          <path class="cls-6" d="m31.52,13.05h-2.36l.12-4.77c0-.38.33-.69.71-.69h.66c.38,0,.7.3.72.69l.14,4.77Z"/>
        </g>
      </g>
    </g>
  </g>
</svg>