<?xml version="1.0" encoding="UTF-8"?>
<svg id="Layer_2" data-name="Layer 2" xmlns="http://www.w3.org/2000/svg" xmlns:xlink="http://www.w3.org/1999/xlink" viewBox="0 0 48 48">
  <defs>
    <style>
      .cls-1 {
        clip-path: url(#clippath);
      }

      .cls-2, .cls-3 {
        fill: none;
      }

      .cls-4 {
        fill: #5b9ad8;
      }

      .cls-3 {
        stroke: #50a05c;
        stroke-miterlimit: 10;
        stroke-width: 2.67px;
      }

      .cls-5 {
        fill: #50a05c;
      }
    </style>
    <clipPath id="clippath">
      <rect class="cls-2" width="48" height="48"/>
    </clipPath>
  </defs>
  <g id="Layer_1-2" data-name="Layer 1">
    <g class="cls-1">
      <g>
        <polygon class="cls-4" points="25.84 22.49 24.07 12.31 14.47 26.15 21.1 26.15 22.87 36.33 32.47 22.49 25.84 22.49"/>
        <g>
          <g>
            <path class="cls-3" d="m26.51,6.88c7.42,1.21,13.45,6.75,15.01,13.92,1.49,6.84-1.36,13.98-6.94,18.23"/>
            <path class="cls-5" d="m26.38,9.91c-1.65-.15-2.87-1.62-2.72-3.27.15-1.65,1.62-2.87,3.27-2.72,1.65.15,2.87,1.62,2.72,3.27-.15,1.65-1.62,2.87-3.27,2.72Z"/>
            <path class="cls-5" d="m28.88,42c2.13-2.43,4.52-5.9,5.6-8.8l.8,5.33,4.02,3.59c-3.01-.68-7.23-.58-10.43-.12Z"/>
          </g>
          <g>
            <path class="cls-3" d="m21.72,41.27c-7.11-1.13-12.91-6-14.73-12.31-2.03-7.03,1.12-15.07,7.68-19.58"/>
            <path class="cls-5" d="m21.85,38.25c1.65.15,2.87,1.62,2.72,3.27-.15,1.65-1.62,2.87-3.27,2.72-1.65-.15-2.87-1.62-2.72-3.27.15-1.65,1.62-2.87,3.27-2.72Z"/>
            <path class="cls-5" d="m20.48,6.64c-2.22,2.35-4.74,5.73-5.93,8.58l-.6-5.36-3.89-3.74c2.99.79,7.2.85,10.42.52Z"/>
          </g>
        </g>
      </g>
    </g>
  </g>
</svg>