<?xml version="1.0" encoding="UTF-8"?>
<svg id="Layer_2" data-name="Layer 2" xmlns="http://www.w3.org/2000/svg" xmlns:xlink="http://www.w3.org/1999/xlink" viewBox="0 0 48 48">
  <defs>
    <style>
      .cls-1 {
        fill: #576770;
      }

      .cls-2 {
        fill: #04bc9d;
      }

      .cls-3 {
        stroke: #ffd772;
        stroke-linecap: round;
        stroke-linejoin: round;
        stroke-width: .44px;
      }

      .cls-3, .cls-4, .cls-5 {
        fill: none;
      }

      .cls-6 {
        fill: #3ba9fd;
      }

      .cls-7 {
        fill: #afaeae;
      }

      .cls-8 {
        clip-path: url(#clippath-1);
      }

      .cls-9 {
        fill: #62737f;
      }

      .cls-10 {
        fill: #5c6d77;
      }

      .cls-11 {
        fill: #ffd772;
      }

      .cls-12 {
        fill: #d2d8d7;
      }

      .cls-13 {
        clip-path: url(#clippath);
      }

      .cls-14 {
        fill: #c1c1c1;
      }

      .cls-5 {
        stroke: #2594d8;
        stroke-miterlimit: 10;
        stroke-width: .65px;
      }

      .cls-15 {
        fill: #00d3b3;
      }

      .cls-16 {
        fill: #cffff6;
      }

      .cls-17 {
        fill: #e0b75a;
      }
    </style>
    <clipPath id="clippath">
      <rect class="cls-4" width="48" height="48"/>
    </clipPath>
    <clipPath id="clippath-1">
      <rect class="cls-9" x="22.53" y="35.46" width="2.32" height="8.15"/>
    </clipPath>
  </defs>
  <g id="Layer_1-2" data-name="Layer 1">
    <g class="cls-13">
      <g>
        <g>
          <rect class="cls-9" x="22.53" y="35.46" width="2.32" height="8.15"/>
          <g class="cls-8">
            <rect class="cls-1" x="22.53" y="27.19" width="2.32" height="9.62"/>
          </g>
        </g>
        <g>
          <g>
            <circle class="cls-11" cx="23.69" cy="11.42" r="4.6"/>
            <path class="cls-17" d="m21.75,7.27c-.36.17-.68.39-.97.64,2.01-.4,4.11.58,5.04,2.51s.39,4.19-1.18,5.51c.37-.07.75-.19,1.11-.36,2.29-1.1,3.25-3.86,2.15-6.15s-3.86-3.25-6.15-2.15Z"/>
          </g>
          <g>
            <line class="cls-3" x1="23.69" y1="5.42" x2="23.69" y2="4.01"/>
            <line class="cls-3" x1="27.93" y1="7.18" x2="28.93" y2="6.18"/>
            <line class="cls-3" x1="29.69" y1="11.42" x2="31.1" y2="11.42"/>
            <line class="cls-3" x1="27.93" y1="15.66" x2="28.93" y2="16.66"/>
            <line class="cls-3" x1="23.69" y1="17.41" x2="23.69" y2="18.83"/>
            <line class="cls-3" x1="19.45" y1="15.66" x2="18.45" y2="16.66"/>
            <line class="cls-3" x1="17.7" y1="11.42" x2="16.28" y2="11.42"/>
            <line class="cls-3" x1="19.45" y1="7.18" x2="18.45" y2="6.18"/>
          </g>
        </g>
        <polygon class="cls-12" points="21.44 42.27 19.44 42.27 19.44 42.05 21.22 42.05 21.22 41.29 22.53 41.29 22.53 41.52 21.44 41.52 21.44 42.27"/>
        <polygon class="cls-12" points="27.72 42.27 25.41 42.27 25.41 41.52 24.85 41.52 24.85 41.29 25.63 41.29 25.63 42.05 27.72 42.05 27.72 42.27"/>
        <g>
          <g>
            <rect class="cls-15" x="11.65" y="39.14" width="7.44" height="4.3"/>
            <path class="cls-16" d="m12.99,42.44c-.11,0-.2-.09-.2-.2v-1.9c0-.11.09-.2.2-.2s.2.09.2.2v1.9c0,.11-.09.2-.2.2Z"/>
          </g>
          <rect class="cls-2" x="12.6" y="38.65" width=".78" height=".49"/>
          <rect class="cls-2" x="17.43" y="38.65" width=".78" height=".49"/>
          <polygon class="cls-16" points="16.38 40.96 15.84 41 15.83 41 15.63 39.98 14.8 41.31 15.34 41.27 15.35 41.27 15.55 42.28 16.38 40.96"/>
        </g>
        <g>
          <g>
            <rect class="cls-15" x="27.89" y="39.14" width="7.44" height="4.3"/>
            <path class="cls-16" d="m29.23,42.44c-.11,0-.2-.09-.2-.2v-1.9c0-.11.09-.2.2-.2s.2.09.2.2v1.9c0,.11-.09.2-.2.2Z"/>
          </g>
          <rect class="cls-2" x="28.84" y="38.65" width=".78" height=".49"/>
          <rect class="cls-2" x="33.67" y="38.65" width=".78" height=".49"/>
          <polygon class="cls-16" points="32.63 40.96 32.09 41 32.08 41 31.87 39.98 31.04 41.31 31.58 41.27 31.59 41.27 31.8 42.28 32.63 40.96"/>
        </g>
        <g>
          <g>
            <g>
              <path class="cls-6" d="m35.62,32.2H10.73c-.5,0-.87-.41-.75-.83l4.89-17.13c.09-.3.39-.51.75-.51h15.11c.35,0,.66.21.75.51l4.89,17.13c.12.42-.25.83-.75.83Z"/>
              <polyline class="cls-5" points="25.89 13.73 26.13 16.16 20.23 16.16 20.46 13.73"/>
              <polyline class="cls-5" points="32.03 16.16 26.13 16.16 25.89 13.73"/>
              <polyline class="cls-5" points="14.33 16.16 20.23 16.16 19.95 19.05 13.5 19.05"/>
              <polygon class="cls-5" points="20.23 16.16 26.13 16.16 26.4 19.05 19.95 19.05 20.23 16.16"/>
              <polyline class="cls-5" points="32.85 19.05 26.4 19.05 26.13 16.16 32.03 16.16"/>
              <polyline class="cls-5" points="13.5 19.05 19.95 19.05 19.62 22.53 12.51 22.53"/>
              <polygon class="cls-5" points="19.95 19.05 26.4 19.05 26.73 22.53 19.62 22.53 19.95 19.05"/>
              <polyline class="cls-5" points="33.84 22.53 26.73 22.53 26.4 19.05 32.85 19.05"/>
              <polyline class="cls-5" points="12.51 22.53 19.62 22.53 19.21 26.81 11.29 26.81"/>
              <polygon class="cls-5" points="19.62 22.53 26.73 22.53 27.14 26.81 19.21 26.81 19.62 22.53"/>
              <polyline class="cls-5" points="35.07 26.81 27.14 26.81 26.73 22.53 33.84 22.53"/>
              <polyline class="cls-5" points="11.29 26.81 19.21 26.81 18.7 32.2"/>
              <polyline class="cls-5" points="18.7 32.2 19.21 26.81 27.14 26.81 27.65 32.2"/>
            </g>
            <g>
              <path class="cls-9" d="m9.96,31.24h26.43v1.7c0,.59-.48,1.06-1.06,1.06H11.03c-.59,0-1.06-.48-1.06-1.06v-1.7h0Z"/>
              <path class="cls-10" d="m34.47,31.24v1.7c0,.59-.48,1.06-1.06,1.06h1.92c.59,0,1.06-.48,1.06-1.06v-1.7h-1.92Z"/>
            </g>
          </g>
          <g>
            <path class="cls-14" d="m14.33,34h17.7v1.14c0,.39-.32.71-.71.71H15.04c-.39,0-.71-.32-.71-.71v-1.14h0Z"/>
            <path class="cls-7" d="m30.74,34v1.14c0,.39-.32.71-.71.71h1.29c.39,0,.71-.32.71-.71v-1.14h-1.29Z"/>
          </g>
        </g>
        <rect class="cls-9" x="10.25" y="43.16" width="26.89" height=".91" rx=".45" ry=".45"/>
        <rect class="cls-2" x="19.09" y="41.86" width=".35" height=".61"/>
        <rect class="cls-2" x="27.54" y="41.86" width=".35" height=".61"/>
      </g>
    </g>
  </g>
</svg>