<?xml version="1.0" encoding="UTF-8"?>
<svg id="Layer_2" data-name="Layer 2" xmlns="http://www.w3.org/2000/svg" viewBox="0 0 501.92 546.05">
  <defs>
    <style>
      .cls-1 {
        fill: #c68139;
      }

      .cls-2 {
        fill: #7dd63f;
      }

      .cls-3 {
        fill: #ecbe6b;
      }

      .cls-4 {
        fill: #df6b57;
      }

      .cls-5 {
        fill: #333;
      }

      .cls-6 {
        fill: #eab14d;
      }

      .cls-7 {
        fill: #c1a26b;
      }

      .cls-8 {
        fill: #e4c07f;
      }

      .cls-9 {
        fill: #365e7c;
      }

      .cls-10 {
        fill: #ff3131;
      }

      .cls-11 {
        fill: #f1cb86;
      }

      .cls-12 {
        fill: #e49542;
      }
    </style>
  </defs>
  <g id="Layer_1-2" data-name="Layer 1">
    <g>
      <path class="cls-5" d="m14.75,546c-1.91,0-6.95-.01-10.84-3.91C-.02,538.15,0,533.01,0,531.07c.14-51.18.14-104.8,0-159.37,0-1.91-.02-6.98,3.83-10.84,3.84-3.85,8.81-3.85,10.68-3.85h.16c16.09.08,32.32.13,48.24.13s32.23-.04,48.11-.13h.16c1.71,0,6.91,0,10.8,3.96,3.88,3.96,3.78,9.06,3.74,10.99-.13,6.64-.03,13.48.07,20.1.04,2.35.07,4.71.1,7.06,0,.33.36.7.53.74,3.98.11,8.05.16,12.44.16,2.05,0,4.1-.01,6.15-.03,2.63-.03,3.18-1.21,3.21-3.12.13-7.83.13-16.4,0-26.19-.02-1.54-.08-6.22,3.57-9.93,2.42-2.46,5.68-3.7,9.69-3.7,24.55.11,49.43.15,73.5.19l19.01.03,9.98,10v168.53s-10,10-10,10l-31.27.03c-22.37.03-44.74.05-67.1.05-9.66,0-19.32,0-28.98-.02-3.9,0-7.76-.09-11.5-.17-3.71-.08-7.55-.17-11.29-.17-1.91,0-3.65.02-5.34.07-13.24.37-26.38.42-36.34.42-5.16,0-10.32-.01-15.49-.03-5.15-.01-10.3-.03-15.45-.03-6.15,0-11.28.02-16.17.06,0,0-.3,0-.3,0Z"/>
      <path class="cls-6" d="m253.98,535.79c-42.44.04-84.89.12-127.33.07-9.54-.01-18.82-.52-28.4-.27-27.78.77-55.45.17-83.28.42-3.87.03-4.98-.91-4.97-4.9.14-53.14.14-106.28,0-159.43,0-3.7.84-4.69,4.62-4.67,32.15.17,64.3.17,96.45,0,3.86-.02,4.72,1.11,4.65,4.75-.18,9.15.07,18.31.17,27.47.06,5.61,4.64,10.47,10.25,10.62,6.33.18,12.66.2,18.99.13,7.68-.08,12.98-5.26,13.1-12.95.14-8.83.11-17.66,0-26.49-.03-2.51.59-3.51,3.32-3.5,30.81.14,61.63.16,92.44.22,0,56.18,0,112.35,0,168.53Z"/>
      <path class="cls-5" d="m282.19,402.14c-1.53,0-6.2,0-9.83-3.7-2.41-2.46-3.59-5.76-3.5-9.81.12-5.93.1-12.02.08-17.92,0-2.27-.02-4.55-.02-6.82,0-.72-.02-1.29-.06-1.75-.41-.03-.92-.05-1.54-.05-16.77-.04-33.55-.08-50.33-.12l-20-.05-7.14-3.02-.82-.84-2.82-6.93c-.02-5.58-.04-11.15-.06-16.73-.05-12.21-.09-24.84-.09-37.27.01-29.13.06-58.25.1-87.38l.05-35.57,3.27-7.39.84-.76,6.72-2.61,18.6-.02c20.24-.02,41.16-.04,61.73-.18h.15c4.2,0,7.58,1.28,10.06,3.8,3.73,3.8,3.65,8.61,3.62,10.42-.14,8.18-.09,16.55-.04,24.65v1.58c.02,1.39.3,2.07.39,2.2.08.05.68.29,1.89.3h.76c1.46,0,2.92-.03,4.38-.06,1.61-.04,3.23-.07,4.84-.07,2.61,0,4.8.1,6.87.3.3.03.58.04.84.04,1,0,2.67,0,2.8-5.19.2-8.12.1-16.47,0-24.55-.02-1.54-.07-6.1,3.52-9.74,2.38-2.41,5.56-3.63,9.45-3.63,14.78.06,29.28.06,41.54.06h28.9c4.66,0,8.62,2.38,10.6,6.37l1.04,4.44-.03,217.81-9.99,10-22.81.03c-30.77.04-62.59.08-93.88.18h-.08Z"/>
      <path class="cls-11" d="m196.21,351.11c-.05-17.99-.16-35.98-.15-53.97.02-40.98.09-81.96.15-122.94.28-.26.57-.52.85-.78,26.79-.04,53.58-.02,80.38-.2,3.29-.02,3.82,1.19,3.77,4.05-.15,8.82-.09,17.64-.04,26.46.04,7.82,4.51,12.36,12.18,12.44,5.33.05,10.69-.41,15.97.11,9.97.98,14.4-6.03,14.62-14.85.21-8.32.11-16.64,0-24.96-.03-2.26.48-3.23,3.01-3.22,23.47.09,46.93.06,70.4.06.69,0,1.3.13,1.64.82-.01,72.6-.02,145.21-.03,217.81-38.91.05-77.81.08-116.72.21-2.58,0-3.44-.63-3.38-3.31.17-8.31.06-16.63.06-24.94,0-9.05-2.69-11.77-11.57-11.79-23.44-.05-46.88-.11-70.32-.16-.27-.28-.54-.55-.81-.83Z"/>
      <path class="cls-5" d="m281.21,546.01c-7.34,0-11.4-4.81-12.17-9.57-.39-2.43-.28-4.69-.19-6.51.03-.56.06-1.12.06-1.64,0-7.03.01-31.07.01-31.07,0-14.18.01-28.35,0-42.53-.02-15.83-.05-29.74-.11-42.51,0-1.99-.03-7.26,3.93-11.24,3.94-3.96,9.11-3.96,11.05-3.96h.28c12.06.1,24.6.15,37.26.15s25.04-.05,38.03-.14h.23c1.72,0,6.97,0,10.84,4,3.87,4,3.7,9.27,3.64,11-.22,6.62-.16,13.47-.1,20.1.02,2,.03,4,.04,6,0,1.09.84,1.89,1.98,1.9.42,0,.85,0,1.28,0,1.39,0,2.78-.03,4.17-.05,1.51-.03,3.02-.05,4.52-.05,2.32,0,4.26.06,6.1.2.22.02.44.02.65.02,1.31,0,4.05,0,4.11-5.66.09-7.91.08-15.9-.02-23.74-.02-1.74-.08-6.35,3.54-10.02,2.4-2.44,5.62-3.67,9.56-3.67h.14c18.46.12,37.24.16,55.4.19l16.49.03,9.98,10v128.54s-10,10.01-10,10.01l-41.09.04c-31.94.03-63.87.06-95.81.08h-34.11c-9.25,0-18.5,0-27.75.03l-.29.02c-.52.03-1.09.06-1.65.06Z"/>
      <path class="cls-6" d="m481.9,535.8c-45.63.04-91.27.08-136.9.11-20.65.01-41.3-.03-61.96.03-1.28,0-3.88.49-4.13-1.1-.33-2.06,0-4.47,0-6.56,0-10.35,0-20.7.01-31.06,0-14.18.01-28.36,0-42.54s-.04-28.36-.11-42.54c-.02-4.18,1.04-5.18,5.18-5.15,25.15.21,50.3.19,75.45,0,3.76-.03,4.76.93,4.64,4.66-.29,8.82-.11,17.65-.07,26.48.03,6.53,5.24,11.76,11.84,11.85,5.16.07,10.35-.3,15.48.08,9.44.69,15.37-5.69,15.48-15.49.09-7.99.08-15.99-.02-23.98-.03-2.36.3-3.58,3.17-3.56,23.98.16,47.96.17,71.94.22,0,42.85,0,85.7,0,128.55Z"/>
      <path class="cls-5" d="m108.72,238.38c-1.68,0-6.68-.02-10.54-3.89-3.87-3.88-3.85-8.9-3.84-11.04.11-25.85.08-52.15.06-77.59v-8.32c0-1.25-.09-2.6-.18-4.03-.1-1.67-.2-3.39-.2-5.24v-26.95c0-2.13.11-4.12.21-6.05.09-1.71.18-3.32.18-4.88v-2.76c.03-9.41.05-19.14-.07-28.67-.02-1.89-.09-6.91,3.77-10.83,2.54-2.58,6.02-3.88,10.33-3.88h.45c5.64.11,11.61.16,17.75.16s11.85-.05,18.4-.14h.39c1.7,0,6.89,0,10.85,4.06,2.64,2.71,3.92,6.41,3.8,11.01-.21,8.31-.15,16.63,0,26.57,0,.54.06.9.11,1.14.22.05.57.09,1.06.1,3.04.04,6.36.06,10.13.06,3.23,0,6.45-.01,9.68-.03.67,0,1.25-.66,1.35-1.53.65-5.63.55-11.44.44-17.59-.06-3.35-.12-6.82-.06-10.33.24-12.8,10.9-13.44,13.03-13.44h.36c7.92.16,16.01.19,23.83.23,3,.01,6.01.03,9.01.05l9.93,10,.02,103.52-9.94,10-11.09.06c-8.95.05-17.91.1-26.86.16-.01,0-.02,0-.03,0,0,.02,0,8.88-.01,13.28-.02,13.83-.03,28.14.08,42.18.02,1.89.06,6.91-3.76,10.76-3.81,3.85-8.78,3.85-10.41,3.85h-.2c-11.77-.09-23.31-.14-34.29-.14s-22.7.05-33.51.15c0,0-.26,0-.26,0Z"/>
      <path class="cls-6" d="m228.99,158.08c-12.65.07-25.31.14-37.96.23-7.82.05-9.96,2.23-9.96,10.07,0,18.49-.08,36.98.07,55.47.03,3.35-.62,4.55-4.29,4.52-22.65-.18-45.31-.2-67.96.01-4.01.04-4.56-1.41-4.55-4.88.12-28.65.08-57.3.05-85.96,0-3.09-.37-6.18-.37-9.27v-26.95c0-3.68.38-7.23.39-10.91.02-10.53.06-21.06-.08-31.58-.04-3.36.72-4.65,4.38-4.58,12.16.23,24.32.19,36.48.02,3.64-.05,5,1,4.91,4.81-.23,8.99-.14,17.99,0,26.98.11,7.06,4.09,10.99,11.04,11.08,6.66.09,13.33.06,19.99.03,5.72-.03,10.54-4.43,11.23-10.38,1.12-9.61.26-19.25.45-28.88.04-2.33.31-3.69,3.2-3.63,10.99.21,21.98.2,32.96.28,0,34.51.01,69.01.02,103.52Z"/>
      <path class="cls-5" d="m40.66,358.63l-.8-.89-2.55-6.66-.02-20.88c-.03-27.37-.06-55.67-.14-83.5,0-1.53-.02-6.17,3.64-9.83,2.41-2.42,5.65-3.65,9.62-3.65h.2c7.13.07,13.64.1,19.89.1,6.63,0,12.8-.04,18.85-.11h.25c3.99,0,7.25,1.25,9.69,3.71,3.69,3.73,3.64,8.5,3.62,10.29-.11,10.96-.1,19.35.04,27.2.01.79.12,1.29.2,1.54.25.08.77.19,1.6.2,3.23.02,6.45.03,9.68.03,2.39,0,4.79,0,7.18-.02,2.13-.01,3.1-.4,3.27-.54.13-.16.57-1.16.63-3.36.22-8.11.37-15.4-.06-22.6-.11-1.92-.46-7.75,3.71-12.18,4.08-4.33,9.59-4.33,11.4-4.33.45,0,.92.01,1.42.03,6.09.26,12.35.29,18.24.29h4.42c2.14,0,4.29,0,6.43.02l9.93,10,.02,108.47-10,10H48.11s-7.44-3.32-7.44-3.32Z"/>
      <path class="cls-11" d="m47.32,351.07c-.04-34.8-.06-69.6-.17-104.4,0-2.56.68-3.47,3.36-3.45,12.99.12,25.98.15,38.96-.01,3.14-.04,3.47,1.35,3.44,3.9-.09,9.16-.12,18.32.04,27.47.13,7.41,4.41,11.51,11.73,11.56,5.66.04,11.32.04,16.99.02,9-.05,13.59-4.43,13.84-13.63.21-7.82.39-15.67-.07-23.47-.3-5.03,1.44-6.1,6.12-5.89,9.8.42,19.63.24,29.45.31,0,36.16.01,72.31.02,108.47-40.98,0-81.95,0-122.93,0-.26-.29-.52-.59-.79-.88Z"/>
      <path class="cls-5" d="m401.87,402.08c-.97,0-1.85-.06-2.62-.12l-.82-.05-9.47-9.99.03-217.81,10.15-10c6.48.1,11.6.17,15.72,4.28,4.2,4.19,4.2,9.29,4.2,15.75,0,10.93,0,21.89-.01,32.84,0,10.7-.01,21.4-.01,32.04v36.83c0,12.68,0,25.35.01,38.03,0,15.18.02,30.35.01,45.53v15.69c0,4.43,0,8.26-2.65,11.85-3.79,5.13-9.71,5.13-12.89,5.13-.51,0-1.06,0-1.66,0Z"/>
      <path class="cls-3" d="m398.96,391.93c.01-72.6.02-145.21.03-217.81q10.08.15,10.08,10.04c0,21.61-.02,43.35-.02,64.87v36.83c0,27.85.03,55.71.03,83.56,0,5.23,0,10.46,0,15.69q0,7.02-7.12,6.97c-1,0-1.99-.1-2.99-.15Z"/>
      <path class="cls-5" d="m258.86,546.04c-.61,0-1.29,0-2.04-.02-1.12-.02-2.11-.12-2.91-.2-.25-.03-.5-.05-.75-.07l-9.17-9.97v-168.53s10.01-10,10.01-10h9s7.3,3.17,7.3,3.17l.8.85,2.69,6.81.04,30.82c.04,26.52.07,53.04.1,79.55.01,11.91,0,23.81,0,35.71v14.74c0,5.98,0,17.12-15.07,17.12Z"/>
      <path class="cls-12" d="m253.98,535.79c0-56.18,0-112.35,0-168.53,3,0,6,0,9,0,.26.28.53.56.79.84.05,36.79.1,73.58.14,110.37.02,16.81,0,33.63,0,50.44q0,7.19-6.97,7.1c-.99-.01-1.98-.15-2.97-.24Z"/>
      <path class="cls-5" d="m486.65,546.05c-.72,0-1.53-.01-2.44-.03-1.07-.02-2.01-.13-2.69-.21-.19-.02-.38-.04-.57-.06l-9.04-9.96v-128.55s9.5-9.99,9.5-9.99c1.93-.1,3.6-.18,5.08-.18,6.72,0,11.34,2.48,13.73,7.36,1.7,3.47,1.7,6.95,1.7,12.23v111.82c0,4.57,0,8.18-2.21,11.67-3.72,5.89-10.27,5.89-13.06,5.89Z"/>
      <path class="cls-12" d="m481.9,535.8c0-42.85,0-85.7,0-128.55q10-.51,10,9.43c0,37.27,0,74.55,0,111.82q0,7.65-7.54,7.53c-.82-.01-1.65-.15-2.47-.23Z"/>
      <path class="cls-5" d="m177.1,362.34c-1.21,0-2.47-.12-3.85-.37-.1,0-.63-.01-1.01-.01-.54,0-1.07,0-1.61-.03l-9.6-9.99-.02-108.47,9.65-10,9.05-.32.06.06.45-.04.66.28.02-.28.38.03-.03.4,7.44,3.15c4.52,5.44,2.81,11.36,2.25,13.3,0,.01,0,.03-.01.04.08,14.33.09,28.88.1,42.96,0,17.36.02,35.32.17,52.95.02,2.23.07,8.15-4.17,12.42-1.77,1.78-4.93,3.91-9.93,3.91Z"/>
      <path class="cls-3" d="m171.03,351.94c0-36.16-.01-72.31-.02-108.47,3.02-.11,6.03-.21,9.05-.32,0,0,.46.04.46.04l.46-.04c1.72,2.08-.08,4.19-.07,6.29.19,32.22,0,64.45.27,96.67.04,5.07-1.24,6.91-6.19,6.03-1.29-.23-2.65-.13-3.97-.19Z"/>
      <path class="cls-5" d="m233.73,168.33c-1.57,0-3.28-.12-5.44-.27l-9.29-9.97-.02-103.52,9.3-9.98c2.16-.15,3.87-.27,5.44-.27,7.98,0,11.5,4.08,13.05,7.5,1.45,3.21,1.45,6.46,1.45,10.97v87.12c0,4.49,0,7.73-1.45,10.93-1.54,3.42-5.06,7.5-13.03,7.5Z"/>
      <path class="cls-12" d="m228.99,158.08c0-34.51-.01-69.01-.02-103.52q9.23-.65,9.23,8.22c0,29.04,0,58.08,0,87.12q0,8.83-9.21,8.18Z"/>
      <path class="cls-5" d="m301.24,211.39c-6.59,0-11.13-2.45-13.48-7.28-1.65-3.39-1.65-6.77-1.65-11.89,0-1.86,0-3.7,0-5.54,0-1,0-2.03.02-3.07.02-2.26.04-4.4-.04-6.47-.33-8,4.76-13.46,12.97-13.91h.26c1.83-.11,3.4-.2,4.81-.2,6.48,0,10.95,2.46,13.26,7.3,1.59,3.31,1.59,6.72,1.59,11.44,0,1.62,0,3.22-.02,4.82-.02,3.77-.04,7.32.05,10.9.21,7.96-4.9,13.35-13.01,13.73h-.27c-1.7.09-3.17.16-4.5.16Z"/>
      <path class="cls-9" d="m296.12,186.72c0-3.33.1-6.66-.03-9.98-.11-2.61,1-3.37,3.52-3.51,9.38-.51,9.38-.6,9.38,8.57,0,5.32-.1,10.65.04,15.97.07,2.61-.93,3.36-3.48,3.48-9.43.44-9.43.54-9.43-9.04,0-1.83,0-3.66,0-5.49Z"/>
      <path class="cls-5" d="m171.23,92.31c-3.27,0-10.08,0-13.93-6.19-2.29-3.68-2.29-7.54-2.29-12.9v-12c0-4.46,0-8.67,3.19-12.36,3.52-4.07,8.14-4.33,12.22-4.57l.82-.05c.63-.04,1.23-.06,1.79-.06,4.79,0,8.59,1.48,11.3,4.4,4.19,4.53,3.75,10.4,3.6,12.33-.41,5.35-.24,10.85-.05,16.68l.02.71c.13,4.11-1.03,7.48-3.45,10.01-3.66,3.84-8.52,3.92-10.11,3.94h-.33c-1.03.02-1.96.04-2.77.04Z"/>
      <path class="cls-4" d="m165.01,68.22c0-2.33,0-4.66,0-6.99,0-6.9.02-6.59,6.83-7,4.72-.28,6.5.93,6.11,5.93-.47,6.12-.25,12.32-.05,18.47.09,2.91-.96,3.6-3.73,3.64-9.16.15-9.16.26-9.16-9.06,0-1.66,0-3.33,0-4.99Z"/>
      <path class="cls-5" d="m385.04,445.16c-3.2,0-9.86,0-13.7-5.93-2.36-3.65-2.36-7.42-2.36-12.65,0-1.61.01-3.21.03-4.81.03-3.73.06-7.25-.08-10.75-.18-4.21.99-7.65,3.47-10.23,1.66-1.73,4.64-3.78,9.43-3.78.54,0,1.09.02,1.67.08,1.58.14,3.31.16,5.14.18.91.01,1.81.02,2.72.05l6.64,4.86,3.67,5.7c.02,2.24.02,4.47.02,6.71,0,5.25.02,10.69.22,15.93.17,4.34-1.03,7.88-3.54,10.53-3.8,4-8.92,4.07-10.6,4.09h-.34c-.88.02-1.68.03-2.39.03Z"/>
      <path class="cls-4" d="m391.67,407.95c.06,7.65-.05,15.31.25,22.95.13,3.39-1.16,4.2-4.28,4.24-8.66.11-8.66.23-8.66-8.56,0-5.32.16-10.66-.06-15.97-.12-2.94.95-3.8,3.71-3.56,2.81.24,5.64.19,8.46.26.1.29.29.51.58.64Z"/>
      <path class="cls-5" d="m115.27,281.25c-4.51,0-10.13,0-14.12-4.74-3.28-3.89-3.28-8.22-3.28-13.71,0-1.49.01-2.98.02-4.47.02-3.51.05-6.82-.06-10.13-.05-1.58-.21-6.37,3.42-10.19,2.42-2.55,5.76-3.88,9.91-3.95h.42c1.08-.03,2.03-.04,2.88-.04,16.13,0,16.13,11.36,16.13,18.88v4.5c0,1.06-.02,2.12-.04,3.19-.04,2.15-.07,4.18.06,6.04.31,4.29-.8,7.82-3.3,10.51-3.8,4.09-8.95,4.09-10.65,4.1h-1.41Z"/>
      <path class="cls-4" d="m120.59,257.4c0,3.32-.18,6.65.05,9.95.23,3.13-.98,3.89-3.99,3.89-8.78.01-8.78.15-8.78-8.44,0-4.98.12-9.96-.05-14.94-.09-2.66.52-3.75,3.51-3.8,9.26-.16,9.26-.3,9.26,8.86,0,1.49,0,2.99,0,4.48Z"/>
      <path class="cls-5" d="m137.88,405.08c-1.75,0-3.4-.14-4.86-.26-.53-.04-1.05-.09-1.57-.12-3.96-.27-10.67-3.24-10.68-12.69v-.1c0-2.79,0-5.58,0-8.37,0-4.35,0-8.7-.03-13.05-.07-7.54,4.79-12.79,12.38-13.4l.25-.02c2.19-.18,3.92-.31,5.53-.31,8.51,0,11.83,4.95,13.04,7.9,1.3,3.15,1.3,6.28,1.3,11.03v5.52c0,.64.01,1.29.03,1.93.03,1.67.07,3.55-.08,5.55.02.17.04.34.06.51,1.25,10.68-5.32,13.97-8.21,14.88-2.15.68-4.49,1.01-7.15,1.01Z"/>
      <path class="cls-9" d="m143.24,381.2c0,2.33.16,4.68-.04,6.99-.19,2.21,1.28,5.57-1.18,6.35-3.02.96-6.57.41-9.87.18-1.4-.1-1.36-1.7-1.36-2.85-.02-7.16.02-14.32-.04-21.48-.02-2.27.8-3.15,3.18-3.34,9.33-.75,9.32-.83,9.32,8.65,0,1.83,0,3.66,0,5.49Z"/>
      <path class="cls-7" d="m181,243.15l-.46.04s-.46-.04-.46-.04c.21-.23.41-.47.62-.7.1.23.21.47.31.7Z"/>
      <path class="cls-7" d="m47.32,351.07c.26.29.52.59.79.88-.69.09-1-.16-.79-.88Z"/>
      <path class="cls-8" d="m196.21,351.11c.27.28.54.55.81.83-.68.12-.97-.14-.81-.83Z"/>
      <path class="cls-1" d="m263.78,368.11c-.26-.28-.53-.56-.79-.84.65-.08.95.17.79.84Z"/>
      <path class="cls-1" d="m391.67,407.95c-.28-.13-.47-.34-.58-.64.51-.08.75.09.58.64Z"/>
    </g>
    <g>
      <path class="cls-2" d="m422.91,97.69c-.03-15.52-.07-31.05-.1-46.57-.01-8.54-.99-9.49-10.23-9.87-.4-.02-.79-.14-1.52-.28,2.31-4.18,6.04-7.15,9.02-10.63,4.44-5.19,9.16-10.17,13.73-15.27,1.14-1.27,2.12-2.43,3.83-.53,7.85,8.72,15.74,17.41,23.88,26.4-4.54,1.04-9.97-1.41-11.82,4.26-1.12,1.09-.69,2.46-.7,3.72-.02,16.25,0,32.5,0,48.75,0,0-.06.07-.06.07-8.68-.01-17.37-.03-26.05-.04Z"/>
      <path class="cls-10" d="m383.53,60.86c-.06,2.85,1.55,4.03,4.61,3.89,1.86-.09,3.73-.02,6.24-.02-3.03,3.15-5.84,5.65-8.11,8.5-4.42,5.57-10.16,10.18-14.04,16.15-.82,1.26-2.36,3.23-4.43.98-7.75-8.41-15.46-16.85-23.19-25.28.25-.12.47-.34.66-.32,9.4,1.09,11.47-2.15,11.25-10.64-.35-13.46.02-26.93-.18-40.39-.04-3.05,1.01-3.77,4.17-3.67,7.13.22,14.27.12,21.4.15.06,15.64.09,31.28.23,46.92.01,1.27-1.08,3.12,1.4,3.72Z"/>
      <path class="cls-5" d="m413.69,76.08c0-7.35-.12-14.71.06-22.06.07-2.78-.47-4.1-3.59-3.76-2.59.29-5.23-.03-7.84.07-2.49.1-4.15-1.41-5-3.25-.81-1.75-.44-3.94.93-5.6,4.02-4.82,8.1-9.59,12.13-14.41,6.15-7.35,12.41-14.62,18.37-22.13,4.88-6.14,8.92-5.97,14.2.52,7.52,9.26,15.31,18.3,22.97,27.44,2.53,3.02,5.14,5.97,7.53,9.1,2.28,2.99-.18,7.83-4.22,8.23-2.59.26-5.25.24-7.84.02-2.83-.24-3.79.54-3.75,3.6.18,14.21.1,28.42.07,42.63-.01,6.29-1.81,8.01-8.17,8.01-9.85,0-19.69.03-29.54-.01-4.8-.02-6.33-1.68-6.3-6.36.04-7.35,0-14.71,0-22.06Zm33.52,17.91l.05-.06c1.06-1.03.61-2.35.61-3.53.03-15.53.01-31.07,0-46.6,1.65-5.42,6.47-3.08,10.5-4.08-7.23-8.59-14.25-16.89-21.22-25.22-1.52-1.82-2.39-.71-3.41.51-4.07,4.87-8.26,9.63-12.2,14.59-2.65,3.33-5.96,6.16-8.01,10.16.65.13,1,.25,1.35.27,8.21.36,9.08,1.26,9.09,9.43.02,14.83.06,29.67.09,44.5,3.01,1.55,6.24.69,9.33.64,4.6-.07,9.27.87,13.82-.6Z"/>
      <path class="cls-5" d="m390.37,29.56c0,7.36.08,14.72-.05,22.07-.04,2.14.63,2.69,2.72,2.72,3.3.05,6.64-.63,9.92.58,3.85,1.42,5.3,4.92,2.82,8.07-3.89,4.92-8.02,9.65-12.1,14.42-6.28,7.35-12.6,14.67-18.93,21.98-1.05,1.22-1.5,2.69-2.86,3.93-3.34,3.06-5.56,1.64-7.77-.86-4.51-5.11-8.89-10.33-13.28-15.54-5.08-6.02-10.11-12.08-15.17-18.1-1.58-1.89-3.27-3.69-4.8-5.61-1.51-1.9-1.65-4.25-.9-6.33.74-2.02,3.01-2.4,4.93-2.54,2.73-.2,5.5-.24,8.22,0,2.63.22,3.32-.64,3.29-3.27-.13-14.84-.07-29.68-.06-44.52,0-5.32,1.09-6.44,6.53-6.47,9.85-.05,19.7.06,29.55-.07,2.18-.03,4.06.92,5.99,1.44,2.21.59,2.26,2.78,2.11,5.31-.47,7.58-.17,15.2-.17,22.81Zm-10.57-19.34c-6.48-.03-12.97.07-19.44-.15-2.87-.1-3.82.62-3.78,3.67.18,13.46-.16,26.93.16,40.39.2,8.48-1.68,11.73-10.22,10.64-.17-.02-.38.2-.6.32,7.02,8.43,14.02,16.87,21.07,25.28,1.88,2.24,3.28.28,4.02-.98,3.52-5.98,8.74-10.58,12.76-16.15,2.06-2.86,4.61-5.36,7.37-8.5-2.28,0-3.98-.07-5.67.02-2.78.14-4.24-1.03-4.19-3.89-.95-1.31-.75-2.83-.75-4.31,0-14.17.02-28.33-.03-42.5,0-1.28.6-2.76-.71-3.83Z"/>
    </g>
  </g>
</svg>