<?xml version="1.0" encoding="UTF-8"?>
<svg id="Layer_2" data-name="Layer 2" xmlns="http://www.w3.org/2000/svg" xmlns:xlink="http://www.w3.org/1999/xlink" viewBox="0 0 48 49.6">
  <defs>
    <style>
      .cls-1 {
        fill: #e9e9e9;
      }

      .cls-2 {
        fill: #f4f4f4;
      }

      .cls-3 {
        fill: #33d8dd;
      }

      .cls-4 {
        fill: #acc3d1;
      }

      .cls-5 {
        fill: #334a5e;
      }

      .cls-6 {
        clip-path: url(#clippath-2);
      }

      .cls-7 {
        fill: #020202;
      }

      .cls-8 {
        opacity: .2;
      }

      .cls-9 {
        fill: #529cd8;
      }

      .cls-10 {
        clip-path: url(#clippath-6);
      }

      .cls-11 {
        fill: #ffd15c;
      }

      .cls-12 {
        fill: #e0e0e0;
      }

      .cls-13 {
        opacity: .35;
      }

      .cls-14 {
        clip-path: url(#clippath-7);
      }

      .cls-15 {
        clip-path: url(#clippath-1);
      }

      .cls-16 {
        clip-path: url(#clippath-4);
      }

      .cls-17 {
        opacity: .11;
      }

      .cls-18 {
        fill: #d4d4d4;
      }

      .cls-19 {
        fill: #40596b;
      }

      .cls-20 {
        opacity: .47;
      }

      .cls-21 {
        fill: #ff7058;
      }

      .cls-22 {
        fill: #acb3ba;
      }

      .cls-23 {
        clip-path: url(#clippath);
      }

      .cls-24 {
        fill: none;
      }

      .cls-25 {
        clip-path: url(#clippath-3);
      }

      .cls-26 {
        fill: #b4b6bc;
      }

      .cls-27 {
        clip-path: url(#clippath-5);
      }

      .cls-28 {
        fill: #379add;
      }

      .cls-29 {
        fill: #f2f2f2;
      }
    </style>
    <clipPath id="clippath">
      <rect class="cls-24" width="48" height="48"/>
    </clipPath>
    <clipPath id="clippath-1">
      <path class="cls-29" d="m38.3,33.52h4.18c.57,0,1.03.46,1.03,1.03v2.29h-5.2v-3.31h0Z"/>
    </clipPath>
    <clipPath id="clippath-2">
      <path class="cls-1" d="m29.87,9.97l-3.7,1.49-7.01-5.6c-.08-.06-.08-.17-.02-.24h0c1.29-.38,1.93-.41,2.9-.34,1.04.07,2.05.44,2.89,1.06l4.95,3.64Z"/>
    </clipPath>
    <clipPath id="clippath-3">
      <path class="cls-2" d="m39.32,14.04c.05,1.02-.76,1.87-1.78,1.87h-16.24c-7.87-.59-10.83-6.32-10.83-11.57v-.05h1.74c.42,0,.8.24.98.62l3.48,4.56,15.51-.27c1.1-.02,2.18.26,3.13.82l3.13,2.57c.52.3.85.85.88,1.45h0Z"/>
    </clipPath>
    <clipPath id="clippath-4">
      <path class="cls-1" d="m29.57,13.91h-4.81s-7.01,5.61-7.01,5.61c-.08.06-.08.17-.02.24h0c1.29.38,1.93.41,2.9.34,1.04-.07,2.05-.44,2.89-1.06l6.05-5.13Z"/>
    </clipPath>
    <clipPath id="clippath-5">
      <rect class="cls-1" x="10.16" y="23.15" width="6.81" height="2.63" rx=".7" ry=".7"/>
    </clipPath>
    <clipPath id="clippath-6">
      <path class="cls-1" d="m18.7,42.54h-10.27l-3.34-8.46c-.09-.22.01-.47.23-.57l8.26-3.92,8.26,3.92c.21.1.31.35.23.57l-3.34,8.46Z"/>
    </clipPath>
    <clipPath id="clippath-7">
      <path class="cls-3" d="m20.65,43.71c-.55,0-1.03-.27-1.46-.51-.32-.18-.65-.36-.89-.36s-.57.19-.89.36c-.43.24-.92.51-1.46.51s-1.03-.27-1.46-.51c-.32-.18-.65-.36-.89-.36s-.57.19-.89.36c-.43.24-.92.51-1.46.51s-1.03-.27-1.46-.51c-.32-.18-.65-.36-.89-.36s-.57.19-.89.36c-.43.24-.92.51-1.46.51s-1.03-.27-1.46-.51c-.32-.18-.65-.36-.89-.36v-1.17c.55,0,1.03.27,1.46.51.32.18.65.36.89.36s.57-.19.89-.36c.43-.24.92-.51,1.46-.51s1.03.27,1.46.51c.32.18.65.36.89.36s.57-.19.89-.36c.43-.24.92-.51,1.46-.51s1.03.27,1.46.51c.32.18.65.36.89.36s.57-.19.89-.36c.43-.24.92-.51,1.46-.51s1.03.27,1.46.51c.32.18.65.36.89.36s.57-.19.89-.36c.43-.24.92-.51,1.46-.51v1.17c-.24,0-.57.19-.89.36-.43.24-.92.51-1.46.51Z"/>
    </clipPath>
  </defs>
  <g id="Layer_1-2" data-name="Layer 1">
    <g class="cls-23">
      <g>
        <g>
          <path class="cls-11" d="m25.15,30.26h11.16c.63,0,1.15.51,1.15,1.15v8.18h-13.46v-8.18c0-.63.51-1.15,1.15-1.15Z"/>
          <path class="cls-21" d="m37.46,32.55h5c.96,0,1.73.78,1.73,1.73v5.56h-6.73v-7.29h0Z"/>
          <path class="cls-5" d="m44.65,39.48v1.58h-20.65v-1.58h2.31c.48-.85,1.43-1.43,2.53-1.43s2.06.58,2.53,1.43h7.17c.48-.85,1.43-1.43,2.53-1.43s2.06.58,2.53,1.43h1.04Z"/>
          <g>
            <circle class="cls-19" cx="28.84" cy="40.91" r="2.09"/>
            <circle class="cls-22" cx="28.84" cy="40.91" r=".71"/>
          </g>
          <g>
            <circle class="cls-19" cx="41.18" cy="40.91" r="2.09"/>
            <circle class="cls-22" cx="41.18" cy="40.91" r=".71"/>
          </g>
          <g>
            <path class="cls-29" d="m38.3,33.52h4.18c.57,0,1.03.46,1.03,1.03v2.29h-5.2v-3.31h0Z"/>
            <g class="cls-15">
              <polygon class="cls-12" points="37.92 33.11 44.09 37.19 37.66 37.14 37.92 33.11"/>
            </g>
          </g>
        </g>
        <g>
          <g>
            <path class="cls-1" d="m29.87,9.97l-3.7,1.49-7.01-5.6c-.08-.06-.08-.17-.02-.24h0c1.29-.38,1.93-.41,2.9-.34,1.04.07,2.05.44,2.89,1.06l4.95,3.64Z"/>
            <g class="cls-6">
              <path class="cls-18" d="m23.3,8.05s2.49,2.01,2.49,2.01c-.91.04-2.01.31-2.93.35-.45.02-.92.04-1.32-.16-.4-.2-.67-.59-.85-.99s-.28-.84-.45-1.25c-.29-.73-.78-1.39-1.39-1.88-.39-.32-1.06-1.02-.29-1.36.52-.23.99.09,1.36.4,1.14.97,2.31,1.83,3.38,2.89Z"/>
            </g>
          </g>
          <g>
            <path class="cls-2" d="m39.32,14.04c.05,1.02-.76,1.87-1.78,1.87h-16.24c-7.87-.59-10.83-6.32-10.83-11.57v-.05h1.74c.42,0,.8.24.98.62l3.48,4.56,15.51-.27c1.1-.02,2.18.26,3.13.82l3.13,2.57c.52.3.85.85.88,1.45h0Z"/>
            <g class="cls-25">
              <path class="cls-28" d="m39.34,21.76H12.62v-7.99l25.65.64c.6.01,1.11-.44,1.16-1.04l.13-1.38-.22,9.77Z"/>
              <path class="cls-17" d="m10.47,3.33l1.78,4.58c.78,2.02,2.13,3.76,3.85,5.07,0,0,.02.02.03.02h0c1.28.98,2.5,1.39,4.11,1.43l18.77.7,2.17-.4s-.67,3.03-1.33,3.03-24.87,0-25.09-.07-4.66-3.11-4.88-3.26-2.22-4.81-2.15-5.7.37-2.66,1.18-3.26,1.55-2.15,1.55-2.15Z"/>
              <rect class="cls-13" x="33.57" y="11.1" width="8.29" height=".74" rx=".37" ry=".37"/>
            </g>
          </g>
          <circle class="cls-20" cx="20.61" cy="11.47" r=".37"/>
          <circle class="cls-20" cx="22.54" cy="11.47" r=".37"/>
          <g>
            <path class="cls-1" d="m29.57,13.91h-4.81s-7.01,5.61-7.01,5.61c-.08.06-.08.17-.02.24h0c1.29.38,1.93.41,2.9.34,1.04-.07,2.05-.44,2.89-1.06l6.05-5.13Z"/>
            <g class="cls-16">
              <path class="cls-18" d="m21.9,17.33s4.34-3.56,4.34-3.56c-.91-.04-3.01.04-3.92,0-.45-.02-1.77,1.16-2.17,1.37-.4.2-.67.59-.85.99s-.28.84-.45,1.25c-.29.73-.78,1.39-1.39,1.88-.39.32-1.06,1.02-.29,1.36.52.23.99-.09,1.36-.4,1.14-.97,2.31-1.83,3.38-2.89Z"/>
            </g>
          </g>
          <circle class="cls-20" cx="24.46" cy="11.47" r=".37"/>
          <circle class="cls-20" cx="26.39" cy="11.47" r=".37"/>
          <circle class="cls-20" cx="28.31" cy="11.47" r=".37"/>
          <circle class="cls-20" cx="30.24" cy="11.47" r=".37"/>
        </g>
        <g>
          <g>
            <rect class="cls-26" x="12.79" y="21.83" width="1.54" height="2.2" rx=".35" ry=".35"/>
            <g>
              <rect class="cls-1" x="10.16" y="23.15" width="6.81" height="2.63" rx=".7" ry=".7"/>
              <g class="cls-27">
                <g class="cls-8">
                  <rect class="cls-7" x="15.28" y="22.12" width="2.78" height="5.63"/>
                </g>
              </g>
            </g>
          </g>
          <path class="cls-9" d="m19.2,25.92c-.05-.43-.41-.76-.83-.76h-9.61c-.43,0-.79.32-.83.76l-1.61,8.47h14.49l-1.61-8.47Zm-7.76,1.39c0,.17-.14.31-.31.31h-1.72c-.17,0-.31-.14-.31-.31v-.7c0-.17.14-.31.31-.31h1.72c.17,0,.31.14.31.31v.7Zm3.29,0c0,.17-.14.31-.31.31h-1.72c-.17,0-.31-.14-.31-.31v-.7c0-.17.14-.31.31-.31h1.72c.17,0,.31.14.31.31v.7Zm3.29,0c0,.17-.14.31-.31.31h-1.72c-.17,0-.31-.14-.31-.31v-.7c0-.17.14-.31.31-.31h1.72c.17,0,.31.14.31.31v.7Z"/>
          <g>
            <g>
              <path class="cls-1" d="m18.7,42.54h-10.27l-3.34-8.46c-.09-.22.01-.47.23-.57l8.26-3.92,8.26,3.92c.21.1.31.35.23.57l-3.34,8.46Z"/>
              <g class="cls-10">
                <polygon class="cls-4" points="18.7 44.37 8.42 44.37 4.93 35.51 13.56 31.42 22.2 35.51 18.7 44.37"/>
                <g class="cls-8">
                  <rect class="cls-7" x="13.3" y="37.31" width="13.83" height="3.37" transform="translate(-23.47 43.52) rotate(-68.51)"/>
                </g>
              </g>
            </g>
            <g>
              <path class="cls-3" d="m20.65,43.71c-.55,0-1.03-.27-1.46-.51-.32-.18-.65-.36-.89-.36s-.57.19-.89.36c-.43.24-.92.51-1.46.51s-1.03-.27-1.46-.51c-.32-.18-.65-.36-.89-.36s-.57.19-.89.36c-.43.24-.92.51-1.46.51s-1.03-.27-1.46-.51c-.32-.18-.65-.36-.89-.36s-.57.19-.89.36c-.43.24-.92.51-1.46.51s-1.03-.27-1.46-.51c-.32-.18-.65-.36-.89-.36v-1.17c.55,0,1.03.27,1.46.51.32.18.65.36.89.36s.57-.19.89-.36c.43-.24.92-.51,1.46-.51s1.03.27,1.46.51c.32.18.65.36.89.36s.57-.19.89-.36c.43-.24.92-.51,1.46-.51s1.03.27,1.46.51c.32.18.65.36.89.36s.57-.19.89-.36c.43-.24.92-.51,1.46-.51s1.03.27,1.46.51c.32.18.65.36.89.36s.57-.19.89-.36c.43-.24.92-.51,1.46-.51v1.17c-.24,0-.57.19-.89.36-.43.24-.92.51-1.46.51Z"/>
              <g class="cls-14">
                <g class="cls-8">
                  <rect class="cls-7" x="21.72" y="35.77" width="3.37" height="13.83"/>
                </g>
              </g>
            </g>
          </g>
        </g>
      </g>
    </g>
  </g>
</svg>