<?xml version="1.0" encoding="UTF-8"?>
<svg id="Layer_1" data-name="Layer 1" xmlns="http://www.w3.org/2000/svg" viewBox="0 0 471.18 511.81">
  <defs>
    <style>
      .cls-1 {
        fill: #fff;
      }

      .cls-2 {
        fill: #7681bb;
      }

      .cls-3 {
        fill: #0197fa;
      }

      .cls-4 {
        fill: #ff6773;
      }

      .cls-5 {
        fill: #f92f41;
      }

      .cls-6 {
        fill: #65bafc;
      }

      .cls-7 {
        fill: #0297f9;
      }

      .cls-8 {
        fill: #ff6672;
      }

      .cls-9 {
        fill: #0097fa;
      }
    </style>
  </defs>
  <path class="cls-8" d="m393.11,405.61c-3.82,0-7.63,0-11.45,0-65.58,0-131.16.04-196.74-.1-4.28,0-5.64.9-5.61,5.43.21,30.63.1,61.25.1,91.88-1.32,4.11-3.63,7.22-8.18,8.03-.86-.02-1.64.13-2.1.96h-2c-.33-.69-.67-.69-1,0h-3c-.28-.76-.48-1.57-.85-2.29-3.15-6.07-8.82-9.81-13.44-14.52-30.42-31.01-61.59-61.27-91.86-92.44-16.09-16.57-32.87-32.53-49.34-48.75-1.54-1.51-2.89-3.32-5.44-2.94-2.92-4.66-2.93-9.33,0-13.99,2.33.4,3.64-1.14,5.07-2.57,28.46-28.48,56.92-56.95,85.4-85.4,1.44-1.44,2.91-2.79,2.44-5.11,4.39-4.62,8.79-9.25,13.18-13.87,2.05-1.11,3.77-2.6,5.42-4.25,15.25-15.31,30.59-30.54,45.8-45.89,4-4.04,8.38-4.64,13.39-2.5,4.68,2,6.53,5.82,6.59,10.67.06,5.15-.09,10.31.05,15.46.24,8.78-.7,17.59.53,26.35-.21,15.27-.46,30.54-.62,45.82-.07,6.61.02,6.61,6.48,6.62,30.4.06,60.81.12,91.21.18-.02,13.82-.05,27.64-.05,41.46,0,11.49,6.28,20.98,16.78,25.41,9.95,4.2,21.36,1.87,29.45-6.17,18.64-18.53,37.24-37.1,55.32-56.19,1.39-1.47,2.28-2.72,1.32-4.69,3.73-.54,7.46,1.49,11.19.03,7.73,4.46,8.09,11.64,8,19.56-.3,26.78-.1,53.56-.12,80.34,0,8.14,1.66,16.75-5.87,22.99-.09.07-.03.32-.04.49Z"/>
  <path class="cls-9" d="m311.2,2c.39,1.77,1.97,2.59,3.1,3.72,49.71,49.76,99.44,99.49,149.19,149.2,1.64,1.64,3.44,3.11,5.17,4.66,1.47,2.23,2.62,4.58,2.51,7.36v2c.24,3.78-1.88,6.45-4.24,9-.3.27-.6.54-.91.8-4.4,4.28-8.85,8.51-13.19,12.86-29.15,29.18-58.28,58.39-87.4,87.6-.81.82-1.54,1.72-2.3,2.59-14.04,13.89-27.96,27.91-42.19,41.6-4.3,4.13-7.37,9.9-13.81,11.51-.68.26-1.36.53-2.04.79l-3.05-.04c-.32-.46-.64-.45-.95.01-5.08-1.32-8.16-4.63-8.94-9.74-.39-2.59,0-5.3.05-7.96.25-.07.5-.11.76-.12,3.04.53,4.46-1.82,6.18-3.54,46.77-46.75,93.53-93.51,140.29-140.27.82-.82,1.67-1.63,2.45-2.49,2.37-2.63,2.51-4.84-.3-7.64-47.89-47.75-95.7-95.58-143.49-143.43-1.62-1.62-3.25-2.83-5.65-2.48-1.39-7.67.11-14.11,7.64-17.99,3.33,0,6.66,0,10,0,.38.67.76,1.33,1.14,2Z"/>
  <path class="cls-4" d="m2.19,350.87c2.55-.38,3.91,1.43,5.44,2.94,16.48,16.22,33.26,32.18,49.34,48.75,30.27,31.17,61.44,61.43,91.86,92.44,4.62,4.71,10.29,8.45,13.44,14.52.37.72.57,1.52.85,2.29h-3c.55-2.84-1.66-4.14-3.26-5.74-50.24-50.26-100.49-100.5-150.73-150.77-1.4-1.4-2.64-2.95-3.95-4.44Z"/>
  <path class="cls-4" d="m171.22,510.85c-.1.31-.14.63-.11.96h-2c.47-.83,1.25-.98,2.1-.96Z"/>
  <path class="cls-4" d="m166.12,511.81c.33-.69.67-.69,1,0h-1Z"/>
  <path class="cls-6" d="m89.3,229.61c-10.44-.08-20.89.52-31.32-.34-.97-.09-1.94-.18-2.91-.27-4.66-3.04-6.84-7.36-6.84-12.91.02-32.65-.02-65.3.03-97.96,0-6.68,4.91-11.13,11.57-11.27,73.76-1.65,147.53-.23,221.29-.71,1.33,0,2.67-.05,4,.01q7.14.33,7.14-6.74c0-24.32-.01-48.64.02-72.97,0-1.94-.54-4.03.86-5.78,2.18.36,3.27,2.19,4.66,3.57,46.62,46.59,93.18,93.24,139.92,139.72,3.43,3.41,2.85,5.07-.21,8.11-46.93,46.75-93.74,93.62-140.59,140.46-1.17,1.17-2.42,2.27-3.64,3.41-.25-.1-.52-.15-.79-.15-.13-11.24-.26-22.47-.39-33.71.05-15.64-.05-31.29.26-46.93.09-4.39-1.1-5.61-5.54-5.58-28.46.21-56.93.12-85.39.08-1.77,0-3.68.57-5.31-.68-1.14-1.79-1.02-3.79-1.02-5.79.01-11.98.11-23.96-.03-35.94-.18-15.01-11.81-25.92-26.77-26.43-10.5-.36-17.59,5.36-24.24,11.85-16.9,16.51-33.48,33.35-50.19,50.06-1.99,1.99-3.86,4.05-4.56,6.89Z"/>
  <path class="cls-7" d="m89.3,229.61c.7-2.84,2.57-4.9,4.56-6.89,16.71-16.7,33.29-33.55,50.19-50.06,6.65-6.49,13.74-12.21,24.24-11.85,14.96.51,26.59,11.42,26.77,26.43.14,11.98.04,23.96.03,35.94,0,2-.12,4,1.02,5.79-5.28,1.58-10.71.3-16.05.8-1.23-8.76-.3-17.57-.53-26.35-.14-5.15,0-10.31-.05-15.46-.05-4.85-1.91-8.67-6.59-10.67-5-2.14-9.38-1.54-13.39,2.5-15.21,15.35-30.55,30.58-45.8,45.89-1.65,1.65-3.37,3.14-5.42,4.25-6.33-.11-12.66-.22-18.99-.32Z"/>
  <path class="cls-3" d="m293.28,315.94c1.21-1.13,2.46-2.23,3.63-3.41,46.85-46.84,93.66-93.7,140.59-140.46,3.06-3.05,3.64-4.7.21-8.11-46.73-46.48-93.29-93.13-139.92-139.72-1.38-1.38-2.47-3.21-4.66-3.57-.23-.9-.47-1.8-.71-2.69,2.4-.35,4.03.85,5.65,2.48,47.79,47.85,95.59,95.68,143.49,143.43,2.81,2.8,2.67,5.01.3,7.64-.78.87-1.63,1.67-2.45,2.49-46.76,46.76-93.51,93.52-140.29,140.27-1.72,1.72-3.14,4.07-6.18,3.54.11-.63.21-1.27.32-1.9Z"/>
  <path class="cls-4" d="m95.11,243.8c.47,2.32-1,3.67-2.44,5.11-28.48,28.46-56.95,56.92-85.4,85.4-1.43,1.43-2.74,2.97-5.07,2.57.72-.89,1.37-1.86,2.17-2.67,29.6-29.62,59.22-59.24,88.84-88.84.58-.58,1.26-1.05,1.9-1.57Z"/>
  <path class="cls-5" d="m393.11,405.61c.01-.17-.05-.41.04-.49,7.53-6.24,5.86-14.84,5.87-22.99.02-26.78-.18-53.56.12-80.34.09-7.92-.27-15.1-8-19.56,6.81-.05,13.63-.28,20.43-.09,7.52.21,12.31,5.15,12.32,12.74.07,31.91.07,63.82-.01,95.73-.01,4.09-1.05,8.04-3.85,11.29-.58.03-.93.27-.82.92-2.78,2.47-6.13,2.95-9.68,2.9-5.48-.07-10.95-.08-16.43-.12Z"/>
  <path class="cls-5" d="m292.09,282.08c.13,11.24.26,22.47.39,33.71-.1.72-.19,1.45-.29,2.17-.04,2.66-.44,5.37-.05,7.96.77,5.11,3.86,8.42,8.94,9.74,0,0,.48.1.48.1l.47-.11,3.05.04c.86.19,1.64.18,2.04-.79,6.44-1.61,9.51-7.38,13.81-11.51,14.23-13.69,28.15-27.71,42.19-41.6,5.61.14,11.21.27,16.82.41.96,1.96.07,3.22-1.32,4.69-18.07,19.09-36.67,37.66-55.32,56.19-8.09,8.04-19.5,10.36-29.45,6.17-10.5-4.43-16.78-13.91-16.78-25.41,0-13.82.03-27.64.05-41.46,4.99-.1,9.98-.2,14.96-.29Z"/>
  <path class="cls-7" d="m466.93,177.94l.03.98c-.33.02-.64-.04-.94-.17.3-.27.6-.54.91-.8Z"/>
  <path class="cls-1" d="m419.21,402.82c-.11-.65.24-.89.82-.92-.27.31-.55.61-.82.92Z"/>
  <path class="cls-2" d="m292.2,317.96c.1-.72.19-1.45.29-2.17.27,0,.54.04.79.15-.11.63-.21,1.27-.32,1.9-.26.02-.51.06-.76.12Z"/>
  <path class="cls-7" d="m307.13,334.9c-.41.97-1.19.98-2.04.79.68-.26,1.36-.53,2.04-.79Z"/>
  <path class="cls-7" d="m302.04,335.65l-.47.11s-.48-.1-.48-.1c.31-.46.63-.47.95-.01Z"/>
</svg>